%TF.GenerationSoftware,KiCad,Pcbnew,10.0.3*%
%TF.CreationDate,2026-06-11T17:49:32-06:00*%
%TF.ProjectId,picowy,7069636f-7779-42e6-9b69-6361645f7063,01*%
%TF.SameCoordinates,Original*%
%TF.FileFunction,Other,Comment*%
%FSLAX46Y46*%
G04 Gerber Fmt 4.6, Leading zero omitted, Abs format (unit mm)*
G04 Created by KiCad (PCBNEW 10.0.3) date 2026-06-11 17:49:32*
%MOMM*%
%LPD*%
G01*
G04 APERTURE LIST*
%ADD10C,0.150000*%
%ADD11C,0.070000*%
G04 APERTURE END LIST*
D10*
X147976190Y-99774580D02*
X147928571Y-99822200D01*
X147928571Y-99822200D02*
X147785714Y-99869819D01*
X147785714Y-99869819D02*
X147690476Y-99869819D01*
X147690476Y-99869819D02*
X147547619Y-99822200D01*
X147547619Y-99822200D02*
X147452381Y-99726961D01*
X147452381Y-99726961D02*
X147404762Y-99631723D01*
X147404762Y-99631723D02*
X147357143Y-99441247D01*
X147357143Y-99441247D02*
X147357143Y-99298390D01*
X147357143Y-99298390D02*
X147404762Y-99107914D01*
X147404762Y-99107914D02*
X147452381Y-99012676D01*
X147452381Y-99012676D02*
X147547619Y-98917438D01*
X147547619Y-98917438D02*
X147690476Y-98869819D01*
X147690476Y-98869819D02*
X147785714Y-98869819D01*
X147785714Y-98869819D02*
X147928571Y-98917438D01*
X147928571Y-98917438D02*
X147976190Y-98965057D01*
X148404762Y-98869819D02*
X148404762Y-99679342D01*
X148404762Y-99679342D02*
X148452381Y-99774580D01*
X148452381Y-99774580D02*
X148500000Y-99822200D01*
X148500000Y-99822200D02*
X148595238Y-99869819D01*
X148595238Y-99869819D02*
X148785714Y-99869819D01*
X148785714Y-99869819D02*
X148880952Y-99822200D01*
X148880952Y-99822200D02*
X148928571Y-99774580D01*
X148928571Y-99774580D02*
X148976190Y-99679342D01*
X148976190Y-99679342D02*
X148976190Y-98869819D01*
X149309524Y-98869819D02*
X149880952Y-98869819D01*
X149595238Y-99869819D02*
X149595238Y-98869819D01*
X150404762Y-98869819D02*
X150595238Y-98869819D01*
X150595238Y-98869819D02*
X150690476Y-98917438D01*
X150690476Y-98917438D02*
X150785714Y-99012676D01*
X150785714Y-99012676D02*
X150833333Y-99203152D01*
X150833333Y-99203152D02*
X150833333Y-99536485D01*
X150833333Y-99536485D02*
X150785714Y-99726961D01*
X150785714Y-99726961D02*
X150690476Y-99822200D01*
X150690476Y-99822200D02*
X150595238Y-99869819D01*
X150595238Y-99869819D02*
X150404762Y-99869819D01*
X150404762Y-99869819D02*
X150309524Y-99822200D01*
X150309524Y-99822200D02*
X150214286Y-99726961D01*
X150214286Y-99726961D02*
X150166667Y-99536485D01*
X150166667Y-99536485D02*
X150166667Y-99203152D01*
X150166667Y-99203152D02*
X150214286Y-99012676D01*
X150214286Y-99012676D02*
X150309524Y-98917438D01*
X150309524Y-98917438D02*
X150404762Y-98869819D01*
X151261905Y-98869819D02*
X151261905Y-99679342D01*
X151261905Y-99679342D02*
X151309524Y-99774580D01*
X151309524Y-99774580D02*
X151357143Y-99822200D01*
X151357143Y-99822200D02*
X151452381Y-99869819D01*
X151452381Y-99869819D02*
X151642857Y-99869819D01*
X151642857Y-99869819D02*
X151738095Y-99822200D01*
X151738095Y-99822200D02*
X151785714Y-99774580D01*
X151785714Y-99774580D02*
X151833333Y-99679342D01*
X151833333Y-99679342D02*
X151833333Y-98869819D01*
X152166667Y-98869819D02*
X152738095Y-98869819D01*
X152452381Y-99869819D02*
X152452381Y-98869819D01*
D11*
X148721904Y-66931407D02*
X148721904Y-66531407D01*
X148950475Y-66931407D02*
X148779046Y-66702836D01*
X148950475Y-66531407D02*
X148721904Y-66759979D01*
X149121904Y-66721883D02*
X149255237Y-66721883D01*
X149312380Y-66931407D02*
X149121904Y-66931407D01*
X149121904Y-66931407D02*
X149121904Y-66531407D01*
X149121904Y-66531407D02*
X149312380Y-66531407D01*
X149483809Y-66721883D02*
X149617142Y-66721883D01*
X149674285Y-66931407D02*
X149483809Y-66931407D01*
X149483809Y-66931407D02*
X149483809Y-66531407D01*
X149483809Y-66531407D02*
X149674285Y-66531407D01*
X149845714Y-66931407D02*
X149845714Y-66531407D01*
X149845714Y-66531407D02*
X149998095Y-66531407D01*
X149998095Y-66531407D02*
X150036190Y-66550455D01*
X150036190Y-66550455D02*
X150055237Y-66569502D01*
X150055237Y-66569502D02*
X150074285Y-66607598D01*
X150074285Y-66607598D02*
X150074285Y-66664740D01*
X150074285Y-66664740D02*
X150055237Y-66702836D01*
X150055237Y-66702836D02*
X150036190Y-66721883D01*
X150036190Y-66721883D02*
X149998095Y-66740931D01*
X149998095Y-66740931D02*
X149845714Y-66740931D01*
X150321904Y-66531407D02*
X150398095Y-66531407D01*
X150398095Y-66531407D02*
X150436190Y-66550455D01*
X150436190Y-66550455D02*
X150474285Y-66588550D01*
X150474285Y-66588550D02*
X150493333Y-66664740D01*
X150493333Y-66664740D02*
X150493333Y-66798074D01*
X150493333Y-66798074D02*
X150474285Y-66874264D01*
X150474285Y-66874264D02*
X150436190Y-66912360D01*
X150436190Y-66912360D02*
X150398095Y-66931407D01*
X150398095Y-66931407D02*
X150321904Y-66931407D01*
X150321904Y-66931407D02*
X150283809Y-66912360D01*
X150283809Y-66912360D02*
X150245714Y-66874264D01*
X150245714Y-66874264D02*
X150226666Y-66798074D01*
X150226666Y-66798074D02*
X150226666Y-66664740D01*
X150226666Y-66664740D02*
X150245714Y-66588550D01*
X150245714Y-66588550D02*
X150283809Y-66550455D01*
X150283809Y-66550455D02*
X150321904Y-66531407D01*
X150664762Y-66531407D02*
X150664762Y-66855217D01*
X150664762Y-66855217D02*
X150683809Y-66893312D01*
X150683809Y-66893312D02*
X150702857Y-66912360D01*
X150702857Y-66912360D02*
X150740952Y-66931407D01*
X150740952Y-66931407D02*
X150817143Y-66931407D01*
X150817143Y-66931407D02*
X150855238Y-66912360D01*
X150855238Y-66912360D02*
X150874285Y-66893312D01*
X150874285Y-66893312D02*
X150893333Y-66855217D01*
X150893333Y-66855217D02*
X150893333Y-66531407D01*
X151026667Y-66531407D02*
X151255238Y-66531407D01*
X151140952Y-66931407D02*
X151140952Y-66531407D01*
M02*
