%TF.GenerationSoftware,KiCad,Pcbnew,10.0.3*%
%TF.CreationDate,2026-06-11T17:49:32-06:00*%
%TF.ProjectId,picowy,7069636f-7779-42e6-9b69-6361645f7063,01*%
%TF.SameCoordinates,Original*%
%TF.FileFunction,Copper,L3,Inr*%
%TF.FilePolarity,Positive*%
%FSLAX46Y46*%
G04 Gerber Fmt 4.6, Leading zero omitted, Abs format (unit mm)*
G04 Created by KiCad (PCBNEW 10.0.3) date 2026-06-11 17:49:32*
%MOMM*%
%LPD*%
G01*
G04 APERTURE LIST*
%TA.AperFunction,HeatsinkPad*%
%ADD10C,0.500000*%
%TD*%
%TA.AperFunction,ComponentPad*%
%ADD11O,1.009600X1.651000*%
%TD*%
%TA.AperFunction,ComponentPad*%
%ADD12O,1.092200X2.057400*%
%TD*%
%TA.AperFunction,ViaPad*%
%ADD13C,0.700000*%
%TD*%
G04 APERTURE END LIST*
D10*
%TO.N,GND*%
%TO.C,U12*%
X147325000Y-78250000D03*
X146350000Y-78975000D03*
X146350000Y-78250000D03*
X146350000Y-77525000D03*
X145375000Y-78250000D03*
%TD*%
D11*
%TO.N,GND*%
%TO.C,J3*%
X145480000Y-122600300D03*
D12*
X145480000Y-125600300D03*
D11*
X154520000Y-122600300D03*
D12*
X154520000Y-125600300D03*
%TD*%
D13*
%TO.N,+BATT*%
X146050000Y-75800000D03*
X142300000Y-75250000D03*
%TO.N,GND*%
X165800000Y-79200000D03*
X150750000Y-75300000D03*
X165300000Y-116250000D03*
X132650000Y-90600000D03*
X137250000Y-107350000D03*
X159150000Y-119750000D03*
X141650000Y-77900000D03*
X161850000Y-101500000D03*
X133050000Y-105000000D03*
X143950000Y-72800000D03*
X169850000Y-80200000D03*
X163400000Y-100000000D03*
X134650000Y-82700000D03*
X163350000Y-115050000D03*
X137050000Y-72700000D03*
X142250000Y-67700000D03*
X130200000Y-98550500D03*
X146450000Y-66750000D03*
X130250000Y-94850000D03*
X161850000Y-109050000D03*
X168600000Y-95800000D03*
X137950000Y-116650000D03*
X168500000Y-75550000D03*
X160150000Y-123250000D03*
X138750000Y-100650000D03*
X124500000Y-91200000D03*
X163250000Y-86150000D03*
X161750000Y-86100000D03*
X160250000Y-86100000D03*
X161850000Y-104500000D03*
X137250000Y-100600000D03*
X133650000Y-96350000D03*
X136300000Y-97850000D03*
X169500000Y-98550000D03*
X164750000Y-86100000D03*
X146750000Y-123750000D03*
X127750000Y-114000000D03*
X153250000Y-123800000D03*
X163449265Y-91750000D03*
X146400000Y-70800000D03*
X160150000Y-97000000D03*
X160100000Y-95550000D03*
X138750000Y-107350000D03*
X161950000Y-93250000D03*
X167350000Y-110750000D03*
X165650000Y-107500000D03*
X149550000Y-78150000D03*
X129900000Y-77350000D03*
X168400000Y-77100000D03*
X161850000Y-103000000D03*
X138850000Y-70900000D03*
X147050000Y-74900000D03*
X143750000Y-66600000D03*
X167800000Y-102750000D03*
X126750000Y-94650000D03*
X161850000Y-107550000D03*
X127600000Y-101800000D03*
X161150000Y-89750000D03*
X135253231Y-74391385D03*
X139100000Y-123300000D03*
X143500000Y-125600000D03*
X132650000Y-88100000D03*
X133650000Y-83900000D03*
X138550000Y-120500000D03*
X132650000Y-89350000D03*
X163650000Y-74350000D03*
%TO.N,+3V3*%
X166300000Y-86100000D03*
X152600000Y-75900000D03*
X145750000Y-64150000D03*
X134650000Y-87050000D03*
X155500000Y-70600000D03*
X136950000Y-86000000D03*
X166000000Y-73600000D03*
X131500000Y-83250000D03*
X158100000Y-66050000D03*
X161250000Y-68750000D03*
X158300000Y-70750000D03*
X131500000Y-82250000D03*
X128700000Y-78950000D03*
X155300000Y-74950000D03*
X129250000Y-85000000D03*
X161400000Y-74300000D03*
X131150000Y-75200000D03*
X168050000Y-117400000D03*
X163900000Y-96950000D03*
X164250000Y-95150000D03*
X167750000Y-103700000D03*
X145750000Y-63150000D03*
X152850000Y-78350000D03*
X153500000Y-65850000D03*
X128750000Y-85750000D03*
%TO.N,VBUS*%
X157000000Y-123000000D03*
X143450000Y-120500000D03*
X139250000Y-91100000D03*
X139700000Y-73750000D03*
X157000000Y-125750000D03*
%TO.N,MCU.MOSI*%
X160400000Y-90650000D03*
X169000000Y-79350000D03*
X168300000Y-98550000D03*
%TO.N,FT_3V3*%
X123650000Y-100750000D03*
X137750000Y-94150000D03*
X130100000Y-108350000D03*
X131850000Y-108350000D03*
X136800000Y-110350000D03*
X130950000Y-108350000D03*
X131800000Y-94850000D03*
X136350000Y-94100000D03*
X125500000Y-94650000D03*
X134400000Y-93650000D03*
X136800000Y-109400000D03*
X136800000Y-111300000D03*
X123600000Y-99250000D03*
%TO.N,PGOOD*%
X132900000Y-85850000D03*
X152900000Y-74250000D03*
%TO.N,GPOUT*%
X142800000Y-78100000D03*
X161700000Y-80100000D03*
%TO.N,BOOT0*%
X160250000Y-82300000D03*
X138750000Y-81900000D03*
%TO.N,MCU.MISO*%
X165950000Y-80300000D03*
X161850000Y-90650000D03*
%TO.N,NRST*%
X163250000Y-82450000D03*
X139300000Y-80900000D03*
X164150000Y-72700000D03*
%TO.N,MCU.TX*%
X164250000Y-75550000D03*
X128150000Y-100550000D03*
%TO.N,MCU.RX*%
X128900000Y-101300000D03*
X163100000Y-75500000D03*
%TD*%
%TA.AperFunction,Conductor*%
%TO.N,GND*%
G36*
X153919424Y-62510812D02*
G01*
X154928858Y-62950425D01*
X154932402Y-62952036D01*
X156023132Y-63469422D01*
X156026680Y-63471177D01*
X156723793Y-63830048D01*
X157089176Y-64018147D01*
X157092758Y-64020066D01*
X158127677Y-64596497D01*
X158131218Y-64598547D01*
X158529934Y-64838194D01*
X159139142Y-65204357D01*
X159142597Y-65206512D01*
X160124207Y-65841770D01*
X160127635Y-65844070D01*
X161083302Y-66508733D01*
X161086616Y-66511121D01*
X161848357Y-67079585D01*
X162016895Y-67205360D01*
X162020177Y-67207896D01*
X162925355Y-67931773D01*
X162928549Y-67934416D01*
X162930663Y-67936226D01*
X163809014Y-68688155D01*
X163812114Y-68690900D01*
X164668125Y-69474714D01*
X164671122Y-69477552D01*
X165502923Y-70291730D01*
X165505809Y-70294649D01*
X165717664Y-70516233D01*
X166313483Y-71139412D01*
X166316253Y-71142406D01*
X167099919Y-72018098D01*
X167102546Y-72021132D01*
X167601014Y-72616232D01*
X167862155Y-72927998D01*
X167864690Y-72931126D01*
X168600165Y-73869457D01*
X168602575Y-73872636D01*
X169313764Y-74842697D01*
X169316047Y-74845918D01*
X170002688Y-75847902D01*
X170004844Y-75851156D01*
X170454453Y-76553698D01*
X170666688Y-76885329D01*
X170666711Y-76885364D01*
X170668731Y-76888632D01*
X171014209Y-77467351D01*
X171305338Y-77955030D01*
X171307239Y-77958329D01*
X171918145Y-79056971D01*
X171919921Y-79060281D01*
X172504558Y-80191020D01*
X172506210Y-80194335D01*
X173063932Y-81356867D01*
X173065435Y-81360123D01*
X173571564Y-82500000D01*
X173595533Y-82553982D01*
X173596945Y-82557291D01*
X174098557Y-83781579D01*
X174099853Y-83784876D01*
X174147223Y-83910626D01*
X174572071Y-85038441D01*
X174573257Y-85041728D01*
X175015102Y-86323017D01*
X175016180Y-86326291D01*
X175426513Y-87632956D01*
X175427487Y-87636215D01*
X175805127Y-88965268D01*
X175806001Y-88968512D01*
X176132123Y-90247137D01*
X176149650Y-90315853D01*
X176150429Y-90319086D01*
X176254885Y-90779947D01*
X176458693Y-91679149D01*
X176459380Y-91682381D01*
X176730720Y-93047266D01*
X176731319Y-93050503D01*
X176964160Y-94409458D01*
X176964674Y-94412715D01*
X177157316Y-95749738D01*
X177157746Y-95753040D01*
X177308459Y-97043680D01*
X177308807Y-97047064D01*
X177415968Y-98250560D01*
X177416232Y-98254095D01*
X177478798Y-99291713D01*
X177478971Y-99295600D01*
X177499332Y-100001435D01*
X177499362Y-100007327D01*
X177480358Y-101024706D01*
X177480185Y-101029335D01*
X177422918Y-102050278D01*
X177422573Y-102054896D01*
X177327214Y-103073027D01*
X177326696Y-103077630D01*
X177193379Y-104091484D01*
X177192689Y-104096064D01*
X177021607Y-105104198D01*
X177020747Y-105108750D01*
X176812131Y-106109806D01*
X176811102Y-106114322D01*
X176565236Y-107106922D01*
X176564038Y-107111396D01*
X176281283Y-108094088D01*
X176279919Y-108098515D01*
X175960664Y-109069950D01*
X175959136Y-109074322D01*
X175603817Y-110033176D01*
X175602127Y-110037488D01*
X175211251Y-110982391D01*
X175209401Y-110986638D01*
X174783503Y-111916295D01*
X174781496Y-111920469D01*
X174321170Y-112833581D01*
X174319008Y-112837677D01*
X173824906Y-113732952D01*
X173822592Y-113736965D01*
X173295398Y-114613162D01*
X173292937Y-114617085D01*
X172733406Y-115472956D01*
X172730799Y-115476785D01*
X172139669Y-116311198D01*
X172136921Y-116314927D01*
X171515057Y-117126658D01*
X171512172Y-117130282D01*
X170860415Y-117918235D01*
X170857397Y-117921748D01*
X170176675Y-118684803D01*
X170173528Y-118688201D01*
X169464762Y-119425324D01*
X169461489Y-119428602D01*
X168725729Y-120138699D01*
X168722337Y-120141853D01*
X167960537Y-120824006D01*
X167957029Y-120827031D01*
X167170304Y-121480241D01*
X167166686Y-121483133D01*
X166356095Y-122106521D01*
X166352372Y-122109275D01*
X165519071Y-122701951D01*
X165515246Y-122704565D01*
X164660413Y-123265691D01*
X164656495Y-123268160D01*
X163781268Y-123796990D01*
X163777259Y-123799311D01*
X162882905Y-124295079D01*
X162878813Y-124297248D01*
X161966591Y-124759256D01*
X161962420Y-124761272D01*
X161033556Y-125188901D01*
X161029314Y-125190759D01*
X160085111Y-125583406D01*
X160080801Y-125585104D01*
X159122629Y-125942200D01*
X159118260Y-125943736D01*
X158147405Y-126264804D01*
X158142980Y-126266176D01*
X157892770Y-126338674D01*
X157822901Y-126338425D01*
X157764258Y-126300440D01*
X157735461Y-126236781D01*
X157745651Y-126167659D01*
X157750910Y-126158270D01*
X157750834Y-126158230D01*
X157753697Y-126152870D01*
X157753703Y-126152863D01*
X157817816Y-125998082D01*
X157850500Y-125833767D01*
X157850500Y-125666233D01*
X157817816Y-125501918D01*
X157753703Y-125347137D01*
X157722537Y-125300494D01*
X157660626Y-125207837D01*
X157542162Y-125089373D01*
X157402860Y-124996295D01*
X157248082Y-124932184D01*
X157248074Y-124932182D01*
X157083771Y-124899500D01*
X157083767Y-124899500D01*
X156916233Y-124899500D01*
X156916228Y-124899500D01*
X156751925Y-124932182D01*
X156751917Y-124932184D01*
X156597139Y-124996295D01*
X156457837Y-125089373D01*
X156339373Y-125207837D01*
X156246295Y-125347139D01*
X156182184Y-125501917D01*
X156182182Y-125501925D01*
X156149500Y-125666228D01*
X156149500Y-125833771D01*
X156182182Y-125998074D01*
X156182184Y-125998082D01*
X156246295Y-126152860D01*
X156339373Y-126292162D01*
X156457834Y-126410623D01*
X156457842Y-126410629D01*
X156568999Y-126484902D01*
X156613805Y-126538514D01*
X156622512Y-126607839D01*
X156592358Y-126670866D01*
X156532915Y-126707586D01*
X156530147Y-126708311D01*
X156164228Y-126799672D01*
X156159714Y-126800710D01*
X155454528Y-126949038D01*
X155384872Y-126943574D01*
X155329228Y-126901318D01*
X155305262Y-126835688D01*
X155320583Y-126767518D01*
X155329205Y-126754835D01*
X155329175Y-126754815D01*
X155447038Y-126578420D01*
X155447045Y-126578407D01*
X155525897Y-126388040D01*
X155525900Y-126388028D01*
X155566099Y-126185936D01*
X155566100Y-126185934D01*
X155566100Y-125850300D01*
X154824800Y-125850300D01*
X154824800Y-125350300D01*
X155566100Y-125350300D01*
X155566100Y-125014665D01*
X155566099Y-125014663D01*
X155525900Y-124812571D01*
X155525897Y-124812559D01*
X155447045Y-124622192D01*
X155447038Y-124622179D01*
X155332559Y-124450850D01*
X155332556Y-124450846D01*
X155186853Y-124305143D01*
X155186849Y-124305140D01*
X155015520Y-124190661D01*
X155015510Y-124190656D01*
X154847789Y-124121183D01*
X154770000Y-124121768D01*
X154770000Y-124953812D01*
X154763901Y-124943248D01*
X154707152Y-124886499D01*
X154637648Y-124846372D01*
X154560128Y-124825600D01*
X154479872Y-124825600D01*
X154402352Y-124846372D01*
X154332848Y-124886499D01*
X154276099Y-124943248D01*
X154270000Y-124953812D01*
X154270000Y-124121768D01*
X154192209Y-124121183D01*
X154024489Y-124190656D01*
X154024479Y-124190661D01*
X153853150Y-124305140D01*
X153853146Y-124305143D01*
X153707443Y-124450846D01*
X153707440Y-124450850D01*
X153592961Y-124622179D01*
X153592954Y-124622192D01*
X153514102Y-124812559D01*
X153514099Y-124812571D01*
X153473900Y-125014663D01*
X153473900Y-125350300D01*
X154215200Y-125350300D01*
X154215200Y-125850300D01*
X153473900Y-125850300D01*
X153473900Y-126185936D01*
X153514099Y-126388028D01*
X153514102Y-126388040D01*
X153592954Y-126578407D01*
X153592961Y-126578420D01*
X153707440Y-126749749D01*
X153707443Y-126749753D01*
X153748798Y-126791108D01*
X153782283Y-126852431D01*
X153777299Y-126922123D01*
X153735427Y-126978056D01*
X153669963Y-127002473D01*
X153661117Y-127002789D01*
X146338883Y-127002789D01*
X146271844Y-126983104D01*
X146226089Y-126930300D01*
X146216145Y-126861142D01*
X146245170Y-126797586D01*
X146251202Y-126791108D01*
X146292556Y-126749753D01*
X146292559Y-126749749D01*
X146407038Y-126578420D01*
X146407045Y-126578407D01*
X146485897Y-126388040D01*
X146485900Y-126388028D01*
X146526099Y-126185936D01*
X146526100Y-126185934D01*
X146526100Y-125850300D01*
X145784800Y-125850300D01*
X145784800Y-125350300D01*
X146526100Y-125350300D01*
X146526100Y-125014665D01*
X146526099Y-125014663D01*
X146485900Y-124812571D01*
X146485897Y-124812559D01*
X146407045Y-124622192D01*
X146407038Y-124622179D01*
X146292559Y-124450850D01*
X146292556Y-124450846D01*
X146146853Y-124305143D01*
X146146849Y-124305140D01*
X145975520Y-124190661D01*
X145975510Y-124190656D01*
X145807789Y-124121183D01*
X145730000Y-124121768D01*
X145730000Y-124953812D01*
X145723901Y-124943248D01*
X145667152Y-124886499D01*
X145597648Y-124846372D01*
X145520128Y-124825600D01*
X145439872Y-124825600D01*
X145362352Y-124846372D01*
X145292848Y-124886499D01*
X145236099Y-124943248D01*
X145230000Y-124953812D01*
X145230000Y-124121768D01*
X145152209Y-124121183D01*
X144984489Y-124190656D01*
X144984479Y-124190661D01*
X144813150Y-124305140D01*
X144813146Y-124305143D01*
X144667443Y-124450846D01*
X144667440Y-124450850D01*
X144552961Y-124622179D01*
X144552954Y-124622192D01*
X144474102Y-124812559D01*
X144474099Y-124812571D01*
X144433900Y-125014663D01*
X144433900Y-125350300D01*
X145175200Y-125350300D01*
X145175200Y-125850300D01*
X144433900Y-125850300D01*
X144433900Y-126185936D01*
X144474099Y-126388028D01*
X144474102Y-126388040D01*
X144552954Y-126578407D01*
X144552961Y-126578420D01*
X144670825Y-126754815D01*
X144669641Y-126755605D01*
X144694161Y-126813339D01*
X144682370Y-126882206D01*
X144635217Y-126933766D01*
X144567674Y-126951649D01*
X144545471Y-126949038D01*
X143840285Y-126800710D01*
X143835771Y-126799672D01*
X143801470Y-126791108D01*
X142843654Y-126551965D01*
X142839182Y-126550759D01*
X142796922Y-126538514D01*
X141857009Y-126266173D01*
X141852604Y-126264807D01*
X141514094Y-126152860D01*
X140881739Y-125943736D01*
X140877370Y-125942200D01*
X139919198Y-125585104D01*
X139914888Y-125583406D01*
X139718930Y-125501917D01*
X139011755Y-125207838D01*
X138970685Y-125190759D01*
X138966443Y-125188901D01*
X138819416Y-125121213D01*
X138037579Y-124761272D01*
X138033408Y-124759256D01*
X137121186Y-124297248D01*
X137117094Y-124295079D01*
X136222740Y-123799311D01*
X136218731Y-123796990D01*
X135343504Y-123268160D01*
X135339586Y-123265691D01*
X134641818Y-122807665D01*
X134484744Y-122704558D01*
X134480929Y-122701951D01*
X133881488Y-122275605D01*
X133881474Y-122275596D01*
X133747953Y-122180631D01*
X144475200Y-122180631D01*
X144475200Y-122350300D01*
X145175200Y-122350300D01*
X145175200Y-122850300D01*
X144475200Y-122850300D01*
X144475200Y-123019968D01*
X144513812Y-123214081D01*
X144513814Y-123214089D01*
X144589558Y-123396953D01*
X144699517Y-123561518D01*
X144699523Y-123561526D01*
X144839473Y-123701476D01*
X144839481Y-123701482D01*
X145004046Y-123811441D01*
X145153103Y-123873182D01*
X145230000Y-123873760D01*
X145230000Y-123043587D01*
X145236099Y-123054152D01*
X145292848Y-123110901D01*
X145362352Y-123151028D01*
X145439872Y-123171800D01*
X145520128Y-123171800D01*
X145597648Y-123151028D01*
X145667152Y-123110901D01*
X145723901Y-123054152D01*
X145730000Y-123043587D01*
X145730000Y-123873760D01*
X145806896Y-123873182D01*
X145955949Y-123811443D01*
X145955953Y-123811441D01*
X146120518Y-123701482D01*
X146120526Y-123701476D01*
X146260476Y-123561526D01*
X146260482Y-123561518D01*
X146370441Y-123396953D01*
X146446185Y-123214089D01*
X146446187Y-123214081D01*
X146484799Y-123019968D01*
X146484800Y-123019966D01*
X146484800Y-122850300D01*
X145784800Y-122850300D01*
X145784800Y-122350300D01*
X146484800Y-122350300D01*
X146484800Y-122180633D01*
X146484799Y-122180631D01*
X153515200Y-122180631D01*
X153515200Y-122350300D01*
X154215200Y-122350300D01*
X154215200Y-122850300D01*
X153515200Y-122850300D01*
X153515200Y-123019968D01*
X153553812Y-123214081D01*
X153553814Y-123214089D01*
X153629558Y-123396953D01*
X153739517Y-123561518D01*
X153739523Y-123561526D01*
X153879473Y-123701476D01*
X153879481Y-123701482D01*
X154044046Y-123811441D01*
X154193103Y-123873182D01*
X154270000Y-123873760D01*
X154270000Y-123043587D01*
X154276099Y-123054152D01*
X154332848Y-123110901D01*
X154402352Y-123151028D01*
X154479872Y-123171800D01*
X154560128Y-123171800D01*
X154637648Y-123151028D01*
X154707152Y-123110901D01*
X154763901Y-123054152D01*
X154770000Y-123043587D01*
X154770000Y-123873760D01*
X154846896Y-123873182D01*
X154995949Y-123811443D01*
X154995953Y-123811441D01*
X155160518Y-123701482D01*
X155160526Y-123701476D01*
X155300476Y-123561526D01*
X155300482Y-123561518D01*
X155410441Y-123396953D01*
X155486185Y-123214089D01*
X155486187Y-123214081D01*
X155524799Y-123019968D01*
X155524800Y-123019966D01*
X155524800Y-122916228D01*
X156149500Y-122916228D01*
X156149500Y-123083771D01*
X156182182Y-123248074D01*
X156182184Y-123248082D01*
X156246295Y-123402860D01*
X156339373Y-123542162D01*
X156457837Y-123660626D01*
X156518974Y-123701476D01*
X156597137Y-123753703D01*
X156751918Y-123817816D01*
X156916228Y-123850499D01*
X156916232Y-123850500D01*
X156916233Y-123850500D01*
X157083768Y-123850500D01*
X157083769Y-123850499D01*
X157248082Y-123817816D01*
X157402863Y-123753703D01*
X157542162Y-123660626D01*
X157660626Y-123542162D01*
X157753703Y-123402863D01*
X157817816Y-123248082D01*
X157850500Y-123083767D01*
X157850500Y-122916233D01*
X157817816Y-122751918D01*
X157753703Y-122597137D01*
X157722537Y-122550494D01*
X157660626Y-122457837D01*
X157542162Y-122339373D01*
X157402860Y-122246295D01*
X157248082Y-122182184D01*
X157248074Y-122182182D01*
X157083771Y-122149500D01*
X157083767Y-122149500D01*
X156916233Y-122149500D01*
X156916228Y-122149500D01*
X156751925Y-122182182D01*
X156751917Y-122182184D01*
X156597139Y-122246295D01*
X156457837Y-122339373D01*
X156339373Y-122457837D01*
X156246295Y-122597139D01*
X156182184Y-122751917D01*
X156182182Y-122751925D01*
X156149500Y-122916228D01*
X155524800Y-122916228D01*
X155524800Y-122850300D01*
X154824800Y-122850300D01*
X154824800Y-122350300D01*
X155524800Y-122350300D01*
X155524800Y-122180633D01*
X155524799Y-122180631D01*
X155486187Y-121986518D01*
X155486185Y-121986510D01*
X155410441Y-121803646D01*
X155300482Y-121639081D01*
X155300476Y-121639073D01*
X155160526Y-121499123D01*
X155160518Y-121499117D01*
X154995953Y-121389158D01*
X154813089Y-121313414D01*
X154813081Y-121313412D01*
X154770000Y-121304842D01*
X154770000Y-122157012D01*
X154763901Y-122146448D01*
X154707152Y-122089699D01*
X154637648Y-122049572D01*
X154560128Y-122028800D01*
X154479872Y-122028800D01*
X154402352Y-122049572D01*
X154332848Y-122089699D01*
X154276099Y-122146448D01*
X154270000Y-122157012D01*
X154270000Y-121304843D01*
X154269999Y-121304842D01*
X154226918Y-121313412D01*
X154226910Y-121313414D01*
X154044046Y-121389158D01*
X153879481Y-121499117D01*
X153879473Y-121499123D01*
X153739523Y-121639073D01*
X153739517Y-121639081D01*
X153629558Y-121803646D01*
X153553814Y-121986510D01*
X153553812Y-121986518D01*
X153515200Y-122180631D01*
X146484799Y-122180631D01*
X146446187Y-121986518D01*
X146446185Y-121986510D01*
X146370441Y-121803646D01*
X146260482Y-121639081D01*
X146260476Y-121639073D01*
X146120526Y-121499123D01*
X146120518Y-121499117D01*
X145955953Y-121389158D01*
X145773089Y-121313414D01*
X145773081Y-121313412D01*
X145730000Y-121304842D01*
X145730000Y-122157012D01*
X145723901Y-122146448D01*
X145667152Y-122089699D01*
X145597648Y-122049572D01*
X145520128Y-122028800D01*
X145439872Y-122028800D01*
X145362352Y-122049572D01*
X145292848Y-122089699D01*
X145236099Y-122146448D01*
X145230000Y-122157012D01*
X145230000Y-121304843D01*
X145229999Y-121304842D01*
X145186918Y-121313412D01*
X145186910Y-121313414D01*
X145004046Y-121389158D01*
X144839481Y-121499117D01*
X144839473Y-121499123D01*
X144699523Y-121639073D01*
X144699517Y-121639081D01*
X144589558Y-121803646D01*
X144513814Y-121986510D01*
X144513812Y-121986518D01*
X144475200Y-122180631D01*
X133747953Y-122180631D01*
X133647620Y-122109270D01*
X133643904Y-122106521D01*
X133622030Y-122089699D01*
X132833307Y-121483128D01*
X132829695Y-121480241D01*
X132719995Y-121389158D01*
X132042951Y-120827015D01*
X132039481Y-120824022D01*
X131584073Y-120416228D01*
X142599500Y-120416228D01*
X142599500Y-120583771D01*
X142632182Y-120748074D01*
X142632184Y-120748082D01*
X142696295Y-120902860D01*
X142789373Y-121042162D01*
X142907837Y-121160626D01*
X143000494Y-121222537D01*
X143047137Y-121253703D01*
X143201918Y-121317816D01*
X143366228Y-121350499D01*
X143366232Y-121350500D01*
X143366233Y-121350500D01*
X143533768Y-121350500D01*
X143533769Y-121350499D01*
X143698082Y-121317816D01*
X143852863Y-121253703D01*
X143992162Y-121160626D01*
X144110626Y-121042162D01*
X144203703Y-120902863D01*
X144267816Y-120748082D01*
X144300500Y-120583767D01*
X144300500Y-120416233D01*
X144267816Y-120251918D01*
X144203703Y-120097137D01*
X144172537Y-120050494D01*
X144110626Y-119957837D01*
X143992162Y-119839373D01*
X143852860Y-119746295D01*
X143698082Y-119682184D01*
X143698074Y-119682182D01*
X143533771Y-119649500D01*
X143533767Y-119649500D01*
X143366233Y-119649500D01*
X143366228Y-119649500D01*
X143201925Y-119682182D01*
X143201917Y-119682184D01*
X143047139Y-119746295D01*
X142907837Y-119839373D01*
X142789373Y-119957837D01*
X142696295Y-120097139D01*
X142632184Y-120251917D01*
X142632182Y-120251925D01*
X142599500Y-120416228D01*
X131584073Y-120416228D01*
X131277647Y-120141839D01*
X131274286Y-120138714D01*
X130538492Y-119428584D01*
X130535254Y-119425342D01*
X129826471Y-118688201D01*
X129823324Y-118684803D01*
X129142602Y-117921748D01*
X129139584Y-117918235D01*
X128487827Y-117130282D01*
X128484942Y-117126658D01*
X127863078Y-116314927D01*
X127860330Y-116311198D01*
X127269200Y-115476785D01*
X127266622Y-115472999D01*
X126707042Y-114617053D01*
X126704601Y-114613162D01*
X126177407Y-113736965D01*
X126175093Y-113732952D01*
X125680991Y-112837677D01*
X125678829Y-112833581D01*
X125218492Y-111920447D01*
X125216507Y-111916318D01*
X124790583Y-110986603D01*
X124788763Y-110982426D01*
X124397871Y-110037487D01*
X124396182Y-110033176D01*
X124130505Y-109316228D01*
X135949500Y-109316228D01*
X135949500Y-109483771D01*
X135982182Y-109648074D01*
X135982184Y-109648082D01*
X136046297Y-109802864D01*
X136046298Y-109802866D01*
X136048470Y-109806117D01*
X136049083Y-109808076D01*
X136049167Y-109808233D01*
X136049137Y-109808248D01*
X136069343Y-109872796D01*
X136050854Y-109940175D01*
X136048470Y-109943883D01*
X136046298Y-109947133D01*
X136046297Y-109947135D01*
X135982184Y-110101917D01*
X135982182Y-110101925D01*
X135949500Y-110266228D01*
X135949500Y-110433771D01*
X135982182Y-110598074D01*
X135982184Y-110598082D01*
X136046297Y-110752864D01*
X136046298Y-110752866D01*
X136048470Y-110756117D01*
X136049083Y-110758076D01*
X136049167Y-110758233D01*
X136049137Y-110758248D01*
X136069343Y-110822796D01*
X136050854Y-110890175D01*
X136048470Y-110893883D01*
X136046298Y-110897133D01*
X136046297Y-110897135D01*
X135982184Y-111051917D01*
X135982182Y-111051925D01*
X135949500Y-111216228D01*
X135949500Y-111383771D01*
X135982182Y-111548074D01*
X135982184Y-111548082D01*
X136046295Y-111702860D01*
X136139373Y-111842162D01*
X136257837Y-111960626D01*
X136350494Y-112022537D01*
X136397137Y-112053703D01*
X136551918Y-112117816D01*
X136716228Y-112150499D01*
X136716232Y-112150500D01*
X136716233Y-112150500D01*
X136883768Y-112150500D01*
X136883769Y-112150499D01*
X137048082Y-112117816D01*
X137202863Y-112053703D01*
X137342162Y-111960626D01*
X137460626Y-111842162D01*
X137553703Y-111702863D01*
X137617816Y-111548082D01*
X137650500Y-111383767D01*
X137650500Y-111216233D01*
X137617816Y-111051918D01*
X137553703Y-110897137D01*
X137551536Y-110893893D01*
X137550922Y-110891936D01*
X137550834Y-110891770D01*
X137550865Y-110891753D01*
X137530655Y-110827221D01*
X137549135Y-110759840D01*
X137551509Y-110756145D01*
X137553703Y-110752863D01*
X137617816Y-110598082D01*
X137650500Y-110433767D01*
X137650500Y-110266233D01*
X137617816Y-110101918D01*
X137553703Y-109947137D01*
X137551536Y-109943893D01*
X137550922Y-109941936D01*
X137550834Y-109941770D01*
X137550865Y-109941753D01*
X137530655Y-109877221D01*
X137549135Y-109809840D01*
X137551509Y-109806145D01*
X137553703Y-109802863D01*
X137617816Y-109648082D01*
X137650500Y-109483767D01*
X137650500Y-109316233D01*
X137617816Y-109151918D01*
X137553703Y-108997137D01*
X137483561Y-108892162D01*
X137460626Y-108857837D01*
X137342162Y-108739373D01*
X137202860Y-108646295D01*
X137048082Y-108582184D01*
X137048074Y-108582182D01*
X136883771Y-108549500D01*
X136883767Y-108549500D01*
X136716233Y-108549500D01*
X136716228Y-108549500D01*
X136551925Y-108582182D01*
X136551917Y-108582184D01*
X136397139Y-108646295D01*
X136257837Y-108739373D01*
X136139373Y-108857837D01*
X136046295Y-108997139D01*
X135982184Y-109151917D01*
X135982182Y-109151925D01*
X135949500Y-109316228D01*
X124130505Y-109316228D01*
X124040863Y-109074322D01*
X124039335Y-109069950D01*
X123930694Y-108739374D01*
X123775198Y-108266228D01*
X129249500Y-108266228D01*
X129249500Y-108433771D01*
X129282182Y-108598074D01*
X129282184Y-108598082D01*
X129346295Y-108752860D01*
X129439373Y-108892162D01*
X129557837Y-109010626D01*
X129646622Y-109069950D01*
X129697137Y-109103703D01*
X129697138Y-109103703D01*
X129697139Y-109103704D01*
X129722452Y-109114189D01*
X129851918Y-109167816D01*
X130016228Y-109200499D01*
X130016232Y-109200500D01*
X130016233Y-109200500D01*
X130183768Y-109200500D01*
X130183769Y-109200499D01*
X130348082Y-109167816D01*
X130477548Y-109114188D01*
X130547016Y-109106720D01*
X130572450Y-109114188D01*
X130701918Y-109167816D01*
X130866228Y-109200499D01*
X130866232Y-109200500D01*
X130866233Y-109200500D01*
X131033768Y-109200500D01*
X131033769Y-109200499D01*
X131198082Y-109167816D01*
X131337583Y-109110032D01*
X131352547Y-109103834D01*
X131422016Y-109096365D01*
X131447453Y-109103834D01*
X131471360Y-109113736D01*
X131601918Y-109167816D01*
X131766228Y-109200499D01*
X131766232Y-109200500D01*
X131766233Y-109200500D01*
X131933768Y-109200500D01*
X131933768Y-109200499D01*
X131963662Y-109194553D01*
X131993977Y-109188524D01*
X132036538Y-109180057D01*
X132098082Y-109167816D01*
X132252863Y-109103703D01*
X132392162Y-109010626D01*
X132510626Y-108892162D01*
X132603703Y-108752863D01*
X132667816Y-108598082D01*
X132700500Y-108433767D01*
X132700500Y-108266233D01*
X132667816Y-108101918D01*
X132603703Y-107947137D01*
X132572537Y-107900494D01*
X132510626Y-107807837D01*
X132392162Y-107689373D01*
X132252860Y-107596295D01*
X132098082Y-107532184D01*
X132098074Y-107532182D01*
X131933771Y-107499500D01*
X131933767Y-107499500D01*
X131766233Y-107499500D01*
X131766228Y-107499500D01*
X131601925Y-107532182D01*
X131601913Y-107532185D01*
X131447452Y-107596165D01*
X131377983Y-107603634D01*
X131352548Y-107596165D01*
X131198086Y-107532185D01*
X131198074Y-107532182D01*
X131033771Y-107499500D01*
X131033767Y-107499500D01*
X130866233Y-107499500D01*
X130866228Y-107499500D01*
X130701925Y-107532182D01*
X130701913Y-107532185D01*
X130572452Y-107585810D01*
X130502983Y-107593279D01*
X130477548Y-107585810D01*
X130348086Y-107532185D01*
X130348074Y-107532182D01*
X130183771Y-107499500D01*
X130183767Y-107499500D01*
X130016233Y-107499500D01*
X130016228Y-107499500D01*
X129851925Y-107532182D01*
X129851917Y-107532184D01*
X129697139Y-107596295D01*
X129557837Y-107689373D01*
X129439373Y-107807837D01*
X129346295Y-107947139D01*
X129282184Y-108101917D01*
X129282182Y-108101925D01*
X129249500Y-108266228D01*
X123775198Y-108266228D01*
X123720065Y-108098468D01*
X123718726Y-108094120D01*
X123435959Y-107111390D01*
X123434763Y-107106922D01*
X123188887Y-106114278D01*
X123187878Y-106109849D01*
X122979250Y-105108740D01*
X122978392Y-105104198D01*
X122884429Y-104550500D01*
X122807304Y-104096030D01*
X122806625Y-104091518D01*
X122673297Y-103077581D01*
X122672790Y-103073075D01*
X122577425Y-102054890D01*
X122577081Y-102050278D01*
X122572052Y-101960626D01*
X122519812Y-101029292D01*
X122519642Y-101024746D01*
X122500535Y-100001971D01*
X122500517Y-99998862D01*
X122500557Y-99992778D01*
X122500713Y-99968639D01*
X122500767Y-99965738D01*
X122500956Y-99959483D01*
X122517226Y-99421005D01*
X122538925Y-99354595D01*
X122593086Y-99310455D01*
X122662514Y-99302605D01*
X122725164Y-99333536D01*
X122761146Y-99393428D01*
X122762785Y-99400562D01*
X122782182Y-99498076D01*
X122782184Y-99498082D01*
X122846295Y-99652860D01*
X122939373Y-99792162D01*
X123057834Y-99910623D01*
X123057840Y-99910628D01*
X123069332Y-99918307D01*
X123114136Y-99971919D01*
X123122843Y-100041245D01*
X123092688Y-100104272D01*
X123088122Y-100109089D01*
X122989373Y-100207838D01*
X122896295Y-100347139D01*
X122832184Y-100501917D01*
X122832182Y-100501925D01*
X122799500Y-100666228D01*
X122799500Y-100833771D01*
X122832182Y-100998074D01*
X122832184Y-100998082D01*
X122896295Y-101152860D01*
X122989373Y-101292162D01*
X123107837Y-101410626D01*
X123200494Y-101472537D01*
X123247137Y-101503703D01*
X123401918Y-101567816D01*
X123566228Y-101600499D01*
X123566232Y-101600500D01*
X123566233Y-101600500D01*
X123733768Y-101600500D01*
X123733769Y-101600499D01*
X123898082Y-101567816D01*
X124052863Y-101503703D01*
X124192162Y-101410626D01*
X124310626Y-101292162D01*
X124403703Y-101152863D01*
X124467816Y-100998082D01*
X124500500Y-100833767D01*
X124500500Y-100666233D01*
X124500063Y-100664038D01*
X124467817Y-100501921D01*
X124467815Y-100501917D01*
X124453032Y-100466228D01*
X127299500Y-100466228D01*
X127299500Y-100633771D01*
X127332182Y-100798074D01*
X127332184Y-100798082D01*
X127396295Y-100952860D01*
X127489373Y-101092162D01*
X127607837Y-101210626D01*
X127616229Y-101216233D01*
X127747137Y-101303703D01*
X127901918Y-101367816D01*
X127928188Y-101373041D01*
X127971013Y-101381560D01*
X128032924Y-101413945D01*
X128067498Y-101474660D01*
X128068439Y-101478985D01*
X128082182Y-101548076D01*
X128082184Y-101548082D01*
X128146295Y-101702860D01*
X128239373Y-101842162D01*
X128357837Y-101960626D01*
X128450494Y-102022537D01*
X128497137Y-102053703D01*
X128651918Y-102117816D01*
X128816228Y-102150499D01*
X128816232Y-102150500D01*
X128816233Y-102150500D01*
X128983768Y-102150500D01*
X128983769Y-102150499D01*
X129148082Y-102117816D01*
X129302863Y-102053703D01*
X129442162Y-101960626D01*
X129560626Y-101842162D01*
X129653703Y-101702863D01*
X129717816Y-101548082D01*
X129750500Y-101383767D01*
X129750500Y-101216233D01*
X129717816Y-101051918D01*
X129653703Y-100897137D01*
X129611360Y-100833767D01*
X129560626Y-100757837D01*
X129442162Y-100639373D01*
X129302860Y-100546295D01*
X129148082Y-100482184D01*
X129148076Y-100482182D01*
X129078985Y-100468439D01*
X129017074Y-100436054D01*
X128982500Y-100375338D01*
X128981560Y-100371013D01*
X128967817Y-100301925D01*
X128967816Y-100301918D01*
X128903703Y-100147137D01*
X128865107Y-100089374D01*
X128810626Y-100007837D01*
X128692162Y-99889373D01*
X128552860Y-99796295D01*
X128398082Y-99732184D01*
X128398074Y-99732182D01*
X128233771Y-99699500D01*
X128233767Y-99699500D01*
X128066233Y-99699500D01*
X128066228Y-99699500D01*
X127901925Y-99732182D01*
X127901917Y-99732184D01*
X127747139Y-99796295D01*
X127607837Y-99889373D01*
X127489373Y-100007837D01*
X127396295Y-100147139D01*
X127332184Y-100301917D01*
X127332182Y-100301925D01*
X127299500Y-100466228D01*
X124453032Y-100466228D01*
X124403703Y-100347137D01*
X124372537Y-100300494D01*
X124310626Y-100207837D01*
X124192165Y-100089376D01*
X124192156Y-100089369D01*
X124180666Y-100081691D01*
X124135862Y-100028078D01*
X124127156Y-99958753D01*
X124157313Y-99895726D01*
X124161859Y-99890928D01*
X124260626Y-99792162D01*
X124353703Y-99652863D01*
X124417816Y-99498082D01*
X124450500Y-99333767D01*
X124450500Y-99166233D01*
X124417816Y-99001918D01*
X124353703Y-98847137D01*
X124320920Y-98798074D01*
X124260626Y-98707837D01*
X124142162Y-98589373D01*
X124002860Y-98496295D01*
X123848082Y-98432184D01*
X123848074Y-98432182D01*
X123683771Y-98399500D01*
X123683767Y-98399500D01*
X123516233Y-98399500D01*
X123516228Y-98399500D01*
X123351925Y-98432182D01*
X123351917Y-98432184D01*
X123197139Y-98496295D01*
X123057837Y-98589373D01*
X122939373Y-98707837D01*
X122846295Y-98847139D01*
X122780004Y-99007179D01*
X122736162Y-99061583D01*
X122669868Y-99083647D01*
X122602169Y-99066367D01*
X122554559Y-99015230D01*
X122541668Y-98952266D01*
X122583768Y-98254065D01*
X122584027Y-98250601D01*
X122691196Y-97047015D01*
X122691540Y-97043680D01*
X122842255Y-95753014D01*
X122842682Y-95749743D01*
X122849777Y-95700500D01*
X123013205Y-94566228D01*
X124649500Y-94566228D01*
X124649500Y-94733771D01*
X124682182Y-94898074D01*
X124682184Y-94898082D01*
X124746295Y-95052860D01*
X124839373Y-95192162D01*
X124957837Y-95310626D01*
X125050494Y-95372537D01*
X125097137Y-95403703D01*
X125251918Y-95467816D01*
X125416228Y-95500499D01*
X125416232Y-95500500D01*
X125416233Y-95500500D01*
X125583768Y-95500500D01*
X125583769Y-95500499D01*
X125748082Y-95467816D01*
X125902863Y-95403703D01*
X126042162Y-95310626D01*
X126160626Y-95192162D01*
X126253703Y-95052863D01*
X126317816Y-94898082D01*
X126344043Y-94766228D01*
X130949500Y-94766228D01*
X130949500Y-94933771D01*
X130982182Y-95098074D01*
X130982184Y-95098082D01*
X131046295Y-95252860D01*
X131139373Y-95392162D01*
X131257837Y-95510626D01*
X131321045Y-95552860D01*
X131397137Y-95603703D01*
X131551918Y-95667816D01*
X131674315Y-95692162D01*
X131716228Y-95700499D01*
X131716232Y-95700500D01*
X131716233Y-95700500D01*
X131883768Y-95700500D01*
X131883769Y-95700499D01*
X132048082Y-95667816D01*
X132202863Y-95603703D01*
X132342162Y-95510626D01*
X132460626Y-95392162D01*
X132553703Y-95252863D01*
X132617816Y-95098082D01*
X132650500Y-94933767D01*
X132650500Y-94766233D01*
X132617816Y-94601918D01*
X132553703Y-94447137D01*
X132519731Y-94396295D01*
X132460626Y-94307837D01*
X132342162Y-94189373D01*
X132202860Y-94096295D01*
X132048082Y-94032184D01*
X132048074Y-94032182D01*
X131883771Y-93999500D01*
X131883767Y-93999500D01*
X131716233Y-93999500D01*
X131716228Y-93999500D01*
X131551925Y-94032182D01*
X131551917Y-94032184D01*
X131397139Y-94096295D01*
X131257837Y-94189373D01*
X131139373Y-94307837D01*
X131046295Y-94447139D01*
X130982184Y-94601917D01*
X130982182Y-94601925D01*
X130949500Y-94766228D01*
X126344043Y-94766228D01*
X126350500Y-94733767D01*
X126350500Y-94566233D01*
X126317816Y-94401918D01*
X126253703Y-94247137D01*
X126211360Y-94183767D01*
X126160626Y-94107837D01*
X126042162Y-93989373D01*
X125902860Y-93896295D01*
X125748082Y-93832184D01*
X125748074Y-93832182D01*
X125583771Y-93799500D01*
X125583767Y-93799500D01*
X125416233Y-93799500D01*
X125416228Y-93799500D01*
X125251925Y-93832182D01*
X125251917Y-93832184D01*
X125097139Y-93896295D01*
X124957837Y-93989373D01*
X124839373Y-94107837D01*
X124746295Y-94247139D01*
X124682184Y-94401917D01*
X124682182Y-94401925D01*
X124649500Y-94566228D01*
X123013205Y-94566228D01*
X123035325Y-94412702D01*
X123035838Y-94409457D01*
X123037787Y-94398082D01*
X123180316Y-93566228D01*
X133549500Y-93566228D01*
X133549500Y-93733771D01*
X133582182Y-93898074D01*
X133582184Y-93898082D01*
X133646295Y-94052860D01*
X133739373Y-94192162D01*
X133857837Y-94310626D01*
X133950494Y-94372537D01*
X133997137Y-94403703D01*
X133997138Y-94403703D01*
X133997139Y-94403704D01*
X134014990Y-94411098D01*
X134151918Y-94467816D01*
X134316228Y-94500499D01*
X134316232Y-94500500D01*
X134316233Y-94500500D01*
X134483768Y-94500500D01*
X134483769Y-94500499D01*
X134648082Y-94467816D01*
X134802863Y-94403703D01*
X134942162Y-94310626D01*
X135060626Y-94192162D01*
X135153703Y-94052863D01*
X135168878Y-94016228D01*
X135499500Y-94016228D01*
X135499500Y-94183771D01*
X135532182Y-94348074D01*
X135532184Y-94348082D01*
X135596295Y-94502860D01*
X135689373Y-94642162D01*
X135807837Y-94760626D01*
X135816229Y-94766233D01*
X135947137Y-94853703D01*
X136101918Y-94917816D01*
X136266228Y-94950499D01*
X136266232Y-94950500D01*
X136266233Y-94950500D01*
X136433768Y-94950500D01*
X136433769Y-94950499D01*
X136598082Y-94917816D01*
X136752863Y-94853703D01*
X136892162Y-94760626D01*
X136937318Y-94715469D01*
X136998638Y-94681984D01*
X137068330Y-94686967D01*
X137112680Y-94715469D01*
X137207837Y-94810626D01*
X137300494Y-94872537D01*
X137347137Y-94903703D01*
X137501918Y-94967816D01*
X137666228Y-95000499D01*
X137666232Y-95000500D01*
X137666233Y-95000500D01*
X137833768Y-95000500D01*
X137833769Y-95000499D01*
X137998082Y-94967816D01*
X138152863Y-94903703D01*
X138292162Y-94810626D01*
X138410626Y-94692162D01*
X138503703Y-94552863D01*
X138567816Y-94398082D01*
X138600500Y-94233767D01*
X138600500Y-94066233D01*
X138567816Y-93901918D01*
X138503703Y-93747137D01*
X138470294Y-93697137D01*
X138410626Y-93607837D01*
X138292162Y-93489373D01*
X138152860Y-93396295D01*
X137998082Y-93332184D01*
X137998074Y-93332182D01*
X137833771Y-93299500D01*
X137833767Y-93299500D01*
X137666233Y-93299500D01*
X137666228Y-93299500D01*
X137501925Y-93332182D01*
X137501917Y-93332184D01*
X137347139Y-93396295D01*
X137207837Y-93489373D01*
X137207834Y-93489376D01*
X137162681Y-93534530D01*
X137101358Y-93568015D01*
X137031666Y-93563031D01*
X136987319Y-93534530D01*
X136892162Y-93439373D01*
X136752860Y-93346295D01*
X136598082Y-93282184D01*
X136598074Y-93282182D01*
X136433771Y-93249500D01*
X136433767Y-93249500D01*
X136266233Y-93249500D01*
X136266228Y-93249500D01*
X136101925Y-93282182D01*
X136101917Y-93282184D01*
X135947139Y-93346295D01*
X135807837Y-93439373D01*
X135689373Y-93557837D01*
X135596295Y-93697139D01*
X135532184Y-93851917D01*
X135532182Y-93851925D01*
X135499500Y-94016228D01*
X135168878Y-94016228D01*
X135217816Y-93898082D01*
X135250500Y-93733767D01*
X135250500Y-93566233D01*
X135217816Y-93401918D01*
X135153703Y-93247137D01*
X135122537Y-93200494D01*
X135060626Y-93107837D01*
X134942162Y-92989373D01*
X134802860Y-92896295D01*
X134648082Y-92832184D01*
X134648074Y-92832182D01*
X134483771Y-92799500D01*
X134483767Y-92799500D01*
X134316233Y-92799500D01*
X134316228Y-92799500D01*
X134151925Y-92832182D01*
X134151917Y-92832184D01*
X133997139Y-92896295D01*
X133857837Y-92989373D01*
X133739373Y-93107837D01*
X133646295Y-93247139D01*
X133582184Y-93401917D01*
X133582182Y-93401925D01*
X133549500Y-93566228D01*
X123180316Y-93566228D01*
X123268680Y-93050503D01*
X123269274Y-93047294D01*
X123269280Y-93047266D01*
X123540633Y-91682309D01*
X123541291Y-91679215D01*
X123691560Y-91016228D01*
X138399500Y-91016228D01*
X138399500Y-91183771D01*
X138432182Y-91348074D01*
X138432184Y-91348082D01*
X138496295Y-91502860D01*
X138589373Y-91642162D01*
X138707837Y-91760626D01*
X138800494Y-91822537D01*
X138847137Y-91853703D01*
X139001918Y-91917816D01*
X139166228Y-91950499D01*
X139166232Y-91950500D01*
X139166233Y-91950500D01*
X139333768Y-91950500D01*
X139333769Y-91950499D01*
X139498082Y-91917816D01*
X139652863Y-91853703D01*
X139792162Y-91760626D01*
X139910626Y-91642162D01*
X140003703Y-91502863D01*
X140010939Y-91485393D01*
X140054778Y-91430991D01*
X140121072Y-91408925D01*
X140188771Y-91426203D01*
X140236383Y-91477339D01*
X140249500Y-91532846D01*
X140249501Y-104091484D01*
X140249501Y-116434107D01*
X140249501Y-116499999D01*
X140249501Y-116651251D01*
X140285964Y-116951550D01*
X140297201Y-116997139D01*
X140358359Y-117245270D01*
X140465628Y-117528112D01*
X140606208Y-117795967D01*
X140778051Y-118044923D01*
X140778053Y-118044925D01*
X140778055Y-118044928D01*
X140978647Y-118271350D01*
X140978649Y-118271352D01*
X141205071Y-118471944D01*
X141205077Y-118471949D01*
X141454033Y-118643792D01*
X141721888Y-118784372D01*
X141917784Y-118858665D01*
X142004729Y-118891640D01*
X142004731Y-118891640D01*
X142004735Y-118891642D01*
X142298450Y-118964036D01*
X142549662Y-118994538D01*
X142598747Y-119000499D01*
X142598749Y-119000499D01*
X157401253Y-119000499D01*
X157446629Y-118994989D01*
X157701550Y-118964036D01*
X157995265Y-118891642D01*
X158278112Y-118784372D01*
X158545967Y-118643792D01*
X158794923Y-118471949D01*
X159021351Y-118271351D01*
X159221949Y-118044923D01*
X159393792Y-117795967D01*
X159534372Y-117528112D01*
X159614729Y-117316228D01*
X167199500Y-117316228D01*
X167199500Y-117483771D01*
X167232182Y-117648074D01*
X167232184Y-117648082D01*
X167296295Y-117802860D01*
X167389373Y-117942162D01*
X167507837Y-118060626D01*
X167600494Y-118122537D01*
X167647137Y-118153703D01*
X167801918Y-118217816D01*
X167966228Y-118250499D01*
X167966232Y-118250500D01*
X167966233Y-118250500D01*
X168133768Y-118250500D01*
X168133769Y-118250499D01*
X168298082Y-118217816D01*
X168452863Y-118153703D01*
X168592162Y-118060626D01*
X168710626Y-117942162D01*
X168803703Y-117802863D01*
X168867816Y-117648082D01*
X168900500Y-117483767D01*
X168900500Y-117316233D01*
X168867816Y-117151918D01*
X168803703Y-116997137D01*
X168753803Y-116922457D01*
X168710626Y-116857837D01*
X168592162Y-116739373D01*
X168452860Y-116646295D01*
X168298082Y-116582184D01*
X168298074Y-116582182D01*
X168133771Y-116549500D01*
X168133767Y-116549500D01*
X167966233Y-116549500D01*
X167966228Y-116549500D01*
X167801925Y-116582182D01*
X167801917Y-116582184D01*
X167647139Y-116646295D01*
X167507837Y-116739373D01*
X167389373Y-116857837D01*
X167296295Y-116997139D01*
X167232184Y-117151917D01*
X167232182Y-117151925D01*
X167199500Y-117316228D01*
X159614729Y-117316228D01*
X159641642Y-117245265D01*
X159714036Y-116951550D01*
X159750499Y-116651251D01*
X159750499Y-116499999D01*
X159750499Y-116434107D01*
X159750499Y-103616228D01*
X166899500Y-103616228D01*
X166899500Y-103783771D01*
X166932182Y-103948074D01*
X166932184Y-103948082D01*
X166996295Y-104102860D01*
X167089373Y-104242162D01*
X167207837Y-104360626D01*
X167300494Y-104422537D01*
X167347137Y-104453703D01*
X167501918Y-104517816D01*
X167666228Y-104550499D01*
X167666232Y-104550500D01*
X167666233Y-104550500D01*
X167833768Y-104550500D01*
X167833769Y-104550499D01*
X167998082Y-104517816D01*
X168152863Y-104453703D01*
X168292162Y-104360626D01*
X168410626Y-104242162D01*
X168503703Y-104102863D01*
X168567816Y-103948082D01*
X168600500Y-103783767D01*
X168600500Y-103616233D01*
X168567816Y-103451918D01*
X168503703Y-103297137D01*
X168472537Y-103250494D01*
X168410626Y-103157837D01*
X168292162Y-103039373D01*
X168152860Y-102946295D01*
X167998082Y-102882184D01*
X167998074Y-102882182D01*
X167833771Y-102849500D01*
X167833767Y-102849500D01*
X167666233Y-102849500D01*
X167666228Y-102849500D01*
X167501925Y-102882182D01*
X167501917Y-102882184D01*
X167347139Y-102946295D01*
X167207837Y-103039373D01*
X167089373Y-103157837D01*
X166996295Y-103297139D01*
X166932184Y-103451917D01*
X166932182Y-103451925D01*
X166899500Y-103616228D01*
X159750499Y-103616228D01*
X159750499Y-98466228D01*
X167449500Y-98466228D01*
X167449500Y-98633771D01*
X167482182Y-98798074D01*
X167482184Y-98798082D01*
X167546295Y-98952860D01*
X167639373Y-99092162D01*
X167757837Y-99210626D01*
X167814854Y-99248723D01*
X167897137Y-99303703D01*
X167897138Y-99303703D01*
X167897139Y-99303704D01*
X167923157Y-99314481D01*
X168051918Y-99367816D01*
X168216228Y-99400499D01*
X168216232Y-99400500D01*
X168216233Y-99400500D01*
X168383768Y-99400500D01*
X168383769Y-99400499D01*
X168548082Y-99367816D01*
X168702863Y-99303703D01*
X168842162Y-99210626D01*
X168960626Y-99092162D01*
X169053703Y-98952863D01*
X169117816Y-98798082D01*
X169150500Y-98633767D01*
X169150500Y-98466233D01*
X169117816Y-98301918D01*
X169053703Y-98147137D01*
X169022537Y-98100494D01*
X168960626Y-98007837D01*
X168842162Y-97889373D01*
X168702860Y-97796295D01*
X168548082Y-97732184D01*
X168548074Y-97732182D01*
X168383771Y-97699500D01*
X168383767Y-97699500D01*
X168216233Y-97699500D01*
X168216228Y-97699500D01*
X168051925Y-97732182D01*
X168051917Y-97732184D01*
X167897139Y-97796295D01*
X167757837Y-97889373D01*
X167639373Y-98007837D01*
X167546295Y-98147139D01*
X167482184Y-98301917D01*
X167482182Y-98301925D01*
X167449500Y-98466228D01*
X159750499Y-98466228D01*
X159750499Y-96866228D01*
X163049500Y-96866228D01*
X163049500Y-97033771D01*
X163082182Y-97198074D01*
X163082184Y-97198082D01*
X163146295Y-97352860D01*
X163239373Y-97492162D01*
X163357837Y-97610626D01*
X163450494Y-97672537D01*
X163497137Y-97703703D01*
X163651918Y-97767816D01*
X163795093Y-97796295D01*
X163816228Y-97800499D01*
X163816232Y-97800500D01*
X163816233Y-97800500D01*
X163983768Y-97800500D01*
X163983769Y-97800499D01*
X164148082Y-97767816D01*
X164302863Y-97703703D01*
X164442162Y-97610626D01*
X164560626Y-97492162D01*
X164653703Y-97352863D01*
X164717816Y-97198082D01*
X164750500Y-97033767D01*
X164750500Y-96866233D01*
X164717816Y-96701918D01*
X164653703Y-96547137D01*
X164622537Y-96500494D01*
X164560626Y-96407837D01*
X164442165Y-96289376D01*
X164442157Y-96289370D01*
X164333054Y-96216470D01*
X164288248Y-96162858D01*
X164279541Y-96093533D01*
X164309695Y-96030506D01*
X164369138Y-95993786D01*
X164377753Y-95991751D01*
X164416693Y-95984005D01*
X164498082Y-95967816D01*
X164652863Y-95903703D01*
X164792162Y-95810626D01*
X164910626Y-95692162D01*
X165003703Y-95552863D01*
X165067816Y-95398082D01*
X165100500Y-95233767D01*
X165100500Y-95066233D01*
X165067816Y-94901918D01*
X165011613Y-94766233D01*
X165003704Y-94747139D01*
X164910626Y-94607837D01*
X164792162Y-94489373D01*
X164652860Y-94396295D01*
X164498082Y-94332184D01*
X164498074Y-94332182D01*
X164333771Y-94299500D01*
X164333767Y-94299500D01*
X164166233Y-94299500D01*
X164166228Y-94299500D01*
X164001925Y-94332182D01*
X164001917Y-94332184D01*
X163847139Y-94396295D01*
X163707837Y-94489373D01*
X163589373Y-94607837D01*
X163496295Y-94747139D01*
X163432184Y-94901917D01*
X163432182Y-94901925D01*
X163399500Y-95066228D01*
X163399500Y-95233771D01*
X163432182Y-95398074D01*
X163432184Y-95398082D01*
X163496295Y-95552860D01*
X163589373Y-95692162D01*
X163707835Y-95810624D01*
X163707838Y-95810626D01*
X163816947Y-95883530D01*
X163861751Y-95937140D01*
X163870458Y-96006465D01*
X163840304Y-96069493D01*
X163780861Y-96106213D01*
X163772247Y-96108248D01*
X163651923Y-96132182D01*
X163651917Y-96132184D01*
X163497139Y-96196295D01*
X163357837Y-96289373D01*
X163239373Y-96407837D01*
X163146295Y-96547139D01*
X163082184Y-96701917D01*
X163082182Y-96701925D01*
X163049500Y-96866228D01*
X159750499Y-96866228D01*
X159750499Y-91470892D01*
X159770184Y-91403853D01*
X159822988Y-91358098D01*
X159892146Y-91348154D01*
X159943389Y-91367789D01*
X159997137Y-91403703D01*
X159997138Y-91403703D01*
X159997139Y-91403704D01*
X160032201Y-91418227D01*
X160151918Y-91467816D01*
X160316228Y-91500499D01*
X160316232Y-91500500D01*
X160316233Y-91500500D01*
X160483768Y-91500500D01*
X160483769Y-91500499D01*
X160648082Y-91467816D01*
X160802863Y-91403703D01*
X160942162Y-91310626D01*
X160942165Y-91310623D01*
X161037319Y-91215470D01*
X161098642Y-91181985D01*
X161168334Y-91186969D01*
X161212681Y-91215470D01*
X161307837Y-91310626D01*
X161393390Y-91367790D01*
X161447137Y-91403703D01*
X161447138Y-91403703D01*
X161447139Y-91403704D01*
X161482201Y-91418227D01*
X161601918Y-91467816D01*
X161766228Y-91500499D01*
X161766232Y-91500500D01*
X161766233Y-91500500D01*
X161933768Y-91500500D01*
X161933769Y-91500499D01*
X162098082Y-91467816D01*
X162252863Y-91403703D01*
X162392162Y-91310626D01*
X162510626Y-91192162D01*
X162603703Y-91052863D01*
X162667816Y-90898082D01*
X162700500Y-90733767D01*
X162700500Y-90566233D01*
X162667816Y-90401918D01*
X162603703Y-90247137D01*
X162532415Y-90140447D01*
X162510626Y-90107837D01*
X162392162Y-89989373D01*
X162252860Y-89896295D01*
X162098082Y-89832184D01*
X162098074Y-89832182D01*
X161933771Y-89799500D01*
X161933767Y-89799500D01*
X161766233Y-89799500D01*
X161766228Y-89799500D01*
X161601925Y-89832182D01*
X161601917Y-89832184D01*
X161447139Y-89896295D01*
X161307837Y-89989373D01*
X161307834Y-89989376D01*
X161212681Y-90084530D01*
X161151358Y-90118015D01*
X161081666Y-90113031D01*
X161037319Y-90084530D01*
X160942162Y-89989373D01*
X160802860Y-89896295D01*
X160648082Y-89832184D01*
X160648074Y-89832182D01*
X160483771Y-89799500D01*
X160483767Y-89799500D01*
X160316233Y-89799500D01*
X160316228Y-89799500D01*
X160151925Y-89832182D01*
X160151917Y-89832184D01*
X159997140Y-89896295D01*
X159943389Y-89932210D01*
X159876711Y-89953087D01*
X159809331Y-89934602D01*
X159762641Y-89882622D01*
X159750499Y-89829107D01*
X159750499Y-86016228D01*
X165449500Y-86016228D01*
X165449500Y-86183771D01*
X165482182Y-86348074D01*
X165482184Y-86348082D01*
X165546295Y-86502860D01*
X165639373Y-86642162D01*
X165757837Y-86760626D01*
X165843430Y-86817817D01*
X165897137Y-86853703D01*
X166051918Y-86917816D01*
X166216228Y-86950499D01*
X166216232Y-86950500D01*
X166216233Y-86950500D01*
X166383768Y-86950500D01*
X166383769Y-86950499D01*
X166548082Y-86917816D01*
X166702863Y-86853703D01*
X166842162Y-86760626D01*
X166960626Y-86642162D01*
X167053703Y-86502863D01*
X167117816Y-86348082D01*
X167150500Y-86183767D01*
X167150500Y-86016233D01*
X167117816Y-85851918D01*
X167053703Y-85697137D01*
X166990084Y-85601925D01*
X166960626Y-85557837D01*
X166842162Y-85439373D01*
X166702860Y-85346295D01*
X166548082Y-85282184D01*
X166548074Y-85282182D01*
X166383771Y-85249500D01*
X166383767Y-85249500D01*
X166216233Y-85249500D01*
X166216228Y-85249500D01*
X166051925Y-85282182D01*
X166051917Y-85282184D01*
X165897139Y-85346295D01*
X165757837Y-85439373D01*
X165639373Y-85557837D01*
X165546295Y-85697139D01*
X165482184Y-85851917D01*
X165482182Y-85851925D01*
X165449500Y-86016228D01*
X159750499Y-86016228D01*
X159750499Y-83199253D01*
X159770184Y-83132214D01*
X159822988Y-83086459D01*
X159892146Y-83076515D01*
X159921945Y-83084689D01*
X160001918Y-83117816D01*
X160166228Y-83150499D01*
X160166232Y-83150500D01*
X160166233Y-83150500D01*
X160333768Y-83150500D01*
X160333769Y-83150499D01*
X160498082Y-83117816D01*
X160652863Y-83053703D01*
X160792162Y-82960626D01*
X160910626Y-82842162D01*
X161003703Y-82702863D01*
X161067816Y-82548082D01*
X161100500Y-82383767D01*
X161100500Y-82366228D01*
X162399500Y-82366228D01*
X162399500Y-82533771D01*
X162432182Y-82698074D01*
X162432184Y-82698082D01*
X162496295Y-82852860D01*
X162589373Y-82992162D01*
X162707837Y-83110626D01*
X162767512Y-83150499D01*
X162847137Y-83203703D01*
X163001918Y-83267816D01*
X163166228Y-83300499D01*
X163166232Y-83300500D01*
X163166233Y-83300500D01*
X163333768Y-83300500D01*
X163333769Y-83300499D01*
X163498082Y-83267816D01*
X163652863Y-83203703D01*
X163792162Y-83110626D01*
X163910626Y-82992162D01*
X164003703Y-82852863D01*
X164067816Y-82698082D01*
X164100500Y-82533767D01*
X164100500Y-82366233D01*
X164067816Y-82201918D01*
X164005686Y-82051925D01*
X164003704Y-82047139D01*
X163973488Y-82001918D01*
X163961360Y-81983767D01*
X163910626Y-81907837D01*
X163792162Y-81789373D01*
X163652860Y-81696295D01*
X163498082Y-81632184D01*
X163498074Y-81632182D01*
X163333771Y-81599500D01*
X163333767Y-81599500D01*
X163166233Y-81599500D01*
X163166228Y-81599500D01*
X163001925Y-81632182D01*
X163001917Y-81632184D01*
X162847139Y-81696295D01*
X162707837Y-81789373D01*
X162589373Y-81907837D01*
X162496295Y-82047139D01*
X162432184Y-82201917D01*
X162432182Y-82201925D01*
X162399500Y-82366228D01*
X161100500Y-82366228D01*
X161100500Y-82216233D01*
X161067816Y-82051918D01*
X161003703Y-81897137D01*
X160970294Y-81847137D01*
X160910626Y-81757837D01*
X160792162Y-81639373D01*
X160652860Y-81546295D01*
X160498082Y-81482184D01*
X160498074Y-81482182D01*
X160333771Y-81449500D01*
X160333767Y-81449500D01*
X160166233Y-81449500D01*
X160166228Y-81449500D01*
X160001925Y-81482182D01*
X160001917Y-81482184D01*
X159847140Y-81546295D01*
X159749691Y-81611408D01*
X159683013Y-81632285D01*
X159615633Y-81613800D01*
X159568944Y-81561821D01*
X159564859Y-81552276D01*
X159534372Y-81471888D01*
X159393792Y-81204033D01*
X159221949Y-80955077D01*
X159217894Y-80950500D01*
X159021352Y-80728649D01*
X159021350Y-80728647D01*
X158794928Y-80528055D01*
X158794925Y-80528053D01*
X158794923Y-80528051D01*
X158585893Y-80383767D01*
X158545973Y-80356212D01*
X158545972Y-80356211D01*
X158545967Y-80356208D01*
X158278112Y-80215628D01*
X158217585Y-80192673D01*
X158042003Y-80126083D01*
X157995271Y-80108359D01*
X157879819Y-80079903D01*
X157701550Y-80035964D01*
X157539011Y-80016228D01*
X160849500Y-80016228D01*
X160849500Y-80183771D01*
X160882182Y-80348074D01*
X160882184Y-80348082D01*
X160946295Y-80502860D01*
X161039373Y-80642162D01*
X161157837Y-80760626D01*
X161241052Y-80816228D01*
X161297137Y-80853703D01*
X161451918Y-80917816D01*
X161616228Y-80950499D01*
X161616232Y-80950500D01*
X161616233Y-80950500D01*
X161783768Y-80950500D01*
X161783769Y-80950499D01*
X161948082Y-80917816D01*
X162102863Y-80853703D01*
X162242162Y-80760626D01*
X162360626Y-80642162D01*
X162453703Y-80502863D01*
X162517816Y-80348082D01*
X162544043Y-80216228D01*
X165099500Y-80216228D01*
X165099500Y-80383771D01*
X165132182Y-80548074D01*
X165132184Y-80548082D01*
X165196295Y-80702860D01*
X165289373Y-80842162D01*
X165407837Y-80960626D01*
X165500494Y-81022537D01*
X165547137Y-81053703D01*
X165701918Y-81117816D01*
X165845088Y-81146294D01*
X165866228Y-81150499D01*
X165866232Y-81150500D01*
X165866233Y-81150500D01*
X166033768Y-81150500D01*
X166033769Y-81150499D01*
X166198082Y-81117816D01*
X166352863Y-81053703D01*
X166492162Y-80960626D01*
X166610626Y-80842162D01*
X166703703Y-80702863D01*
X166767816Y-80548082D01*
X166800500Y-80383767D01*
X166800500Y-80216233D01*
X166767816Y-80051918D01*
X166703703Y-79897137D01*
X166639132Y-79800500D01*
X166610626Y-79757837D01*
X166492162Y-79639373D01*
X166352860Y-79546295D01*
X166198082Y-79482184D01*
X166198074Y-79482182D01*
X166033771Y-79449500D01*
X166033767Y-79449500D01*
X165866233Y-79449500D01*
X165866228Y-79449500D01*
X165701925Y-79482182D01*
X165701917Y-79482184D01*
X165547139Y-79546295D01*
X165407837Y-79639373D01*
X165289373Y-79757837D01*
X165196295Y-79897139D01*
X165132184Y-80051917D01*
X165132182Y-80051925D01*
X165099500Y-80216228D01*
X162544043Y-80216228D01*
X162550500Y-80183767D01*
X162550500Y-80016233D01*
X162517816Y-79851918D01*
X162453703Y-79697137D01*
X162395896Y-79610623D01*
X162360626Y-79557837D01*
X162242162Y-79439373D01*
X162128224Y-79363243D01*
X162102860Y-79346295D01*
X161948082Y-79282184D01*
X161948074Y-79282182D01*
X161867868Y-79266228D01*
X168149500Y-79266228D01*
X168149500Y-79433771D01*
X168182182Y-79598074D01*
X168182184Y-79598082D01*
X168246295Y-79752860D01*
X168339373Y-79892162D01*
X168457837Y-80010626D01*
X168519646Y-80051925D01*
X168597137Y-80103703D01*
X168597138Y-80103703D01*
X168597139Y-80103704D01*
X168608375Y-80108358D01*
X168751918Y-80167816D01*
X168916228Y-80200499D01*
X168916232Y-80200500D01*
X168916233Y-80200500D01*
X169083768Y-80200500D01*
X169083769Y-80200499D01*
X169248082Y-80167816D01*
X169402863Y-80103703D01*
X169542162Y-80010626D01*
X169660626Y-79892162D01*
X169753703Y-79752863D01*
X169817816Y-79598082D01*
X169850500Y-79433767D01*
X169850500Y-79266233D01*
X169817816Y-79101918D01*
X169753703Y-78947137D01*
X169715675Y-78890224D01*
X169660626Y-78807837D01*
X169542162Y-78689373D01*
X169402860Y-78596295D01*
X169248082Y-78532184D01*
X169248074Y-78532182D01*
X169083771Y-78499500D01*
X169083767Y-78499500D01*
X168916233Y-78499500D01*
X168916228Y-78499500D01*
X168751925Y-78532182D01*
X168751917Y-78532184D01*
X168597139Y-78596295D01*
X168457837Y-78689373D01*
X168339373Y-78807837D01*
X168246295Y-78947139D01*
X168182184Y-79101917D01*
X168182182Y-79101925D01*
X168149500Y-79266228D01*
X161867868Y-79266228D01*
X161783771Y-79249500D01*
X161783767Y-79249500D01*
X161616233Y-79249500D01*
X161616228Y-79249500D01*
X161451925Y-79282182D01*
X161451917Y-79282184D01*
X161297139Y-79346295D01*
X161157837Y-79439373D01*
X161039373Y-79557837D01*
X160946295Y-79697139D01*
X160882184Y-79851917D01*
X160882182Y-79851925D01*
X160849500Y-80016228D01*
X157539011Y-80016228D01*
X157521370Y-80014086D01*
X157401253Y-79999501D01*
X157401251Y-79999501D01*
X157315891Y-79999501D01*
X142815892Y-79999500D01*
X142750000Y-79999500D01*
X142598748Y-79999500D01*
X142598746Y-79999500D01*
X142507117Y-80010626D01*
X142298449Y-80035963D01*
X142149459Y-80072685D01*
X142004728Y-80108358D01*
X141721886Y-80215627D01*
X141556685Y-80302330D01*
X141454032Y-80356207D01*
X141454030Y-80356208D01*
X141454025Y-80356211D01*
X141205070Y-80528054D01*
X140978648Y-80728646D01*
X140978646Y-80728648D01*
X140778054Y-80955070D01*
X140606211Y-81204025D01*
X140606208Y-81204030D01*
X140606207Y-81204032D01*
X140554337Y-81302863D01*
X140465627Y-81471886D01*
X140358358Y-81754728D01*
X140333004Y-81857594D01*
X140285963Y-82048449D01*
X140278511Y-82109820D01*
X140249500Y-82348745D01*
X140249500Y-90667153D01*
X140229815Y-90734192D01*
X140177011Y-90779947D01*
X140107853Y-90789891D01*
X140044297Y-90760866D01*
X140010939Y-90714605D01*
X140003705Y-90697141D01*
X140003704Y-90697139D01*
X139910626Y-90557837D01*
X139792162Y-90439373D01*
X139652860Y-90346295D01*
X139498082Y-90282184D01*
X139498074Y-90282182D01*
X139333771Y-90249500D01*
X139333767Y-90249500D01*
X139166233Y-90249500D01*
X139166228Y-90249500D01*
X139001925Y-90282182D01*
X139001917Y-90282184D01*
X138847139Y-90346295D01*
X138707837Y-90439373D01*
X138589373Y-90557837D01*
X138496295Y-90697139D01*
X138432184Y-90851917D01*
X138432182Y-90851925D01*
X138399500Y-91016228D01*
X123691560Y-91016228D01*
X123849569Y-90319089D01*
X123850347Y-90315861D01*
X124193995Y-88968522D01*
X124194870Y-88965276D01*
X124250329Y-88770094D01*
X124572517Y-87636192D01*
X124573485Y-87632955D01*
X124586296Y-87592162D01*
X124782858Y-86966228D01*
X133799500Y-86966228D01*
X133799500Y-87133771D01*
X133832182Y-87298074D01*
X133832184Y-87298082D01*
X133896295Y-87452860D01*
X133989373Y-87592162D01*
X134107837Y-87710626D01*
X134200494Y-87772537D01*
X134247137Y-87803703D01*
X134401918Y-87867816D01*
X134566228Y-87900499D01*
X134566232Y-87900500D01*
X134566233Y-87900500D01*
X134733768Y-87900500D01*
X134733769Y-87900499D01*
X134898082Y-87867816D01*
X135052863Y-87803703D01*
X135192162Y-87710626D01*
X135310626Y-87592162D01*
X135403703Y-87452863D01*
X135467816Y-87298082D01*
X135500500Y-87133767D01*
X135500500Y-86966233D01*
X135467816Y-86801918D01*
X135403703Y-86647137D01*
X135333561Y-86542162D01*
X135310626Y-86507837D01*
X135192162Y-86389373D01*
X135052860Y-86296295D01*
X134898082Y-86232184D01*
X134898074Y-86232182D01*
X134733771Y-86199500D01*
X134733767Y-86199500D01*
X134566233Y-86199500D01*
X134566228Y-86199500D01*
X134401925Y-86232182D01*
X134401917Y-86232184D01*
X134247139Y-86296295D01*
X134107837Y-86389373D01*
X133989373Y-86507837D01*
X133896295Y-86647139D01*
X133832184Y-86801917D01*
X133832182Y-86801925D01*
X133799500Y-86966228D01*
X124782858Y-86966228D01*
X124983824Y-86326272D01*
X124984896Y-86323017D01*
X125211386Y-85666228D01*
X127899500Y-85666228D01*
X127899500Y-85833771D01*
X127932182Y-85998074D01*
X127932184Y-85998082D01*
X127996295Y-86152860D01*
X128089373Y-86292162D01*
X128207837Y-86410626D01*
X128300494Y-86472537D01*
X128347137Y-86503703D01*
X128347138Y-86503703D01*
X128347139Y-86503704D01*
X128363850Y-86510626D01*
X128501918Y-86567816D01*
X128666228Y-86600499D01*
X128666232Y-86600500D01*
X128666233Y-86600500D01*
X128833768Y-86600500D01*
X128833769Y-86600499D01*
X128998082Y-86567816D01*
X129152863Y-86503703D01*
X129292162Y-86410626D01*
X129410626Y-86292162D01*
X129503703Y-86152863D01*
X129567816Y-85998082D01*
X129600500Y-85833767D01*
X129600500Y-85833761D01*
X129600819Y-85832158D01*
X129615038Y-85804973D01*
X129627275Y-85776848D01*
X129631945Y-85772652D01*
X129633204Y-85770246D01*
X129638011Y-85766228D01*
X132049500Y-85766228D01*
X132049500Y-85933771D01*
X132082182Y-86098074D01*
X132082184Y-86098082D01*
X132146295Y-86252860D01*
X132239373Y-86392162D01*
X132357837Y-86510626D01*
X132443430Y-86567817D01*
X132497137Y-86603703D01*
X132651918Y-86667816D01*
X132816228Y-86700499D01*
X132816232Y-86700500D01*
X132816233Y-86700500D01*
X132983768Y-86700500D01*
X132983769Y-86700499D01*
X133148082Y-86667816D01*
X133302863Y-86603703D01*
X133442162Y-86510626D01*
X133560626Y-86392162D01*
X133653703Y-86252863D01*
X133717816Y-86098082D01*
X133750500Y-85933767D01*
X133750500Y-85916228D01*
X136099500Y-85916228D01*
X136099500Y-86083771D01*
X136132182Y-86248074D01*
X136132184Y-86248082D01*
X136196295Y-86402860D01*
X136289373Y-86542162D01*
X136407837Y-86660626D01*
X136467512Y-86700499D01*
X136547137Y-86753703D01*
X136701918Y-86817816D01*
X136866228Y-86850499D01*
X136866232Y-86850500D01*
X136866233Y-86850500D01*
X137033768Y-86850500D01*
X137033769Y-86850499D01*
X137198082Y-86817816D01*
X137352863Y-86753703D01*
X137492162Y-86660626D01*
X137610626Y-86542162D01*
X137703703Y-86402863D01*
X137767816Y-86248082D01*
X137800500Y-86083767D01*
X137800500Y-85916233D01*
X137767816Y-85751918D01*
X137705686Y-85601925D01*
X137703704Y-85597139D01*
X137610626Y-85457837D01*
X137492162Y-85339373D01*
X137352860Y-85246295D01*
X137198082Y-85182184D01*
X137198074Y-85182182D01*
X137033771Y-85149500D01*
X137033767Y-85149500D01*
X136866233Y-85149500D01*
X136866228Y-85149500D01*
X136701925Y-85182182D01*
X136701917Y-85182184D01*
X136547139Y-85246295D01*
X136407837Y-85339373D01*
X136289373Y-85457837D01*
X136196295Y-85597139D01*
X136132184Y-85751917D01*
X136132182Y-85751925D01*
X136099500Y-85916228D01*
X133750500Y-85916228D01*
X133750500Y-85766233D01*
X133717816Y-85601918D01*
X133653703Y-85447137D01*
X133622537Y-85400494D01*
X133560626Y-85307837D01*
X133442162Y-85189373D01*
X133302860Y-85096295D01*
X133148082Y-85032184D01*
X133148074Y-85032182D01*
X132983771Y-84999500D01*
X132983767Y-84999500D01*
X132816233Y-84999500D01*
X132816228Y-84999500D01*
X132651925Y-85032182D01*
X132651917Y-85032184D01*
X132497139Y-85096295D01*
X132357837Y-85189373D01*
X132239373Y-85307837D01*
X132146295Y-85447139D01*
X132082184Y-85601917D01*
X132082182Y-85601925D01*
X132049500Y-85766228D01*
X129638011Y-85766228D01*
X129653524Y-85753261D01*
X129792162Y-85660626D01*
X129910626Y-85542162D01*
X130003703Y-85402863D01*
X130067816Y-85248082D01*
X130100500Y-85083767D01*
X130100500Y-84916233D01*
X130067816Y-84751918D01*
X130003703Y-84597137D01*
X129972537Y-84550494D01*
X129910626Y-84457837D01*
X129792162Y-84339373D01*
X129652860Y-84246295D01*
X129498082Y-84182184D01*
X129498074Y-84182182D01*
X129333771Y-84149500D01*
X129333767Y-84149500D01*
X129166233Y-84149500D01*
X129166228Y-84149500D01*
X129001925Y-84182182D01*
X129001917Y-84182184D01*
X128847139Y-84246295D01*
X128707837Y-84339373D01*
X128589373Y-84457837D01*
X128496295Y-84597139D01*
X128432184Y-84751917D01*
X128432182Y-84751925D01*
X128399179Y-84917843D01*
X128366794Y-84979754D01*
X128346453Y-84996754D01*
X128207838Y-85089373D01*
X128207834Y-85089376D01*
X128089373Y-85207837D01*
X127996295Y-85347139D01*
X127932184Y-85501917D01*
X127932182Y-85501925D01*
X127899500Y-85666228D01*
X125211386Y-85666228D01*
X125426763Y-85041666D01*
X125427912Y-85038480D01*
X125900169Y-83784816D01*
X125901415Y-83781643D01*
X126403053Y-82557291D01*
X126404433Y-82554054D01*
X126576635Y-82166228D01*
X130649500Y-82166228D01*
X130649500Y-82333771D01*
X130682182Y-82498074D01*
X130682184Y-82498082D01*
X130746295Y-82652859D01*
X130746302Y-82652872D01*
X130765170Y-82681111D01*
X130786047Y-82747789D01*
X130767561Y-82815168D01*
X130765170Y-82818889D01*
X130746302Y-82847127D01*
X130746295Y-82847140D01*
X130682184Y-83001917D01*
X130682182Y-83001925D01*
X130649500Y-83166228D01*
X130649500Y-83333771D01*
X130682182Y-83498074D01*
X130682184Y-83498082D01*
X130746295Y-83652860D01*
X130839373Y-83792162D01*
X130957837Y-83910626D01*
X131050494Y-83972537D01*
X131097137Y-84003703D01*
X131251918Y-84067816D01*
X131416228Y-84100499D01*
X131416232Y-84100500D01*
X131416233Y-84100500D01*
X131583768Y-84100500D01*
X131583769Y-84100499D01*
X131748082Y-84067816D01*
X131902863Y-84003703D01*
X132042162Y-83910626D01*
X132160626Y-83792162D01*
X132253703Y-83652863D01*
X132317816Y-83498082D01*
X132350500Y-83333767D01*
X132350500Y-83166233D01*
X132317816Y-83001918D01*
X132253703Y-82847137D01*
X132234828Y-82818889D01*
X132213951Y-82752214D01*
X132232435Y-82684834D01*
X132234829Y-82681109D01*
X132253703Y-82652863D01*
X132317816Y-82498082D01*
X132350500Y-82333767D01*
X132350500Y-82166233D01*
X132317816Y-82001918D01*
X132286360Y-81925979D01*
X132258035Y-81857594D01*
X132258034Y-81857593D01*
X132253705Y-81847140D01*
X132253704Y-81847139D01*
X132233053Y-81816233D01*
X132233050Y-81816228D01*
X137899500Y-81816228D01*
X137899500Y-81983771D01*
X137932182Y-82148074D01*
X137932184Y-82148082D01*
X137996295Y-82302860D01*
X138089373Y-82442162D01*
X138207837Y-82560626D01*
X138300494Y-82622537D01*
X138347137Y-82653703D01*
X138501918Y-82717816D01*
X138652604Y-82747789D01*
X138666228Y-82750499D01*
X138666232Y-82750500D01*
X138666233Y-82750500D01*
X138833768Y-82750500D01*
X138833769Y-82750499D01*
X138998082Y-82717816D01*
X139152863Y-82653703D01*
X139292162Y-82560626D01*
X139410626Y-82442162D01*
X139503703Y-82302863D01*
X139567816Y-82148082D01*
X139600500Y-81983767D01*
X139600500Y-81816233D01*
X139598277Y-81805057D01*
X139604504Y-81735465D01*
X139647366Y-81680287D01*
X139672438Y-81666305D01*
X139702863Y-81653703D01*
X139842162Y-81560626D01*
X139960626Y-81442162D01*
X140053703Y-81302863D01*
X140117816Y-81148082D01*
X140150500Y-80983767D01*
X140150500Y-80816233D01*
X140117816Y-80651918D01*
X140053703Y-80497137D01*
X139977952Y-80383768D01*
X139960626Y-80357837D01*
X139842162Y-80239373D01*
X139702860Y-80146295D01*
X139548082Y-80082184D01*
X139548074Y-80082182D01*
X139383771Y-80049500D01*
X139383767Y-80049500D01*
X139216233Y-80049500D01*
X139216228Y-80049500D01*
X139051925Y-80082182D01*
X139051917Y-80082184D01*
X138897139Y-80146295D01*
X138757837Y-80239373D01*
X138639373Y-80357837D01*
X138546295Y-80497139D01*
X138482184Y-80651917D01*
X138482182Y-80651925D01*
X138449500Y-80816228D01*
X138449500Y-80983770D01*
X138451723Y-80994947D01*
X138445493Y-81064538D01*
X138402629Y-81119714D01*
X138377560Y-81133694D01*
X138347140Y-81146294D01*
X138347139Y-81146295D01*
X138207837Y-81239373D01*
X138089373Y-81357837D01*
X137996295Y-81497139D01*
X137932184Y-81651917D01*
X137932182Y-81651925D01*
X137899500Y-81816228D01*
X132233050Y-81816228D01*
X132194035Y-81757838D01*
X132160626Y-81707837D01*
X132042162Y-81589373D01*
X131902860Y-81496295D01*
X131748082Y-81432184D01*
X131748074Y-81432182D01*
X131583771Y-81399500D01*
X131583767Y-81399500D01*
X131416233Y-81399500D01*
X131416228Y-81399500D01*
X131251925Y-81432182D01*
X131251917Y-81432184D01*
X131097139Y-81496295D01*
X130957837Y-81589373D01*
X130839373Y-81707837D01*
X130746295Y-81847139D01*
X130682184Y-82001917D01*
X130682182Y-82001925D01*
X130649500Y-82166228D01*
X126576635Y-82166228D01*
X126934564Y-81360119D01*
X126936014Y-81356979D01*
X127493800Y-80194310D01*
X127495417Y-80191066D01*
X127841114Y-79522457D01*
X127889387Y-79471950D01*
X127957307Y-79455559D01*
X128023307Y-79478489D01*
X128038941Y-79491730D01*
X128157837Y-79610626D01*
X128200862Y-79639374D01*
X128297137Y-79703703D01*
X128451918Y-79767816D01*
X128604157Y-79798098D01*
X128616228Y-79800499D01*
X128616232Y-79800500D01*
X128616233Y-79800500D01*
X128783768Y-79800500D01*
X128783769Y-79800499D01*
X128948082Y-79767816D01*
X129102863Y-79703703D01*
X129179378Y-79652577D01*
X146025975Y-79652577D01*
X146131236Y-79696178D01*
X146131240Y-79696179D01*
X146276126Y-79724999D01*
X146276129Y-79725000D01*
X146423871Y-79725000D01*
X146423873Y-79724999D01*
X146568760Y-79696179D01*
X146568775Y-79696175D01*
X146674024Y-79652578D01*
X146674024Y-79652577D01*
X146350001Y-79328554D01*
X146350000Y-79328554D01*
X146025975Y-79652577D01*
X129179378Y-79652577D01*
X129242162Y-79610626D01*
X129254714Y-79598074D01*
X129328707Y-79524082D01*
X129360623Y-79492165D01*
X129360626Y-79492162D01*
X129395898Y-79439374D01*
X129453703Y-79352863D01*
X129517816Y-79198082D01*
X129550500Y-79033767D01*
X129550500Y-78866233D01*
X129517816Y-78701918D01*
X129453703Y-78547137D01*
X129401333Y-78468760D01*
X129360626Y-78407837D01*
X129242162Y-78289373D01*
X129102860Y-78196295D01*
X128948082Y-78132184D01*
X128948076Y-78132182D01*
X128945942Y-78131758D01*
X128945942Y-78131757D01*
X128799386Y-78102606D01*
X128737475Y-78070221D01*
X128706729Y-78016228D01*
X141949500Y-78016228D01*
X141949500Y-78183771D01*
X141982182Y-78348074D01*
X141982184Y-78348082D01*
X142046295Y-78502860D01*
X142139373Y-78642162D01*
X142257837Y-78760626D01*
X142292312Y-78783661D01*
X142397137Y-78853703D01*
X142551918Y-78917816D01*
X142699326Y-78947137D01*
X142716228Y-78950499D01*
X142716232Y-78950500D01*
X142716233Y-78950500D01*
X142883768Y-78950500D01*
X142883769Y-78950499D01*
X142999009Y-78927577D01*
X145050975Y-78927577D01*
X145156236Y-78971178D01*
X145156240Y-78971179D01*
X145301126Y-78999999D01*
X145301129Y-79000000D01*
X145448870Y-79000000D01*
X145463277Y-78997134D01*
X145532868Y-79003360D01*
X145588046Y-79046222D01*
X145609087Y-79094559D01*
X145628820Y-79193761D01*
X145628822Y-79193767D01*
X145672421Y-79299024D01*
X145952161Y-79019285D01*
X145884091Y-79007008D01*
X145829816Y-79007008D01*
X145762777Y-78987323D01*
X145742135Y-78970689D01*
X145726555Y-78955109D01*
X146250000Y-78955109D01*
X146250000Y-78994891D01*
X146265224Y-79031645D01*
X146293355Y-79059776D01*
X146330109Y-79075000D01*
X146369891Y-79075000D01*
X146406645Y-79059776D01*
X146434776Y-79031645D01*
X146450000Y-78994891D01*
X146450000Y-78975000D01*
X146703554Y-78975000D01*
X147027577Y-79299024D01*
X147027578Y-79299024D01*
X147071175Y-79193775D01*
X147071179Y-79193760D01*
X147090912Y-79094560D01*
X147123297Y-79032649D01*
X147184012Y-78998075D01*
X147236721Y-78997134D01*
X147251128Y-79000000D01*
X147398871Y-79000000D01*
X147398873Y-78999999D01*
X147543760Y-78971179D01*
X147543775Y-78971175D01*
X147649024Y-78927578D01*
X147649024Y-78927577D01*
X147325000Y-78603554D01*
X146957865Y-78970689D01*
X146930937Y-78985392D01*
X146905119Y-79001985D01*
X146898918Y-79002876D01*
X146896542Y-79004174D01*
X146870184Y-79007008D01*
X146804816Y-79007008D01*
X146737777Y-78987323D01*
X146717135Y-78970689D01*
X146712500Y-78966054D01*
X146703554Y-78975000D01*
X146450000Y-78975000D01*
X146450000Y-78955109D01*
X146434776Y-78918355D01*
X146406645Y-78890224D01*
X146369891Y-78875000D01*
X146330109Y-78875000D01*
X146293355Y-78890224D01*
X146265224Y-78918355D01*
X146250000Y-78955109D01*
X145726555Y-78955109D01*
X145420266Y-78648819D01*
X145383947Y-78612500D01*
X146341054Y-78612500D01*
X146350000Y-78621446D01*
X146358946Y-78612500D01*
X146350000Y-78603554D01*
X146341054Y-78612500D01*
X145383947Y-78612500D01*
X145375001Y-78603554D01*
X145375000Y-78603554D01*
X145050975Y-78927577D01*
X142999009Y-78927577D01*
X143048082Y-78917816D01*
X143202863Y-78853703D01*
X143342162Y-78760626D01*
X143460626Y-78642162D01*
X143553703Y-78502863D01*
X143617816Y-78348082D01*
X143650500Y-78183767D01*
X143650500Y-78176126D01*
X144625000Y-78176126D01*
X144625000Y-78323873D01*
X144653820Y-78468759D01*
X144653822Y-78468767D01*
X144697421Y-78574024D01*
X145021446Y-78250000D01*
X145021446Y-78249999D01*
X145001556Y-78230109D01*
X145275000Y-78230109D01*
X145275000Y-78269891D01*
X145290224Y-78306645D01*
X145318355Y-78334776D01*
X145355109Y-78350000D01*
X145394891Y-78350000D01*
X145431645Y-78334776D01*
X145459776Y-78306645D01*
X145475000Y-78269891D01*
X145475000Y-78250000D01*
X145728554Y-78250000D01*
X145779523Y-78300969D01*
X145780523Y-78299969D01*
X145780523Y-78230109D01*
X146250000Y-78230109D01*
X146250000Y-78269891D01*
X146265224Y-78306645D01*
X146293355Y-78334776D01*
X146330109Y-78350000D01*
X146369891Y-78350000D01*
X146406645Y-78334776D01*
X146434776Y-78306645D01*
X146450000Y-78269891D01*
X146450000Y-78250375D01*
X146862502Y-78250375D01*
X146883158Y-78263650D01*
X146920477Y-78300969D01*
X146971446Y-78250000D01*
X146951555Y-78230109D01*
X147225000Y-78230109D01*
X147225000Y-78269891D01*
X147240224Y-78306645D01*
X147268355Y-78334776D01*
X147305109Y-78350000D01*
X147344891Y-78350000D01*
X147381645Y-78334776D01*
X147409776Y-78306645D01*
X147425000Y-78269891D01*
X147425000Y-78249999D01*
X147678554Y-78249999D01*
X147678554Y-78250001D01*
X148002577Y-78574024D01*
X148002578Y-78574024D01*
X148046175Y-78468775D01*
X148046179Y-78468760D01*
X148074999Y-78323873D01*
X148075000Y-78323871D01*
X148075000Y-78266228D01*
X151999500Y-78266228D01*
X151999500Y-78433771D01*
X152032182Y-78598074D01*
X152032184Y-78598082D01*
X152096295Y-78752860D01*
X152189373Y-78892162D01*
X152307837Y-79010626D01*
X152400494Y-79072537D01*
X152447137Y-79103703D01*
X152601918Y-79167816D01*
X152732384Y-79193767D01*
X152766228Y-79200499D01*
X152766232Y-79200500D01*
X152766233Y-79200500D01*
X152933768Y-79200500D01*
X152933769Y-79200499D01*
X153098082Y-79167816D01*
X153252863Y-79103703D01*
X153392162Y-79010626D01*
X153510626Y-78892162D01*
X153603703Y-78752863D01*
X153667816Y-78598082D01*
X153700500Y-78433767D01*
X153700500Y-78266233D01*
X153667816Y-78101918D01*
X153607647Y-77956658D01*
X153603704Y-77947139D01*
X153510626Y-77807837D01*
X153392162Y-77689373D01*
X153252860Y-77596295D01*
X153098082Y-77532184D01*
X153098074Y-77532182D01*
X152933771Y-77499500D01*
X152933767Y-77499500D01*
X152766233Y-77499500D01*
X152766228Y-77499500D01*
X152601925Y-77532182D01*
X152601917Y-77532184D01*
X152447139Y-77596295D01*
X152307837Y-77689373D01*
X152189373Y-77807837D01*
X152096295Y-77947139D01*
X152032184Y-78101917D01*
X152032182Y-78101925D01*
X151999500Y-78266228D01*
X148075000Y-78266228D01*
X148075000Y-78176128D01*
X148074999Y-78176126D01*
X148046179Y-78031240D01*
X148046178Y-78031236D01*
X148002577Y-77925975D01*
X147678554Y-78249999D01*
X147425000Y-78249999D01*
X147425000Y-78230109D01*
X147409776Y-78193355D01*
X147381645Y-78165224D01*
X147344891Y-78150000D01*
X147305109Y-78150000D01*
X147268355Y-78165224D01*
X147240224Y-78193355D01*
X147225000Y-78230109D01*
X146951555Y-78230109D01*
X146920477Y-78199031D01*
X146883158Y-78236350D01*
X146868215Y-78244509D01*
X146862502Y-78250375D01*
X146450000Y-78250375D01*
X146450000Y-78230109D01*
X146434776Y-78193355D01*
X146406645Y-78165224D01*
X146369891Y-78150000D01*
X146330109Y-78150000D01*
X146293355Y-78165224D01*
X146265224Y-78193355D01*
X146250000Y-78230109D01*
X145780523Y-78230109D01*
X145780523Y-78200031D01*
X145779523Y-78199031D01*
X145728554Y-78250000D01*
X145475000Y-78250000D01*
X145475000Y-78230109D01*
X145459776Y-78193355D01*
X145431645Y-78165224D01*
X145394891Y-78150000D01*
X145355109Y-78150000D01*
X145318355Y-78165224D01*
X145290224Y-78193355D01*
X145275000Y-78230109D01*
X145001556Y-78230109D01*
X144697421Y-77925974D01*
X144697420Y-77925974D01*
X144653823Y-78031228D01*
X144653820Y-78031240D01*
X144625000Y-78176126D01*
X143650500Y-78176126D01*
X143650500Y-78016233D01*
X143617816Y-77851918D01*
X143553703Y-77697137D01*
X143543673Y-77682126D01*
X143470370Y-77572420D01*
X145050974Y-77572420D01*
X145050974Y-77572421D01*
X145374999Y-77896446D01*
X145383945Y-77887500D01*
X146341054Y-77887500D01*
X146350000Y-77896446D01*
X146358946Y-77887500D01*
X146350000Y-77878554D01*
X146341054Y-77887500D01*
X145383945Y-77887500D01*
X145522989Y-77748457D01*
X145742135Y-77529311D01*
X145769062Y-77514607D01*
X145794881Y-77498015D01*
X145801081Y-77497123D01*
X145803458Y-77495826D01*
X145829816Y-77492992D01*
X145895184Y-77492992D01*
X145962223Y-77512677D01*
X145982865Y-77529311D01*
X145987500Y-77533946D01*
X145996446Y-77525000D01*
X145996446Y-77524999D01*
X145976556Y-77505109D01*
X146250000Y-77505109D01*
X146250000Y-77544891D01*
X146265224Y-77581645D01*
X146293355Y-77609776D01*
X146330109Y-77625000D01*
X146369891Y-77625000D01*
X146406645Y-77609776D01*
X146434776Y-77581645D01*
X146450000Y-77544891D01*
X146450000Y-77524999D01*
X146703554Y-77524999D01*
X146712500Y-77533945D01*
X146717135Y-77529311D01*
X146744062Y-77514607D01*
X146769881Y-77498015D01*
X146776081Y-77497123D01*
X146778458Y-77495826D01*
X146804816Y-77492992D01*
X146870184Y-77492992D01*
X146937223Y-77512677D01*
X146957865Y-77529311D01*
X147325000Y-77896446D01*
X147325001Y-77896446D01*
X147649024Y-77572421D01*
X147543767Y-77528822D01*
X147543759Y-77528820D01*
X147398872Y-77500000D01*
X147251124Y-77500000D01*
X147236715Y-77502866D01*
X147167124Y-77496636D01*
X147111948Y-77453771D01*
X147090912Y-77405439D01*
X147071179Y-77306240D01*
X147071178Y-77306236D01*
X147027577Y-77200975D01*
X146703554Y-77524999D01*
X146450000Y-77524999D01*
X146450000Y-77505109D01*
X146434776Y-77468355D01*
X146406645Y-77440224D01*
X146369891Y-77425000D01*
X146330109Y-77425000D01*
X146293355Y-77440224D01*
X146265224Y-77468355D01*
X146250000Y-77505109D01*
X145976556Y-77505109D01*
X145672421Y-77200974D01*
X145672420Y-77200974D01*
X145628823Y-77306228D01*
X145628821Y-77306237D01*
X145609087Y-77405441D01*
X145576701Y-77467351D01*
X145515985Y-77501925D01*
X145463282Y-77502866D01*
X145448871Y-77500000D01*
X145301128Y-77500000D01*
X145156240Y-77528820D01*
X145156228Y-77528823D01*
X145050974Y-77572420D01*
X143470370Y-77572420D01*
X143460629Y-77557842D01*
X143460623Y-77557834D01*
X143342162Y-77439373D01*
X143202860Y-77346295D01*
X143048082Y-77282184D01*
X143048074Y-77282182D01*
X142883771Y-77249500D01*
X142883767Y-77249500D01*
X142716233Y-77249500D01*
X142716228Y-77249500D01*
X142551925Y-77282182D01*
X142551917Y-77282184D01*
X142397139Y-77346295D01*
X142257837Y-77439373D01*
X142139373Y-77557837D01*
X142046295Y-77697139D01*
X141982184Y-77851917D01*
X141982182Y-77851925D01*
X141949500Y-78016228D01*
X128706729Y-78016228D01*
X128702901Y-78009506D01*
X128706640Y-77939736D01*
X128717101Y-77917438D01*
X129331317Y-76888550D01*
X129333272Y-76885387D01*
X129995160Y-75851145D01*
X129997281Y-75847944D01*
X130179939Y-75581400D01*
X130234072Y-75537228D01*
X130303495Y-75529335D01*
X130366164Y-75560227D01*
X130392533Y-75597959D01*
X130393422Y-75597485D01*
X130396295Y-75602860D01*
X130489373Y-75742162D01*
X130607837Y-75860626D01*
X130671045Y-75902860D01*
X130747137Y-75953703D01*
X130901918Y-76017816D01*
X131024315Y-76042162D01*
X131066228Y-76050499D01*
X131066232Y-76050500D01*
X131066233Y-76050500D01*
X131233768Y-76050500D01*
X131233769Y-76050499D01*
X131398082Y-76017816D01*
X131552863Y-75953703D01*
X131692162Y-75860626D01*
X131810626Y-75742162D01*
X131903703Y-75602863D01*
X131967816Y-75448082D01*
X132000500Y-75283767D01*
X132000500Y-75166228D01*
X141449500Y-75166228D01*
X141449500Y-75333771D01*
X141482182Y-75498074D01*
X141482184Y-75498082D01*
X141546295Y-75652860D01*
X141639373Y-75792162D01*
X141757837Y-75910626D01*
X141850494Y-75972537D01*
X141897137Y-76003703D01*
X142051918Y-76067816D01*
X142174315Y-76092162D01*
X142216228Y-76100499D01*
X142216232Y-76100500D01*
X142216233Y-76100500D01*
X142383768Y-76100500D01*
X142383769Y-76100499D01*
X142548082Y-76067816D01*
X142702863Y-76003703D01*
X142842162Y-75910626D01*
X142960626Y-75792162D01*
X143011364Y-75716228D01*
X145199500Y-75716228D01*
X145199500Y-75883771D01*
X145232182Y-76048074D01*
X145232184Y-76048082D01*
X145296295Y-76202860D01*
X145389373Y-76342162D01*
X145507837Y-76460626D01*
X145600494Y-76522537D01*
X145647137Y-76553703D01*
X145801918Y-76617816D01*
X145873498Y-76632054D01*
X145939762Y-76645235D01*
X146001673Y-76677619D01*
X146036247Y-76738335D01*
X146037189Y-76791042D01*
X146025974Y-76847421D01*
X146350000Y-77171446D01*
X146350001Y-77171446D01*
X146674024Y-76847421D01*
X146568767Y-76803822D01*
X146568761Y-76803820D01*
X146483165Y-76786794D01*
X146421254Y-76754409D01*
X146386680Y-76693693D01*
X146390420Y-76623924D01*
X146431287Y-76567252D01*
X146448904Y-76555818D01*
X146452843Y-76553710D01*
X146452863Y-76553703D01*
X146592162Y-76460626D01*
X146710626Y-76342162D01*
X146803703Y-76202863D01*
X146867816Y-76048082D01*
X146900500Y-75883767D01*
X146900500Y-75816228D01*
X151749500Y-75816228D01*
X151749500Y-75983771D01*
X151782182Y-76148074D01*
X151782184Y-76148082D01*
X151846295Y-76302860D01*
X151939373Y-76442162D01*
X152057837Y-76560626D01*
X152143430Y-76617817D01*
X152197137Y-76653703D01*
X152351918Y-76717816D01*
X152516228Y-76750499D01*
X152516232Y-76750500D01*
X152516233Y-76750500D01*
X152683768Y-76750500D01*
X152683769Y-76750499D01*
X152848082Y-76717816D01*
X153002863Y-76653703D01*
X153142162Y-76560626D01*
X153260626Y-76442162D01*
X153353703Y-76302863D01*
X153417816Y-76148082D01*
X153450500Y-75983767D01*
X153450500Y-75816233D01*
X153417816Y-75651918D01*
X153367040Y-75529335D01*
X153353704Y-75497139D01*
X153350378Y-75492162D01*
X153320920Y-75448074D01*
X153260626Y-75357837D01*
X153153810Y-75251021D01*
X153120325Y-75189698D01*
X153125309Y-75120006D01*
X153167181Y-75064073D01*
X153194033Y-75048781D01*
X153302863Y-75003703D01*
X153442162Y-74910626D01*
X153486560Y-74866228D01*
X154449500Y-74866228D01*
X154449500Y-75033771D01*
X154482182Y-75198074D01*
X154482184Y-75198082D01*
X154546295Y-75352860D01*
X154639373Y-75492162D01*
X154757837Y-75610626D01*
X154819646Y-75651925D01*
X154897137Y-75703703D01*
X155051918Y-75767816D01*
X155174315Y-75792162D01*
X155216228Y-75800499D01*
X155216232Y-75800500D01*
X155216233Y-75800500D01*
X155383768Y-75800500D01*
X155383769Y-75800499D01*
X155548082Y-75767816D01*
X155702863Y-75703703D01*
X155842162Y-75610626D01*
X155960626Y-75492162D01*
X156011364Y-75416228D01*
X162249500Y-75416228D01*
X162249500Y-75583771D01*
X162282182Y-75748074D01*
X162282184Y-75748082D01*
X162346295Y-75902860D01*
X162439373Y-76042162D01*
X162557837Y-76160626D01*
X162600060Y-76188838D01*
X162697137Y-76253703D01*
X162851918Y-76317816D01*
X162974315Y-76342162D01*
X163016228Y-76350499D01*
X163016232Y-76350500D01*
X163016233Y-76350500D01*
X163183768Y-76350500D01*
X163183769Y-76350499D01*
X163348082Y-76317816D01*
X163502863Y-76253703D01*
X163568694Y-76209715D01*
X163635370Y-76188838D01*
X163702750Y-76207322D01*
X163706474Y-76209716D01*
X163845875Y-76302860D01*
X163847137Y-76303703D01*
X164001918Y-76367816D01*
X164166228Y-76400499D01*
X164166232Y-76400500D01*
X164166233Y-76400500D01*
X164333768Y-76400500D01*
X164333769Y-76400499D01*
X164498082Y-76367816D01*
X164652863Y-76303703D01*
X164792162Y-76210626D01*
X164910626Y-76092162D01*
X165003703Y-75952863D01*
X165067816Y-75798082D01*
X165100500Y-75633767D01*
X165100500Y-75466233D01*
X165067816Y-75301918D01*
X165011613Y-75166233D01*
X165003704Y-75147139D01*
X165003141Y-75146297D01*
X164936324Y-75046297D01*
X164910626Y-75007837D01*
X164792162Y-74889373D01*
X164652860Y-74796295D01*
X164498082Y-74732184D01*
X164498074Y-74732182D01*
X164333771Y-74699500D01*
X164333767Y-74699500D01*
X164166233Y-74699500D01*
X164166228Y-74699500D01*
X164001925Y-74732182D01*
X164001917Y-74732184D01*
X163847140Y-74796295D01*
X163781305Y-74840284D01*
X163714627Y-74861161D01*
X163647247Y-74842676D01*
X163643525Y-74840284D01*
X163570132Y-74791245D01*
X163502863Y-74746297D01*
X163502860Y-74746295D01*
X163502859Y-74746295D01*
X163348082Y-74682184D01*
X163348074Y-74682182D01*
X163183771Y-74649500D01*
X163183767Y-74649500D01*
X163016233Y-74649500D01*
X163016228Y-74649500D01*
X162851925Y-74682182D01*
X162851917Y-74682184D01*
X162697139Y-74746295D01*
X162557837Y-74839373D01*
X162439373Y-74957837D01*
X162346295Y-75097139D01*
X162282184Y-75251917D01*
X162282182Y-75251925D01*
X162249500Y-75416228D01*
X156011364Y-75416228D01*
X156053703Y-75352863D01*
X156117816Y-75198082D01*
X156150500Y-75033767D01*
X156150500Y-74866233D01*
X156117816Y-74701918D01*
X156062268Y-74567815D01*
X156053704Y-74547139D01*
X155960626Y-74407837D01*
X155842162Y-74289373D01*
X155732692Y-74216228D01*
X160549500Y-74216228D01*
X160549500Y-74383771D01*
X160582182Y-74548074D01*
X160582184Y-74548082D01*
X160646295Y-74702860D01*
X160739373Y-74842162D01*
X160857837Y-74960626D01*
X160922310Y-75003705D01*
X160997137Y-75053703D01*
X161151918Y-75117816D01*
X161295093Y-75146295D01*
X161316228Y-75150499D01*
X161316232Y-75150500D01*
X161316233Y-75150500D01*
X161483768Y-75150500D01*
X161483769Y-75150499D01*
X161648082Y-75117816D01*
X161802863Y-75053703D01*
X161942162Y-74960626D01*
X162060626Y-74842162D01*
X162153703Y-74702863D01*
X162217816Y-74548082D01*
X162250500Y-74383767D01*
X162250500Y-74216233D01*
X162217816Y-74051918D01*
X162153703Y-73897137D01*
X162111360Y-73833767D01*
X162060626Y-73757837D01*
X161942162Y-73639373D01*
X161802860Y-73546295D01*
X161648082Y-73482184D01*
X161648074Y-73482182D01*
X161483771Y-73449500D01*
X161483767Y-73449500D01*
X161316233Y-73449500D01*
X161316228Y-73449500D01*
X161151925Y-73482182D01*
X161151917Y-73482184D01*
X160997139Y-73546295D01*
X160857837Y-73639373D01*
X160739373Y-73757837D01*
X160646295Y-73897139D01*
X160582184Y-74051917D01*
X160582182Y-74051925D01*
X160549500Y-74216228D01*
X155732692Y-74216228D01*
X155702860Y-74196295D01*
X155548082Y-74132184D01*
X155548074Y-74132182D01*
X155383771Y-74099500D01*
X155383767Y-74099500D01*
X155216233Y-74099500D01*
X155216228Y-74099500D01*
X155051925Y-74132182D01*
X155051917Y-74132184D01*
X154897139Y-74196295D01*
X154757837Y-74289373D01*
X154639373Y-74407837D01*
X154546295Y-74547139D01*
X154482184Y-74701917D01*
X154482182Y-74701925D01*
X154449500Y-74866228D01*
X153486560Y-74866228D01*
X153560626Y-74792162D01*
X153560843Y-74791836D01*
X153561238Y-74791247D01*
X153561239Y-74791245D01*
X153600702Y-74732184D01*
X153653703Y-74652863D01*
X153717816Y-74498082D01*
X153750500Y-74333767D01*
X153750500Y-74166233D01*
X153717816Y-74001918D01*
X153662933Y-73869421D01*
X153653704Y-73847139D01*
X153560626Y-73707837D01*
X153442162Y-73589373D01*
X153302860Y-73496295D01*
X153148082Y-73432184D01*
X153148074Y-73432182D01*
X152983771Y-73399500D01*
X152983767Y-73399500D01*
X152816233Y-73399500D01*
X152816228Y-73399500D01*
X152651925Y-73432182D01*
X152651917Y-73432184D01*
X152497139Y-73496295D01*
X152357837Y-73589373D01*
X152239373Y-73707837D01*
X152146295Y-73847139D01*
X152082184Y-74001917D01*
X152082182Y-74001925D01*
X152049500Y-74166228D01*
X152049500Y-74333771D01*
X152082182Y-74498074D01*
X152082184Y-74498082D01*
X152146295Y-74652860D01*
X152239373Y-74792162D01*
X152346189Y-74898978D01*
X152379674Y-74960301D01*
X152374690Y-75029993D01*
X152332818Y-75085926D01*
X152305961Y-75101220D01*
X152197139Y-75146295D01*
X152057837Y-75239373D01*
X151939373Y-75357837D01*
X151846295Y-75497139D01*
X151782184Y-75651917D01*
X151782182Y-75651925D01*
X151749500Y-75816228D01*
X146900500Y-75816228D01*
X146900500Y-75716233D01*
X146867816Y-75551918D01*
X146803703Y-75397137D01*
X146740084Y-75301925D01*
X146710626Y-75257837D01*
X146592162Y-75139373D01*
X146452860Y-75046295D01*
X146298082Y-74982184D01*
X146298074Y-74982182D01*
X146133771Y-74949500D01*
X146133767Y-74949500D01*
X145966233Y-74949500D01*
X145966228Y-74949500D01*
X145801925Y-74982182D01*
X145801917Y-74982184D01*
X145647139Y-75046295D01*
X145507837Y-75139373D01*
X145389373Y-75257837D01*
X145296295Y-75397139D01*
X145232184Y-75551917D01*
X145232182Y-75551925D01*
X145199500Y-75716228D01*
X143011364Y-75716228D01*
X143053703Y-75652863D01*
X143117816Y-75498082D01*
X143150500Y-75333767D01*
X143150500Y-75166233D01*
X143117816Y-75001918D01*
X143061613Y-74866233D01*
X143053704Y-74847139D01*
X143050378Y-74842162D01*
X142986324Y-74746297D01*
X142960626Y-74707837D01*
X142842162Y-74589373D01*
X142702860Y-74496295D01*
X142548082Y-74432184D01*
X142548074Y-74432182D01*
X142383771Y-74399500D01*
X142383767Y-74399500D01*
X142216233Y-74399500D01*
X142216228Y-74399500D01*
X142051925Y-74432182D01*
X142051917Y-74432184D01*
X141897139Y-74496295D01*
X141757837Y-74589373D01*
X141639373Y-74707837D01*
X141546295Y-74847139D01*
X141482184Y-75001917D01*
X141482182Y-75001925D01*
X141449500Y-75166228D01*
X132000500Y-75166228D01*
X132000500Y-75116233D01*
X131967816Y-74951918D01*
X131903703Y-74797137D01*
X131844035Y-74707838D01*
X131810626Y-74657837D01*
X131692162Y-74539373D01*
X131552860Y-74446295D01*
X131398082Y-74382184D01*
X131398074Y-74382182D01*
X131262372Y-74355189D01*
X131200461Y-74322804D01*
X131165887Y-74262089D01*
X131169626Y-74192319D01*
X131186560Y-74160256D01*
X131397452Y-73872600D01*
X131399861Y-73869421D01*
X131416587Y-73848082D01*
X131559127Y-73666228D01*
X138849500Y-73666228D01*
X138849500Y-73833771D01*
X138882182Y-73998074D01*
X138882184Y-73998082D01*
X138946295Y-74152860D01*
X139039373Y-74292162D01*
X139157837Y-74410626D01*
X139211220Y-74446295D01*
X139297137Y-74503703D01*
X139451918Y-74567816D01*
X139616228Y-74600499D01*
X139616232Y-74600500D01*
X139616233Y-74600500D01*
X139783768Y-74600500D01*
X139783769Y-74600499D01*
X139948082Y-74567816D01*
X140102863Y-74503703D01*
X140242162Y-74410626D01*
X140360626Y-74292162D01*
X140453703Y-74152863D01*
X140517816Y-73998082D01*
X140550500Y-73833767D01*
X140550500Y-73666233D01*
X140517816Y-73501918D01*
X140455686Y-73351925D01*
X140453704Y-73347139D01*
X140360626Y-73207837D01*
X140242162Y-73089373D01*
X140102860Y-72996295D01*
X139948082Y-72932184D01*
X139948074Y-72932182D01*
X139783771Y-72899500D01*
X139783767Y-72899500D01*
X139616233Y-72899500D01*
X139616228Y-72899500D01*
X139451925Y-72932182D01*
X139451917Y-72932184D01*
X139297139Y-72996295D01*
X139157837Y-73089373D01*
X139039373Y-73207837D01*
X138946295Y-73347139D01*
X138882184Y-73501917D01*
X138882182Y-73501925D01*
X138849500Y-73666228D01*
X131559127Y-73666228D01*
X132134481Y-72932184D01*
X132135319Y-72931115D01*
X132137829Y-72928016D01*
X132398989Y-72616228D01*
X163299500Y-72616228D01*
X163299500Y-72783771D01*
X163332182Y-72948074D01*
X163332184Y-72948082D01*
X163396295Y-73102860D01*
X163489373Y-73242162D01*
X163607837Y-73360626D01*
X163700494Y-73422537D01*
X163747137Y-73453703D01*
X163901918Y-73517816D01*
X164045093Y-73546295D01*
X164066228Y-73550499D01*
X164066232Y-73550500D01*
X164066233Y-73550500D01*
X164233768Y-73550500D01*
X164233769Y-73550499D01*
X164398082Y-73517816D01*
X164401916Y-73516228D01*
X165149500Y-73516228D01*
X165149500Y-73683771D01*
X165182182Y-73848074D01*
X165182184Y-73848082D01*
X165246295Y-74002860D01*
X165339373Y-74142162D01*
X165457837Y-74260626D01*
X165534702Y-74311985D01*
X165597137Y-74353703D01*
X165751918Y-74417816D01*
X165895093Y-74446295D01*
X165916228Y-74450499D01*
X165916232Y-74450500D01*
X165916233Y-74450500D01*
X166083768Y-74450500D01*
X166083769Y-74450499D01*
X166248082Y-74417816D01*
X166402863Y-74353703D01*
X166542162Y-74260626D01*
X166660626Y-74142162D01*
X166753703Y-74002863D01*
X166817816Y-73848082D01*
X166850500Y-73683767D01*
X166850500Y-73516233D01*
X166817816Y-73351918D01*
X166753703Y-73197137D01*
X166681698Y-73089374D01*
X166660626Y-73057837D01*
X166542162Y-72939373D01*
X166402860Y-72846295D01*
X166248082Y-72782184D01*
X166248074Y-72782182D01*
X166083771Y-72749500D01*
X166083767Y-72749500D01*
X165916233Y-72749500D01*
X165916228Y-72749500D01*
X165751925Y-72782182D01*
X165751917Y-72782184D01*
X165597139Y-72846295D01*
X165457837Y-72939373D01*
X165339373Y-73057837D01*
X165246295Y-73197139D01*
X165182184Y-73351917D01*
X165182182Y-73351925D01*
X165149500Y-73516228D01*
X164401916Y-73516228D01*
X164552863Y-73453703D01*
X164692162Y-73360626D01*
X164810626Y-73242162D01*
X164903703Y-73102863D01*
X164967816Y-72948082D01*
X165000500Y-72783767D01*
X165000500Y-72616233D01*
X164967816Y-72451918D01*
X164918227Y-72332201D01*
X164903704Y-72297139D01*
X164810626Y-72157837D01*
X164692162Y-72039373D01*
X164552860Y-71946295D01*
X164398082Y-71882184D01*
X164398074Y-71882182D01*
X164233771Y-71849500D01*
X164233767Y-71849500D01*
X164066233Y-71849500D01*
X164066228Y-71849500D01*
X163901925Y-71882182D01*
X163901917Y-71882184D01*
X163747139Y-71946295D01*
X163607837Y-72039373D01*
X163489373Y-72157837D01*
X163396295Y-72297139D01*
X163332184Y-72451917D01*
X163332182Y-72451925D01*
X163299500Y-72616228D01*
X132398989Y-72616228D01*
X132897497Y-72021080D01*
X132900063Y-72018116D01*
X133683775Y-71142373D01*
X133686479Y-71139450D01*
X134494218Y-70294618D01*
X134497075Y-70291730D01*
X134593714Y-70197139D01*
X135257128Y-69547780D01*
X135328876Y-69477552D01*
X135331847Y-69474737D01*
X135652896Y-69180766D01*
X147937050Y-69180766D01*
X147937050Y-69399234D01*
X147949454Y-69477552D01*
X147971226Y-69615013D01*
X148038734Y-69822785D01*
X148077823Y-69899500D01*
X148094475Y-69932182D01*
X148137921Y-70017447D01*
X148266325Y-70194182D01*
X148266329Y-70194187D01*
X148420812Y-70348670D01*
X148420817Y-70348674D01*
X148516378Y-70418102D01*
X148597556Y-70477081D01*
X148792212Y-70576264D01*
X148792214Y-70576265D01*
X148896100Y-70610019D01*
X148999988Y-70643774D01*
X149215766Y-70677950D01*
X149215767Y-70677950D01*
X149434233Y-70677950D01*
X149434234Y-70677950D01*
X149650012Y-70643774D01*
X149857788Y-70576264D01*
X150052444Y-70477081D01*
X150229189Y-70348669D01*
X150383669Y-70194189D01*
X150512081Y-70017444D01*
X150611264Y-69822788D01*
X150678774Y-69615012D01*
X150712950Y-69399234D01*
X150712950Y-69180766D01*
X151112050Y-69180766D01*
X151112050Y-69399234D01*
X151124454Y-69477552D01*
X151146226Y-69615013D01*
X151213734Y-69822785D01*
X151252823Y-69899500D01*
X151269475Y-69932182D01*
X151312921Y-70017447D01*
X151441325Y-70194182D01*
X151441329Y-70194187D01*
X151595812Y-70348670D01*
X151595817Y-70348674D01*
X151691378Y-70418102D01*
X151772556Y-70477081D01*
X151967212Y-70576264D01*
X151967214Y-70576265D01*
X152071100Y-70610019D01*
X152174988Y-70643774D01*
X152390766Y-70677950D01*
X152390767Y-70677950D01*
X152609233Y-70677950D01*
X152609234Y-70677950D01*
X152825012Y-70643774D01*
X153032788Y-70576264D01*
X153150614Y-70516228D01*
X154649500Y-70516228D01*
X154649500Y-70683771D01*
X154682182Y-70848074D01*
X154682184Y-70848082D01*
X154746295Y-71002860D01*
X154839373Y-71142162D01*
X154957837Y-71260626D01*
X155050494Y-71322537D01*
X155097137Y-71353703D01*
X155251918Y-71417816D01*
X155416228Y-71450499D01*
X155416232Y-71450500D01*
X155416233Y-71450500D01*
X155583768Y-71450500D01*
X155583769Y-71450499D01*
X155748082Y-71417816D01*
X155902863Y-71353703D01*
X156042162Y-71260626D01*
X156160626Y-71142162D01*
X156253703Y-71002863D01*
X156317816Y-70848082D01*
X156350500Y-70683767D01*
X156350500Y-70666228D01*
X157449500Y-70666228D01*
X157449500Y-70833771D01*
X157482182Y-70998074D01*
X157482184Y-70998082D01*
X157546295Y-71152860D01*
X157639373Y-71292162D01*
X157757837Y-71410626D01*
X157817512Y-71450499D01*
X157897137Y-71503703D01*
X158051918Y-71567816D01*
X158216228Y-71600499D01*
X158216232Y-71600500D01*
X158216233Y-71600500D01*
X158383768Y-71600500D01*
X158383769Y-71600499D01*
X158548082Y-71567816D01*
X158702863Y-71503703D01*
X158842162Y-71410626D01*
X158960626Y-71292162D01*
X159053703Y-71152863D01*
X159117816Y-70998082D01*
X159150500Y-70833767D01*
X159150500Y-70666233D01*
X159117816Y-70501918D01*
X159055686Y-70351925D01*
X159053704Y-70347139D01*
X158960626Y-70207837D01*
X158842162Y-70089373D01*
X158702860Y-69996295D01*
X158548082Y-69932184D01*
X158548074Y-69932182D01*
X158383771Y-69899500D01*
X158383767Y-69899500D01*
X158216233Y-69899500D01*
X158216228Y-69899500D01*
X158051925Y-69932182D01*
X158051917Y-69932184D01*
X157897139Y-69996295D01*
X157757837Y-70089373D01*
X157639373Y-70207837D01*
X157546295Y-70347139D01*
X157482184Y-70501917D01*
X157482182Y-70501925D01*
X157449500Y-70666228D01*
X156350500Y-70666228D01*
X156350500Y-70516233D01*
X156317816Y-70351918D01*
X156253703Y-70197137D01*
X156181698Y-70089374D01*
X156160626Y-70057837D01*
X156042162Y-69939373D01*
X155902860Y-69846295D01*
X155748082Y-69782184D01*
X155748074Y-69782182D01*
X155583771Y-69749500D01*
X155583767Y-69749500D01*
X155416233Y-69749500D01*
X155416228Y-69749500D01*
X155251925Y-69782182D01*
X155251917Y-69782184D01*
X155097139Y-69846295D01*
X154957837Y-69939373D01*
X154839373Y-70057837D01*
X154746295Y-70197139D01*
X154682184Y-70351917D01*
X154682182Y-70351925D01*
X154649500Y-70516228D01*
X153150614Y-70516228D01*
X153227444Y-70477081D01*
X153404189Y-70348669D01*
X153558669Y-70194189D01*
X153687081Y-70017444D01*
X153786264Y-69822788D01*
X153853774Y-69615012D01*
X153887950Y-69399234D01*
X153887950Y-69180766D01*
X153853774Y-68964988D01*
X153786264Y-68757212D01*
X153739905Y-68666228D01*
X160399500Y-68666228D01*
X160399500Y-68833771D01*
X160432182Y-68998074D01*
X160432184Y-68998082D01*
X160496295Y-69152860D01*
X160589373Y-69292162D01*
X160707837Y-69410626D01*
X160800494Y-69472537D01*
X160847137Y-69503703D01*
X161001918Y-69567816D01*
X161166228Y-69600499D01*
X161166232Y-69600500D01*
X161166233Y-69600500D01*
X161333768Y-69600500D01*
X161333769Y-69600499D01*
X161498082Y-69567816D01*
X161652863Y-69503703D01*
X161792162Y-69410626D01*
X161910626Y-69292162D01*
X162003703Y-69152863D01*
X162067816Y-68998082D01*
X162100500Y-68833767D01*
X162100500Y-68666233D01*
X162067816Y-68501918D01*
X162003703Y-68347137D01*
X161926324Y-68231331D01*
X161910626Y-68207837D01*
X161792162Y-68089373D01*
X161652860Y-67996295D01*
X161498082Y-67932184D01*
X161498074Y-67932182D01*
X161333771Y-67899500D01*
X161333767Y-67899500D01*
X161166233Y-67899500D01*
X161166228Y-67899500D01*
X161001925Y-67932182D01*
X161001917Y-67932184D01*
X160847139Y-67996295D01*
X160707837Y-68089373D01*
X160589373Y-68207837D01*
X160496295Y-68347139D01*
X160432184Y-68501917D01*
X160432182Y-68501925D01*
X160399500Y-68666228D01*
X153739905Y-68666228D01*
X153687081Y-68562556D01*
X153643025Y-68501918D01*
X153558674Y-68385817D01*
X153558670Y-68385812D01*
X153404187Y-68231329D01*
X153404182Y-68231325D01*
X153227447Y-68102921D01*
X153227446Y-68102920D01*
X153227444Y-68102919D01*
X153130116Y-68053327D01*
X153032785Y-68003734D01*
X152825013Y-67936226D01*
X152717123Y-67919138D01*
X152609234Y-67902050D01*
X152390766Y-67902050D01*
X152318840Y-67913442D01*
X152174986Y-67936226D01*
X151967214Y-68003734D01*
X151772552Y-68102921D01*
X151595817Y-68231325D01*
X151595812Y-68231329D01*
X151441329Y-68385812D01*
X151441325Y-68385817D01*
X151312921Y-68562552D01*
X151213734Y-68757214D01*
X151146226Y-68964986D01*
X151140984Y-68998082D01*
X151112050Y-69180766D01*
X150712950Y-69180766D01*
X150678774Y-68964988D01*
X150611264Y-68757212D01*
X150512081Y-68562556D01*
X150468025Y-68501918D01*
X150383674Y-68385817D01*
X150383670Y-68385812D01*
X150229187Y-68231329D01*
X150229182Y-68231325D01*
X150052447Y-68102921D01*
X150052446Y-68102920D01*
X150052444Y-68102919D01*
X149955116Y-68053327D01*
X149857785Y-68003734D01*
X149650013Y-67936226D01*
X149542123Y-67919138D01*
X149434234Y-67902050D01*
X149215766Y-67902050D01*
X149143840Y-67913442D01*
X148999986Y-67936226D01*
X148792214Y-68003734D01*
X148597552Y-68102921D01*
X148420817Y-68231325D01*
X148420812Y-68231329D01*
X148266329Y-68385812D01*
X148266325Y-68385817D01*
X148137921Y-68562552D01*
X148038734Y-68757214D01*
X147971226Y-68964986D01*
X147965984Y-68998082D01*
X147937050Y-69180766D01*
X135652896Y-69180766D01*
X136187928Y-68690860D01*
X136190971Y-68688165D01*
X137071474Y-67934394D01*
X137074607Y-67931802D01*
X137367636Y-67697465D01*
X146724200Y-67697465D01*
X146724200Y-67834534D01*
X146750937Y-67968949D01*
X146750940Y-67968961D01*
X146803386Y-68095578D01*
X146803393Y-68095591D01*
X146879536Y-68209546D01*
X146879539Y-68209550D01*
X146976449Y-68306460D01*
X146976453Y-68306463D01*
X147090408Y-68382606D01*
X147090421Y-68382613D01*
X147217038Y-68435059D01*
X147217043Y-68435061D01*
X147351465Y-68461799D01*
X147351469Y-68461800D01*
X147351470Y-68461800D01*
X147488531Y-68461800D01*
X147488532Y-68461799D01*
X147622957Y-68435061D01*
X147749585Y-68382610D01*
X147863547Y-68306463D01*
X147960463Y-68209547D01*
X148036610Y-68095585D01*
X148089061Y-67968957D01*
X148115800Y-67834530D01*
X148115800Y-67697470D01*
X148089061Y-67563043D01*
X148089059Y-67563038D01*
X148036613Y-67436421D01*
X148036606Y-67436408D01*
X147960463Y-67322453D01*
X147960460Y-67322449D01*
X147863550Y-67225539D01*
X147863546Y-67225536D01*
X147749591Y-67149393D01*
X147749578Y-67149386D01*
X147622961Y-67096940D01*
X147622949Y-67096937D01*
X147488534Y-67070200D01*
X147488530Y-67070200D01*
X147351470Y-67070200D01*
X147351465Y-67070200D01*
X147217050Y-67096937D01*
X147217038Y-67096940D01*
X147090421Y-67149386D01*
X147090408Y-67149393D01*
X146976453Y-67225536D01*
X146976449Y-67225539D01*
X146879539Y-67322449D01*
X146879536Y-67322453D01*
X146803393Y-67436408D01*
X146803386Y-67436421D01*
X146750940Y-67563038D01*
X146750937Y-67563050D01*
X146724200Y-67697465D01*
X137367636Y-67697465D01*
X137979848Y-67207875D01*
X137983078Y-67205379D01*
X138913383Y-66511119D01*
X138916640Y-66508772D01*
X139872402Y-65844043D01*
X139875777Y-65841778D01*
X140148219Y-65665465D01*
X146724200Y-65665465D01*
X146724200Y-65802534D01*
X146750937Y-65936949D01*
X146750940Y-65936961D01*
X146803386Y-66063578D01*
X146803393Y-66063591D01*
X146879536Y-66177546D01*
X146879539Y-66177550D01*
X146976449Y-66274460D01*
X146976453Y-66274463D01*
X147090408Y-66350606D01*
X147090421Y-66350613D01*
X147157636Y-66378454D01*
X147217043Y-66403061D01*
X147351465Y-66429799D01*
X147351469Y-66429800D01*
X147351470Y-66429800D01*
X147488531Y-66429800D01*
X147488532Y-66429799D01*
X147622957Y-66403061D01*
X147749585Y-66350610D01*
X147863547Y-66274463D01*
X147960463Y-66177547D01*
X148036610Y-66063585D01*
X148089061Y-65936957D01*
X148115800Y-65802530D01*
X148115800Y-65665470D01*
X148089061Y-65531043D01*
X148079449Y-65507837D01*
X148036613Y-65404421D01*
X148036606Y-65404408D01*
X147960463Y-65290453D01*
X147960460Y-65290449D01*
X147863550Y-65193539D01*
X147863546Y-65193536D01*
X147749591Y-65117393D01*
X147749578Y-65117386D01*
X147622961Y-65064940D01*
X147622949Y-65064937D01*
X147488534Y-65038200D01*
X147488530Y-65038200D01*
X147351470Y-65038200D01*
X147351465Y-65038200D01*
X147217050Y-65064937D01*
X147217038Y-65064940D01*
X147090421Y-65117386D01*
X147090408Y-65117393D01*
X146976453Y-65193536D01*
X146976449Y-65193539D01*
X146879539Y-65290449D01*
X146879536Y-65290453D01*
X146803393Y-65404408D01*
X146803386Y-65404421D01*
X146750940Y-65531038D01*
X146750937Y-65531050D01*
X146724200Y-65665465D01*
X140148219Y-65665465D01*
X140857416Y-65206502D01*
X140860831Y-65204372D01*
X141868791Y-64598540D01*
X141872321Y-64596497D01*
X142907254Y-64020058D01*
X142910807Y-64018154D01*
X143973330Y-63471170D01*
X143976854Y-63469429D01*
X144722357Y-63115800D01*
X144791363Y-63104855D01*
X144855334Y-63132954D01*
X144893957Y-63191178D01*
X144899500Y-63227836D01*
X144899500Y-63233771D01*
X144932182Y-63398074D01*
X144932184Y-63398082D01*
X144996295Y-63552859D01*
X144996302Y-63552872D01*
X145015170Y-63581111D01*
X145036047Y-63647789D01*
X145017561Y-63715168D01*
X145015170Y-63718889D01*
X144996302Y-63747127D01*
X144996295Y-63747140D01*
X144932184Y-63901917D01*
X144932182Y-63901925D01*
X144899500Y-64066228D01*
X144899500Y-64233771D01*
X144932182Y-64398074D01*
X144932184Y-64398082D01*
X144996295Y-64552860D01*
X145089373Y-64692162D01*
X145207837Y-64810626D01*
X145300494Y-64872537D01*
X145347137Y-64903703D01*
X145501918Y-64967816D01*
X145666228Y-65000499D01*
X145666232Y-65000500D01*
X145666233Y-65000500D01*
X145833768Y-65000500D01*
X145833769Y-65000499D01*
X145998082Y-64967816D01*
X146152863Y-64903703D01*
X146292162Y-64810626D01*
X146410626Y-64692162D01*
X146503703Y-64552863D01*
X146567816Y-64398082D01*
X146600500Y-64233767D01*
X146600500Y-64100766D01*
X147937050Y-64100766D01*
X147937050Y-64319233D01*
X147971226Y-64535013D01*
X148038734Y-64742785D01*
X148038736Y-64742788D01*
X148120727Y-64903704D01*
X148137921Y-64937447D01*
X148266325Y-65114182D01*
X148266329Y-65114187D01*
X148420812Y-65268670D01*
X148420817Y-65268674D01*
X148574974Y-65380674D01*
X148597556Y-65397081D01*
X148792212Y-65496264D01*
X148792214Y-65496265D01*
X148827830Y-65507837D01*
X148999988Y-65563774D01*
X149215766Y-65597950D01*
X149215767Y-65597950D01*
X149434233Y-65597950D01*
X149434234Y-65597950D01*
X149650012Y-65563774D01*
X149857788Y-65496264D01*
X150052444Y-65397081D01*
X150229189Y-65268669D01*
X150383669Y-65114189D01*
X150512081Y-64937444D01*
X150611264Y-64742788D01*
X150678774Y-64535012D01*
X150712950Y-64319234D01*
X150712950Y-64100766D01*
X151112050Y-64100766D01*
X151112050Y-64319233D01*
X151146226Y-64535013D01*
X151213734Y-64742785D01*
X151213736Y-64742788D01*
X151295727Y-64903704D01*
X151312921Y-64937447D01*
X151441325Y-65114182D01*
X151441329Y-65114187D01*
X151595812Y-65268670D01*
X151595817Y-65268674D01*
X151749974Y-65380674D01*
X151772556Y-65397081D01*
X151967212Y-65496264D01*
X151967214Y-65496265D01*
X152002830Y-65507837D01*
X152174988Y-65563774D01*
X152390766Y-65597950D01*
X152390767Y-65597950D01*
X152531879Y-65597950D01*
X152598918Y-65617635D01*
X152644673Y-65670439D01*
X152655821Y-65725747D01*
X152655505Y-65736039D01*
X152649500Y-65766233D01*
X152649500Y-65932103D01*
X152649442Y-65933997D01*
X152639139Y-65965482D01*
X152629815Y-65997239D01*
X152628327Y-65998528D01*
X152627714Y-66000402D01*
X152602015Y-66021327D01*
X152577011Y-66042994D01*
X152574822Y-66043470D01*
X152573534Y-66044519D01*
X152566207Y-66045344D01*
X152525500Y-66054200D01*
X152431465Y-66054200D01*
X152297050Y-66080937D01*
X152297038Y-66080940D01*
X152170421Y-66133386D01*
X152170408Y-66133393D01*
X152056453Y-66209536D01*
X152056449Y-66209539D01*
X151959539Y-66306449D01*
X151959536Y-66306453D01*
X151883393Y-66420408D01*
X151883386Y-66420421D01*
X151830940Y-66547038D01*
X151830937Y-66547050D01*
X151804200Y-66681465D01*
X151804200Y-66818534D01*
X151830937Y-66952949D01*
X151830940Y-66952961D01*
X151883386Y-67079578D01*
X151883393Y-67079591D01*
X151959536Y-67193546D01*
X151959539Y-67193550D01*
X152056449Y-67290460D01*
X152056453Y-67290463D01*
X152170408Y-67366606D01*
X152170421Y-67366613D01*
X152297038Y-67419059D01*
X152297043Y-67419061D01*
X152431465Y-67445799D01*
X152431469Y-67445800D01*
X152431470Y-67445800D01*
X152568531Y-67445800D01*
X152568532Y-67445799D01*
X152702957Y-67419061D01*
X152829585Y-67366610D01*
X152943547Y-67290463D01*
X153040463Y-67193547D01*
X153116610Y-67079585D01*
X153169061Y-66952957D01*
X153195800Y-66818530D01*
X153195800Y-66807747D01*
X153215485Y-66740708D01*
X153268289Y-66694953D01*
X153337447Y-66685009D01*
X153343974Y-66686126D01*
X153416231Y-66700499D01*
X153416232Y-66700500D01*
X153416233Y-66700500D01*
X153583768Y-66700500D01*
X153583769Y-66700499D01*
X153748082Y-66667816D01*
X153902863Y-66603703D01*
X154042162Y-66510626D01*
X154160626Y-66392162D01*
X154253703Y-66252863D01*
X154317816Y-66098082D01*
X154344043Y-65966228D01*
X157249500Y-65966228D01*
X157249500Y-66133771D01*
X157282182Y-66298074D01*
X157282184Y-66298082D01*
X157346295Y-66452860D01*
X157439373Y-66592162D01*
X157557837Y-66710626D01*
X157650494Y-66772537D01*
X157697137Y-66803703D01*
X157851918Y-66867816D01*
X158016228Y-66900499D01*
X158016232Y-66900500D01*
X158016233Y-66900500D01*
X158183768Y-66900500D01*
X158183769Y-66900499D01*
X158348082Y-66867816D01*
X158502863Y-66803703D01*
X158642162Y-66710626D01*
X158760626Y-66592162D01*
X158853703Y-66452863D01*
X158917816Y-66298082D01*
X158950500Y-66133767D01*
X158950500Y-65966233D01*
X158917816Y-65801918D01*
X158861297Y-65665470D01*
X158853704Y-65647139D01*
X158823488Y-65601918D01*
X158812388Y-65585305D01*
X158760626Y-65507837D01*
X158642162Y-65389373D01*
X158502860Y-65296295D01*
X158348082Y-65232184D01*
X158348074Y-65232182D01*
X158183771Y-65199500D01*
X158183767Y-65199500D01*
X158016233Y-65199500D01*
X158016228Y-65199500D01*
X157851925Y-65232182D01*
X157851917Y-65232184D01*
X157697139Y-65296295D01*
X157557837Y-65389373D01*
X157439373Y-65507837D01*
X157346295Y-65647139D01*
X157282184Y-65801917D01*
X157282182Y-65801925D01*
X157249500Y-65966228D01*
X154344043Y-65966228D01*
X154350500Y-65933767D01*
X154350500Y-65766233D01*
X154317816Y-65601918D01*
X154253703Y-65447137D01*
X154215106Y-65389373D01*
X154160626Y-65307837D01*
X154042162Y-65189373D01*
X153902860Y-65096295D01*
X153781783Y-65046143D01*
X153727379Y-65002301D01*
X153705315Y-64936007D01*
X153718752Y-64875286D01*
X153786264Y-64742788D01*
X153853774Y-64535012D01*
X153887950Y-64319234D01*
X153887950Y-64100766D01*
X153853774Y-63884988D01*
X153808985Y-63747140D01*
X153786265Y-63677214D01*
X153771272Y-63647789D01*
X153687081Y-63482556D01*
X153670674Y-63459974D01*
X153558674Y-63305817D01*
X153558670Y-63305812D01*
X153404187Y-63151329D01*
X153404182Y-63151325D01*
X153227447Y-63022921D01*
X153227446Y-63022920D01*
X153227444Y-63022919D01*
X153130116Y-62973327D01*
X153032785Y-62923734D01*
X152825013Y-62856226D01*
X152717123Y-62839138D01*
X152609234Y-62822050D01*
X152390766Y-62822050D01*
X152318840Y-62833442D01*
X152174986Y-62856226D01*
X151967214Y-62923734D01*
X151772552Y-63022921D01*
X151595817Y-63151325D01*
X151595812Y-63151329D01*
X151441329Y-63305812D01*
X151441325Y-63305817D01*
X151312921Y-63482552D01*
X151213734Y-63677214D01*
X151146226Y-63884986D01*
X151112050Y-64100766D01*
X150712950Y-64100766D01*
X150678774Y-63884988D01*
X150633985Y-63747140D01*
X150611265Y-63677214D01*
X150596272Y-63647789D01*
X150512081Y-63482556D01*
X150495674Y-63459974D01*
X150383674Y-63305817D01*
X150383670Y-63305812D01*
X150229187Y-63151329D01*
X150229182Y-63151325D01*
X150052447Y-63022921D01*
X150052446Y-63022920D01*
X150052444Y-63022919D01*
X149955116Y-62973327D01*
X149857785Y-62923734D01*
X149650013Y-62856226D01*
X149542123Y-62839138D01*
X149434234Y-62822050D01*
X149215766Y-62822050D01*
X149143840Y-62833442D01*
X148999986Y-62856226D01*
X148792214Y-62923734D01*
X148597552Y-63022921D01*
X148420817Y-63151325D01*
X148420812Y-63151329D01*
X148266329Y-63305812D01*
X148266325Y-63305817D01*
X148137921Y-63482552D01*
X148038734Y-63677214D01*
X147971226Y-63884986D01*
X147937050Y-64100766D01*
X146600500Y-64100766D01*
X146600500Y-64066233D01*
X146567816Y-63901918D01*
X146503703Y-63747137D01*
X146484828Y-63718889D01*
X146463951Y-63652214D01*
X146482435Y-63584834D01*
X146484829Y-63581109D01*
X146503703Y-63552863D01*
X146567816Y-63398082D01*
X146600500Y-63233767D01*
X146600500Y-63066233D01*
X146567816Y-62901918D01*
X146503703Y-62747137D01*
X146503701Y-62747134D01*
X146467791Y-62693390D01*
X146446913Y-62626713D01*
X146465398Y-62559333D01*
X146517377Y-62512643D01*
X146570893Y-62500500D01*
X153869914Y-62500500D01*
X153919424Y-62510812D01*
G37*
%TD.AperFunction*%
%TD*%
M02*
