M48
; DRILL file KiCad 10.0.3 date 2026-06-11T17:49:51
; FORMAT={-:-/ absolute / metric / decimal}
; #@! TF.CreationDate,2026-06-11T17:49:51-06:00
; #@! TF.GenerationSoftware,Kicad,Pcbnew,10.0.3
; #@! TF.FileFunction,Plated,1,4,PTH
FMAT,2
METRIC
; #@! TA.AperFunction,Plated,PTH,ComponentDrill
T1C0.200
; #@! TA.AperFunction,Plated,PTH,ViaDrill
T2C0.300
; #@! TA.AperFunction,Plated,PTH,ComponentDrill
T3C0.610
%
G90
G05
T1
X145.375Y-78.25
X146.35Y-77.525
X146.35Y-78.25
X146.35Y-78.975
X147.325Y-78.25
T2
X123.6Y-99.25
X123.65Y-100.75
X124.5Y-91.2
X125.5Y-94.65
X126.75Y-94.65
X127.6Y-101.8
X127.75Y-114.0
X128.15Y-100.55
X128.7Y-78.95
X128.75Y-85.75
X128.9Y-101.3
X129.25Y-85.0
X129.9Y-77.35
X130.1Y-108.35
X130.2Y-98.55
X130.25Y-94.85
X130.95Y-108.35
X131.15Y-75.2
X131.5Y-82.25
X131.5Y-83.25
X131.8Y-94.85
X131.85Y-108.35
X132.65Y-88.1
X132.65Y-89.35
X132.65Y-90.6
X132.9Y-85.85
X133.05Y-105.0
X133.65Y-83.9
X133.65Y-96.35
X134.4Y-93.65
X134.65Y-82.7
X134.65Y-87.05
X135.253Y-74.391
X136.3Y-97.85
X136.35Y-94.1
X136.8Y-109.4
X136.8Y-110.35
X136.8Y-111.3
X136.95Y-86.0
X137.05Y-72.7
X137.25Y-100.6
X137.25Y-107.35
X137.75Y-94.15
X137.95Y-116.65
X138.55Y-120.5
X138.75Y-81.9
X138.75Y-100.65
X138.75Y-107.35
X138.85Y-70.9
X139.1Y-123.3
X139.25Y-91.1
X139.3Y-80.9
X139.7Y-73.75
X141.65Y-77.9
X142.25Y-67.7
X142.3Y-75.25
X142.8Y-78.1
X143.45Y-120.5
X143.5Y-125.6
X143.75Y-66.6
X143.95Y-72.8
X145.75Y-63.15
X145.75Y-64.15
X146.05Y-75.8
X146.4Y-70.8
X146.45Y-66.75
X146.75Y-123.75
X147.05Y-74.9
X149.55Y-78.15
X150.75Y-75.3
X152.6Y-75.9
X152.85Y-78.35
X152.9Y-74.25
X153.25Y-123.8
X153.5Y-65.85
X155.3Y-74.95
X155.5Y-70.6
X157.0Y-123.0
X157.0Y-125.75
X158.1Y-66.05
X158.3Y-70.75
X159.15Y-119.75
X160.1Y-95.55
X160.15Y-97.0
X160.15Y-123.25
X160.25Y-82.3
X160.25Y-86.1
X160.4Y-90.65
X161.15Y-89.75
X161.25Y-68.75
X161.4Y-74.3
X161.7Y-80.1
X161.75Y-86.1
X161.85Y-90.65
X161.85Y-101.5
X161.85Y-103.0
X161.85Y-104.5
X161.85Y-107.55
X161.85Y-109.05
X161.95Y-93.25
X163.1Y-75.5
X163.25Y-82.45
X163.25Y-86.15
X163.35Y-115.05
X163.4Y-100.0
X163.449Y-91.75
X163.65Y-74.35
X163.9Y-96.95
X164.15Y-72.7
X164.25Y-75.55
X164.25Y-95.15
X164.75Y-86.1
X165.3Y-116.25
X165.65Y-107.5
X165.8Y-79.2
X165.95Y-80.3
X166.0Y-73.6
X166.3Y-86.1
X167.35Y-110.75
X167.75Y-103.7
X167.8Y-102.75
X168.05Y-117.4
X168.3Y-98.55
X168.4Y-77.1
X168.5Y-75.55
X168.6Y-95.8
X169.0Y-79.35
X169.5Y-98.55
X169.85Y-80.2
T3
G00X145.48Y-122.334
M15
G01X145.48Y-122.867
M16
G05
G00X145.48Y-125.13
M15
G01X145.48Y-126.07
M16
G05
G00X154.52Y-122.334
M15
G01X154.52Y-122.867
M16
G05
G00X154.52Y-125.13
M15
G01X154.52Y-126.07
M16
G05
M30
