%TF.GenerationSoftware,KiCad,Pcbnew,10.0.3*%
%TF.CreationDate,2026-06-11T17:49:32-06:00*%
%TF.ProjectId,picowy,7069636f-7779-42e6-9b69-6361645f7063,01*%
%TF.SameCoordinates,Original*%
%TF.FileFunction,Soldermask,Bot*%
%TF.FilePolarity,Negative*%
%FSLAX46Y46*%
G04 Gerber Fmt 4.6, Leading zero omitted, Abs format (unit mm)*
G04 Created by KiCad (PCBNEW 10.0.3) date 2026-06-11 17:49:32*
%MOMM*%
%LPD*%
G01*
G04 APERTURE LIST*
G04 APERTURE END LIST*
G36*
X145541943Y-124576272D02*
G01*
X145551280Y-124576272D01*
X145578175Y-124583478D01*
X145638419Y-124595461D01*
X145666854Y-124607239D01*
X145688983Y-124613169D01*
X145708826Y-124624625D01*
X145737256Y-124636402D01*
X145788317Y-124670520D01*
X145812445Y-124684450D01*
X145819048Y-124691053D01*
X145826215Y-124695842D01*
X145901857Y-124771484D01*
X145906645Y-124778650D01*
X145913250Y-124785255D01*
X145927181Y-124809385D01*
X145961297Y-124860443D01*
X145973072Y-124888869D01*
X145984531Y-124908717D01*
X145990461Y-124930849D01*
X146002238Y-124959280D01*
X146014219Y-125019516D01*
X146021428Y-125046420D01*
X146022340Y-125060348D01*
X146023470Y-125066025D01*
X146025737Y-125112165D01*
X146026100Y-125117700D01*
X146026100Y-126082900D01*
X146025737Y-126088437D01*
X146023470Y-126134574D01*
X146022341Y-126140249D01*
X146021428Y-126154180D01*
X146014218Y-126181086D01*
X146002238Y-126241319D01*
X145990462Y-126269747D01*
X145984531Y-126291883D01*
X145973070Y-126311732D01*
X145961297Y-126340156D01*
X145927186Y-126391206D01*
X145913250Y-126415345D01*
X145906643Y-126421951D01*
X145901857Y-126429115D01*
X145826215Y-126504757D01*
X145819051Y-126509543D01*
X145812445Y-126516150D01*
X145788306Y-126530086D01*
X145737256Y-126564197D01*
X145708832Y-126575970D01*
X145688983Y-126587431D01*
X145666847Y-126593362D01*
X145638419Y-126605138D01*
X145578181Y-126617119D01*
X145551280Y-126624328D01*
X145541943Y-126624328D01*
X145533492Y-126626009D01*
X145426508Y-126626009D01*
X145418057Y-126624328D01*
X145408720Y-126624328D01*
X145381819Y-126617120D01*
X145321580Y-126605138D01*
X145293149Y-126593361D01*
X145271017Y-126587431D01*
X145251169Y-126575972D01*
X145222743Y-126564197D01*
X145171685Y-126530081D01*
X145147555Y-126516150D01*
X145140950Y-126509545D01*
X145133784Y-126504757D01*
X145058142Y-126429115D01*
X145053353Y-126421948D01*
X145046750Y-126415345D01*
X145032820Y-126391217D01*
X144998702Y-126340156D01*
X144986925Y-126311726D01*
X144975469Y-126291883D01*
X144969539Y-126269754D01*
X144957761Y-126241319D01*
X144945777Y-126181072D01*
X144938572Y-126154180D01*
X144937659Y-126140257D01*
X144936529Y-126134574D01*
X144934262Y-126088429D01*
X144933900Y-126082900D01*
X144933900Y-125117700D01*
X144934262Y-125112173D01*
X144936529Y-125066025D01*
X144937659Y-125060341D01*
X144938572Y-125046420D01*
X144945776Y-125019530D01*
X144957761Y-124959280D01*
X144969540Y-124930842D01*
X144975469Y-124908717D01*
X144986924Y-124888875D01*
X144998702Y-124860443D01*
X145032824Y-124809374D01*
X145046750Y-124785255D01*
X145053351Y-124778653D01*
X145058142Y-124771484D01*
X145133784Y-124695842D01*
X145140953Y-124691051D01*
X145147555Y-124684450D01*
X145171674Y-124670524D01*
X145222743Y-124636402D01*
X145251175Y-124624624D01*
X145271017Y-124613169D01*
X145293142Y-124607240D01*
X145321580Y-124595461D01*
X145381825Y-124583478D01*
X145408720Y-124576272D01*
X145418056Y-124576272D01*
X145426508Y-124574591D01*
X145533492Y-124574591D01*
X145541943Y-124576272D01*
G37*
G36*
X154581943Y-124576272D02*
G01*
X154591280Y-124576272D01*
X154618175Y-124583478D01*
X154678419Y-124595461D01*
X154706854Y-124607239D01*
X154728983Y-124613169D01*
X154748826Y-124624625D01*
X154777256Y-124636402D01*
X154828317Y-124670520D01*
X154852445Y-124684450D01*
X154859048Y-124691053D01*
X154866215Y-124695842D01*
X154941857Y-124771484D01*
X154946645Y-124778650D01*
X154953250Y-124785255D01*
X154967181Y-124809385D01*
X155001297Y-124860443D01*
X155013072Y-124888869D01*
X155024531Y-124908717D01*
X155030461Y-124930849D01*
X155042238Y-124959280D01*
X155054219Y-125019516D01*
X155061428Y-125046420D01*
X155062340Y-125060348D01*
X155063470Y-125066025D01*
X155065737Y-125112165D01*
X155066100Y-125117700D01*
X155066100Y-126082900D01*
X155065737Y-126088437D01*
X155063470Y-126134574D01*
X155062341Y-126140249D01*
X155061428Y-126154180D01*
X155054218Y-126181086D01*
X155042238Y-126241319D01*
X155030462Y-126269747D01*
X155024531Y-126291883D01*
X155013070Y-126311732D01*
X155001297Y-126340156D01*
X154967186Y-126391206D01*
X154953250Y-126415345D01*
X154946643Y-126421951D01*
X154941857Y-126429115D01*
X154866215Y-126504757D01*
X154859051Y-126509543D01*
X154852445Y-126516150D01*
X154828306Y-126530086D01*
X154777256Y-126564197D01*
X154748832Y-126575970D01*
X154728983Y-126587431D01*
X154706847Y-126593362D01*
X154678419Y-126605138D01*
X154618181Y-126617119D01*
X154591280Y-126624328D01*
X154581943Y-126624328D01*
X154573492Y-126626009D01*
X154466508Y-126626009D01*
X154458057Y-126624328D01*
X154448720Y-126624328D01*
X154421819Y-126617120D01*
X154361580Y-126605138D01*
X154333149Y-126593361D01*
X154311017Y-126587431D01*
X154291169Y-126575972D01*
X154262743Y-126564197D01*
X154211685Y-126530081D01*
X154187555Y-126516150D01*
X154180950Y-126509545D01*
X154173784Y-126504757D01*
X154098142Y-126429115D01*
X154093353Y-126421948D01*
X154086750Y-126415345D01*
X154072820Y-126391217D01*
X154038702Y-126340156D01*
X154026925Y-126311726D01*
X154015469Y-126291883D01*
X154009539Y-126269754D01*
X153997761Y-126241319D01*
X153985777Y-126181072D01*
X153978572Y-126154180D01*
X153977659Y-126140257D01*
X153976529Y-126134574D01*
X153974262Y-126088429D01*
X153973900Y-126082900D01*
X153973900Y-125117700D01*
X153974262Y-125112173D01*
X153976529Y-125066025D01*
X153977659Y-125060341D01*
X153978572Y-125046420D01*
X153985776Y-125019530D01*
X153997761Y-124959280D01*
X154009540Y-124930842D01*
X154015469Y-124908717D01*
X154026924Y-124888875D01*
X154038702Y-124860443D01*
X154072824Y-124809374D01*
X154086750Y-124785255D01*
X154093351Y-124778653D01*
X154098142Y-124771484D01*
X154173784Y-124695842D01*
X154180953Y-124691051D01*
X154187555Y-124684450D01*
X154211674Y-124670524D01*
X154262743Y-124636402D01*
X154291175Y-124624624D01*
X154311017Y-124613169D01*
X154333142Y-124607240D01*
X154361580Y-124595461D01*
X154421825Y-124583478D01*
X154448720Y-124576272D01*
X154458056Y-124576272D01*
X154466508Y-124574591D01*
X154573492Y-124574591D01*
X154581943Y-124576272D01*
G37*
G36*
X145673179Y-121813226D02*
G01*
X145787303Y-121879115D01*
X145880485Y-121972297D01*
X145946374Y-122086421D01*
X145980481Y-122213710D01*
X145984800Y-122279600D01*
X145984800Y-122921000D01*
X145980481Y-122986890D01*
X145946374Y-123114179D01*
X145880485Y-123228303D01*
X145787303Y-123321485D01*
X145673179Y-123387374D01*
X145545890Y-123421481D01*
X145414110Y-123421481D01*
X145286821Y-123387374D01*
X145172697Y-123321485D01*
X145079515Y-123228303D01*
X145013626Y-123114179D01*
X144979519Y-122986890D01*
X144975200Y-122921000D01*
X144975200Y-122279600D01*
X144979519Y-122213710D01*
X145013626Y-122086421D01*
X145079515Y-121972297D01*
X145172697Y-121879115D01*
X145286821Y-121813226D01*
X145414110Y-121779119D01*
X145545890Y-121779119D01*
X145673179Y-121813226D01*
G37*
G36*
X154713179Y-121813226D02*
G01*
X154827303Y-121879115D01*
X154920485Y-121972297D01*
X154986374Y-122086421D01*
X155020481Y-122213710D01*
X155024800Y-122279600D01*
X155024800Y-122921000D01*
X155020481Y-122986890D01*
X154986374Y-123114179D01*
X154920485Y-123228303D01*
X154827303Y-123321485D01*
X154713179Y-123387374D01*
X154585890Y-123421481D01*
X154454110Y-123421481D01*
X154326821Y-123387374D01*
X154212697Y-123321485D01*
X154119515Y-123228303D01*
X154053626Y-123114179D01*
X154019519Y-122986890D01*
X154015200Y-122921000D01*
X154015200Y-122279600D01*
X154019519Y-122213710D01*
X154053626Y-122086421D01*
X154119515Y-121972297D01*
X154212697Y-121879115D01*
X154326821Y-121813226D01*
X154454110Y-121779119D01*
X154585890Y-121779119D01*
X154713179Y-121813226D01*
G37*
G36*
X149602205Y-68135359D02*
G01*
X149779417Y-68192939D01*
X149945441Y-68277532D01*
X150096187Y-68387056D01*
X150227944Y-68518813D01*
X150337468Y-68669559D01*
X150422061Y-68835583D01*
X150479641Y-69012795D01*
X150508789Y-69196834D01*
X150508789Y-69383166D01*
X150479641Y-69567205D01*
X150422061Y-69744417D01*
X150337468Y-69910441D01*
X150227944Y-70061187D01*
X150096187Y-70192944D01*
X149945441Y-70302468D01*
X149779417Y-70387061D01*
X149602205Y-70444641D01*
X149418166Y-70473789D01*
X149231834Y-70473789D01*
X149047795Y-70444641D01*
X148870583Y-70387061D01*
X148704559Y-70302468D01*
X148553813Y-70192944D01*
X148422056Y-70061187D01*
X148312532Y-69910441D01*
X148227939Y-69744417D01*
X148170359Y-69567205D01*
X148141211Y-69383166D01*
X148141211Y-69196834D01*
X148170359Y-69012795D01*
X148227939Y-68835583D01*
X148312532Y-68669559D01*
X148422056Y-68518813D01*
X148553813Y-68387056D01*
X148704559Y-68277532D01*
X148870583Y-68192939D01*
X149047795Y-68135359D01*
X149231834Y-68106211D01*
X149418166Y-68106211D01*
X149602205Y-68135359D01*
G37*
G36*
X152777205Y-68135359D02*
G01*
X152954417Y-68192939D01*
X153120441Y-68277532D01*
X153271187Y-68387056D01*
X153402944Y-68518813D01*
X153512468Y-68669559D01*
X153597061Y-68835583D01*
X153654641Y-69012795D01*
X153683789Y-69196834D01*
X153683789Y-69383166D01*
X153654641Y-69567205D01*
X153597061Y-69744417D01*
X153512468Y-69910441D01*
X153402944Y-70061187D01*
X153271187Y-70192944D01*
X153120441Y-70302468D01*
X152954417Y-70387061D01*
X152777205Y-70444641D01*
X152593166Y-70473789D01*
X152406834Y-70473789D01*
X152222795Y-70444641D01*
X152045583Y-70387061D01*
X151879559Y-70302468D01*
X151728813Y-70192944D01*
X151597056Y-70061187D01*
X151487532Y-69910441D01*
X151402939Y-69744417D01*
X151345359Y-69567205D01*
X151316211Y-69383166D01*
X151316211Y-69196834D01*
X151345359Y-69012795D01*
X151402939Y-68835583D01*
X151487532Y-68669559D01*
X151597056Y-68518813D01*
X151728813Y-68387056D01*
X151879559Y-68277532D01*
X152045583Y-68192939D01*
X152222795Y-68135359D01*
X152406834Y-68106211D01*
X152593166Y-68106211D01*
X152777205Y-68135359D01*
G37*
G36*
X147609543Y-67308402D02*
G01*
X147721520Y-67373052D01*
X147812948Y-67464480D01*
X147877598Y-67576457D01*
X147911063Y-67701350D01*
X147911063Y-67830650D01*
X147877598Y-67955543D01*
X147812948Y-68067520D01*
X147721520Y-68158948D01*
X147609543Y-68223598D01*
X147484650Y-68257063D01*
X147355350Y-68257063D01*
X147230457Y-68223598D01*
X147118480Y-68158948D01*
X147027052Y-68067520D01*
X146962402Y-67955543D01*
X146928937Y-67830650D01*
X146928937Y-67701350D01*
X146962402Y-67576457D01*
X147027052Y-67464480D01*
X147118480Y-67373052D01*
X147230457Y-67308402D01*
X147355350Y-67274937D01*
X147484650Y-67274937D01*
X147609543Y-67308402D01*
G37*
G36*
X152689543Y-66292402D02*
G01*
X152801520Y-66357052D01*
X152892948Y-66448480D01*
X152957598Y-66560457D01*
X152991063Y-66685350D01*
X152991063Y-66814650D01*
X152957598Y-66939543D01*
X152892948Y-67051520D01*
X152801520Y-67142948D01*
X152689543Y-67207598D01*
X152564650Y-67241063D01*
X152435350Y-67241063D01*
X152310457Y-67207598D01*
X152198480Y-67142948D01*
X152107052Y-67051520D01*
X152042402Y-66939543D01*
X152008937Y-66814650D01*
X152008937Y-66685350D01*
X152042402Y-66560457D01*
X152107052Y-66448480D01*
X152198480Y-66357052D01*
X152310457Y-66292402D01*
X152435350Y-66258937D01*
X152564650Y-66258937D01*
X152689543Y-66292402D01*
G37*
G36*
X147609543Y-65276402D02*
G01*
X147721520Y-65341052D01*
X147812948Y-65432480D01*
X147877598Y-65544457D01*
X147911063Y-65669350D01*
X147911063Y-65798650D01*
X147877598Y-65923543D01*
X147812948Y-66035520D01*
X147721520Y-66126948D01*
X147609543Y-66191598D01*
X147484650Y-66225063D01*
X147355350Y-66225063D01*
X147230457Y-66191598D01*
X147118480Y-66126948D01*
X147027052Y-66035520D01*
X146962402Y-65923543D01*
X146928937Y-65798650D01*
X146928937Y-65669350D01*
X146962402Y-65544457D01*
X147027052Y-65432480D01*
X147118480Y-65341052D01*
X147230457Y-65276402D01*
X147355350Y-65242937D01*
X147484650Y-65242937D01*
X147609543Y-65276402D01*
G37*
G36*
X149602205Y-63055359D02*
G01*
X149779417Y-63112939D01*
X149945441Y-63197532D01*
X150096187Y-63307056D01*
X150227944Y-63438813D01*
X150337468Y-63589559D01*
X150422061Y-63755583D01*
X150479641Y-63932795D01*
X150508789Y-64116834D01*
X150508789Y-64303166D01*
X150479641Y-64487205D01*
X150422061Y-64664417D01*
X150337468Y-64830441D01*
X150227944Y-64981187D01*
X150096187Y-65112944D01*
X149945441Y-65222468D01*
X149779417Y-65307061D01*
X149602205Y-65364641D01*
X149418166Y-65393789D01*
X149231834Y-65393789D01*
X149047795Y-65364641D01*
X148870583Y-65307061D01*
X148704559Y-65222468D01*
X148553813Y-65112944D01*
X148422056Y-64981187D01*
X148312532Y-64830441D01*
X148227939Y-64664417D01*
X148170359Y-64487205D01*
X148141211Y-64303166D01*
X148141211Y-64116834D01*
X148170359Y-63932795D01*
X148227939Y-63755583D01*
X148312532Y-63589559D01*
X148422056Y-63438813D01*
X148553813Y-63307056D01*
X148704559Y-63197532D01*
X148870583Y-63112939D01*
X149047795Y-63055359D01*
X149231834Y-63026211D01*
X149418166Y-63026211D01*
X149602205Y-63055359D01*
G37*
G36*
X152777205Y-63055359D02*
G01*
X152954417Y-63112939D01*
X153120441Y-63197532D01*
X153271187Y-63307056D01*
X153402944Y-63438813D01*
X153512468Y-63589559D01*
X153597061Y-63755583D01*
X153654641Y-63932795D01*
X153683789Y-64116834D01*
X153683789Y-64303166D01*
X153654641Y-64487205D01*
X153597061Y-64664417D01*
X153512468Y-64830441D01*
X153402944Y-64981187D01*
X153271187Y-65112944D01*
X153120441Y-65222468D01*
X152954417Y-65307061D01*
X152777205Y-65364641D01*
X152593166Y-65393789D01*
X152406834Y-65393789D01*
X152222795Y-65364641D01*
X152045583Y-65307061D01*
X151879559Y-65222468D01*
X151728813Y-65112944D01*
X151597056Y-64981187D01*
X151487532Y-64830441D01*
X151402939Y-64664417D01*
X151345359Y-64487205D01*
X151316211Y-64303166D01*
X151316211Y-64116834D01*
X151345359Y-63932795D01*
X151402939Y-63755583D01*
X151487532Y-63589559D01*
X151597056Y-63438813D01*
X151728813Y-63307056D01*
X151879559Y-63197532D01*
X152045583Y-63112939D01*
X152222795Y-63055359D01*
X152406834Y-63026211D01*
X152593166Y-63026211D01*
X152777205Y-63055359D01*
G37*
M02*
