%TF.GenerationSoftware,KiCad,Pcbnew,10.0.3*%
%TF.CreationDate,2026-06-11T17:49:32-06:00*%
%TF.ProjectId,picowy,7069636f-7779-42e6-9b69-6361645f7063,01*%
%TF.SameCoordinates,Original*%
%TF.FileFunction,Paste,Top*%
%TF.FilePolarity,Positive*%
%FSLAX46Y46*%
G04 Gerber Fmt 4.6, Leading zero omitted, Abs format (unit mm)*
G04 Created by KiCad (PCBNEW 10.0.3) date 2026-06-11 17:49:32*
%MOMM*%
%LPD*%
G01*
G04 APERTURE LIST*
G04 Aperture macros list*
%AMRoundRect*
0 Rectangle with rounded corners*
0 $1 Rounding radius*
0 $2 $3 $4 $5 $6 $7 $8 $9 X,Y pos of 4 corners*
0 Add a 4 corners polygon primitive as box body*
4,1,4,$2,$3,$4,$5,$6,$7,$8,$9,$2,$3,0*
0 Add four circle primitives for the rounded corners*
1,1,$1+$1,$2,$3*
1,1,$1+$1,$4,$5*
1,1,$1+$1,$6,$7*
1,1,$1+$1,$8,$9*
0 Add four rect primitives between the rounded corners*
20,1,$1+$1,$2,$3,$4,$5,0*
20,1,$1+$1,$4,$5,$6,$7,0*
20,1,$1+$1,$6,$7,$8,$9,0*
20,1,$1+$1,$8,$9,$2,$3,0*%
%AMFreePoly0*
4,1,21,-0.300000,0.050000,-0.296194,0.069134,-0.285355,0.085355,-0.269134,0.096194,-0.250000,0.100000,0.250000,0.100000,0.269134,0.096194,0.285355,0.085355,0.296194,0.069134,0.300000,0.050000,0.300000,-0.050000,0.296194,-0.069134,0.285355,-0.085355,0.269134,-0.096194,0.250000,-0.100000,-0.250000,-0.100000,-0.269134,-0.096194,-0.285355,-0.085355,-0.296194,-0.069134,-0.300000,-0.050000,
-0.300000,0.050000,-0.300000,0.050000,$1*%
%AMFreePoly1*
4,1,14,0.230680,0.111820,0.364320,-0.021820,0.377500,-0.053640,0.377500,-0.080000,0.364320,-0.111820,0.332500,-0.125000,-0.332500,-0.125000,-0.364320,-0.111820,-0.377500,-0.080000,-0.377500,0.080000,-0.364320,0.111820,-0.332500,0.125000,0.198860,0.125000,0.230680,0.111820,0.230680,0.111820,$1*%
%AMFreePoly2*
4,1,14,0.364320,0.111820,0.377500,0.080000,0.377500,0.053640,0.364320,0.021820,0.230680,-0.111820,0.198860,-0.125000,-0.332500,-0.125000,-0.364320,-0.111820,-0.377500,-0.080000,-0.377500,0.080000,-0.364320,0.111820,-0.332500,0.125000,0.332500,0.125000,0.364320,0.111820,0.364320,0.111820,$1*%
%AMFreePoly3*
4,1,14,0.111820,0.364320,0.125000,0.332500,0.125000,-0.332500,0.111820,-0.364320,0.080000,-0.377500,-0.080000,-0.377500,-0.111820,-0.364320,-0.125000,-0.332500,-0.125000,0.198860,-0.111820,0.230680,0.021820,0.364320,0.053640,0.377500,0.080000,0.377500,0.111820,0.364320,0.111820,0.364320,$1*%
%AMFreePoly4*
4,1,14,-0.021820,0.364320,0.111820,0.230680,0.125000,0.198860,0.125000,-0.332500,0.111820,-0.364320,0.080000,-0.377500,-0.080000,-0.377500,-0.111820,-0.364320,-0.125000,-0.332500,-0.125000,0.332500,-0.111820,0.364320,-0.080000,0.377500,-0.053640,0.377500,-0.021820,0.364320,-0.021820,0.364320,$1*%
%AMFreePoly5*
4,1,14,0.364320,0.111820,0.377500,0.080000,0.377500,-0.080000,0.364320,-0.111820,0.332500,-0.125000,-0.198860,-0.125000,-0.230680,-0.111820,-0.364320,0.021820,-0.377500,0.053640,-0.377500,0.080000,-0.364320,0.111820,-0.332500,0.125000,0.332500,0.125000,0.364320,0.111820,0.364320,0.111820,$1*%
%AMFreePoly6*
4,1,14,0.364320,0.111820,0.377500,0.080000,0.377500,-0.080000,0.364320,-0.111820,0.332500,-0.125000,-0.332500,-0.125000,-0.364320,-0.111820,-0.377500,-0.080000,-0.377500,-0.053640,-0.364320,-0.021820,-0.230680,0.111820,-0.198860,0.125000,0.332500,0.125000,0.364320,0.111820,0.364320,0.111820,$1*%
%AMFreePoly7*
4,1,14,0.111820,0.364320,0.125000,0.332500,0.125000,-0.198860,0.111820,-0.230680,-0.021820,-0.364320,-0.053640,-0.377500,-0.080000,-0.377500,-0.111820,-0.364320,-0.125000,-0.332500,-0.125000,0.332500,-0.111820,0.364320,-0.080000,0.377500,0.080000,0.377500,0.111820,0.364320,0.111820,0.364320,$1*%
%AMFreePoly8*
4,1,14,0.111820,0.364320,0.125000,0.332500,0.125000,-0.332500,0.111820,-0.364320,0.080000,-0.377500,0.053640,-0.377500,0.021820,-0.364320,-0.111820,-0.230680,-0.125000,-0.198860,-0.125000,0.332500,-0.111820,0.364320,-0.080000,0.377500,0.080000,0.377500,0.111820,0.364320,0.111820,0.364320,$1*%
G04 Aperture macros list end*
%ADD10C,0.000000*%
%ADD11R,0.660400X1.041400*%
%ADD12R,0.762000X1.854200*%
%ADD13RoundRect,0.225000X0.225000X0.250000X-0.225000X0.250000X-0.225000X-0.250000X0.225000X-0.250000X0*%
%ADD14RoundRect,0.200000X0.200000X0.275000X-0.200000X0.275000X-0.200000X-0.275000X0.200000X-0.275000X0*%
%ADD15RoundRect,0.200000X0.275000X-0.200000X0.275000X0.200000X-0.275000X0.200000X-0.275000X-0.200000X0*%
%ADD16RoundRect,0.150000X-0.512500X-0.150000X0.512500X-0.150000X0.512500X0.150000X-0.512500X0.150000X0*%
%ADD17R,3.000000X2.000000*%
%ADD18R,1.250000X0.300000*%
%ADD19RoundRect,0.200000X-0.275000X0.200000X-0.275000X-0.200000X0.275000X-0.200000X0.275000X0.200000X0*%
%ADD20RoundRect,0.225000X-0.250000X0.225000X-0.250000X-0.225000X0.250000X-0.225000X0.250000X0.225000X0*%
%ADD21RoundRect,0.225000X0.250000X-0.225000X0.250000X0.225000X-0.250000X0.225000X-0.250000X-0.225000X0*%
%ADD22RoundRect,0.200000X-0.200000X-0.275000X0.200000X-0.275000X0.200000X0.275000X-0.200000X0.275000X0*%
%ADD23RoundRect,0.050000X0.050000X0.137500X-0.050000X0.137500X-0.050000X-0.137500X0.050000X-0.137500X0*%
%ADD24RoundRect,0.270000X0.270000X0.605000X-0.270000X0.605000X-0.270000X-0.605000X0.270000X-0.605000X0*%
%ADD25FreePoly0,180.000000*%
%ADD26RoundRect,0.150000X0.512500X0.150000X-0.512500X0.150000X-0.512500X-0.150000X0.512500X-0.150000X0*%
%ADD27RoundRect,0.170000X0.170000X0.170000X-0.170000X0.170000X-0.170000X-0.170000X0.170000X-0.170000X0*%
%ADD28RoundRect,0.062500X0.350000X0.062500X-0.350000X0.062500X-0.350000X-0.062500X0.350000X-0.062500X0*%
%ADD29RoundRect,0.062500X0.062500X0.350000X-0.062500X0.350000X-0.062500X-0.350000X0.062500X-0.350000X0*%
%ADD30RoundRect,0.250001X-0.624999X0.462499X-0.624999X-0.462499X0.624999X-0.462499X0.624999X0.462499X0*%
%ADD31RoundRect,0.250001X1.074999X-0.462499X1.074999X0.462499X-1.074999X0.462499X-1.074999X-0.462499X0*%
%ADD32RoundRect,0.225000X-0.225000X-0.250000X0.225000X-0.250000X0.225000X0.250000X-0.225000X0.250000X0*%
%ADD33RoundRect,0.225000X-0.225000X-0.375000X0.225000X-0.375000X0.225000X0.375000X-0.225000X0.375000X0*%
%ADD34RoundRect,0.060000X0.690000X-0.140000X0.690000X0.140000X-0.690000X0.140000X-0.690000X-0.140000X0*%
%ADD35R,0.350000X0.375000*%
%ADD36R,0.375000X0.350000*%
%ADD37R,0.304800X0.990600*%
%ADD38FreePoly1,90.000000*%
%ADD39RoundRect,0.062500X0.062500X-0.375000X0.062500X0.375000X-0.062500X0.375000X-0.062500X-0.375000X0*%
%ADD40FreePoly2,90.000000*%
%ADD41FreePoly3,90.000000*%
%ADD42RoundRect,0.062500X0.375000X-0.062500X0.375000X0.062500X-0.375000X0.062500X-0.375000X-0.062500X0*%
%ADD43FreePoly4,90.000000*%
%ADD44FreePoly5,90.000000*%
%ADD45FreePoly6,90.000000*%
%ADD46FreePoly7,90.000000*%
%ADD47FreePoly8,90.000000*%
%ADD48RoundRect,0.150000X-0.150000X0.512500X-0.150000X-0.512500X0.150000X-0.512500X0.150000X0.512500X0*%
%ADD49R,0.254000X0.914400*%
%ADD50R,0.914400X0.254000*%
%ADD51R,3.302000X3.302000*%
%ADD52RoundRect,0.150000X0.825000X0.150000X-0.825000X0.150000X-0.825000X-0.150000X0.825000X-0.150000X0*%
G04 APERTURE END LIST*
D10*
%TO.C,U3*%
G36*
X133150000Y-101400000D02*
G01*
X131699000Y-101400000D01*
X131699000Y-99949000D01*
X133150000Y-99949000D01*
X133150000Y-101400000D01*
G37*
G36*
X133150000Y-103051000D02*
G01*
X131699000Y-103051000D01*
X131699000Y-101600000D01*
X133150000Y-101600000D01*
X133150000Y-103051000D01*
G37*
G36*
X134801000Y-101400000D02*
G01*
X133350000Y-101400000D01*
X133350000Y-99949000D01*
X134801000Y-99949000D01*
X134801000Y-101400000D01*
G37*
G36*
X134801000Y-103051000D02*
G01*
X133350000Y-103051000D01*
X133350000Y-101600000D01*
X134801000Y-101600000D01*
X134801000Y-103051000D01*
G37*
%TD*%
D11*
%TO.C,J2*%
X138070849Y-83917700D03*
X136370850Y-83917700D03*
X134670851Y-83917700D03*
D12*
X139445850Y-78867700D03*
X133295850Y-78867700D03*
%TD*%
D13*
%TO.C,C1*%
X162787500Y-97000000D03*
X161237500Y-97000000D03*
%TD*%
D14*
%TO.C,R16*%
X142575000Y-76750000D03*
X140925000Y-76750000D03*
%TD*%
D13*
%TO.C,R9*%
X164525000Y-101500000D03*
X162975000Y-101500000D03*
%TD*%
D15*
%TO.C,R19*%
X142750000Y-73825000D03*
X142750000Y-72175000D03*
%TD*%
%TO.C,R11*%
X155500000Y-78325000D03*
X155500000Y-76675000D03*
%TD*%
D16*
%TO.C,U7*%
X139862500Y-119550000D03*
X139862500Y-120500000D03*
X139862500Y-121450000D03*
X142137500Y-121450000D03*
X142137500Y-120500000D03*
X142137500Y-119550000D03*
%TD*%
D17*
%TO.C,U4*%
X168825000Y-106290000D03*
X168825000Y-93710000D03*
D18*
X166500000Y-104750000D03*
X166500000Y-104250000D03*
X166500000Y-103750000D03*
X166500000Y-103250000D03*
X166500000Y-102750000D03*
X166500000Y-102250000D03*
X166500000Y-101750000D03*
X166500000Y-101250000D03*
X166500000Y-100750000D03*
X166500000Y-100250000D03*
X166500000Y-99750000D03*
X166500000Y-99250000D03*
X166500000Y-98750000D03*
X166500000Y-98250000D03*
X166500000Y-97750000D03*
X166500000Y-97250000D03*
X166500000Y-96750000D03*
X166500000Y-96250000D03*
X166500000Y-95750000D03*
X166500000Y-95250000D03*
%TD*%
D13*
%TO.C,C31*%
X168025000Y-116250000D03*
X166475000Y-116250000D03*
%TD*%
D19*
%TO.C,R8*%
X137750000Y-95175000D03*
X137750000Y-96825000D03*
%TD*%
D20*
%TO.C,C13*%
X164500000Y-105975000D03*
X164500000Y-107525000D03*
%TD*%
D19*
%TO.C,R12*%
X154000000Y-76675000D03*
X154000000Y-78325000D03*
%TD*%
%TO.C,R26*%
X133250000Y-93675000D03*
X133250000Y-95325000D03*
%TD*%
D21*
%TO.C,C24*%
X149600000Y-76837500D03*
X149600000Y-75287500D03*
%TD*%
D22*
%TO.C,R6*%
X124675000Y-99250000D03*
X126325000Y-99250000D03*
%TD*%
D20*
%TO.C,C8*%
X138750000Y-104725000D03*
X138750000Y-106275000D03*
%TD*%
D13*
%TO.C,C4*%
X162787500Y-95500000D03*
X161237500Y-95500000D03*
%TD*%
D19*
%TO.C,R25*%
X154000000Y-71675000D03*
X154000000Y-73325000D03*
%TD*%
D23*
%TO.C,U12*%
X147475000Y-79512500D03*
X147475000Y-76987500D03*
D24*
X146990000Y-78250000D03*
X145710000Y-78250000D03*
D23*
X145225000Y-79512500D03*
X145225000Y-76987500D03*
D25*
X148250000Y-79250000D03*
X148250000Y-78850000D03*
X148250000Y-78450000D03*
X148250000Y-78050000D03*
X148250000Y-77650000D03*
X148250000Y-77250000D03*
X144450000Y-77250000D03*
X144450000Y-77650000D03*
X144450000Y-78050000D03*
X144450000Y-78450000D03*
X144450000Y-78850000D03*
X144450000Y-79250000D03*
%TD*%
D20*
%TO.C,C14*%
X163000000Y-105975000D03*
X163000000Y-107525000D03*
%TD*%
D26*
%TO.C,U9*%
X136387500Y-75700000D03*
X136387500Y-74750000D03*
X136387500Y-73800000D03*
X134112500Y-73800000D03*
X134112500Y-75700000D03*
%TD*%
D27*
%TO.C,U10*%
X141170000Y-69670000D03*
X141170000Y-68830000D03*
X140330000Y-69670000D03*
X140330000Y-68830000D03*
D28*
X142212500Y-70000000D03*
X142212500Y-69500000D03*
X142212500Y-69000000D03*
X142212500Y-68500000D03*
D29*
X141500000Y-67787500D03*
X141000000Y-67787500D03*
X140500000Y-67787500D03*
X140000000Y-67787500D03*
D28*
X139287500Y-68500000D03*
X139287500Y-69000000D03*
X139287500Y-69500000D03*
X139287500Y-70000000D03*
D29*
X140000000Y-70712500D03*
X140500000Y-70712500D03*
X141000000Y-70712500D03*
X141500000Y-70712500D03*
%TD*%
D15*
%TO.C,R20*%
X141250000Y-73825000D03*
X141250000Y-72175000D03*
%TD*%
D13*
%TO.C,C12*%
X131775000Y-96000000D03*
X130225000Y-96000000D03*
%TD*%
D30*
%TO.C,F1*%
X157000000Y-121512500D03*
X157000000Y-124487500D03*
%TD*%
D14*
%TO.C,R15*%
X145075000Y-75250000D03*
X143425000Y-75250000D03*
%TD*%
D20*
%TO.C,C33*%
X163000000Y-110475000D03*
X163000000Y-112025000D03*
%TD*%
D21*
%TO.C,C3*%
X138000000Y-119275000D03*
X138000000Y-117725000D03*
%TD*%
D13*
%TO.C,C15*%
X164525000Y-104500000D03*
X162975000Y-104500000D03*
%TD*%
D15*
%TO.C,R17*%
X143500000Y-124575000D03*
X143500000Y-122925000D03*
%TD*%
D20*
%TO.C,C2*%
X138000000Y-121725000D03*
X138000000Y-123275000D03*
%TD*%
D19*
%TO.C,R22*%
X164500000Y-110425000D03*
X164500000Y-112075000D03*
%TD*%
D13*
%TO.C,C9*%
X131775000Y-97500000D03*
X130225000Y-97500000D03*
%TD*%
D21*
%TO.C,C7*%
X138750000Y-103275000D03*
X138750000Y-101725000D03*
%TD*%
D13*
%TO.C,C22*%
X166275000Y-83500000D03*
X164725000Y-83500000D03*
%TD*%
D31*
%TO.C,L1*%
X170750000Y-115237500D03*
X170750000Y-112262500D03*
%TD*%
D13*
%TO.C,C28*%
X132275000Y-76500000D03*
X130725000Y-76500000D03*
%TD*%
D32*
%TO.C,C16*%
X125475000Y-93500000D03*
X127025000Y-93500000D03*
%TD*%
%TO.C,C18*%
X165975000Y-74750000D03*
X167525000Y-74750000D03*
%TD*%
D13*
%TO.C,C23*%
X166275000Y-85000000D03*
X164725000Y-85000000D03*
%TD*%
D21*
%TO.C,C5*%
X137250000Y-103275000D03*
X137250000Y-101725000D03*
%TD*%
D32*
%TO.C,C21*%
X165975000Y-76250000D03*
X167525000Y-76250000D03*
%TD*%
D21*
%TO.C,C27*%
X148100000Y-75775000D03*
X148100000Y-74225000D03*
%TD*%
D33*
%TO.C,D1*%
X166350000Y-110000000D03*
X169650000Y-110000000D03*
%TD*%
D15*
%TO.C,R1*%
X139250000Y-93825000D03*
X139250000Y-92175000D03*
%TD*%
D21*
%TO.C,C30*%
X143750000Y-69275000D03*
X143750000Y-67725000D03*
%TD*%
D14*
%TO.C,R10*%
X136325000Y-95250000D03*
X134675000Y-95250000D03*
%TD*%
D32*
%TO.C,C17*%
X134725000Y-96750000D03*
X136275000Y-96750000D03*
%TD*%
D21*
%TO.C,C6*%
X164262500Y-94025000D03*
X164262500Y-92475000D03*
%TD*%
D22*
%TO.C,R7*%
X124675000Y-100750000D03*
X126325000Y-100750000D03*
%TD*%
%TO.C,R14*%
X141175000Y-79250000D03*
X142825000Y-79250000D03*
%TD*%
D34*
%TO.C,U1*%
X166450000Y-90240000D03*
X166450000Y-89440000D03*
X166450000Y-88640000D03*
X166450000Y-87840000D03*
%TD*%
D19*
%TO.C,R5*%
X135750000Y-105425000D03*
X135750000Y-107075000D03*
%TD*%
D21*
%TO.C,C25*%
X159000000Y-124775000D03*
X159000000Y-123225000D03*
%TD*%
D20*
%TO.C,C20*%
X161750000Y-83475000D03*
X161750000Y-85025000D03*
%TD*%
D26*
%TO.C,Q1*%
X136887500Y-88950000D03*
X136887500Y-87050000D03*
X134612500Y-88000000D03*
%TD*%
D20*
%TO.C,C32*%
X137670000Y-69305000D03*
X137670000Y-70855000D03*
%TD*%
D35*
%TO.C,U2*%
X162750000Y-92487500D03*
X162250000Y-92487500D03*
X161750000Y-92487500D03*
X161250000Y-92487500D03*
D36*
X161237500Y-93000000D03*
X161237500Y-93500000D03*
D35*
X161250000Y-94012500D03*
X161750000Y-94012500D03*
X162250000Y-94012500D03*
X162750000Y-94012500D03*
D36*
X162762500Y-93500000D03*
X162762500Y-93000000D03*
%TD*%
D37*
%TO.C,J3*%
X146250000Y-122200299D03*
X147250000Y-122200299D03*
X148250001Y-122200299D03*
X149249999Y-122200299D03*
X150750001Y-122200299D03*
X151749999Y-122200299D03*
X152750000Y-122200299D03*
X153750000Y-122200299D03*
X153250001Y-122200299D03*
X152250003Y-122200299D03*
X151250005Y-122200299D03*
X150250007Y-122200299D03*
X149750000Y-122200299D03*
X148750003Y-122200299D03*
X147750004Y-122200299D03*
X146750006Y-122200299D03*
%TD*%
D14*
%TO.C,R2*%
X164575000Y-89750000D03*
X162925000Y-89750000D03*
%TD*%
D19*
%TO.C,R23*%
X164500000Y-113425000D03*
X164500000Y-115075000D03*
%TD*%
D22*
%TO.C,R21*%
X143675000Y-70750000D03*
X145325000Y-70750000D03*
%TD*%
D19*
%TO.C,R24*%
X155500000Y-71675000D03*
X155500000Y-73325000D03*
%TD*%
D14*
%TO.C,R3*%
X164575000Y-88250000D03*
X162925000Y-88250000D03*
%TD*%
D13*
%TO.C,C10*%
X164525000Y-103000000D03*
X162975000Y-103000000D03*
%TD*%
D38*
%TO.C,U6*%
X163905000Y-81717500D03*
D39*
X164405000Y-81657500D03*
X164905000Y-81657500D03*
X165405000Y-81657500D03*
X165905000Y-81657500D03*
X166405000Y-81657500D03*
D40*
X166905000Y-81717500D03*
D41*
X167402500Y-81220000D03*
D42*
X167342500Y-80720000D03*
X167342500Y-80220000D03*
X167342500Y-79720000D03*
X167342500Y-79220000D03*
X167342500Y-78720000D03*
D43*
X167402500Y-78220000D03*
D44*
X166905000Y-77722500D03*
D39*
X166405000Y-77782500D03*
X165905000Y-77782500D03*
X165405000Y-77782500D03*
X164905000Y-77782500D03*
X164405000Y-77782500D03*
D45*
X163905000Y-77722500D03*
D46*
X163407500Y-78220000D03*
D42*
X163467500Y-78720000D03*
X163467500Y-79220000D03*
X163467500Y-79720000D03*
X163467500Y-80220000D03*
X163467500Y-80720000D03*
D47*
X163407500Y-81220000D03*
%TD*%
D48*
%TO.C,U11*%
X168200000Y-112112500D03*
X167250000Y-112112500D03*
X166300000Y-112112500D03*
X166300000Y-114387500D03*
X168200000Y-114387500D03*
%TD*%
D14*
%TO.C,R18*%
X158075000Y-119750000D03*
X156425000Y-119750000D03*
%TD*%
D49*
%TO.C,U3*%
X134750000Y-99150500D03*
X134250001Y-99150500D03*
X133749999Y-99150500D03*
X133250000Y-99150500D03*
X132750001Y-99150500D03*
X132249999Y-99150500D03*
X131750000Y-99150500D03*
D50*
X130900500Y-100000000D03*
X130900500Y-100499999D03*
X130900500Y-101000001D03*
X130900500Y-101500000D03*
X130900500Y-101999999D03*
X130900500Y-102500001D03*
X130900500Y-103000000D03*
D49*
X131750000Y-103849500D03*
X132249999Y-103849500D03*
X132750001Y-103849500D03*
X133250000Y-103849500D03*
X133749999Y-103849500D03*
X134250001Y-103849500D03*
X134750000Y-103849500D03*
D50*
X135599500Y-103000000D03*
X135599500Y-102500001D03*
X135599500Y-101999999D03*
X135599500Y-101500000D03*
X135599500Y-101000001D03*
X135599500Y-100499999D03*
X135599500Y-100000000D03*
D51*
X133250000Y-101500000D03*
%TD*%
D21*
%TO.C,C26*%
X138250000Y-75525000D03*
X138250000Y-73975000D03*
%TD*%
D15*
%TO.C,R4*%
X134250000Y-107075000D03*
X134250000Y-105425000D03*
%TD*%
D19*
%TO.C,R13*%
X160250000Y-83425000D03*
X160250000Y-85075000D03*
%TD*%
D52*
%TO.C,U5*%
X130975000Y-91905000D03*
X130975000Y-90635000D03*
X130975000Y-89365000D03*
X130975000Y-88095000D03*
X126025000Y-88095000D03*
X126025000Y-89365000D03*
X126025000Y-90635000D03*
X126025000Y-91905000D03*
%TD*%
D20*
%TO.C,C19*%
X163250000Y-83475000D03*
X163250000Y-85025000D03*
%TD*%
%TO.C,C11*%
X137250000Y-104725000D03*
X137250000Y-106275000D03*
%TD*%
D13*
%TO.C,C34*%
X164525000Y-109000000D03*
X162975000Y-109000000D03*
%TD*%
%TO.C,C29*%
X139695000Y-72330000D03*
X138145000Y-72330000D03*
%TD*%
M02*
