%TF.GenerationSoftware,KiCad,Pcbnew,10.0.3*%
%TF.CreationDate,2026-06-11T17:49:32-06:00*%
%TF.ProjectId,picowy,7069636f-7779-42e6-9b69-6361645f7063,01*%
%TF.SameCoordinates,Original*%
%TF.FileFunction,Copper,L4,Bot*%
%TF.FilePolarity,Positive*%
%FSLAX46Y46*%
G04 Gerber Fmt 4.6, Leading zero omitted, Abs format (unit mm)*
G04 Created by KiCad (PCBNEW 10.0.3) date 2026-06-11 17:49:32*
%MOMM*%
%LPD*%
G01*
G04 APERTURE LIST*
%TA.AperFunction,HeatsinkPad*%
%ADD10C,0.500000*%
%TD*%
%TA.AperFunction,ComponentPad*%
%ADD11O,1.009600X1.651000*%
%TD*%
%TA.AperFunction,ComponentPad*%
%ADD12O,1.092200X2.057400*%
%TD*%
%TA.AperFunction,ViaPad*%
%ADD13C,0.700000*%
%TD*%
%TA.AperFunction,Conductor*%
%ADD14C,0.500000*%
%TD*%
%TA.AperFunction,Conductor*%
%ADD15C,0.200000*%
%TD*%
%TA.AperFunction,Conductor*%
%ADD16C,0.300000*%
%TD*%
G04 APERTURE END LIST*
D10*
%TO.P,U12,13,PAD_13*%
%TO.N,GND*%
X147325000Y-78250000D03*
X146350000Y-78975000D03*
X146350000Y-78250000D03*
X146350000Y-77525000D03*
X145375000Y-78250000D03*
%TD*%
D11*
%TO.P,J3,SH,SHIELD_SH*%
%TO.N,GND*%
X145480000Y-122600300D03*
D12*
X145480000Y-125600300D03*
D11*
X154520000Y-122600300D03*
D12*
X154520000Y-125600300D03*
%TD*%
D13*
%TO.N,+BATT*%
X146050000Y-75800000D03*
X142300000Y-75250000D03*
%TO.N,GND*%
X165800000Y-79200000D03*
X150750000Y-75300000D03*
X165300000Y-116250000D03*
X132650000Y-90600000D03*
X137250000Y-107350000D03*
X159150000Y-119750000D03*
X141650000Y-77900000D03*
X161850000Y-101500000D03*
X133050000Y-105000000D03*
X143950000Y-72800000D03*
X169850000Y-80200000D03*
X163400000Y-100000000D03*
X134650000Y-82700000D03*
X163350000Y-115050000D03*
X137050000Y-72700000D03*
X142250000Y-67700000D03*
X130200000Y-98550500D03*
X146450000Y-66750000D03*
X130250000Y-94850000D03*
X161850000Y-109050000D03*
X168600000Y-95800000D03*
X137950000Y-116650000D03*
X168500000Y-75550000D03*
X160150000Y-123250000D03*
X138750000Y-100650000D03*
X124500000Y-91200000D03*
X163250000Y-86150000D03*
X161750000Y-86100000D03*
X160250000Y-86100000D03*
X161850000Y-104500000D03*
X137250000Y-100600000D03*
X133650000Y-96350000D03*
X136300000Y-97850000D03*
X169500000Y-98550000D03*
X164750000Y-86100000D03*
X146750000Y-123750000D03*
X127750000Y-114000000D03*
X153250000Y-123800000D03*
X163449265Y-91750000D03*
X146400000Y-70800000D03*
X160150000Y-97000000D03*
X160100000Y-95550000D03*
X138750000Y-107350000D03*
X161950000Y-93250000D03*
X167350000Y-110750000D03*
X165650000Y-107500000D03*
X149550000Y-78150000D03*
X129900000Y-77350000D03*
X168400000Y-77100000D03*
X161850000Y-103000000D03*
X138850000Y-70900000D03*
X147050000Y-74900000D03*
X143750000Y-66600000D03*
X167800000Y-102750000D03*
X126750000Y-94650000D03*
X161850000Y-107550000D03*
X127600000Y-101800000D03*
X161150000Y-89750000D03*
X135253231Y-74391385D03*
X139100000Y-123300000D03*
X143500000Y-125600000D03*
X132650000Y-88100000D03*
X133650000Y-83900000D03*
X138550000Y-120500000D03*
X132650000Y-89350000D03*
X163650000Y-74350000D03*
%TO.N,+3V3*%
X166300000Y-86100000D03*
X152600000Y-75900000D03*
X145750000Y-64150000D03*
X134650000Y-87050000D03*
X155500000Y-70600000D03*
X136950000Y-86000000D03*
X166000000Y-73600000D03*
X131500000Y-83250000D03*
X158100000Y-66050000D03*
X161250000Y-68750000D03*
X158300000Y-70750000D03*
X131500000Y-82250000D03*
X128700000Y-78950000D03*
X155300000Y-74950000D03*
X129250000Y-85000000D03*
X161400000Y-74300000D03*
X131150000Y-75200000D03*
X168050000Y-117400000D03*
X163900000Y-96950000D03*
X164250000Y-95150000D03*
X167750000Y-103700000D03*
X145750000Y-63150000D03*
X152850000Y-78350000D03*
X153500000Y-65850000D03*
X128750000Y-85750000D03*
%TO.N,VBUS*%
X157000000Y-123000000D03*
X143450000Y-120500000D03*
X139250000Y-91100000D03*
X139700000Y-73750000D03*
X157000000Y-125750000D03*
%TO.N,MCU.MOSI*%
X160400000Y-90650000D03*
X169000000Y-79350000D03*
X168300000Y-98550000D03*
%TO.N,FT_3V3*%
X123650000Y-100750000D03*
X137750000Y-94150000D03*
X130100000Y-108350000D03*
X131850000Y-108350000D03*
X136800000Y-110350000D03*
X130950000Y-108350000D03*
X131800000Y-94850000D03*
X136350000Y-94100000D03*
X125500000Y-94650000D03*
X134400000Y-93650000D03*
X136800000Y-109400000D03*
X136800000Y-111300000D03*
X123600000Y-99250000D03*
%TO.N,PGOOD*%
X132900000Y-85850000D03*
X152900000Y-74250000D03*
%TO.N,GPOUT*%
X142800000Y-78100000D03*
X161700000Y-80100000D03*
%TO.N,BOOT0*%
X160250000Y-82300000D03*
X138750000Y-81900000D03*
%TO.N,MCU.MISO*%
X165950000Y-80300000D03*
X161850000Y-90650000D03*
%TO.N,NRST*%
X163250000Y-82450000D03*
X139300000Y-80900000D03*
X164150000Y-72700000D03*
%TO.N,MCU.TX*%
X164250000Y-75550000D03*
X128150000Y-100550000D03*
%TO.N,MCU.RX*%
X128900000Y-101300000D03*
X163100000Y-75500000D03*
%TD*%
%TO.N,+BATT*%
D14*
X146050000Y-75800000D02*
X142850000Y-75800000D01*
X142850000Y-75800000D02*
X142300000Y-75250000D01*
%TO.N,VBUS*%
X139700000Y-75750000D02*
X139700000Y-73750000D01*
X139250000Y-84850000D02*
X137600000Y-83200000D01*
X137600000Y-83200000D02*
X137600000Y-77850000D01*
X137600000Y-77850000D02*
X139700000Y-75750000D01*
X139250000Y-91100000D02*
X139250000Y-84850000D01*
%TO.N,MCU.MOSI*%
D15*
X161850000Y-92600000D02*
X165700000Y-92600000D01*
X167700000Y-79350000D02*
X169000000Y-79350000D01*
X166750000Y-96300000D02*
X168300000Y-97850000D01*
X164750000Y-82200000D02*
X164750000Y-78700000D01*
X165350000Y-78100000D02*
X166450000Y-78100000D01*
X166750000Y-93650000D02*
X166750000Y-96300000D01*
X160400000Y-90650000D02*
X160400000Y-91150000D01*
X165700000Y-92600000D02*
X166750000Y-93650000D01*
X161100000Y-88550000D02*
X161100000Y-85850000D01*
X168300000Y-97850000D02*
X168300000Y-98550000D01*
X164750000Y-78700000D02*
X165350000Y-78100000D01*
X160400000Y-89250000D02*
X161100000Y-88550000D01*
X161100000Y-85850000D02*
X164750000Y-82200000D01*
X160400000Y-91150000D02*
X161850000Y-92600000D01*
X160400000Y-90650000D02*
X160400000Y-89250000D01*
X166450000Y-78100000D02*
X167700000Y-79350000D01*
%TO.N,FT_3V3*%
D16*
X131800000Y-94850000D02*
X131800000Y-108300000D01*
X131800000Y-108300000D02*
X131850000Y-108350000D01*
%TO.N,PGOOD*%
D15*
X140500000Y-71500000D02*
X142150000Y-71500000D01*
X130350000Y-85250000D02*
X130350000Y-81650000D01*
X133575000Y-78425000D02*
X140500000Y-71500000D01*
X143200000Y-73100000D02*
X144350000Y-74250000D01*
X144350000Y-74250000D02*
X152900000Y-74250000D01*
X132900000Y-85850000D02*
X130950000Y-85850000D01*
X133575000Y-79475000D02*
X133575000Y-78425000D01*
X130350000Y-81650000D02*
X130825000Y-81175000D01*
X143200000Y-72550000D02*
X143200000Y-73100000D01*
X130825000Y-81175000D02*
X131875000Y-81175000D01*
X142150000Y-71500000D02*
X143200000Y-72550000D01*
X131875000Y-81175000D02*
X133575000Y-79475000D01*
X130950000Y-85850000D02*
X130350000Y-85250000D01*
%TO.N,GPOUT*%
X160650000Y-80100000D02*
X156550000Y-76000000D01*
X147500000Y-77450000D02*
X147025000Y-76975000D01*
X161700000Y-80100000D02*
X160650000Y-80100000D01*
X151550000Y-76850000D02*
X150950000Y-77450000D01*
X144500000Y-78100000D02*
X142800000Y-78100000D01*
X147025000Y-76975000D02*
X145625000Y-76975000D01*
X151550000Y-75500000D02*
X151550000Y-76850000D01*
X155250000Y-76000000D02*
X154300000Y-75050000D01*
X150950000Y-77450000D02*
X147500000Y-77450000D01*
X145625000Y-76975000D02*
X144500000Y-78100000D01*
X154300000Y-75050000D02*
X152000000Y-75050000D01*
X156550000Y-76000000D02*
X155250000Y-76000000D01*
X152000000Y-75050000D02*
X151550000Y-75500000D01*
%TO.N,BOOT0*%
X139600000Y-81900000D02*
X138750000Y-81900000D01*
X147200000Y-79600000D02*
X146900000Y-79900000D01*
X160250000Y-81600000D02*
X158250000Y-79600000D01*
X158250000Y-79600000D02*
X147200000Y-79600000D01*
X139900000Y-81600000D02*
X139600000Y-81900000D01*
X141350000Y-79600000D02*
X139900000Y-81050000D01*
X145550000Y-79900000D02*
X145250000Y-79600000D01*
X146900000Y-79900000D02*
X145550000Y-79900000D01*
X139900000Y-81050000D02*
X139900000Y-81600000D01*
X160250000Y-81600000D02*
X160250000Y-82300000D01*
X145250000Y-79600000D02*
X141350000Y-79600000D01*
%TO.N,MCU.MISO*%
X162500000Y-90000000D02*
X161850000Y-90650000D01*
X165950000Y-82500000D02*
X162500000Y-85950000D01*
X165950000Y-80300000D02*
X165950000Y-82500000D01*
X162500000Y-85950000D02*
X162500000Y-90000000D01*
%TO.N,NRST*%
X165150000Y-77000000D02*
X163250000Y-78900000D01*
X165150000Y-73700000D02*
X165150000Y-77000000D01*
X146700000Y-79550000D02*
X147100000Y-79150000D01*
X162050000Y-82450000D02*
X163250000Y-82450000D01*
X139300000Y-80900000D02*
X139300000Y-80650000D01*
X145750000Y-79550000D02*
X146700000Y-79550000D01*
X139300000Y-80650000D02*
X140800000Y-79150000D01*
X158750000Y-79150000D02*
X162050000Y-82450000D01*
X164150000Y-72700000D02*
X165150000Y-73700000D01*
X147100000Y-79150000D02*
X158750000Y-79150000D01*
X163250000Y-78900000D02*
X163250000Y-82450000D01*
X140800000Y-79150000D02*
X145350000Y-79150000D01*
X145350000Y-79150000D02*
X145750000Y-79550000D01*
%TO.N,MCU.TX*%
X130850000Y-77900000D02*
X139350000Y-69400000D01*
X130850000Y-78500000D02*
X130850000Y-77900000D01*
X139350000Y-69400000D02*
X142850000Y-69400000D01*
X142850000Y-69400000D02*
X145500000Y-72050000D01*
X126150000Y-85050000D02*
X128150000Y-83050000D01*
X128150000Y-83050000D02*
X128150000Y-81200000D01*
X164250000Y-73850000D02*
X164250000Y-75550000D01*
X128150000Y-100550000D02*
X126150000Y-98550000D01*
X145500000Y-72050000D02*
X162450000Y-72050000D01*
X128150000Y-81200000D02*
X130850000Y-78500000D01*
X162450000Y-72050000D02*
X164250000Y-73850000D01*
X126150000Y-98550000D02*
X126150000Y-85050000D01*
%TO.N,MCU.RX*%
X130950000Y-80000000D02*
X131600000Y-80000000D01*
X128900000Y-101300000D02*
X128900000Y-99650000D01*
X163100000Y-74650000D02*
X163100000Y-75500000D01*
X142500000Y-70500000D02*
X145400000Y-73400000D01*
X128900000Y-99650000D02*
X127700000Y-98450000D01*
X161850000Y-73400000D02*
X163100000Y-74650000D01*
X140100000Y-70500000D02*
X142500000Y-70500000D01*
X131600000Y-80000000D02*
X132825000Y-78775000D01*
X127700000Y-98450000D02*
X127700000Y-85150000D01*
X130950000Y-80000000D02*
X129400000Y-81550000D01*
X132825000Y-78775000D02*
X132825000Y-77775000D01*
X132825000Y-77775000D02*
X140100000Y-70500000D01*
X145400000Y-73400000D02*
X161850000Y-73400000D01*
X127700000Y-85150000D02*
X129400000Y-83450000D01*
X129400000Y-83450000D02*
X129400000Y-81550000D01*
%TD*%
%TA.AperFunction,Conductor*%
%TO.N,+3V3*%
G36*
X153882421Y-62503105D02*
G01*
X153906912Y-62508206D01*
X153931139Y-62515914D01*
X154927987Y-62950046D01*
X154929702Y-62950808D01*
X154931546Y-62951646D01*
X154933179Y-62952404D01*
X156022270Y-63469013D01*
X156024009Y-63469856D01*
X156025802Y-63470742D01*
X156027514Y-63471606D01*
X156723793Y-63830048D01*
X157088290Y-64017691D01*
X157090081Y-64018632D01*
X157091869Y-64019590D01*
X157093641Y-64020557D01*
X158126852Y-64596037D01*
X158128547Y-64597001D01*
X158130368Y-64598055D01*
X158130370Y-64598056D01*
X158132060Y-64599053D01*
X158371196Y-64742785D01*
X159121143Y-65193539D01*
X159138242Y-65203816D01*
X159139957Y-65204866D01*
X159141688Y-65205945D01*
X159143405Y-65207035D01*
X160085487Y-65816712D01*
X160123365Y-65841225D01*
X160125087Y-65842361D01*
X160126768Y-65843489D01*
X160128476Y-65844655D01*
X160215178Y-65904956D01*
X161073513Y-66501925D01*
X161082444Y-66508136D01*
X161084126Y-66509327D01*
X161085750Y-66510497D01*
X161087395Y-66511702D01*
X161848357Y-67079585D01*
X161848356Y-67079585D01*
X162016068Y-67204743D01*
X162017768Y-67206035D01*
X162019401Y-67207298D01*
X162020984Y-67208542D01*
X162924577Y-67931151D01*
X162926179Y-67932455D01*
X162927720Y-67933730D01*
X162929308Y-67935066D01*
X162930663Y-67936226D01*
X163662298Y-68562556D01*
X163808227Y-68687481D01*
X163809772Y-68688826D01*
X163809855Y-68688900D01*
X163811334Y-68690209D01*
X163812867Y-68691589D01*
X164352121Y-69185362D01*
X164667378Y-69474030D01*
X164668834Y-69475385D01*
X164670444Y-69476910D01*
X164671767Y-69478183D01*
X165502279Y-70291100D01*
X165503568Y-70292382D01*
X165505113Y-70293945D01*
X165506477Y-70295348D01*
X165807332Y-70610019D01*
X165908883Y-70716233D01*
X166312806Y-71138704D01*
X166314162Y-71140145D01*
X166315595Y-71141695D01*
X166316922Y-71143154D01*
X166978286Y-71882182D01*
X167099232Y-72017330D01*
X167100581Y-72018862D01*
X167101883Y-72020366D01*
X167103142Y-72021844D01*
X167352568Y-72319623D01*
X167601014Y-72616232D01*
X167861512Y-72927231D01*
X167862763Y-72928749D01*
X167864020Y-72930299D01*
X167865287Y-72931888D01*
X167929137Y-73013348D01*
X168599580Y-73868711D01*
X168600740Y-73870216D01*
X168601967Y-73871834D01*
X168603099Y-73873351D01*
X169219695Y-74714387D01*
X169225386Y-74730124D01*
X169236306Y-74745549D01*
X169238383Y-74751295D01*
X169239473Y-74769075D01*
X169243457Y-74780090D01*
X169243641Y-74784183D01*
X169243783Y-74789185D01*
X169241288Y-74798666D01*
X169242661Y-74821034D01*
X169228963Y-74845525D01*
X169226009Y-74856756D01*
X169219174Y-74863026D01*
X169208555Y-74882014D01*
X169184513Y-74894826D01*
X169174525Y-74903991D01*
X169163858Y-74905834D01*
X169146896Y-74914875D01*
X169122902Y-74912914D01*
X169105676Y-74915893D01*
X169092820Y-74910457D01*
X169077267Y-74909187D01*
X169075332Y-74908443D01*
X169047552Y-74892272D01*
X169047228Y-74892758D01*
X168902856Y-74796292D01*
X168748083Y-74732184D01*
X168748056Y-74732178D01*
X168583773Y-74699500D01*
X168583771Y-74699500D01*
X168583767Y-74699500D01*
X168416233Y-74699500D01*
X168416228Y-74699500D01*
X168416226Y-74699500D01*
X168251942Y-74732178D01*
X168251915Y-74732184D01*
X168097142Y-74796292D01*
X167957834Y-74889374D01*
X167839374Y-75007834D01*
X167746292Y-75147142D01*
X167682184Y-75301915D01*
X167682178Y-75301942D01*
X167649500Y-75466225D01*
X167649500Y-75466228D01*
X167649500Y-75633771D01*
X167649500Y-75633773D01*
X167649499Y-75633773D01*
X167682178Y-75798056D01*
X167682184Y-75798083D01*
X167746292Y-75952856D01*
X167839374Y-76092164D01*
X167935453Y-76188243D01*
X167935456Y-76188245D01*
X167956608Y-76216499D01*
X167963260Y-76228680D01*
X167978114Y-76296952D01*
X167953700Y-76362417D01*
X167953692Y-76362428D01*
X167947093Y-76371242D01*
X167916723Y-76400026D01*
X167857845Y-76439368D01*
X167857831Y-76439377D01*
X167739374Y-76557834D01*
X167646292Y-76697142D01*
X167582184Y-76851915D01*
X167582178Y-76851942D01*
X167549500Y-77016225D01*
X167549500Y-77016228D01*
X167549500Y-77183771D01*
X167549500Y-77183773D01*
X167549499Y-77183773D01*
X167582178Y-77348056D01*
X167582184Y-77348083D01*
X167646292Y-77502856D01*
X167739374Y-77642164D01*
X167857833Y-77760623D01*
X167857841Y-77760629D01*
X167941057Y-77816232D01*
X167941058Y-77816232D01*
X167941059Y-77816233D01*
X167994480Y-77851927D01*
X167994480Y-77851928D01*
X167994482Y-77851929D01*
X167997137Y-77853703D01*
X167997138Y-77853703D01*
X167998157Y-77854384D01*
X168002743Y-77856025D01*
X168032201Y-77868227D01*
X168151918Y-77917816D01*
X168316228Y-77950499D01*
X168316232Y-77950500D01*
X168316233Y-77950500D01*
X168483768Y-77950500D01*
X168483769Y-77950499D01*
X168648082Y-77917816D01*
X168802863Y-77853703D01*
X168942162Y-77760626D01*
X169060626Y-77642162D01*
X169153703Y-77502863D01*
X169217816Y-77348082D01*
X169250500Y-77183767D01*
X169250500Y-77016233D01*
X169217816Y-76851918D01*
X169153703Y-76697137D01*
X169098383Y-76614345D01*
X169060626Y-76557837D01*
X169060624Y-76557834D01*
X168964544Y-76461754D01*
X168964542Y-76461753D01*
X168943390Y-76433499D01*
X168936738Y-76421318D01*
X168921884Y-76353046D01*
X168946297Y-76287583D01*
X168952903Y-76278758D01*
X168983273Y-76249973D01*
X169042162Y-76210626D01*
X169160626Y-76092162D01*
X169253703Y-75952863D01*
X169317816Y-75798082D01*
X169350500Y-75633767D01*
X169350500Y-75466233D01*
X169344699Y-75437067D01*
X169317818Y-75301927D01*
X169317817Y-75301925D01*
X169317816Y-75301918D01*
X169315644Y-75296675D01*
X169304284Y-75269250D01*
X169295559Y-75235065D01*
X169294905Y-75228986D01*
X169298070Y-75211437D01*
X169296818Y-75199782D01*
X169302063Y-75189303D01*
X169307307Y-75160230D01*
X169327444Y-75138598D01*
X169328093Y-75137303D01*
X169329338Y-75136564D01*
X169354915Y-75109090D01*
X169422614Y-75091808D01*
X169488907Y-75113868D01*
X169488939Y-75113890D01*
X169490760Y-75115155D01*
X169522302Y-75146898D01*
X169624943Y-75296675D01*
X170002147Y-75847113D01*
X170003200Y-75848674D01*
X170004306Y-75850344D01*
X170005343Y-75851935D01*
X170350967Y-76391994D01*
X170457102Y-76557837D01*
X170604133Y-76787583D01*
X170666189Y-76884549D01*
X170667206Y-76886166D01*
X170668224Y-76887812D01*
X170669225Y-76889461D01*
X171011719Y-77463181D01*
X171244849Y-77853704D01*
X171304842Y-77954199D01*
X171305760Y-77955763D01*
X171306828Y-77957616D01*
X171307698Y-77959155D01*
X171912852Y-79047453D01*
X171917681Y-79056136D01*
X171918601Y-79057820D01*
X171919495Y-79059488D01*
X171920351Y-79061114D01*
X172280586Y-79757838D01*
X172501153Y-80184435D01*
X172504123Y-80190178D01*
X172504976Y-80191859D01*
X172505816Y-80193546D01*
X172506615Y-80195180D01*
X173063536Y-81356042D01*
X173064319Y-81357706D01*
X173065071Y-81359335D01*
X173065818Y-81360986D01*
X173282452Y-81848877D01*
X173592913Y-82548082D01*
X173594956Y-82552683D01*
X173595155Y-82553131D01*
X173595860Y-82554752D01*
X173596587Y-82556455D01*
X173597287Y-82558127D01*
X174098239Y-83780804D01*
X174098889Y-83782425D01*
X174099505Y-83783991D01*
X174100152Y-83785670D01*
X174571763Y-85037625D01*
X174572364Y-85039255D01*
X174572951Y-85040882D01*
X174573536Y-85042539D01*
X175014828Y-86322223D01*
X175015392Y-86323898D01*
X175015920Y-86325503D01*
X175016434Y-86327102D01*
X175426250Y-87632120D01*
X175426751Y-87633756D01*
X175427258Y-87635452D01*
X175427731Y-87637075D01*
X175804880Y-88964400D01*
X175805332Y-88966030D01*
X175805796Y-88967752D01*
X175806219Y-88969368D01*
X176132123Y-90247137D01*
X176149442Y-90315040D01*
X176149838Y-90316634D01*
X176150226Y-90318244D01*
X176150610Y-90319886D01*
X176236116Y-90697137D01*
X176458516Y-91678372D01*
X176458860Y-91679937D01*
X176459195Y-91681509D01*
X176459538Y-91683176D01*
X176730558Y-93046455D01*
X176730861Y-93048035D01*
X176731162Y-93049659D01*
X176731458Y-93051316D01*
X176964023Y-94408662D01*
X176964290Y-94410288D01*
X176964539Y-94411867D01*
X176964786Y-94413498D01*
X177157197Y-95748915D01*
X177157430Y-95750621D01*
X177157647Y-95752291D01*
X177157844Y-95753887D01*
X177308362Y-97042855D01*
X177308544Y-97044508D01*
X177308715Y-97046165D01*
X177308881Y-97047896D01*
X177415885Y-98249631D01*
X177416033Y-98251435D01*
X177416171Y-98253291D01*
X177416287Y-98255022D01*
X177478739Y-99290749D01*
X177478839Y-99292642D01*
X177478928Y-99294644D01*
X177478999Y-99296572D01*
X177499289Y-99999962D01*
X177499339Y-100002906D01*
X177499354Y-100005852D01*
X177499334Y-100008799D01*
X177480379Y-101023554D01*
X177480314Y-101025869D01*
X177480228Y-101028170D01*
X177480120Y-101030483D01*
X177467699Y-101251925D01*
X177423374Y-102042164D01*
X177422984Y-102049109D01*
X177422831Y-102051444D01*
X177422659Y-102053736D01*
X177422467Y-102056020D01*
X177327319Y-103071899D01*
X177327082Y-103074192D01*
X177326829Y-103076442D01*
X177326548Y-103078752D01*
X177193526Y-104090358D01*
X177193202Y-104092655D01*
X177192862Y-104094913D01*
X177192496Y-104097196D01*
X177021806Y-105103021D01*
X177021398Y-105105300D01*
X177020956Y-105107639D01*
X177020504Y-105109912D01*
X176812363Y-106108692D01*
X176811868Y-106110960D01*
X176811365Y-106113166D01*
X176810831Y-106115414D01*
X176565506Y-107105831D01*
X176564918Y-107108110D01*
X176564332Y-107110297D01*
X176563722Y-107112492D01*
X176281611Y-108092947D01*
X176280949Y-108095170D01*
X176280249Y-108097442D01*
X176279547Y-108099646D01*
X175961034Y-109068823D01*
X175960283Y-109071039D01*
X175959499Y-109073281D01*
X175958722Y-109075437D01*
X175604232Y-110032054D01*
X175603420Y-110034186D01*
X175602549Y-110036410D01*
X175601671Y-110038590D01*
X175211701Y-110981300D01*
X175210809Y-110983403D01*
X175209872Y-110985555D01*
X175208914Y-110987699D01*
X174783966Y-111915283D01*
X174782979Y-111917385D01*
X174782018Y-111919383D01*
X174780997Y-111921455D01*
X174321677Y-112832571D01*
X174320619Y-112834623D01*
X174319562Y-112836626D01*
X174318459Y-112838670D01*
X173825469Y-113731931D01*
X173824312Y-113733981D01*
X173823142Y-113736009D01*
X173821985Y-113737972D01*
X173295992Y-114612174D01*
X173294778Y-114614149D01*
X173293557Y-114616095D01*
X173292309Y-114618043D01*
X172734026Y-115472004D01*
X172732738Y-115473935D01*
X172731454Y-115475821D01*
X172730136Y-115477719D01*
X172140344Y-116310244D01*
X172138988Y-116312121D01*
X172137599Y-116314006D01*
X172136207Y-116315858D01*
X171515769Y-117125728D01*
X171514339Y-117127560D01*
X171512885Y-117129386D01*
X171511430Y-117131178D01*
X170861155Y-117917339D01*
X170859682Y-117919087D01*
X170858169Y-117920849D01*
X170856624Y-117922614D01*
X170177453Y-118683930D01*
X170175889Y-118685651D01*
X170174304Y-118687362D01*
X170172721Y-118689039D01*
X169465554Y-119424499D01*
X169463932Y-119426155D01*
X169462302Y-119427788D01*
X169460651Y-119429410D01*
X168726590Y-120137867D01*
X168724929Y-120139442D01*
X168723184Y-120141065D01*
X168721453Y-120142644D01*
X167961403Y-120823230D01*
X167959654Y-120824767D01*
X167957891Y-120826287D01*
X167956132Y-120827775D01*
X167171201Y-121479495D01*
X167169420Y-121480947D01*
X167167605Y-121482398D01*
X167165768Y-121483838D01*
X166356998Y-122105825D01*
X166355160Y-122107212D01*
X166353326Y-122108569D01*
X166351441Y-122109936D01*
X165520020Y-122701275D01*
X165518140Y-122702586D01*
X165516211Y-122703905D01*
X165514266Y-122705208D01*
X164661365Y-123265065D01*
X164659455Y-123266294D01*
X164657489Y-123267533D01*
X164655530Y-123268742D01*
X163782243Y-123796399D01*
X163780256Y-123797575D01*
X163778277Y-123798721D01*
X163776256Y-123799866D01*
X162883895Y-124294530D01*
X162881813Y-124295658D01*
X162879804Y-124296722D01*
X162877794Y-124297763D01*
X161967624Y-124758732D01*
X161965563Y-124759753D01*
X161963488Y-124760756D01*
X161961378Y-124761751D01*
X161034599Y-125188420D01*
X161032462Y-125189379D01*
X161030344Y-125190306D01*
X161028239Y-125191205D01*
X160688074Y-125332663D01*
X160653890Y-125341439D01*
X160642505Y-125342679D01*
X160640092Y-125342941D01*
X160571316Y-125330633D01*
X160520114Y-125283098D01*
X160517437Y-125278599D01*
X160500000Y-125215194D01*
X160500000Y-124123133D01*
X160505022Y-124088201D01*
X160510934Y-124068065D01*
X160541446Y-124016110D01*
X160546163Y-124011308D01*
X160565717Y-123995113D01*
X160692162Y-123910626D01*
X160810626Y-123792162D01*
X160903703Y-123652863D01*
X160967816Y-123498082D01*
X161000500Y-123333767D01*
X161000500Y-123166233D01*
X160967816Y-123001918D01*
X160903703Y-122847137D01*
X160844035Y-122757838D01*
X160844035Y-122757837D01*
X160810627Y-122707838D01*
X160810621Y-122707831D01*
X160692167Y-122589377D01*
X160692160Y-122589371D01*
X160569931Y-122507701D01*
X160569929Y-122507699D01*
X160569927Y-122507699D01*
X160543675Y-122484116D01*
X160530219Y-122468016D01*
X160503973Y-122413779D01*
X160502603Y-122407199D01*
X160500000Y-122381923D01*
X160500000Y-118500000D01*
X159391830Y-118500000D01*
X159391825Y-118499999D01*
X159391823Y-118500000D01*
X159356889Y-118494975D01*
X159341890Y-118490570D01*
X159283144Y-118452827D01*
X159283115Y-118452793D01*
X159283114Y-118452793D01*
X159283113Y-118452791D01*
X159281957Y-118451458D01*
X159254477Y-118396583D01*
X159252832Y-118389021D01*
X159250000Y-118362668D01*
X159250000Y-118060753D01*
X159255023Y-118025817D01*
X159264134Y-117994789D01*
X159281061Y-117959285D01*
X159308163Y-117920021D01*
X159310014Y-117917339D01*
X159393792Y-117795967D01*
X159534372Y-117528112D01*
X159641642Y-117245265D01*
X159714036Y-116951550D01*
X159744989Y-116696629D01*
X159750499Y-116651253D01*
X159750499Y-116333773D01*
X164449499Y-116333773D01*
X164482178Y-116498056D01*
X164482184Y-116498083D01*
X164546292Y-116652856D01*
X164639374Y-116792164D01*
X164757834Y-116910624D01*
X164807038Y-116943501D01*
X164897130Y-117003699D01*
X164897134Y-117003701D01*
X164897137Y-117003703D01*
X165051918Y-117067816D01*
X165216228Y-117100499D01*
X165216232Y-117100500D01*
X165216233Y-117100500D01*
X165383768Y-117100500D01*
X165383769Y-117100499D01*
X165548082Y-117067816D01*
X165702863Y-117003703D01*
X165842162Y-116910626D01*
X165960626Y-116792162D01*
X166053703Y-116652863D01*
X166117816Y-116498082D01*
X166150500Y-116333767D01*
X166150500Y-116166233D01*
X166117816Y-116001918D01*
X166053703Y-115847137D01*
X166021873Y-115799500D01*
X165960626Y-115707837D01*
X165960624Y-115707834D01*
X165842164Y-115589374D01*
X165702856Y-115496292D01*
X165548083Y-115432184D01*
X165548056Y-115432178D01*
X165383773Y-115399500D01*
X165383771Y-115399500D01*
X165383767Y-115399500D01*
X165216233Y-115399500D01*
X165216228Y-115399500D01*
X165216226Y-115399500D01*
X165051942Y-115432178D01*
X165051915Y-115432184D01*
X164897142Y-115496292D01*
X164757834Y-115589374D01*
X164639374Y-115707834D01*
X164546292Y-115847142D01*
X164482184Y-116001915D01*
X164482178Y-116001942D01*
X164449500Y-116166225D01*
X164449500Y-116166228D01*
X164449500Y-116333771D01*
X164449500Y-116333773D01*
X164449499Y-116333773D01*
X159750499Y-116333773D01*
X159750499Y-115133773D01*
X162499499Y-115133773D01*
X162532178Y-115298056D01*
X162532184Y-115298083D01*
X162596292Y-115452856D01*
X162689374Y-115592164D01*
X162807833Y-115710623D01*
X162807837Y-115710626D01*
X162900492Y-115772536D01*
X162900494Y-115772538D01*
X162940845Y-115799499D01*
X162947137Y-115803703D01*
X163101918Y-115867816D01*
X163245103Y-115896297D01*
X163263257Y-115899908D01*
X163265492Y-115900409D01*
X163266230Y-115900500D01*
X163433768Y-115900500D01*
X163437889Y-115900500D01*
X163445742Y-115898117D01*
X163598082Y-115867816D01*
X163752863Y-115803703D01*
X163892162Y-115710626D01*
X164010626Y-115592162D01*
X164103703Y-115452863D01*
X164167816Y-115298082D01*
X164200500Y-115133767D01*
X164200500Y-114966233D01*
X164167816Y-114801918D01*
X164103703Y-114647137D01*
X164103701Y-114647134D01*
X164103699Y-114647130D01*
X164033561Y-114542162D01*
X164010624Y-114507834D01*
X163892164Y-114389374D01*
X163752856Y-114296292D01*
X163598083Y-114232184D01*
X163598056Y-114232178D01*
X163433773Y-114199500D01*
X163433771Y-114199500D01*
X163433767Y-114199500D01*
X163266233Y-114199500D01*
X163266228Y-114199500D01*
X163266226Y-114199500D01*
X163101942Y-114232178D01*
X163101915Y-114232184D01*
X162947142Y-114296292D01*
X162807834Y-114389374D01*
X162689374Y-114507834D01*
X162596292Y-114647142D01*
X162532184Y-114801915D01*
X162532178Y-114801942D01*
X162499500Y-114966225D01*
X162499500Y-114966228D01*
X162499500Y-115133771D01*
X162499500Y-115133773D01*
X162499499Y-115133773D01*
X159750499Y-115133773D01*
X159750499Y-110833773D01*
X166499499Y-110833773D01*
X166532178Y-110998056D01*
X166532184Y-110998083D01*
X166596292Y-111152856D01*
X166689374Y-111292164D01*
X166807833Y-111410623D01*
X166807837Y-111410626D01*
X166900492Y-111472536D01*
X166900494Y-111472538D01*
X166947134Y-111503701D01*
X166947137Y-111503703D01*
X167101918Y-111567816D01*
X167266228Y-111600499D01*
X167266232Y-111600500D01*
X167266233Y-111600500D01*
X167433768Y-111600500D01*
X167433769Y-111600499D01*
X167598082Y-111567816D01*
X167752863Y-111503703D01*
X167892162Y-111410626D01*
X168010626Y-111292162D01*
X168103703Y-111152863D01*
X168167816Y-110998082D01*
X168200500Y-110833767D01*
X168200500Y-110666233D01*
X168167816Y-110501918D01*
X168103703Y-110347137D01*
X168072537Y-110300494D01*
X168010626Y-110207837D01*
X168010623Y-110207833D01*
X167892164Y-110089374D01*
X167752856Y-109996292D01*
X167598083Y-109932184D01*
X167598056Y-109932178D01*
X167433773Y-109899500D01*
X167433771Y-109899500D01*
X167433767Y-109899500D01*
X167266233Y-109899500D01*
X167266228Y-109899500D01*
X167266226Y-109899500D01*
X167101942Y-109932178D01*
X167101915Y-109932184D01*
X166947142Y-109996292D01*
X166807834Y-110089374D01*
X166689374Y-110207834D01*
X166596292Y-110347142D01*
X166532184Y-110501915D01*
X166532178Y-110501942D01*
X166499500Y-110666225D01*
X166499500Y-110666228D01*
X166499500Y-110833771D01*
X166499500Y-110833773D01*
X166499499Y-110833773D01*
X159750499Y-110833773D01*
X159750499Y-107633773D01*
X160999499Y-107633773D01*
X161032178Y-107798056D01*
X161032184Y-107798083D01*
X161096292Y-107952856D01*
X161189374Y-108092164D01*
X161296918Y-108199708D01*
X161296921Y-108199710D01*
X161318072Y-108227964D01*
X161325564Y-108241684D01*
X161340418Y-108309948D01*
X161340289Y-108311754D01*
X161320918Y-108369960D01*
X161316738Y-108376464D01*
X161300106Y-108397104D01*
X161247001Y-108450209D01*
X161189376Y-108507834D01*
X161189373Y-108507837D01*
X161189372Y-108507838D01*
X161096292Y-108647142D01*
X161032184Y-108801915D01*
X161032178Y-108801942D01*
X160999500Y-108966225D01*
X160999500Y-108966228D01*
X160999500Y-109133771D01*
X160999500Y-109133773D01*
X160999499Y-109133773D01*
X161032178Y-109298056D01*
X161032184Y-109298083D01*
X161096292Y-109452856D01*
X161189374Y-109592164D01*
X161307833Y-109710623D01*
X161307837Y-109710626D01*
X161400492Y-109772536D01*
X161400494Y-109772538D01*
X161447134Y-109803701D01*
X161447137Y-109803703D01*
X161601918Y-109867816D01*
X161761206Y-109899500D01*
X161763280Y-109899912D01*
X161763283Y-109899914D01*
X161765491Y-109900409D01*
X161766230Y-109900500D01*
X161933768Y-109900500D01*
X161937889Y-109900500D01*
X161945742Y-109898117D01*
X162098082Y-109867816D01*
X162252863Y-109803703D01*
X162392162Y-109710626D01*
X162510626Y-109592162D01*
X162603703Y-109452863D01*
X162667816Y-109298082D01*
X162700500Y-109133767D01*
X162700500Y-108966233D01*
X162667816Y-108801918D01*
X162603703Y-108647137D01*
X162603701Y-108647134D01*
X162603699Y-108647130D01*
X162543379Y-108556856D01*
X162538464Y-108549500D01*
X162510626Y-108507837D01*
X162400718Y-108397929D01*
X162398482Y-108395438D01*
X162396777Y-108391871D01*
X162381927Y-108372035D01*
X162374435Y-108358315D01*
X162369170Y-108334120D01*
X162368348Y-108332400D01*
X162368512Y-108331095D01*
X162359581Y-108290051D01*
X162359710Y-108288242D01*
X162379080Y-108230041D01*
X162383264Y-108223530D01*
X162399894Y-108202895D01*
X162503230Y-108099558D01*
X162503229Y-108099558D01*
X162510623Y-108092165D01*
X162510626Y-108092162D01*
X162544035Y-108042162D01*
X162603703Y-107952863D01*
X162667816Y-107798082D01*
X162700500Y-107633767D01*
X162700500Y-107583773D01*
X164799499Y-107583773D01*
X164832178Y-107748056D01*
X164832184Y-107748083D01*
X164896292Y-107902856D01*
X164989373Y-108042162D01*
X164989375Y-108042165D01*
X165107833Y-108160623D01*
X165107837Y-108160626D01*
X165167513Y-108200500D01*
X165247137Y-108253703D01*
X165401918Y-108317816D01*
X165530207Y-108343334D01*
X165563257Y-108349908D01*
X165565492Y-108350409D01*
X165566230Y-108350500D01*
X165733768Y-108350500D01*
X165737889Y-108350500D01*
X165745742Y-108348117D01*
X165898082Y-108317816D01*
X166052863Y-108253703D01*
X166192162Y-108160626D01*
X166310626Y-108042162D01*
X166403703Y-107902863D01*
X166467816Y-107748082D01*
X166500500Y-107583767D01*
X166500500Y-107416233D01*
X166467816Y-107251918D01*
X166407756Y-107106922D01*
X166403704Y-107097139D01*
X166310626Y-106957837D01*
X166310624Y-106957834D01*
X166192164Y-106839374D01*
X166052856Y-106746292D01*
X165898083Y-106682184D01*
X165898056Y-106682178D01*
X165733773Y-106649500D01*
X165733771Y-106649500D01*
X165733767Y-106649500D01*
X165566233Y-106649500D01*
X165566228Y-106649500D01*
X165566226Y-106649500D01*
X165401942Y-106682178D01*
X165401915Y-106682184D01*
X165247142Y-106746292D01*
X165107834Y-106839374D01*
X164989374Y-106957834D01*
X164896292Y-107097142D01*
X164832184Y-107251915D01*
X164832178Y-107251942D01*
X164799500Y-107416225D01*
X164799500Y-107416228D01*
X164799500Y-107583771D01*
X164799500Y-107583773D01*
X164799499Y-107583773D01*
X162700500Y-107583773D01*
X162700500Y-107466233D01*
X162700500Y-107466230D01*
X162694154Y-107434328D01*
X162694154Y-107434327D01*
X162694059Y-107433852D01*
X162694042Y-107433766D01*
X162668478Y-107305248D01*
X162668063Y-107302821D01*
X162667816Y-107301923D01*
X162667816Y-107301918D01*
X162603703Y-107147137D01*
X162570294Y-107097137D01*
X162510626Y-107007837D01*
X162510623Y-107007833D01*
X162392164Y-106889374D01*
X162252856Y-106796292D01*
X162098083Y-106732184D01*
X162098056Y-106732178D01*
X161933773Y-106699500D01*
X161933771Y-106699500D01*
X161933767Y-106699500D01*
X161766233Y-106699500D01*
X161766228Y-106699500D01*
X161766226Y-106699500D01*
X161601942Y-106732178D01*
X161601915Y-106732184D01*
X161447142Y-106796292D01*
X161307834Y-106889374D01*
X161189374Y-107007834D01*
X161096292Y-107147142D01*
X161032184Y-107301915D01*
X161032178Y-107301942D01*
X160999500Y-107466225D01*
X160999500Y-107466228D01*
X160999500Y-107633771D01*
X160999500Y-107633773D01*
X160999499Y-107633773D01*
X159750499Y-107633773D01*
X159750499Y-101583773D01*
X160999499Y-101583773D01*
X161032178Y-101748056D01*
X161032184Y-101748083D01*
X161096292Y-101902856D01*
X161189374Y-102042164D01*
X161296918Y-102149708D01*
X161296921Y-102149710D01*
X161318072Y-102177964D01*
X161325564Y-102191684D01*
X161340418Y-102259948D01*
X161340289Y-102261754D01*
X161320918Y-102319960D01*
X161316738Y-102326464D01*
X161300106Y-102347104D01*
X161247001Y-102400209D01*
X161189376Y-102457834D01*
X161189373Y-102457837D01*
X161189372Y-102457838D01*
X161096292Y-102597142D01*
X161032184Y-102751915D01*
X161032178Y-102751942D01*
X160999500Y-102916225D01*
X160999500Y-102916228D01*
X160999500Y-103083771D01*
X160999500Y-103083773D01*
X160999499Y-103083773D01*
X161032178Y-103248056D01*
X161032184Y-103248083D01*
X161096292Y-103402856D01*
X161189374Y-103542164D01*
X161296918Y-103649708D01*
X161296921Y-103649710D01*
X161318072Y-103677964D01*
X161325564Y-103691684D01*
X161340418Y-103759948D01*
X161340289Y-103761754D01*
X161320918Y-103819960D01*
X161316738Y-103826464D01*
X161300106Y-103847104D01*
X161247001Y-103900209D01*
X161189376Y-103957834D01*
X161189373Y-103957837D01*
X161189372Y-103957838D01*
X161096292Y-104097142D01*
X161032184Y-104251915D01*
X161032178Y-104251942D01*
X160999500Y-104416225D01*
X160999500Y-104416228D01*
X160999500Y-104583771D01*
X160999500Y-104583773D01*
X160999499Y-104583773D01*
X161032178Y-104748056D01*
X161032184Y-104748083D01*
X161096292Y-104902856D01*
X161189374Y-105042164D01*
X161307833Y-105160623D01*
X161307837Y-105160626D01*
X161400492Y-105222536D01*
X161400494Y-105222538D01*
X161447134Y-105253701D01*
X161447137Y-105253703D01*
X161601918Y-105317816D01*
X161766228Y-105350499D01*
X161766232Y-105350500D01*
X161766233Y-105350500D01*
X161933768Y-105350500D01*
X161933769Y-105350499D01*
X162098082Y-105317816D01*
X162252863Y-105253703D01*
X162392162Y-105160626D01*
X162510626Y-105042162D01*
X162603703Y-104902863D01*
X162667816Y-104748082D01*
X162700500Y-104583767D01*
X162700500Y-104416233D01*
X162667816Y-104251918D01*
X162603703Y-104097137D01*
X162572537Y-104050494D01*
X162510626Y-103957837D01*
X162510623Y-103957833D01*
X162403080Y-103850290D01*
X162403078Y-103850289D01*
X162381927Y-103822035D01*
X162374435Y-103808315D01*
X162359581Y-103740051D01*
X162359710Y-103738242D01*
X162379080Y-103680041D01*
X162383264Y-103673530D01*
X162399894Y-103652895D01*
X162503475Y-103549313D01*
X162503474Y-103549313D01*
X162510623Y-103542165D01*
X162510626Y-103542162D01*
X162536323Y-103503704D01*
X162603703Y-103402863D01*
X162667816Y-103248082D01*
X162700500Y-103083767D01*
X162700500Y-102916233D01*
X162684098Y-102833773D01*
X166949499Y-102833773D01*
X166982178Y-102998056D01*
X166982184Y-102998083D01*
X167046292Y-103152856D01*
X167139374Y-103292164D01*
X167257833Y-103410623D01*
X167257837Y-103410626D01*
X167350492Y-103472536D01*
X167350494Y-103472538D01*
X167394521Y-103501955D01*
X167397137Y-103503703D01*
X167551918Y-103567816D01*
X167716228Y-103600499D01*
X167716232Y-103600500D01*
X167716233Y-103600500D01*
X167883768Y-103600500D01*
X167883769Y-103600499D01*
X168048082Y-103567816D01*
X168202863Y-103503703D01*
X168342162Y-103410626D01*
X168460626Y-103292162D01*
X168553703Y-103152863D01*
X168617816Y-102998082D01*
X168650500Y-102833767D01*
X168650500Y-102666233D01*
X168636757Y-102597142D01*
X168617818Y-102501924D01*
X168617816Y-102501920D01*
X168617816Y-102501918D01*
X168553703Y-102347137D01*
X168471186Y-102223642D01*
X168460626Y-102207837D01*
X168342162Y-102089373D01*
X168202856Y-101996292D01*
X168048083Y-101932184D01*
X168048056Y-101932178D01*
X167883773Y-101899500D01*
X167883771Y-101899500D01*
X167883767Y-101899500D01*
X167716233Y-101899500D01*
X167716228Y-101899500D01*
X167716226Y-101899500D01*
X167551942Y-101932178D01*
X167551915Y-101932184D01*
X167397142Y-101996292D01*
X167257834Y-102089374D01*
X167139374Y-102207834D01*
X167046292Y-102347142D01*
X166982184Y-102501915D01*
X166982182Y-102501925D01*
X166949500Y-102666225D01*
X166949500Y-102666228D01*
X166949500Y-102833771D01*
X166949500Y-102833773D01*
X166949499Y-102833773D01*
X162684098Y-102833773D01*
X162667816Y-102751918D01*
X162603703Y-102597137D01*
X162540084Y-102501925D01*
X162510626Y-102457837D01*
X162400643Y-102347854D01*
X162398332Y-102345270D01*
X162396606Y-102341644D01*
X162381927Y-102322035D01*
X162374435Y-102308315D01*
X162369114Y-102283865D01*
X162368312Y-102282178D01*
X162368473Y-102280916D01*
X162359581Y-102240051D01*
X162359710Y-102238242D01*
X162379080Y-102180041D01*
X162383264Y-102173530D01*
X162399894Y-102152895D01*
X162503308Y-102049480D01*
X162503307Y-102049480D01*
X162510623Y-102042165D01*
X162510626Y-102042162D01*
X162541273Y-101996295D01*
X162603703Y-101902863D01*
X162667816Y-101748082D01*
X162700500Y-101583767D01*
X162700500Y-101416233D01*
X162667816Y-101251918D01*
X162603703Y-101097137D01*
X162540711Y-101002863D01*
X162510626Y-100957837D01*
X162510624Y-100957834D01*
X162392164Y-100839374D01*
X162252856Y-100746292D01*
X162098083Y-100682184D01*
X162098056Y-100682178D01*
X161933773Y-100649500D01*
X161933771Y-100649500D01*
X161933767Y-100649500D01*
X161766233Y-100649500D01*
X161766228Y-100649500D01*
X161766226Y-100649500D01*
X161601942Y-100682178D01*
X161601915Y-100682184D01*
X161447142Y-100746292D01*
X161307834Y-100839374D01*
X161189374Y-100957834D01*
X161096292Y-101097142D01*
X161032184Y-101251915D01*
X161032178Y-101251942D01*
X160999500Y-101416225D01*
X160999500Y-101416228D01*
X160999500Y-101583771D01*
X160999500Y-101583773D01*
X160999499Y-101583773D01*
X159750499Y-101583773D01*
X159750499Y-100083773D01*
X162549499Y-100083773D01*
X162582178Y-100248056D01*
X162582184Y-100248083D01*
X162646292Y-100402856D01*
X162739374Y-100542164D01*
X162857833Y-100660623D01*
X162857837Y-100660626D01*
X162950494Y-100722537D01*
X162997137Y-100753703D01*
X162998158Y-100754385D01*
X163002743Y-100756025D01*
X163032201Y-100768227D01*
X163151918Y-100817816D01*
X163304077Y-100848082D01*
X163313257Y-100849908D01*
X163315492Y-100850409D01*
X163316230Y-100850500D01*
X163483768Y-100850500D01*
X163487889Y-100850500D01*
X163495742Y-100848117D01*
X163648082Y-100817816D01*
X163802863Y-100753703D01*
X163942162Y-100660626D01*
X164060626Y-100542162D01*
X164153703Y-100402863D01*
X164217816Y-100248082D01*
X164250500Y-100083767D01*
X164250500Y-99916233D01*
X164217816Y-99751918D01*
X164153703Y-99597137D01*
X164122537Y-99550494D01*
X164060626Y-99457837D01*
X164060623Y-99457833D01*
X163942164Y-99339374D01*
X163802856Y-99246292D01*
X163648083Y-99182184D01*
X163648056Y-99182178D01*
X163483773Y-99149500D01*
X163483771Y-99149500D01*
X163483767Y-99149500D01*
X163316233Y-99149500D01*
X163316228Y-99149500D01*
X163316226Y-99149500D01*
X163151942Y-99182178D01*
X163151915Y-99182184D01*
X162997142Y-99246292D01*
X162857834Y-99339374D01*
X162739374Y-99457834D01*
X162646292Y-99597142D01*
X162582184Y-99751915D01*
X162582178Y-99751942D01*
X162549500Y-99916225D01*
X162549500Y-99916228D01*
X162549500Y-100083771D01*
X162549500Y-100083773D01*
X162549499Y-100083773D01*
X159750499Y-100083773D01*
X159750499Y-97956620D01*
X159755521Y-97921687D01*
X159759432Y-97908368D01*
X159797205Y-97849591D01*
X159860757Y-97820566D01*
X159871663Y-97818998D01*
X159913495Y-97820118D01*
X160054250Y-97848116D01*
X160064043Y-97850064D01*
X160066049Y-97850500D01*
X160233768Y-97850500D01*
X160237889Y-97850500D01*
X160245742Y-97848117D01*
X160398082Y-97817816D01*
X160552863Y-97753703D01*
X160692162Y-97660626D01*
X160810626Y-97542162D01*
X160903703Y-97402863D01*
X160967816Y-97248082D01*
X161000500Y-97083767D01*
X161000500Y-96916233D01*
X160967816Y-96751918D01*
X160912268Y-96617815D01*
X160903704Y-96597139D01*
X160893524Y-96581904D01*
X160860036Y-96531785D01*
X160860036Y-96531784D01*
X160810624Y-96457834D01*
X160703080Y-96350290D01*
X160703078Y-96350289D01*
X160681927Y-96322035D01*
X160674435Y-96308315D01*
X160659581Y-96240051D01*
X160659710Y-96238242D01*
X160679080Y-96180041D01*
X160683264Y-96173530D01*
X160699894Y-96152895D01*
X160760619Y-96092169D01*
X160760618Y-96092169D01*
X160760623Y-96092165D01*
X160760626Y-96092162D01*
X160763685Y-96087584D01*
X160853703Y-95952863D01*
X160917816Y-95798082D01*
X160950500Y-95633767D01*
X160950500Y-95466233D01*
X160936757Y-95397142D01*
X160917818Y-95301924D01*
X160917816Y-95301920D01*
X160917816Y-95301918D01*
X160853703Y-95147137D01*
X160853701Y-95147134D01*
X160853699Y-95147130D01*
X160786324Y-95046297D01*
X160786324Y-95046296D01*
X160786322Y-95046295D01*
X160760626Y-95007837D01*
X160760625Y-95007835D01*
X160642164Y-94889374D01*
X160502856Y-94796292D01*
X160348083Y-94732184D01*
X160348056Y-94732178D01*
X160183773Y-94699500D01*
X160183771Y-94699500D01*
X160183767Y-94699500D01*
X160016233Y-94699500D01*
X160016228Y-94699500D01*
X160016226Y-94699500D01*
X159916179Y-94719400D01*
X159916179Y-94719401D01*
X159880935Y-94721291D01*
X159867110Y-94720054D01*
X159802092Y-94694473D01*
X159761225Y-94637801D01*
X159757559Y-94627408D01*
X159750499Y-94586164D01*
X159750499Y-91666924D01*
X159755522Y-91631990D01*
X159758610Y-91621473D01*
X159761139Y-91622215D01*
X159762350Y-91619796D01*
X159764155Y-91605364D01*
X159777669Y-91589174D01*
X159787104Y-91570317D01*
X159799609Y-91562893D01*
X159808931Y-91551727D01*
X159829053Y-91545414D01*
X159847185Y-91534651D01*
X159862934Y-91534785D01*
X159875597Y-91530813D01*
X159903925Y-91535134D01*
X159905573Y-91535148D01*
X159905792Y-91534143D01*
X159907424Y-91534498D01*
X159908664Y-91535175D01*
X159910619Y-91535192D01*
X159913808Y-91536065D01*
X159915051Y-91536832D01*
X159917022Y-91537133D01*
X159918579Y-91537651D01*
X159918204Y-91538777D01*
X159940856Y-91552753D01*
X159968747Y-91567983D01*
X160038349Y-91637585D01*
X160038355Y-91637590D01*
X160038356Y-91637591D01*
X161140216Y-92739452D01*
X161140217Y-92739453D01*
X161161368Y-92767708D01*
X161168860Y-92781429D01*
X161183711Y-92849698D01*
X161182740Y-92863277D01*
X161173617Y-92901885D01*
X161132186Y-93001909D01*
X161132185Y-93001913D01*
X161132178Y-93001942D01*
X161099500Y-93166225D01*
X161099500Y-93166228D01*
X161099500Y-93333771D01*
X161099500Y-93333773D01*
X161099499Y-93333773D01*
X161132178Y-93498056D01*
X161132184Y-93498083D01*
X161196292Y-93652856D01*
X161289374Y-93792164D01*
X161407833Y-93910623D01*
X161407837Y-93910626D01*
X161466910Y-93950097D01*
X161547137Y-94003703D01*
X161701918Y-94067816D01*
X161845103Y-94096297D01*
X161863257Y-94099908D01*
X161865492Y-94100409D01*
X161866230Y-94100500D01*
X162033768Y-94100500D01*
X162037889Y-94100500D01*
X162045742Y-94098117D01*
X162198082Y-94067816D01*
X162352863Y-94003703D01*
X162492162Y-93910626D01*
X162610626Y-93792162D01*
X162703703Y-93652863D01*
X162767816Y-93498082D01*
X162787462Y-93399312D01*
X162800499Y-93333774D01*
X162800729Y-93331437D01*
X162805156Y-93308642D01*
X162809929Y-93292389D01*
X162847672Y-93233644D01*
X162847706Y-93233614D01*
X162847708Y-93233612D01*
X162849041Y-93232457D01*
X162903920Y-93204977D01*
X162911479Y-93203333D01*
X162937832Y-93200500D01*
X165382073Y-93200500D01*
X165410537Y-93204592D01*
X165417005Y-93205521D01*
X165442249Y-93212934D01*
X165494995Y-93244230D01*
X166100573Y-93849808D01*
X166121723Y-93878060D01*
X166134331Y-93901149D01*
X166149500Y-93960578D01*
X166149500Y-96213330D01*
X166149499Y-96213348D01*
X166149499Y-96276358D01*
X166149499Y-96336961D01*
X166143601Y-96357046D01*
X166190423Y-96531786D01*
X166210662Y-96566841D01*
X166210663Y-96566841D01*
X166219358Y-96581901D01*
X166219359Y-96581904D01*
X166219360Y-96581904D01*
X166231422Y-96602796D01*
X166231422Y-96602798D01*
X166269467Y-96668695D01*
X166269477Y-96668711D01*
X166269481Y-96668717D01*
X166269485Y-96668722D01*
X166390314Y-96789551D01*
X166390359Y-96789594D01*
X167542484Y-97941719D01*
X167563634Y-97969973D01*
X167569033Y-97979861D01*
X167583884Y-98048135D01*
X167571573Y-98093802D01*
X167528024Y-98182770D01*
X167522271Y-98194930D01*
X167522049Y-98195415D01*
X167498300Y-98258055D01*
X167496838Y-98263600D01*
X167491505Y-98279412D01*
X167482184Y-98301916D01*
X167482178Y-98301942D01*
X167449500Y-98466225D01*
X167449500Y-98466228D01*
X167449500Y-98633771D01*
X167449500Y-98633773D01*
X167449499Y-98633773D01*
X167482178Y-98798056D01*
X167482184Y-98798083D01*
X167546292Y-98952856D01*
X167546295Y-98952860D01*
X167639373Y-99092162D01*
X167757837Y-99210626D01*
X167768885Y-99218008D01*
X167768889Y-99218012D01*
X167768890Y-99218011D01*
X167897130Y-99303699D01*
X167897134Y-99303701D01*
X167897137Y-99303703D01*
X168051918Y-99367816D01*
X168216228Y-99400499D01*
X168216232Y-99400500D01*
X168216233Y-99400500D01*
X168383768Y-99400500D01*
X168383769Y-99400499D01*
X168548082Y-99367816D01*
X168702863Y-99303703D01*
X168816292Y-99227911D01*
X168848119Y-99212684D01*
X168863041Y-99208011D01*
X168932894Y-99206764D01*
X168946031Y-99210367D01*
X168982112Y-99226845D01*
X169097137Y-99303703D01*
X169097138Y-99303703D01*
X169097139Y-99303704D01*
X169132201Y-99318227D01*
X169251918Y-99367816D01*
X169416228Y-99400499D01*
X169416232Y-99400500D01*
X169416233Y-99400500D01*
X169583768Y-99400500D01*
X169583769Y-99400499D01*
X169748082Y-99367816D01*
X169902863Y-99303703D01*
X170042162Y-99210626D01*
X170160626Y-99092162D01*
X170253703Y-98952863D01*
X170317816Y-98798082D01*
X170350500Y-98633767D01*
X170350500Y-98466233D01*
X170317816Y-98301918D01*
X170253703Y-98147137D01*
X170220925Y-98098082D01*
X170220925Y-98098081D01*
X170160627Y-98007838D01*
X170160621Y-98007831D01*
X170042164Y-97889374D01*
X169902856Y-97796292D01*
X169748083Y-97732184D01*
X169748056Y-97732178D01*
X169583773Y-97699500D01*
X169583771Y-97699500D01*
X169583767Y-97699500D01*
X169416233Y-97699500D01*
X169416228Y-97699500D01*
X169416226Y-97699500D01*
X169251942Y-97732178D01*
X169251915Y-97732184D01*
X169097143Y-97796292D01*
X169097140Y-97796293D01*
X169094813Y-97797849D01*
X169065361Y-97812304D01*
X169064168Y-97812703D01*
X169057594Y-97814762D01*
X169056878Y-97815148D01*
X169051445Y-97816971D01*
X169021032Y-97818126D01*
X168990804Y-97821578D01*
X168986461Y-97819440D01*
X168981625Y-97819624D01*
X168955443Y-97804170D01*
X168936241Y-97794717D01*
X168935050Y-97796297D01*
X168934300Y-97795731D01*
X168931995Y-97792627D01*
X168928133Y-97790726D01*
X168925861Y-97788639D01*
X168927010Y-97787387D01*
X168921455Y-97784109D01*
X168912581Y-97766482D01*
X168892646Y-97739635D01*
X168889220Y-97728846D01*
X168881357Y-97699500D01*
X168859577Y-97618215D01*
X168830639Y-97568095D01*
X168780520Y-97481284D01*
X168668716Y-97369480D01*
X168668715Y-97369479D01*
X168664385Y-97365149D01*
X168663363Y-97364127D01*
X168663320Y-97364085D01*
X168061406Y-96762171D01*
X168040258Y-96733922D01*
X168037202Y-96728326D01*
X168022347Y-96660054D01*
X168046760Y-96594588D01*
X168102692Y-96552714D01*
X168171849Y-96547612D01*
X168182507Y-96549881D01*
X168204127Y-96556598D01*
X168351918Y-96617816D01*
X168516228Y-96650499D01*
X168516232Y-96650500D01*
X168516233Y-96650500D01*
X168683768Y-96650500D01*
X168683769Y-96650499D01*
X168848082Y-96617816D01*
X169002863Y-96553703D01*
X169142162Y-96460626D01*
X169260626Y-96342162D01*
X169353703Y-96202863D01*
X169417816Y-96048082D01*
X169450500Y-95883767D01*
X169450500Y-95716233D01*
X169417816Y-95551918D01*
X169353703Y-95397137D01*
X169290084Y-95301925D01*
X169260626Y-95257837D01*
X169260623Y-95257834D01*
X169260622Y-95257832D01*
X169142164Y-95139374D01*
X169002856Y-95046292D01*
X168848083Y-94982184D01*
X168848056Y-94982178D01*
X168683773Y-94949500D01*
X168683771Y-94949500D01*
X168683767Y-94949500D01*
X168516233Y-94949500D01*
X168516228Y-94949500D01*
X168516226Y-94949500D01*
X168351942Y-94982178D01*
X168351915Y-94982184D01*
X168197142Y-95046292D01*
X168057834Y-95139374D01*
X167939374Y-95257834D01*
X167846292Y-95397142D01*
X167782184Y-95551915D01*
X167782178Y-95551942D01*
X167749500Y-95716225D01*
X167749500Y-95716228D01*
X167749500Y-95883771D01*
X167749500Y-95883773D01*
X167749499Y-95883773D01*
X167777843Y-96026261D01*
X167782182Y-96048074D01*
X167782184Y-96048082D01*
X167825599Y-96152895D01*
X167843280Y-96195580D01*
X167843827Y-96200670D01*
X167850116Y-96217759D01*
X167852407Y-96228763D01*
X167850026Y-96258330D01*
X167850749Y-96265050D01*
X167848960Y-96271571D01*
X167846800Y-96298407D01*
X167804431Y-96353964D01*
X167738751Y-96377795D01*
X167671097Y-96362602D01*
X167665795Y-96359676D01*
X167638027Y-96338792D01*
X167399426Y-96100191D01*
X167378274Y-96071935D01*
X167365667Y-96048846D01*
X167350500Y-95989421D01*
X167350500Y-93570943D01*
X167350496Y-93570929D01*
X167338056Y-93524501D01*
X167338056Y-93524500D01*
X167338056Y-93524499D01*
X167309577Y-93418215D01*
X167268055Y-93346297D01*
X167230520Y-93281284D01*
X167118716Y-93169480D01*
X167118715Y-93169479D01*
X167114385Y-93165149D01*
X167113363Y-93164127D01*
X167113320Y-93164085D01*
X166191928Y-92242693D01*
X166191908Y-92242671D01*
X166068725Y-92119488D01*
X166068718Y-92119482D01*
X166068712Y-92119477D01*
X166068711Y-92119476D01*
X165960840Y-92057198D01*
X165960833Y-92057194D01*
X165945921Y-92048584D01*
X165939390Y-92043573D01*
X165924179Y-92037272D01*
X165916017Y-92036198D01*
X165779057Y-91999499D01*
X165779054Y-91999499D01*
X165611443Y-91999499D01*
X165611380Y-91999500D01*
X164435723Y-91999500D01*
X164435720Y-91999499D01*
X164435719Y-91999500D01*
X164400784Y-91994476D01*
X164387466Y-91990565D01*
X164328689Y-91952789D01*
X164299667Y-91889238D01*
X164298100Y-91878335D01*
X164299222Y-91836492D01*
X164299765Y-91833767D01*
X164299765Y-91666233D01*
X164267081Y-91501918D01*
X164226399Y-91403703D01*
X164205688Y-91353702D01*
X164205688Y-91353701D01*
X164202970Y-91347142D01*
X164202969Y-91347139D01*
X164121899Y-91225808D01*
X164109891Y-91207836D01*
X163991429Y-91089374D01*
X163852121Y-90996292D01*
X163697348Y-90932184D01*
X163697321Y-90932178D01*
X163533038Y-90899500D01*
X163533036Y-90899500D01*
X163533032Y-90899500D01*
X163365498Y-90899500D01*
X163365493Y-90899500D01*
X163365491Y-90899500D01*
X163201207Y-90932178D01*
X163201180Y-90932184D01*
X163046410Y-90996291D01*
X163046397Y-90996298D01*
X162907106Y-91089370D01*
X162907101Y-91089374D01*
X162809835Y-91186638D01*
X162809790Y-91186685D01*
X162804152Y-91192323D01*
X162742829Y-91225808D01*
X162682218Y-91221473D01*
X162706476Y-91286511D01*
X162697352Y-91342812D01*
X162694121Y-91350612D01*
X162694104Y-91350649D01*
X162631450Y-91501911D01*
X162631443Y-91501942D01*
X162598765Y-91666225D01*
X162598765Y-91833767D01*
X162598776Y-91833823D01*
X162598782Y-91833952D01*
X162599362Y-91839833D01*
X162599099Y-91839858D01*
X162600220Y-91860784D01*
X162600664Y-91869065D01*
X162599427Y-91882888D01*
X162573846Y-91947907D01*
X162517185Y-91988769D01*
X162506802Y-91992433D01*
X162465538Y-91999500D01*
X162167928Y-91999500D01*
X162132992Y-91994477D01*
X162107750Y-91987065D01*
X162055005Y-91955769D01*
X161824027Y-91724791D01*
X161824022Y-91724786D01*
X161802873Y-91696536D01*
X161797452Y-91686608D01*
X161782599Y-91618339D01*
X161807013Y-91552874D01*
X161862943Y-91511001D01*
X161870145Y-91508314D01*
X161913470Y-91500500D01*
X161937889Y-91500500D01*
X161945742Y-91498117D01*
X162098082Y-91467816D01*
X162252863Y-91403703D01*
X162392162Y-91310626D01*
X162495112Y-91207675D01*
X162556433Y-91174192D01*
X162617045Y-91178526D01*
X162592787Y-91113488D01*
X162601910Y-91057190D01*
X162603701Y-91052865D01*
X162603703Y-91052863D01*
X162640363Y-90964355D01*
X162643487Y-90957424D01*
X162658355Y-90926996D01*
X162667159Y-90899668D01*
X162667816Y-90898082D01*
X162668051Y-90896897D01*
X162710611Y-90764792D01*
X162718080Y-90739341D01*
X162718395Y-90738153D01*
X162724532Y-90712276D01*
X162737739Y-90649249D01*
X162737947Y-90648281D01*
X162738124Y-90647480D01*
X162766235Y-90592185D01*
X162785278Y-90570612D01*
X162809592Y-90540859D01*
X162809593Y-90540856D01*
X162811108Y-90539003D01*
X162819424Y-90529807D01*
X162851276Y-90497956D01*
X162851283Y-90497952D01*
X162868715Y-90480520D01*
X162868716Y-90480520D01*
X162980520Y-90368716D01*
X163050713Y-90247137D01*
X163059577Y-90231785D01*
X163100501Y-90079057D01*
X163100501Y-89920943D01*
X163100501Y-89913348D01*
X163100501Y-89911664D01*
X163100500Y-89911590D01*
X163100500Y-87142329D01*
X163105523Y-87107393D01*
X163109927Y-87092395D01*
X163147672Y-87033644D01*
X163147700Y-87033619D01*
X163147699Y-87033619D01*
X163149041Y-87032456D01*
X163203920Y-87004977D01*
X163211479Y-87003333D01*
X163237832Y-87000500D01*
X163337889Y-87000500D01*
X163345742Y-86998117D01*
X163498082Y-86967816D01*
X163652863Y-86903703D01*
X163792162Y-86810626D01*
X163910626Y-86692162D01*
X163910631Y-86692153D01*
X163914493Y-86687450D01*
X163915144Y-86687984D01*
X163931982Y-86669239D01*
X163942633Y-86660337D01*
X164006695Y-86632450D01*
X164075664Y-86643623D01*
X164085597Y-86648376D01*
X164119761Y-86672550D01*
X164207837Y-86760626D01*
X164282668Y-86810626D01*
X164347137Y-86853703D01*
X164501918Y-86917816D01*
X164666228Y-86950499D01*
X164666232Y-86950500D01*
X164666233Y-86950500D01*
X164833768Y-86950500D01*
X164833769Y-86950499D01*
X164998082Y-86917816D01*
X165152863Y-86853703D01*
X165292162Y-86760626D01*
X165410626Y-86642162D01*
X165503703Y-86502863D01*
X165567816Y-86348082D01*
X165600500Y-86183767D01*
X165600500Y-86016233D01*
X165567816Y-85851918D01*
X165503703Y-85697137D01*
X165444035Y-85607838D01*
X165444035Y-85607837D01*
X165410627Y-85557838D01*
X165410621Y-85557831D01*
X165292164Y-85439374D01*
X165152856Y-85346292D01*
X164998083Y-85282184D01*
X164998056Y-85282178D01*
X164833773Y-85249500D01*
X164833771Y-85249500D01*
X164833767Y-85249500D01*
X164666233Y-85249500D01*
X164666228Y-85249500D01*
X164666226Y-85249500D01*
X164501942Y-85282178D01*
X164501917Y-85282184D01*
X164347133Y-85346298D01*
X164220786Y-85430721D01*
X164204530Y-85436005D01*
X164191514Y-85445119D01*
X164188932Y-85445959D01*
X164183104Y-85447783D01*
X164167454Y-85448060D01*
X164156806Y-85451522D01*
X164151684Y-85451725D01*
X164139088Y-85448562D01*
X164113245Y-85449020D01*
X164094308Y-85437319D01*
X164083917Y-85434710D01*
X164075403Y-85425637D01*
X164053807Y-85412293D01*
X164044374Y-85392569D01*
X164036107Y-85383760D01*
X164033562Y-85369964D01*
X164023661Y-85349262D01*
X164026126Y-85329652D01*
X164023433Y-85315049D01*
X164029969Y-85299092D01*
X164032378Y-85279938D01*
X164032382Y-85279929D01*
X164033088Y-85278308D01*
X164046618Y-85258448D01*
X164049918Y-85250394D01*
X164054102Y-85247464D01*
X164059089Y-85240144D01*
X164403268Y-84895966D01*
X166430520Y-82868716D01*
X166509577Y-82731785D01*
X166550501Y-82579057D01*
X166550501Y-82420942D01*
X166550501Y-82413347D01*
X166550501Y-82411663D01*
X166550500Y-82411589D01*
X166550500Y-81047763D01*
X166551289Y-81033795D01*
X166551835Y-81028973D01*
X166555448Y-81010307D01*
X166556562Y-80987279D01*
X166557012Y-80983313D01*
X166565042Y-80964238D01*
X166575979Y-80930130D01*
X166577410Y-80927910D01*
X166579420Y-80924764D01*
X166636742Y-80834294D01*
X166650971Y-80810407D01*
X166651596Y-80809289D01*
X166664384Y-80784876D01*
X166721959Y-80667260D01*
X166727300Y-80656000D01*
X166727554Y-80655447D01*
X166751694Y-80591955D01*
X166751695Y-80591951D01*
X166753175Y-80586350D01*
X166758503Y-80570564D01*
X166761658Y-80562948D01*
X166767816Y-80548082D01*
X166800500Y-80383767D01*
X166800500Y-80216233D01*
X166767816Y-80051918D01*
X166710160Y-79912726D01*
X166703704Y-79897139D01*
X166610627Y-79757839D01*
X166610626Y-79757838D01*
X166596174Y-79743386D01*
X166579643Y-79722904D01*
X166577195Y-79719108D01*
X166575494Y-79715992D01*
X166574674Y-79715198D01*
X166570861Y-79709284D01*
X166569565Y-79704894D01*
X166559246Y-79686353D01*
X166558852Y-79685322D01*
X166551115Y-79651407D01*
X166550803Y-79647682D01*
X166551162Y-79642567D01*
X166551076Y-79642274D01*
X166551217Y-79641789D01*
X166553467Y-79609796D01*
X166554027Y-79607340D01*
X166554027Y-79607332D01*
X166554359Y-79605877D01*
X166560694Y-79585982D01*
X166617816Y-79448082D01*
X166625129Y-79411312D01*
X166629104Y-79402049D01*
X166629389Y-79395462D01*
X166644248Y-79366760D01*
X166645424Y-79364021D01*
X166645837Y-79363434D01*
X166647665Y-79360910D01*
X166647797Y-79360656D01*
X166650141Y-79357335D01*
X166674667Y-79337872D01*
X166697971Y-79316949D01*
X166701819Y-79316326D01*
X166704872Y-79313904D01*
X166736026Y-79310790D01*
X166766944Y-79305788D01*
X166771123Y-79307284D01*
X166774396Y-79306957D01*
X166784251Y-79311983D01*
X166817571Y-79323910D01*
X166825028Y-79328609D01*
X166846601Y-79345836D01*
X167214085Y-79713320D01*
X167214106Y-79713342D01*
X167215149Y-79714385D01*
X167219479Y-79718715D01*
X167219480Y-79718716D01*
X167331284Y-79830520D01*
X167331286Y-79830521D01*
X167383430Y-79860626D01*
X167383429Y-79860626D01*
X167383432Y-79860627D01*
X167454075Y-79901413D01*
X167460605Y-79906424D01*
X167466364Y-79908810D01*
X167466365Y-79908811D01*
X167475713Y-79912683D01*
X167475727Y-79912688D01*
X167475819Y-79912726D01*
X167483974Y-79913799D01*
X167620943Y-79950501D01*
X167620946Y-79950501D01*
X167786653Y-79950501D01*
X167788557Y-79950501D01*
X167788620Y-79950500D01*
X168252237Y-79950500D01*
X168266204Y-79951289D01*
X168271026Y-79951835D01*
X168289687Y-79955447D01*
X168312714Y-79956561D01*
X168316682Y-79957011D01*
X168335739Y-79965033D01*
X168369856Y-79975972D01*
X168372092Y-79977412D01*
X168375237Y-79979421D01*
X168465714Y-80036747D01*
X168489311Y-80050814D01*
X168490413Y-80051431D01*
X168494265Y-80053450D01*
X168515113Y-80064379D01*
X168611997Y-80111805D01*
X168632752Y-80121965D01*
X168641312Y-80126017D01*
X168644740Y-80127640D01*
X168645269Y-80127882D01*
X168645293Y-80127892D01*
X168708036Y-80151692D01*
X168713144Y-80153038D01*
X168721286Y-80155127D01*
X168751918Y-80167816D01*
X168832110Y-80183767D01*
X168872791Y-80191859D01*
X168886937Y-80194673D01*
X168920213Y-80206411D01*
X168934068Y-80213658D01*
X168946897Y-80226036D01*
X168962699Y-80234302D01*
X168984344Y-80262166D01*
X168984346Y-80262168D01*
X168991089Y-80274010D01*
X169004950Y-80311173D01*
X169032178Y-80448056D01*
X169032184Y-80448083D01*
X169096292Y-80602856D01*
X169189374Y-80742164D01*
X169307833Y-80860623D01*
X169307837Y-80860626D01*
X169393428Y-80917816D01*
X169393430Y-80917818D01*
X169438775Y-80948116D01*
X169447137Y-80953703D01*
X169601918Y-81017816D01*
X169766228Y-81050499D01*
X169766232Y-81050500D01*
X169766233Y-81050500D01*
X169933768Y-81050500D01*
X169933769Y-81050499D01*
X170098082Y-81017816D01*
X170252863Y-80953703D01*
X170392162Y-80860626D01*
X170510626Y-80742162D01*
X170603703Y-80602863D01*
X170667816Y-80448082D01*
X170700500Y-80283767D01*
X170700500Y-80116233D01*
X170667816Y-79951918D01*
X170617531Y-79830520D01*
X170603704Y-79797139D01*
X170510626Y-79657837D01*
X170510624Y-79657834D01*
X170392164Y-79539374D01*
X170252856Y-79446292D01*
X170098083Y-79382184D01*
X170098056Y-79382178D01*
X169963064Y-79355326D01*
X169929780Y-79343584D01*
X169915926Y-79336337D01*
X169865647Y-79287821D01*
X169865645Y-79287817D01*
X169858908Y-79275985D01*
X169845048Y-79238822D01*
X169827200Y-79149097D01*
X169818474Y-79105230D01*
X169818063Y-79102821D01*
X169817816Y-79101923D01*
X169817816Y-79101918D01*
X169753703Y-78947137D01*
X169753701Y-78947134D01*
X169753699Y-78947130D01*
X169669383Y-78820943D01*
X169660626Y-78807837D01*
X169660624Y-78807835D01*
X169660621Y-78807831D01*
X169542164Y-78689374D01*
X169402856Y-78596292D01*
X169248083Y-78532184D01*
X169248056Y-78532178D01*
X169083773Y-78499500D01*
X169083771Y-78499500D01*
X169083767Y-78499500D01*
X168916233Y-78499500D01*
X168916228Y-78499500D01*
X168916226Y-78499500D01*
X168751942Y-78532178D01*
X168751915Y-78532184D01*
X168663439Y-78568831D01*
X168663438Y-78568830D01*
X168659876Y-78570305D01*
X168624275Y-78582538D01*
X168598711Y-78595643D01*
X168597146Y-78596292D01*
X168597132Y-78596298D01*
X168591793Y-78599153D01*
X168591748Y-78599070D01*
X168589797Y-78600213D01*
X168472581Y-78660306D01*
X168448961Y-78673222D01*
X168447943Y-78673814D01*
X168425680Y-78687555D01*
X168371878Y-78722712D01*
X168370852Y-78723375D01*
X168370325Y-78723712D01*
X168311240Y-78743005D01*
X168282524Y-78744795D01*
X168277752Y-78745275D01*
X168244293Y-78748640D01*
X168244289Y-78748641D01*
X168241934Y-78748878D01*
X168229526Y-78749500D01*
X168017927Y-78749500D01*
X168017926Y-78749499D01*
X168017926Y-78749500D01*
X167982991Y-78744477D01*
X167957749Y-78737065D01*
X167905004Y-78705769D01*
X166941928Y-77742693D01*
X166941919Y-77742683D01*
X166937588Y-77738352D01*
X166818717Y-77619481D01*
X166818716Y-77619480D01*
X166717447Y-77561013D01*
X166717423Y-77560998D01*
X166681783Y-77540422D01*
X166681778Y-77540420D01*
X166625882Y-77525442D01*
X166625882Y-77525443D01*
X166577469Y-77512471D01*
X166529057Y-77499499D01*
X166529056Y-77499499D01*
X166361443Y-77499499D01*
X166361380Y-77499500D01*
X165787616Y-77499500D01*
X165787613Y-77499499D01*
X165787612Y-77499500D01*
X165752677Y-77494476D01*
X165739359Y-77490565D01*
X165680582Y-77452789D01*
X165651560Y-77389232D01*
X165651555Y-77389200D01*
X165651324Y-77387590D01*
X165656882Y-77329437D01*
X165658526Y-77324686D01*
X165668314Y-77303253D01*
X165709577Y-77231784D01*
X165750501Y-77079057D01*
X165750501Y-76920942D01*
X165750501Y-76913347D01*
X165750501Y-76911663D01*
X165750500Y-76911589D01*
X165750500Y-73791452D01*
X165750501Y-73791401D01*
X165750501Y-73620946D01*
X165750500Y-73620939D01*
X165741565Y-73587591D01*
X165709713Y-73468725D01*
X165709577Y-73468216D01*
X165656605Y-73376465D01*
X165630809Y-73331783D01*
X165630528Y-73331296D01*
X165630520Y-73331284D01*
X165103363Y-72804127D01*
X165094044Y-72793692D01*
X165091020Y-72789894D01*
X165080377Y-72774144D01*
X165064891Y-72757083D01*
X165062398Y-72753953D01*
X165054594Y-72734801D01*
X165038206Y-72702946D01*
X165037644Y-72700348D01*
X165037640Y-72700336D01*
X165037225Y-72698416D01*
X165037260Y-72698408D01*
X165037258Y-72698399D01*
X165037223Y-72698407D01*
X165013406Y-72592217D01*
X165013403Y-72592204D01*
X165006652Y-72565523D01*
X165006304Y-72564290D01*
X164998005Y-72537710D01*
X164955550Y-72413833D01*
X164951246Y-72401774D01*
X164951034Y-72401203D01*
X164923329Y-72339562D01*
X164923327Y-72339559D01*
X164920416Y-72334558D01*
X164913017Y-72319623D01*
X164903704Y-72297139D01*
X164810626Y-72157837D01*
X164810624Y-72157834D01*
X164692164Y-72039374D01*
X164552856Y-71946292D01*
X164398083Y-71882184D01*
X164398056Y-71882178D01*
X164233773Y-71849500D01*
X164233771Y-71849500D01*
X164233767Y-71849500D01*
X164066233Y-71849500D01*
X164066228Y-71849500D01*
X164066226Y-71849500D01*
X163901942Y-71882178D01*
X163901915Y-71882184D01*
X163747142Y-71946292D01*
X163607834Y-72039374D01*
X163607833Y-72039375D01*
X163548508Y-72098701D01*
X163548505Y-72098702D01*
X163548505Y-72098704D01*
X163520250Y-72119854D01*
X163506532Y-72127344D01*
X163438274Y-72142195D01*
X163438259Y-72142193D01*
X163438259Y-72142194D01*
X163438258Y-72142193D01*
X163436468Y-72142066D01*
X163378267Y-72122698D01*
X163371752Y-72118511D01*
X163351116Y-72101881D01*
X162941928Y-71692693D01*
X162937590Y-71688355D01*
X162937588Y-71688352D01*
X162818717Y-71569481D01*
X162818716Y-71569480D01*
X162818715Y-71569479D01*
X162818712Y-71569477D01*
X162752798Y-71531421D01*
X162752798Y-71531422D01*
X162716843Y-71510664D01*
X162716842Y-71510663D01*
X162681786Y-71490423D01*
X162643603Y-71480192D01*
X162529057Y-71449499D01*
X162529054Y-71449499D01*
X162361443Y-71449499D01*
X162361380Y-71449500D01*
X147238723Y-71449500D01*
X147238717Y-71449499D01*
X147238715Y-71449500D01*
X147203781Y-71444475D01*
X147190713Y-71440637D01*
X147131937Y-71402859D01*
X147102916Y-71339301D01*
X147109866Y-71277290D01*
X147112825Y-71269568D01*
X147125507Y-71245061D01*
X147136788Y-71228177D01*
X147136789Y-71228174D01*
X147153703Y-71202863D01*
X147217816Y-71048082D01*
X147250500Y-70883767D01*
X147250500Y-70716233D01*
X147217816Y-70551918D01*
X147153703Y-70397137D01*
X147153701Y-70397134D01*
X147153699Y-70397130D01*
X147088122Y-70298988D01*
X147088122Y-70298987D01*
X147088120Y-70298986D01*
X147060626Y-70257837D01*
X147060625Y-70257835D01*
X146942164Y-70139374D01*
X146802856Y-70046292D01*
X146648083Y-69982184D01*
X146648056Y-69982178D01*
X146483773Y-69949500D01*
X146483771Y-69949500D01*
X146483767Y-69949500D01*
X146316233Y-69949500D01*
X146316228Y-69949500D01*
X146316226Y-69949500D01*
X146151942Y-69982178D01*
X146151915Y-69982184D01*
X145997142Y-70046292D01*
X145857834Y-70139374D01*
X145739374Y-70257834D01*
X145646292Y-70397142D01*
X145582184Y-70551915D01*
X145582178Y-70551942D01*
X145549500Y-70716225D01*
X145549500Y-70883769D01*
X145549591Y-70884515D01*
X145550091Y-70886741D01*
X145557276Y-70922862D01*
X145559166Y-70958103D01*
X145558158Y-70969369D01*
X145551629Y-70985961D01*
X145551049Y-70992453D01*
X145547050Y-70997599D01*
X145532577Y-71034388D01*
X145475906Y-71075255D01*
X145406137Y-71078995D01*
X145403857Y-71078457D01*
X145344698Y-71045463D01*
X143480001Y-69180766D01*
X147937050Y-69180766D01*
X147937050Y-69185362D01*
X147937050Y-69399238D01*
X147949454Y-69477552D01*
X147971226Y-69615016D01*
X148038730Y-69822776D01*
X148038732Y-69822781D01*
X148038734Y-69822785D01*
X148137921Y-70017447D01*
X148266325Y-70194182D01*
X148266329Y-70194187D01*
X148266334Y-70194193D01*
X148420803Y-70348662D01*
X148420811Y-70348669D01*
X148420812Y-70348670D01*
X148420817Y-70348674D01*
X148476794Y-70389343D01*
X148516376Y-70418101D01*
X148516377Y-70418101D01*
X148516378Y-70418102D01*
X148597556Y-70477081D01*
X148792212Y-70576264D01*
X148792214Y-70576265D01*
X148896100Y-70610019D01*
X148999988Y-70643774D01*
X149215766Y-70677950D01*
X149215767Y-70677950D01*
X149434233Y-70677950D01*
X149434234Y-70677950D01*
X149650012Y-70643774D01*
X149857788Y-70576264D01*
X150052444Y-70477081D01*
X150229189Y-70348669D01*
X150383669Y-70194189D01*
X150512081Y-70017444D01*
X150611264Y-69822788D01*
X150678774Y-69615012D01*
X150712950Y-69399234D01*
X150712950Y-69180766D01*
X150712949Y-69180760D01*
X151112050Y-69180760D01*
X151112050Y-69399238D01*
X151124454Y-69477552D01*
X151146226Y-69615016D01*
X151213730Y-69822776D01*
X151213732Y-69822781D01*
X151213734Y-69822785D01*
X151312921Y-70017447D01*
X151441325Y-70194182D01*
X151441329Y-70194187D01*
X151441334Y-70194193D01*
X151595803Y-70348662D01*
X151595811Y-70348669D01*
X151595812Y-70348670D01*
X151595817Y-70348674D01*
X151651794Y-70389343D01*
X151691376Y-70418101D01*
X151691377Y-70418101D01*
X151691378Y-70418102D01*
X151772556Y-70477081D01*
X151967212Y-70576264D01*
X151967214Y-70576265D01*
X152071100Y-70610019D01*
X152174988Y-70643774D01*
X152390766Y-70677950D01*
X152390767Y-70677950D01*
X152609233Y-70677950D01*
X152609234Y-70677950D01*
X152825012Y-70643774D01*
X153032788Y-70576264D01*
X153227444Y-70477081D01*
X153404189Y-70348669D01*
X153558669Y-70194189D01*
X153687081Y-70017444D01*
X153786264Y-69822788D01*
X153853774Y-69615012D01*
X153887950Y-69399234D01*
X153887950Y-69180766D01*
X153853774Y-68964988D01*
X153800004Y-68799499D01*
X153786265Y-68757214D01*
X153786264Y-68757212D01*
X153687081Y-68562556D01*
X153613878Y-68461800D01*
X153613877Y-68461797D01*
X153558688Y-68385836D01*
X153558670Y-68385812D01*
X153558662Y-68385803D01*
X153404193Y-68231334D01*
X153404188Y-68231330D01*
X153404187Y-68231329D01*
X153404182Y-68231325D01*
X153374207Y-68209547D01*
X153238054Y-68110626D01*
X153238037Y-68110615D01*
X153227447Y-68102921D01*
X153227446Y-68102920D01*
X153227444Y-68102919D01*
X153195686Y-68086737D01*
X153130116Y-68053326D01*
X153130116Y-68053327D01*
X153032785Y-68003733D01*
X153032779Y-68003731D01*
X152825015Y-67936226D01*
X152825016Y-67936226D01*
X152717123Y-67919138D01*
X152681160Y-67913442D01*
X152609234Y-67902050D01*
X152609233Y-67902050D01*
X152390767Y-67902050D01*
X152390766Y-67902050D01*
X152318840Y-67913442D01*
X152174982Y-67936226D01*
X151967222Y-68003730D01*
X151772548Y-68102923D01*
X151595834Y-68231312D01*
X151595805Y-68231334D01*
X151441334Y-68385805D01*
X151441312Y-68385834D01*
X151312923Y-68562548D01*
X151213730Y-68757222D01*
X151146226Y-68964982D01*
X151135725Y-69031286D01*
X151112050Y-69180760D01*
X150712949Y-69180760D01*
X150678774Y-68964988D01*
X150625004Y-68799499D01*
X150611265Y-68757214D01*
X150611264Y-68757212D01*
X150512081Y-68562556D01*
X150438878Y-68461800D01*
X150438877Y-68461797D01*
X150383688Y-68385836D01*
X150383670Y-68385812D01*
X150383662Y-68385803D01*
X150229193Y-68231334D01*
X150229188Y-68231330D01*
X150229187Y-68231329D01*
X150229182Y-68231325D01*
X150199207Y-68209547D01*
X150063054Y-68110626D01*
X150063037Y-68110615D01*
X150052447Y-68102921D01*
X150052446Y-68102920D01*
X150052444Y-68102919D01*
X150020686Y-68086737D01*
X149955116Y-68053326D01*
X149955116Y-68053327D01*
X149857785Y-68003733D01*
X149857779Y-68003731D01*
X149650015Y-67936226D01*
X149650016Y-67936226D01*
X149542123Y-67919138D01*
X149506160Y-67913442D01*
X149434234Y-67902050D01*
X149434233Y-67902050D01*
X149215767Y-67902050D01*
X149215766Y-67902050D01*
X149143840Y-67913442D01*
X148999982Y-67936226D01*
X148792222Y-68003730D01*
X148597548Y-68102923D01*
X148420834Y-68231312D01*
X148420805Y-68231334D01*
X148266334Y-68385805D01*
X148266312Y-68385834D01*
X148137923Y-68562548D01*
X148038730Y-68757222D01*
X147971226Y-68964982D01*
X147960764Y-69031036D01*
X147960744Y-69031162D01*
X147960725Y-69031286D01*
X147937050Y-69180766D01*
X143480001Y-69180766D01*
X143341928Y-69042693D01*
X143337590Y-69038355D01*
X143337588Y-69038352D01*
X143218717Y-68919481D01*
X143218716Y-68919480D01*
X143218715Y-68919479D01*
X143218712Y-68919477D01*
X143152798Y-68881421D01*
X143152798Y-68881422D01*
X143116843Y-68860664D01*
X143116842Y-68860663D01*
X143081786Y-68840423D01*
X143043603Y-68830192D01*
X142929057Y-68799499D01*
X142929054Y-68799499D01*
X142761443Y-68799499D01*
X142761380Y-68799500D01*
X139270940Y-68799500D01*
X139124968Y-68838611D01*
X139124939Y-68838621D01*
X139118215Y-68840423D01*
X139118214Y-68840423D01*
X139118212Y-68840424D01*
X139118209Y-68840425D01*
X139115416Y-68842037D01*
X139115412Y-68842039D01*
X139089087Y-68857238D01*
X139068096Y-68869359D01*
X139068095Y-68869360D01*
X139024689Y-68894420D01*
X139024688Y-68894419D01*
X138981289Y-68919475D01*
X138981287Y-68919477D01*
X138981281Y-68919481D01*
X138981276Y-68919485D01*
X133449690Y-74451073D01*
X133427020Y-74468044D01*
X133421439Y-74472222D01*
X133398351Y-74484830D01*
X133338921Y-74500000D01*
X131182142Y-74500000D01*
X131115103Y-74480315D01*
X131069348Y-74427511D01*
X131059404Y-74358353D01*
X131082136Y-74302687D01*
X131396955Y-73873274D01*
X131398038Y-73871824D01*
X131398082Y-73871767D01*
X131399275Y-73870192D01*
X131400430Y-73868694D01*
X132134773Y-72931809D01*
X132135910Y-72930384D01*
X132137237Y-72928745D01*
X132138429Y-72927299D01*
X132896920Y-72021768D01*
X132898115Y-72020366D01*
X132899475Y-72018794D01*
X132900751Y-72017347D01*
X133050959Y-71849500D01*
X133683140Y-71143081D01*
X133684441Y-71141653D01*
X133685810Y-71140172D01*
X133687096Y-71138803D01*
X134493598Y-70295265D01*
X134494957Y-70293871D01*
X134496429Y-70292382D01*
X134497804Y-70291016D01*
X134596735Y-70194182D01*
X135257129Y-69547780D01*
X135328165Y-69478248D01*
X135329623Y-69476844D01*
X135331086Y-69475458D01*
X135332582Y-69474063D01*
X136187259Y-68691472D01*
X136188613Y-68690252D01*
X136190266Y-68688788D01*
X136191649Y-68687584D01*
X137070776Y-67934991D01*
X137072219Y-67933777D01*
X137073867Y-67932413D01*
X137075324Y-67931228D01*
X137259710Y-67783773D01*
X141399499Y-67783773D01*
X141432178Y-67948056D01*
X141432184Y-67948083D01*
X141496292Y-68102856D01*
X141589374Y-68242164D01*
X141707833Y-68360623D01*
X141707837Y-68360626D01*
X141800492Y-68422536D01*
X141800494Y-68422538D01*
X141847134Y-68453701D01*
X141847137Y-68453703D01*
X142001918Y-68517816D01*
X142166228Y-68550499D01*
X142166232Y-68550500D01*
X142166233Y-68550500D01*
X142333768Y-68550500D01*
X142333769Y-68550499D01*
X142498082Y-68517816D01*
X142652863Y-68453703D01*
X142792162Y-68360626D01*
X142910626Y-68242162D01*
X143003703Y-68102863D01*
X143067816Y-67948082D01*
X143100500Y-67783767D01*
X143100500Y-67616233D01*
X143067816Y-67451918D01*
X143067814Y-67451915D01*
X143066046Y-67446084D01*
X143066992Y-67445796D01*
X143065814Y-67437804D01*
X143060610Y-67427582D01*
X143059200Y-67418005D01*
X143057989Y-67406741D01*
X143059775Y-67396838D01*
X143059110Y-67392320D01*
X143060233Y-67381158D01*
X143064499Y-67370654D01*
X143070394Y-67337984D01*
X143083482Y-67323925D01*
X143086529Y-67316426D01*
X143097965Y-67308368D01*
X143118004Y-67286846D01*
X143134493Y-67282636D01*
X143143648Y-67276187D01*
X143162977Y-67275364D01*
X143185686Y-67269566D01*
X143188024Y-67269650D01*
X143200743Y-67273757D01*
X143213455Y-67273216D01*
X143231237Y-67283603D01*
X143252500Y-67290468D01*
X143347137Y-67353703D01*
X143501918Y-67417816D01*
X143666228Y-67450499D01*
X143666232Y-67450500D01*
X143666233Y-67450500D01*
X143833768Y-67450500D01*
X143833769Y-67450499D01*
X143998082Y-67417816D01*
X144152863Y-67353703D01*
X144292162Y-67260626D01*
X144410626Y-67142162D01*
X144503703Y-67002863D01*
X144567816Y-66848082D01*
X144570662Y-66833773D01*
X145599499Y-66833773D01*
X145632178Y-66998056D01*
X145632184Y-66998083D01*
X145696292Y-67152856D01*
X145789374Y-67292164D01*
X145907834Y-67410624D01*
X145933214Y-67427582D01*
X145969646Y-67451925D01*
X146047137Y-67503703D01*
X146048158Y-67504385D01*
X146052743Y-67506025D01*
X146082201Y-67518227D01*
X146201918Y-67567816D01*
X146363257Y-67599908D01*
X146365492Y-67600409D01*
X146366230Y-67600500D01*
X146533768Y-67600500D01*
X146558546Y-67600500D01*
X146565270Y-67596828D01*
X146566749Y-67596735D01*
X146567434Y-67596377D01*
X146602675Y-67594484D01*
X146607579Y-67594922D01*
X146672598Y-67620498D01*
X146713470Y-67677166D01*
X146713473Y-67677176D01*
X146717136Y-67687559D01*
X146724200Y-67728813D01*
X146724200Y-67834534D01*
X146724200Y-67834536D01*
X146724199Y-67834536D01*
X146750933Y-67968931D01*
X146750940Y-67968962D01*
X146803382Y-68095571D01*
X146803387Y-68095580D01*
X146803397Y-68095597D01*
X146879537Y-68209548D01*
X146879538Y-68209549D01*
X146879543Y-68209555D01*
X146976443Y-68306455D01*
X146976449Y-68306460D01*
X146976453Y-68306463D01*
X147090408Y-68382606D01*
X147090421Y-68382613D01*
X147090423Y-68382613D01*
X147090427Y-68382616D01*
X147185383Y-68421947D01*
X147217038Y-68435059D01*
X147217043Y-68435061D01*
X147217045Y-68435061D01*
X147217047Y-68435062D01*
X147244456Y-68440513D01*
X147351465Y-68461799D01*
X147351469Y-68461800D01*
X147351470Y-68461800D01*
X147488531Y-68461800D01*
X147488532Y-68461799D01*
X147622957Y-68435061D01*
X147741872Y-68385805D01*
X147749578Y-68382613D01*
X147749578Y-68382612D01*
X147749585Y-68382610D01*
X147863547Y-68306463D01*
X147960463Y-68209547D01*
X148036610Y-68095585D01*
X148089061Y-67968957D01*
X148115800Y-67834530D01*
X148115800Y-67697470D01*
X148089061Y-67563043D01*
X148080500Y-67542375D01*
X148070497Y-67518225D01*
X148036616Y-67436427D01*
X148036611Y-67436418D01*
X148036606Y-67436408D01*
X147960463Y-67322453D01*
X147960460Y-67322449D01*
X147960455Y-67322443D01*
X147863555Y-67225543D01*
X147863549Y-67225538D01*
X147863546Y-67225536D01*
X147749597Y-67149397D01*
X147749596Y-67149396D01*
X147749591Y-67149393D01*
X147749578Y-67149386D01*
X147749571Y-67149382D01*
X147622962Y-67096940D01*
X147622931Y-67096933D01*
X147488536Y-67070200D01*
X147488534Y-67070200D01*
X147488530Y-67070200D01*
X147422395Y-67070200D01*
X147422392Y-67070199D01*
X147422391Y-67070200D01*
X147387456Y-67065176D01*
X147374138Y-67061265D01*
X147315361Y-67023489D01*
X147286340Y-66959939D01*
X147284773Y-66949042D01*
X147285893Y-66907200D01*
X147294430Y-66864284D01*
X147294430Y-66864280D01*
X147300499Y-66833773D01*
X147300500Y-66833769D01*
X147300500Y-66818536D01*
X151804199Y-66818536D01*
X151830933Y-66952931D01*
X151830940Y-66952962D01*
X151883382Y-67079571D01*
X151883387Y-67079580D01*
X151883397Y-67079597D01*
X151959537Y-67193548D01*
X151959538Y-67193549D01*
X151959543Y-67193555D01*
X152056443Y-67290455D01*
X152056449Y-67290460D01*
X152056453Y-67290463D01*
X152170408Y-67366606D01*
X152170421Y-67366613D01*
X152276679Y-67410626D01*
X152276680Y-67410626D01*
X152276681Y-67410627D01*
X152297036Y-67419058D01*
X152297043Y-67419061D01*
X152419485Y-67443416D01*
X152428494Y-67445208D01*
X152430729Y-67445709D01*
X152431467Y-67445800D01*
X152568531Y-67445800D01*
X152572652Y-67445800D01*
X152580502Y-67443418D01*
X152702957Y-67419061D01*
X152829585Y-67366610D01*
X152943547Y-67290463D01*
X153040463Y-67193547D01*
X153116610Y-67079585D01*
X153169061Y-66952957D01*
X153195800Y-66818530D01*
X153195800Y-66681470D01*
X153169061Y-66547043D01*
X153153679Y-66509908D01*
X153153444Y-66509341D01*
X153124956Y-66440563D01*
X153116613Y-66420421D01*
X153116606Y-66420408D01*
X153040463Y-66306453D01*
X153040460Y-66306449D01*
X153040455Y-66306443D01*
X152943555Y-66209543D01*
X152943549Y-66209538D01*
X152943548Y-66209537D01*
X152829597Y-66133397D01*
X152829596Y-66133396D01*
X152829591Y-66133393D01*
X152829578Y-66133386D01*
X152829571Y-66133382D01*
X152702962Y-66080940D01*
X152702931Y-66080933D01*
X152568536Y-66054200D01*
X152568534Y-66054200D01*
X152568530Y-66054200D01*
X152431470Y-66054200D01*
X152431465Y-66054200D01*
X152431463Y-66054200D01*
X152297067Y-66080933D01*
X152297036Y-66080940D01*
X152170427Y-66133382D01*
X152170418Y-66133387D01*
X152170401Y-66133397D01*
X152056450Y-66209537D01*
X152056449Y-66209538D01*
X152056443Y-66209543D01*
X151959543Y-66306443D01*
X151959538Y-66306449D01*
X151959537Y-66306450D01*
X151883397Y-66420401D01*
X151883387Y-66420418D01*
X151883382Y-66420427D01*
X151830940Y-66547036D01*
X151830933Y-66547067D01*
X151804200Y-66681462D01*
X151804200Y-66681465D01*
X151804200Y-66818534D01*
X151804200Y-66818536D01*
X151804199Y-66818536D01*
X147300500Y-66818536D01*
X147300500Y-66685156D01*
X147300500Y-66666233D01*
X147285594Y-66591300D01*
X147285219Y-66588935D01*
X147285743Y-66584862D01*
X147284621Y-66554277D01*
X147286105Y-66542276D01*
X147293398Y-66525436D01*
X147294145Y-66519638D01*
X147297780Y-66515315D01*
X147313867Y-66478167D01*
X147367921Y-66440563D01*
X147378417Y-66436861D01*
X147419662Y-66429800D01*
X147492652Y-66429800D01*
X147500505Y-66427417D01*
X147622957Y-66403061D01*
X147720893Y-66362494D01*
X147743046Y-66353318D01*
X147745832Y-66352347D01*
X147747267Y-66351683D01*
X147751935Y-66349636D01*
X147761195Y-66345800D01*
X147770080Y-66336915D01*
X147863547Y-66274463D01*
X147960463Y-66177547D01*
X148036610Y-66063585D01*
X148038991Y-66057838D01*
X148048494Y-66034893D01*
X148089061Y-65936957D01*
X148115800Y-65802530D01*
X148115800Y-65665470D01*
X148089061Y-65531043D01*
X148089059Y-65531038D01*
X148074654Y-65496261D01*
X148036616Y-65404427D01*
X148036611Y-65404418D01*
X148036606Y-65404408D01*
X147960463Y-65290453D01*
X147960460Y-65290449D01*
X147960455Y-65290443D01*
X147863555Y-65193543D01*
X147863549Y-65193538D01*
X147863548Y-65193537D01*
X147749597Y-65117397D01*
X147749596Y-65117396D01*
X147749591Y-65117393D01*
X147749578Y-65117386D01*
X147749571Y-65117382D01*
X147622962Y-65064940D01*
X147622931Y-65064933D01*
X147488536Y-65038200D01*
X147488534Y-65038200D01*
X147488530Y-65038200D01*
X147351470Y-65038200D01*
X147351465Y-65038200D01*
X147351463Y-65038200D01*
X147217067Y-65064933D01*
X147217036Y-65064940D01*
X147090427Y-65117382D01*
X147090418Y-65117387D01*
X147090401Y-65117397D01*
X146976450Y-65193537D01*
X146976449Y-65193538D01*
X146976443Y-65193543D01*
X146879543Y-65290443D01*
X146879538Y-65290449D01*
X146879537Y-65290450D01*
X146803397Y-65404401D01*
X146803387Y-65404418D01*
X146803382Y-65404427D01*
X146750940Y-65531036D01*
X146750933Y-65531067D01*
X146724200Y-65665462D01*
X146724200Y-65768454D01*
X146724199Y-65768458D01*
X146724200Y-65768461D01*
X146719175Y-65803395D01*
X146715264Y-65816712D01*
X146677487Y-65875488D01*
X146613936Y-65904509D01*
X146603037Y-65906076D01*
X146561203Y-65904956D01*
X146533770Y-65899500D01*
X146533767Y-65899500D01*
X146366233Y-65899500D01*
X146366228Y-65899500D01*
X146366226Y-65899500D01*
X146201942Y-65932178D01*
X146201915Y-65932184D01*
X146047142Y-65996292D01*
X145907834Y-66089374D01*
X145789374Y-66207834D01*
X145696292Y-66347142D01*
X145632184Y-66501915D01*
X145632178Y-66501942D01*
X145599500Y-66666225D01*
X145599500Y-66833770D01*
X145599499Y-66833773D01*
X144570662Y-66833773D01*
X144600500Y-66683767D01*
X144600500Y-66516233D01*
X144567816Y-66351918D01*
X144503703Y-66197137D01*
X144472537Y-66150494D01*
X144410626Y-66057837D01*
X144410625Y-66057835D01*
X144292164Y-65939374D01*
X144152856Y-65846292D01*
X143998083Y-65782184D01*
X143998056Y-65782178D01*
X143833773Y-65749500D01*
X143833771Y-65749500D01*
X143833767Y-65749500D01*
X143666233Y-65749500D01*
X143666228Y-65749500D01*
X143666226Y-65749500D01*
X143501942Y-65782178D01*
X143501915Y-65782184D01*
X143347142Y-65846292D01*
X143207834Y-65939374D01*
X143089374Y-66057834D01*
X142996292Y-66197142D01*
X142932184Y-66351915D01*
X142932178Y-66351942D01*
X142899500Y-66516225D01*
X142899500Y-66516228D01*
X142899500Y-66683771D01*
X142899500Y-66683773D01*
X142899499Y-66683773D01*
X142926306Y-66818531D01*
X142929337Y-66833770D01*
X142932184Y-66848082D01*
X142935302Y-66855610D01*
X142937448Y-66863785D01*
X142937315Y-66868356D01*
X142940800Y-66882010D01*
X142942009Y-66893255D01*
X142935562Y-66928989D01*
X142935428Y-66933625D01*
X142934474Y-66935018D01*
X142929604Y-66962014D01*
X142881994Y-67013152D01*
X142814311Y-67030432D01*
X142813483Y-67030402D01*
X142811977Y-67030348D01*
X142747496Y-67009529D01*
X142652865Y-66946298D01*
X142652853Y-66946291D01*
X142498083Y-66882184D01*
X142498056Y-66882178D01*
X142333773Y-66849500D01*
X142333771Y-66849500D01*
X142333767Y-66849500D01*
X142166233Y-66849500D01*
X142166228Y-66849500D01*
X142166226Y-66849500D01*
X142001942Y-66882178D01*
X142001915Y-66882184D01*
X141847142Y-66946292D01*
X141707834Y-67039374D01*
X141589374Y-67157834D01*
X141496292Y-67297142D01*
X141432184Y-67451915D01*
X141432182Y-67451925D01*
X141399500Y-67616225D01*
X141399500Y-67616228D01*
X141399500Y-67783771D01*
X141399500Y-67783773D01*
X141399499Y-67783773D01*
X137259710Y-67783773D01*
X137979109Y-67208465D01*
X137980574Y-67207313D01*
X137982338Y-67205950D01*
X137983787Y-67204849D01*
X138912636Y-66511676D01*
X138914250Y-66510494D01*
X138915851Y-66509341D01*
X138917479Y-66508188D01*
X139871594Y-65844604D01*
X139873259Y-65843468D01*
X139874946Y-65842336D01*
X139876583Y-65841255D01*
X140856642Y-65207002D01*
X140858182Y-65206024D01*
X140860025Y-65204874D01*
X140861662Y-65203872D01*
X141867928Y-64599058D01*
X141869577Y-64598084D01*
X141871517Y-64596962D01*
X141873158Y-64596030D01*
X142250788Y-64385698D01*
X142762361Y-64100760D01*
X147937050Y-64100760D01*
X147937050Y-64319238D01*
X147971226Y-64535016D01*
X148038730Y-64742776D01*
X148038732Y-64742781D01*
X148038734Y-64742785D01*
X148137921Y-64937447D01*
X148266325Y-65114182D01*
X148266329Y-65114187D01*
X148266334Y-65114193D01*
X148420803Y-65268662D01*
X148420811Y-65268669D01*
X148420812Y-65268670D01*
X148420817Y-65268674D01*
X148450794Y-65290453D01*
X148597556Y-65397081D01*
X148792212Y-65496264D01*
X148792214Y-65496265D01*
X148896100Y-65530019D01*
X148999988Y-65563774D01*
X149215766Y-65597950D01*
X149215767Y-65597950D01*
X149434233Y-65597950D01*
X149434234Y-65597950D01*
X149650012Y-65563774D01*
X149857788Y-65496264D01*
X150052444Y-65397081D01*
X150229189Y-65268669D01*
X150383669Y-65114189D01*
X150512081Y-64937444D01*
X150611264Y-64742788D01*
X150678774Y-64535012D01*
X150712950Y-64319234D01*
X150712950Y-64100766D01*
X150712949Y-64100760D01*
X151112050Y-64100760D01*
X151112050Y-64319238D01*
X151146226Y-64535016D01*
X151213730Y-64742776D01*
X151213732Y-64742781D01*
X151213734Y-64742785D01*
X151312921Y-64937447D01*
X151441325Y-65114182D01*
X151441329Y-65114187D01*
X151441334Y-65114193D01*
X151595803Y-65268662D01*
X151595811Y-65268669D01*
X151595812Y-65268670D01*
X151595817Y-65268674D01*
X151625794Y-65290453D01*
X151772556Y-65397081D01*
X151967212Y-65496264D01*
X151967214Y-65496265D01*
X152071100Y-65530019D01*
X152174988Y-65563774D01*
X152390766Y-65597950D01*
X152390767Y-65597950D01*
X152609233Y-65597950D01*
X152609234Y-65597950D01*
X152825012Y-65563774D01*
X153032788Y-65496264D01*
X153227444Y-65397081D01*
X153404189Y-65268669D01*
X153558669Y-65114189D01*
X153687081Y-64937444D01*
X153786264Y-64742788D01*
X153853774Y-64535012D01*
X153887950Y-64319234D01*
X153887950Y-64100766D01*
X153853774Y-63884988D01*
X153794102Y-63701334D01*
X153786265Y-63677214D01*
X153786264Y-63677212D01*
X153687081Y-63482556D01*
X153670674Y-63459974D01*
X153558674Y-63305817D01*
X153558670Y-63305812D01*
X153558669Y-63305811D01*
X153558662Y-63305803D01*
X153404193Y-63151334D01*
X153404188Y-63151330D01*
X153404187Y-63151329D01*
X153404182Y-63151325D01*
X153395113Y-63144736D01*
X153238054Y-63030626D01*
X153238037Y-63030615D01*
X153227447Y-63022921D01*
X153227446Y-63022920D01*
X153227444Y-63022919D01*
X153195686Y-63006737D01*
X153130116Y-62973326D01*
X153130116Y-62973327D01*
X153032785Y-62923733D01*
X153032779Y-62923731D01*
X152825015Y-62856226D01*
X152825016Y-62856226D01*
X152717123Y-62839138D01*
X152681160Y-62833442D01*
X152609234Y-62822050D01*
X152609233Y-62822050D01*
X152390767Y-62822050D01*
X152390766Y-62822050D01*
X152318840Y-62833442D01*
X152174982Y-62856226D01*
X151967222Y-62923730D01*
X151967214Y-62923733D01*
X151967214Y-62923734D01*
X151910843Y-62952457D01*
X151772548Y-63022923D01*
X151595834Y-63151312D01*
X151595805Y-63151334D01*
X151441334Y-63305805D01*
X151441312Y-63305834D01*
X151312923Y-63482548D01*
X151213730Y-63677222D01*
X151146226Y-63884982D01*
X151112050Y-64100760D01*
X150712949Y-64100760D01*
X150678774Y-63884988D01*
X150619102Y-63701334D01*
X150611265Y-63677214D01*
X150611264Y-63677212D01*
X150512081Y-63482556D01*
X150495674Y-63459974D01*
X150383674Y-63305817D01*
X150383670Y-63305812D01*
X150383669Y-63305811D01*
X150383662Y-63305803D01*
X150229193Y-63151334D01*
X150229188Y-63151330D01*
X150229187Y-63151329D01*
X150229182Y-63151325D01*
X150220113Y-63144736D01*
X150063054Y-63030626D01*
X150063037Y-63030615D01*
X150052447Y-63022921D01*
X150052446Y-63022920D01*
X150052444Y-63022919D01*
X150020686Y-63006737D01*
X149955116Y-62973326D01*
X149955116Y-62973327D01*
X149857785Y-62923733D01*
X149857779Y-62923731D01*
X149650015Y-62856226D01*
X149650016Y-62856226D01*
X149542123Y-62839138D01*
X149506160Y-62833442D01*
X149434234Y-62822050D01*
X149434233Y-62822050D01*
X149215767Y-62822050D01*
X149215766Y-62822050D01*
X149143840Y-62833442D01*
X148999982Y-62856226D01*
X148792222Y-62923730D01*
X148792214Y-62923733D01*
X148792214Y-62923734D01*
X148735843Y-62952457D01*
X148597548Y-63022923D01*
X148420834Y-63151312D01*
X148420805Y-63151334D01*
X148266334Y-63305805D01*
X148266312Y-63305834D01*
X148137923Y-63482548D01*
X148038730Y-63677222D01*
X147971226Y-63884982D01*
X147937050Y-64100760D01*
X142762361Y-64100760D01*
X142906478Y-64020489D01*
X142908127Y-64019590D01*
X142909956Y-64018610D01*
X142911609Y-64017740D01*
X143972463Y-63471616D01*
X143974260Y-63470711D01*
X143975991Y-63469856D01*
X143977687Y-63469033D01*
X145066887Y-62952373D01*
X145068427Y-62951658D01*
X145070290Y-62950811D01*
X145071942Y-62950075D01*
X146068863Y-62515913D01*
X146093089Y-62508206D01*
X146117582Y-62503105D01*
X146142864Y-62500500D01*
X153857137Y-62500500D01*
X153882421Y-62503105D01*
G37*
%TD.AperFunction*%
%TA.AperFunction,Conductor*%
G36*
X161567005Y-74005521D02*
G01*
X161592249Y-74012934D01*
X161644995Y-74044230D01*
X162402487Y-74801722D01*
X162435972Y-74863045D01*
X162430988Y-74932737D01*
X162419553Y-74955767D01*
X162413238Y-74965733D01*
X162399173Y-74989327D01*
X162398550Y-74990440D01*
X162385613Y-75015121D01*
X162328028Y-75132762D01*
X162322255Y-75144964D01*
X162322051Y-75145411D01*
X162298304Y-75208046D01*
X162296844Y-75213583D01*
X162291508Y-75229403D01*
X162282185Y-75251913D01*
X162282178Y-75251942D01*
X162249500Y-75416225D01*
X162249500Y-75416228D01*
X162249500Y-75583771D01*
X162249500Y-75583773D01*
X162249499Y-75583773D01*
X162282178Y-75748056D01*
X162282184Y-75748083D01*
X162346292Y-75902856D01*
X162439374Y-76042164D01*
X162557834Y-76160624D01*
X162600061Y-76188839D01*
X162600060Y-76188839D01*
X162691552Y-76249971D01*
X162697137Y-76253703D01*
X162851918Y-76317816D01*
X162974315Y-76342162D01*
X163013257Y-76349908D01*
X163015492Y-76350409D01*
X163016230Y-76350500D01*
X163183768Y-76350500D01*
X163187889Y-76350500D01*
X163195742Y-76348117D01*
X163348082Y-76317816D01*
X163502863Y-76253703D01*
X163553871Y-76219619D01*
X163556107Y-76218550D01*
X163585703Y-76204389D01*
X163600625Y-76199716D01*
X163670478Y-76198469D01*
X163683619Y-76202073D01*
X163719695Y-76218550D01*
X163772303Y-76253701D01*
X163809292Y-76278416D01*
X163847137Y-76303703D01*
X164001918Y-76367816D01*
X164129996Y-76393292D01*
X164163257Y-76399908D01*
X164165492Y-76400409D01*
X164166230Y-76400500D01*
X164333768Y-76400500D01*
X164349855Y-76400500D01*
X164366856Y-76394503D01*
X164368487Y-76393613D01*
X164370609Y-76393171D01*
X164380293Y-76391244D01*
X164383834Y-76390541D01*
X164419061Y-76388653D01*
X164422292Y-76388942D01*
X164422292Y-76388941D01*
X164429461Y-76389583D01*
X164429281Y-76391585D01*
X164446565Y-76396158D01*
X164453425Y-76396773D01*
X164455768Y-76398593D01*
X164487107Y-76406885D01*
X164527491Y-76451028D01*
X164529180Y-76449943D01*
X164529803Y-76450912D01*
X164530947Y-76454806D01*
X164534268Y-76458436D01*
X164534277Y-76458455D01*
X164536251Y-76462488D01*
X164533587Y-76463791D01*
X164549500Y-76517947D01*
X164549500Y-76682072D01*
X164549499Y-76682074D01*
X164549500Y-76682075D01*
X164544476Y-76717009D01*
X164537064Y-76742250D01*
X164505769Y-76794994D01*
X162769483Y-78531278D01*
X162769481Y-78531282D01*
X162769479Y-78531285D01*
X162759066Y-78549322D01*
X162726761Y-78605276D01*
X162690423Y-78668215D01*
X162649499Y-78820943D01*
X162649499Y-78820945D01*
X162649499Y-78991400D01*
X162649500Y-78991451D01*
X162649500Y-79563565D01*
X162645947Y-79577682D01*
X162646842Y-79589102D01*
X162644476Y-79598503D01*
X162641289Y-79609356D01*
X162635846Y-79617824D01*
X162634732Y-79622254D01*
X162629422Y-79632137D01*
X162621463Y-79640203D01*
X162603514Y-79668133D01*
X162586034Y-79676114D01*
X162580352Y-79681875D01*
X162566709Y-79684939D01*
X162539957Y-79697156D01*
X162523111Y-79694733D01*
X162512181Y-79697189D01*
X162493998Y-79690547D01*
X162470799Y-79687211D01*
X162470781Y-79687203D01*
X162468658Y-79686233D01*
X162458485Y-79677574D01*
X162446553Y-79673216D01*
X162434111Y-79656828D01*
X162417087Y-79642338D01*
X162417044Y-79642274D01*
X162360626Y-79557837D01*
X162360624Y-79557834D01*
X162242164Y-79439374D01*
X162102856Y-79346292D01*
X161948083Y-79282184D01*
X161948056Y-79282178D01*
X161783773Y-79249500D01*
X161783771Y-79249500D01*
X161783767Y-79249500D01*
X161616233Y-79249500D01*
X161616228Y-79249500D01*
X161616226Y-79249500D01*
X161451942Y-79282178D01*
X161451915Y-79282184D01*
X161363439Y-79318831D01*
X161363438Y-79318830D01*
X161359876Y-79320305D01*
X161324275Y-79332538D01*
X161298711Y-79345643D01*
X161297146Y-79346292D01*
X161297132Y-79346298D01*
X161291793Y-79349153D01*
X161291748Y-79349070D01*
X161289797Y-79350213D01*
X161172581Y-79410306D01*
X161148961Y-79423222D01*
X161147943Y-79423814D01*
X161125680Y-79437555D01*
X161071878Y-79472712D01*
X161070852Y-79473375D01*
X161070325Y-79473712D01*
X161011240Y-79493005D01*
X161000547Y-79493671D01*
X160982525Y-79494795D01*
X160982516Y-79494795D01*
X160982514Y-79494796D01*
X160970525Y-79496001D01*
X160923198Y-79491600D01*
X160907755Y-79487066D01*
X160855005Y-79455769D01*
X157041928Y-75642693D01*
X157041908Y-75642671D01*
X156918722Y-75519485D01*
X156918717Y-75519481D01*
X156918709Y-75519475D01*
X156881610Y-75498056D01*
X156824880Y-75465303D01*
X156824879Y-75465303D01*
X156793611Y-75447250D01*
X156793610Y-75447249D01*
X156781787Y-75440423D01*
X156769267Y-75437067D01*
X156769267Y-75437068D01*
X156739637Y-75429128D01*
X156629057Y-75399499D01*
X156629056Y-75399499D01*
X156461443Y-75399499D01*
X156461380Y-75399500D01*
X155567927Y-75399500D01*
X155567926Y-75399499D01*
X155567926Y-75399500D01*
X155532991Y-75394477D01*
X155507749Y-75387065D01*
X155455004Y-75355769D01*
X154791928Y-74692693D01*
X154791908Y-74692671D01*
X154668722Y-74569485D01*
X154668720Y-74569484D01*
X154668717Y-74569481D01*
X154668709Y-74569475D01*
X154645185Y-74555893D01*
X154574357Y-74515001D01*
X154574357Y-74515000D01*
X154537113Y-74493499D01*
X154537111Y-74493497D01*
X154537108Y-74493496D01*
X154531786Y-74490423D01*
X154531785Y-74490422D01*
X154531784Y-74490422D01*
X154493603Y-74480192D01*
X154493602Y-74480191D01*
X154409749Y-74457723D01*
X154379057Y-74449499D01*
X154379056Y-74449499D01*
X154211443Y-74449499D01*
X154211380Y-74449500D01*
X153892333Y-74449500D01*
X153872597Y-74447919D01*
X153864651Y-74446638D01*
X153860669Y-74444736D01*
X153857389Y-74444474D01*
X153853889Y-74443446D01*
X153854128Y-74442631D01*
X153837819Y-74438847D01*
X153837791Y-74438928D01*
X153837089Y-74438677D01*
X153836194Y-74438470D01*
X153831244Y-74436382D01*
X153831720Y-74435252D01*
X153819509Y-74426386D01*
X153809368Y-74423565D01*
X153804210Y-74417781D01*
X153801599Y-74416535D01*
X153798200Y-74411043D01*
X153797872Y-74410675D01*
X153783387Y-74400157D01*
X153782459Y-74400962D01*
X153781199Y-74399508D01*
X153780539Y-74398089D01*
X153779290Y-74397183D01*
X153778002Y-74395514D01*
X153778986Y-74394754D01*
X153773873Y-74383766D01*
X153762863Y-74371421D01*
X153752437Y-74337705D01*
X153752191Y-74336155D01*
X153752190Y-74336154D01*
X153752027Y-74335120D01*
X153750500Y-74315720D01*
X153750500Y-74166235D01*
X153750500Y-74166233D01*
X153749251Y-74159954D01*
X153749445Y-74149166D01*
X153747042Y-74142343D01*
X153750111Y-74112255D01*
X153750168Y-74109121D01*
X153750114Y-74109112D01*
X153750174Y-74108764D01*
X153750203Y-74107191D01*
X153750539Y-74105769D01*
X153751012Y-74103967D01*
X153751039Y-74103656D01*
X153751991Y-74099639D01*
X153752278Y-74099134D01*
X153752330Y-74098938D01*
X153752382Y-74098951D01*
X153767520Y-74072394D01*
X153781393Y-74044259D01*
X153784687Y-74042277D01*
X153786591Y-74038938D01*
X153814390Y-74024411D01*
X153834187Y-74012503D01*
X153833555Y-74010709D01*
X153842473Y-74007563D01*
X153883725Y-74000500D01*
X161532073Y-74000500D01*
X161567005Y-74005521D01*
G37*
%TD.AperFunction*%
%TA.AperFunction,Conductor*%
G36*
X154017005Y-75655521D02*
G01*
X154042249Y-75662934D01*
X154094995Y-75694230D01*
X154764085Y-76363320D01*
X154764106Y-76363342D01*
X154765149Y-76364385D01*
X154769479Y-76368715D01*
X154769480Y-76368716D01*
X154881284Y-76480520D01*
X154952538Y-76521658D01*
X155018215Y-76559577D01*
X155170943Y-76600501D01*
X155170946Y-76600501D01*
X155336653Y-76600501D01*
X155338557Y-76600501D01*
X155338620Y-76600500D01*
X156232073Y-76600500D01*
X156267005Y-76605521D01*
X156292249Y-76612934D01*
X156344995Y-76644230D01*
X158025975Y-78325211D01*
X158047124Y-78353461D01*
X158052545Y-78363388D01*
X158067399Y-78431661D01*
X158042985Y-78497126D01*
X157987053Y-78538999D01*
X157987049Y-78539001D01*
X157979861Y-78541682D01*
X157936527Y-78549500D01*
X150506622Y-78549500D01*
X150506619Y-78549499D01*
X150506618Y-78549500D01*
X150471683Y-78544476D01*
X150458365Y-78540565D01*
X150399588Y-78502789D01*
X150370567Y-78439240D01*
X150370567Y-78439237D01*
X150369000Y-78428339D01*
X150370118Y-78386508D01*
X150398983Y-78241392D01*
X150399704Y-78238671D01*
X150400500Y-78233769D01*
X150400500Y-78192329D01*
X150401060Y-78188437D01*
X150405523Y-78157393D01*
X150409927Y-78142395D01*
X150447672Y-78083644D01*
X150447700Y-78083619D01*
X150447699Y-78083619D01*
X150449041Y-78082456D01*
X150503920Y-78054977D01*
X150511479Y-78053333D01*
X150537832Y-78050500D01*
X150861380Y-78050500D01*
X150861443Y-78050501D01*
X150863347Y-78050501D01*
X150870943Y-78050501D01*
X151029054Y-78050501D01*
X151029057Y-78050501D01*
X151181785Y-78009577D01*
X151240806Y-77975501D01*
X151318716Y-77930520D01*
X151430520Y-77818716D01*
X151430520Y-77818715D01*
X151447958Y-77801277D01*
X151447960Y-77801274D01*
X151901274Y-77347960D01*
X151901277Y-77347958D01*
X151918715Y-77330520D01*
X151918716Y-77330520D01*
X152030520Y-77218716D01*
X152099945Y-77098468D01*
X152109577Y-77081785D01*
X152150500Y-76929057D01*
X152150500Y-76770943D01*
X152150500Y-75817924D01*
X152154763Y-75785688D01*
X152155121Y-75784356D01*
X152159144Y-75770656D01*
X152160550Y-75764189D01*
X152161331Y-75761292D01*
X152178032Y-75733964D01*
X152193379Y-75705855D01*
X152199811Y-75699423D01*
X152228061Y-75678275D01*
X152251153Y-75665667D01*
X152310578Y-75650500D01*
X153982073Y-75650500D01*
X154017005Y-75655521D01*
G37*
%TD.AperFunction*%
%TD*%
%TA.AperFunction,Conductor*%
%TO.N,+3V3*%
G36*
X129697126Y-84157013D02*
G01*
X129738999Y-84212945D01*
X129739001Y-84212949D01*
X129741682Y-84220137D01*
X129749500Y-84263471D01*
X129749500Y-85163330D01*
X129749499Y-85163348D01*
X129749499Y-85226814D01*
X129749499Y-85289023D01*
X129743248Y-85310309D01*
X129748322Y-85325530D01*
X129750459Y-85332645D01*
X129790421Y-85481781D01*
X129790422Y-85481784D01*
X129818560Y-85530519D01*
X129818560Y-85530520D01*
X129858963Y-85600500D01*
X129858965Y-85600503D01*
X129869478Y-85618713D01*
X129869485Y-85618722D01*
X129990314Y-85739551D01*
X129990359Y-85739594D01*
X130464085Y-86213320D01*
X130464106Y-86213342D01*
X130465149Y-86214385D01*
X130469479Y-86218715D01*
X130469480Y-86218716D01*
X130581284Y-86330520D01*
X130668095Y-86380639D01*
X130668097Y-86380641D01*
X130706146Y-86402608D01*
X130706149Y-86402611D01*
X130706150Y-86402611D01*
X130718211Y-86409575D01*
X130718212Y-86409575D01*
X130718215Y-86409577D01*
X130870943Y-86450500D01*
X131029057Y-86450500D01*
X132152237Y-86450500D01*
X132166215Y-86451290D01*
X132171029Y-86451836D01*
X132189687Y-86455447D01*
X132212652Y-86456558D01*
X132216617Y-86457008D01*
X132234626Y-86464591D01*
X132269005Y-86475473D01*
X132275309Y-86479467D01*
X132365713Y-86536747D01*
X132389311Y-86550814D01*
X132389320Y-86550819D01*
X132390427Y-86551439D01*
X132415113Y-86564379D01*
X132495446Y-86603703D01*
X132532752Y-86621965D01*
X132541312Y-86626017D01*
X132544740Y-86627640D01*
X132545269Y-86627882D01*
X132545293Y-86627892D01*
X132608036Y-86651692D01*
X132611908Y-86652712D01*
X132620060Y-86654620D01*
X132651918Y-86667816D01*
X132815298Y-86700314D01*
X132815939Y-86700464D01*
X132816230Y-86700500D01*
X132983768Y-86700500D01*
X132987889Y-86700500D01*
X132995742Y-86698117D01*
X133148082Y-86667816D01*
X133302863Y-86603703D01*
X133442162Y-86510626D01*
X133560626Y-86392162D01*
X133653703Y-86252863D01*
X133717816Y-86098082D01*
X133750500Y-85933767D01*
X133750500Y-85766233D01*
X133717816Y-85601918D01*
X133653703Y-85447137D01*
X133653701Y-85447134D01*
X133653699Y-85447130D01*
X133610887Y-85383058D01*
X133610887Y-85383057D01*
X133560629Y-85307841D01*
X133560623Y-85307833D01*
X133461660Y-85208870D01*
X133428175Y-85147547D01*
X133433159Y-85077855D01*
X133447252Y-85050806D01*
X133453668Y-85041498D01*
X133494602Y-85000565D01*
X133543016Y-84911900D01*
X133546671Y-84906600D01*
X133568997Y-84888485D01*
X133589332Y-84868151D01*
X133595793Y-84866745D01*
X133600929Y-84862579D01*
X133629510Y-84859410D01*
X133657605Y-84853299D01*
X133663800Y-84855609D01*
X133670373Y-84854881D01*
X133696127Y-84867666D01*
X133723070Y-84877715D01*
X133728292Y-84883634D01*
X133732955Y-84885949D01*
X133738463Y-84895163D01*
X133753041Y-84911687D01*
X133753793Y-84911204D01*
X133755594Y-84914007D01*
X133755595Y-84914008D01*
X133755596Y-84914010D01*
X133833384Y-85035050D01*
X133942122Y-85129271D01*
X134000900Y-85167045D01*
X134131777Y-85226814D01*
X134131779Y-85226814D01*
X134131780Y-85226815D01*
X134142638Y-85230003D01*
X134212658Y-85245235D01*
X134213104Y-85245332D01*
X134248039Y-85250355D01*
X134319981Y-85255500D01*
X137376000Y-85255500D01*
X137443039Y-85275185D01*
X137488794Y-85327989D01*
X137500000Y-85379500D01*
X137500000Y-87121458D01*
X137480315Y-87188497D01*
X137427511Y-87234252D01*
X137367159Y-87245142D01*
X137358184Y-87244500D01*
X137358170Y-87244500D01*
X135187662Y-87244500D01*
X135187653Y-87244500D01*
X135111269Y-87250306D01*
X135111264Y-87250306D01*
X135111260Y-87250307D01*
X135098247Y-87252296D01*
X135074211Y-87255971D01*
X134999563Y-87273259D01*
X134967918Y-87283168D01*
X134900829Y-87309562D01*
X134868994Y-87324791D01*
X134868987Y-87324795D01*
X134824681Y-87350024D01*
X134810777Y-87356829D01*
X134761918Y-87377067D01*
X134738657Y-87384122D01*
X134695954Y-87392617D01*
X134671764Y-87395000D01*
X134628231Y-87395000D01*
X134604041Y-87392617D01*
X134561338Y-87384122D01*
X134538082Y-87377067D01*
X134489098Y-87356778D01*
X134475673Y-87350244D01*
X134426106Y-87322311D01*
X134392171Y-87306445D01*
X134392141Y-87306432D01*
X134320490Y-87279342D01*
X134320491Y-87279342D01*
X134288702Y-87270007D01*
X134288688Y-87270003D01*
X134288677Y-87270000D01*
X134288675Y-87270000D01*
X134253152Y-87262272D01*
X134218195Y-87254667D01*
X134183264Y-87249645D01*
X134111322Y-87244500D01*
X134111321Y-87244500D01*
X133613736Y-87244500D01*
X133528457Y-87251745D01*
X133528449Y-87251746D01*
X133487221Y-87258802D01*
X133487216Y-87258803D01*
X133487214Y-87258804D01*
X133404300Y-87280360D01*
X133400028Y-87281867D01*
X133393908Y-87284026D01*
X133266430Y-87350713D01*
X133266422Y-87350718D01*
X133236725Y-87372133D01*
X133170835Y-87395377D01*
X133102838Y-87379309D01*
X133095310Y-87374658D01*
X133052860Y-87346294D01*
X133052858Y-87346293D01*
X132898083Y-87282184D01*
X132898056Y-87282178D01*
X132733773Y-87249500D01*
X132733771Y-87249500D01*
X132733767Y-87249500D01*
X132566233Y-87249500D01*
X132566228Y-87249500D01*
X132566226Y-87249500D01*
X132401942Y-87282178D01*
X132401917Y-87282184D01*
X132247142Y-87346293D01*
X132247132Y-87346299D01*
X132205885Y-87373858D01*
X132139207Y-87394734D01*
X132078548Y-87380115D01*
X132066297Y-87373567D01*
X132063857Y-87371453D01*
X132063850Y-87371448D01*
X132037186Y-87348344D01*
X131912885Y-87291575D01*
X131912879Y-87291572D01*
X131896360Y-87284028D01*
X131874205Y-87273910D01*
X131874203Y-87273909D01*
X131860887Y-87269999D01*
X131790371Y-87254660D01*
X131755455Y-87249642D01*
X131755444Y-87249641D01*
X131683537Y-87244500D01*
X131683532Y-87244500D01*
X128437832Y-87244500D01*
X128436021Y-87244597D01*
X128431126Y-87244859D01*
X128363131Y-87228785D01*
X128314619Y-87178501D01*
X128300500Y-87121036D01*
X128300500Y-85467926D01*
X128305522Y-85432993D01*
X128312934Y-85407748D01*
X128344228Y-85355006D01*
X129525214Y-84174020D01*
X129553457Y-84152876D01*
X129563391Y-84147452D01*
X129631661Y-84132599D01*
X129697126Y-84157013D01*
G37*
%TD.AperFunction*%
%TA.AperFunction,Conductor*%
G36*
X131786443Y-81775501D02*
G01*
X131870500Y-81775501D01*
X131937539Y-81795186D01*
X131983294Y-81847990D01*
X131994500Y-81899501D01*
X131994500Y-84612673D01*
X131997391Y-84666649D01*
X131997394Y-84666681D01*
X132000222Y-84693010D01*
X132008882Y-84746457D01*
X132008886Y-84746483D01*
X132010529Y-84754033D01*
X132010529Y-84754035D01*
X132052481Y-84872923D01*
X132052482Y-84872926D01*
X132071651Y-84911204D01*
X132079964Y-84927804D01*
X132094738Y-84949903D01*
X132150031Y-85032612D01*
X132151207Y-85033968D01*
X132151225Y-85033987D01*
X132155034Y-85037794D01*
X132188536Y-85099108D01*
X132183571Y-85168801D01*
X132141715Y-85224746D01*
X132076258Y-85249182D01*
X132067377Y-85249500D01*
X131267927Y-85249500D01*
X131235687Y-85245235D01*
X131234305Y-85244863D01*
X131220656Y-85240855D01*
X131214223Y-85239455D01*
X131211287Y-85238665D01*
X131183963Y-85221964D01*
X131155847Y-85206612D01*
X130999426Y-85050191D01*
X130978274Y-85021935D01*
X130965667Y-84998846D01*
X130950500Y-84939421D01*
X130950500Y-81967926D01*
X130955522Y-81932993D01*
X130962934Y-81907748D01*
X130994228Y-81855006D01*
X131024811Y-81824423D01*
X131053061Y-81803275D01*
X131076153Y-81790667D01*
X131135578Y-81775500D01*
X131786380Y-81775500D01*
X131786443Y-81775501D01*
G37*
%TD.AperFunction*%
%TA.AperFunction,Conductor*%
G36*
X129038623Y-77593342D02*
G01*
X129090226Y-77633598D01*
X129093185Y-77637562D01*
X129095945Y-77641259D01*
X129111137Y-77667980D01*
X129146293Y-77752856D01*
X129146297Y-77752863D01*
X129239374Y-77892164D01*
X129357833Y-78010623D01*
X129357837Y-78010626D01*
X129450492Y-78072536D01*
X129450494Y-78072538D01*
X129497134Y-78103701D01*
X129497137Y-78103703D01*
X129651918Y-78167816D01*
X129813232Y-78199903D01*
X129813627Y-78199981D01*
X129814044Y-78200066D01*
X129814078Y-78200073D01*
X129814317Y-78200200D01*
X129815033Y-78200352D01*
X129816230Y-78200500D01*
X129956120Y-78200500D01*
X129963563Y-78201014D01*
X129966370Y-78200924D01*
X129990123Y-78202894D01*
X129990124Y-78202895D01*
X130006184Y-78204227D01*
X130071364Y-78229385D01*
X130076061Y-78235811D01*
X130076198Y-78235873D01*
X130076922Y-78236988D01*
X130112597Y-78285790D01*
X130113004Y-78292560D01*
X130114247Y-78294474D01*
X130114342Y-78314781D01*
X130116794Y-78355517D01*
X130116298Y-78357680D01*
X130114557Y-78360825D01*
X130114574Y-78364343D01*
X130099480Y-78388071D01*
X130083116Y-78417646D01*
X127781286Y-80719477D01*
X127669480Y-80831282D01*
X127669476Y-80831287D01*
X127647541Y-80869280D01*
X127647541Y-80869282D01*
X127638269Y-80885344D01*
X127590423Y-80968215D01*
X127549499Y-81120943D01*
X127549499Y-81120945D01*
X127549499Y-81291400D01*
X127549500Y-81291451D01*
X127549500Y-82732072D01*
X127549499Y-82732074D01*
X127549500Y-82732075D01*
X127544476Y-82767009D01*
X127537064Y-82792250D01*
X127505769Y-82844994D01*
X125916654Y-84434108D01*
X125888405Y-84455256D01*
X125879859Y-84459923D01*
X125811587Y-84474778D01*
X125746121Y-84450365D01*
X125704247Y-84394433D01*
X125697718Y-84333249D01*
X125698392Y-84328611D01*
X125705058Y-84302759D01*
X125899878Y-83785586D01*
X125900480Y-83784025D01*
X125901076Y-83782507D01*
X125901755Y-83780812D01*
X126288212Y-82837583D01*
X126402735Y-82558062D01*
X126403380Y-82556521D01*
X126404115Y-82554797D01*
X126404814Y-82553195D01*
X126664686Y-81967926D01*
X126934211Y-81360913D01*
X126934886Y-81359419D01*
X126935674Y-81357714D01*
X126936355Y-81356266D01*
X127493464Y-80195010D01*
X127494160Y-80193585D01*
X127495072Y-80191756D01*
X127495764Y-80190393D01*
X128079705Y-79060999D01*
X128080483Y-79059521D01*
X128081445Y-79057728D01*
X128082208Y-79056331D01*
X128692424Y-77958928D01*
X128693173Y-77957607D01*
X128694251Y-77955735D01*
X128695014Y-77954434D01*
X128875044Y-77652863D01*
X128897258Y-77625450D01*
X128906611Y-77616789D01*
X128969174Y-77585685D01*
X129038623Y-77593342D01*
G37*
%TD.AperFunction*%
%TA.AperFunction,Conductor*%
G36*
X132443039Y-74519685D02*
G01*
X132488794Y-74572489D01*
X132500000Y-74624000D01*
X132500000Y-75331572D01*
X132494976Y-75366509D01*
X132487564Y-75391750D01*
X132456269Y-75444494D01*
X130885382Y-77015379D01*
X130885381Y-77015382D01*
X130857127Y-77036533D01*
X130844945Y-77043185D01*
X130776672Y-77058037D01*
X130711209Y-77033621D01*
X130707011Y-77030479D01*
X130666763Y-76978666D01*
X130653706Y-76947142D01*
X130653699Y-76947130D01*
X130560626Y-76807837D01*
X130560623Y-76807833D01*
X130442164Y-76689374D01*
X130302856Y-76596292D01*
X130148083Y-76532184D01*
X130148056Y-76532178D01*
X129983773Y-76499500D01*
X129983771Y-76499500D01*
X129983767Y-76499500D01*
X129831672Y-76499500D01*
X129808550Y-76497325D01*
X129789181Y-76493648D01*
X129726989Y-76461808D01*
X129691883Y-76401398D01*
X129694103Y-76334350D01*
X129697196Y-76324596D01*
X129710949Y-76295242D01*
X129994654Y-75851935D01*
X129995650Y-75850404D01*
X129996857Y-75848584D01*
X129997799Y-75847187D01*
X130683472Y-74846615D01*
X130684460Y-74845198D01*
X130685734Y-74843400D01*
X130686730Y-74842019D01*
X130900321Y-74550682D01*
X130955834Y-74508256D01*
X131000324Y-74500000D01*
X132376000Y-74500000D01*
X132443039Y-74519685D01*
G37*
%TD.AperFunction*%
%TD*%
%TA.AperFunction,Conductor*%
%TO.N,NRST*%
G36*
X164470877Y-72570751D02*
G01*
X164477142Y-72577149D01*
X164477354Y-72577720D01*
X164519809Y-72701597D01*
X164520157Y-72702830D01*
X164543577Y-72807252D01*
X164543586Y-72807339D01*
X164543596Y-72807337D01*
X164558662Y-72876907D01*
X164558662Y-72876908D01*
X164602239Y-72984693D01*
X164602242Y-72984698D01*
X164602243Y-72984700D01*
X164631876Y-73027208D01*
X164646716Y-73048495D01*
X164706076Y-73113892D01*
X164709099Y-73122321D01*
X164705686Y-73130029D01*
X164579920Y-73255795D01*
X164571647Y-73259222D01*
X164563905Y-73256294D01*
X164481179Y-73183274D01*
X164481174Y-73183271D01*
X164481173Y-73183270D01*
X164404098Y-73136047D01*
X164404084Y-73136041D01*
X164332330Y-73110085D01*
X164257310Y-73093590D01*
X164191403Y-73079779D01*
X164190215Y-73079464D01*
X164028010Y-73027207D01*
X164021188Y-73021410D01*
X164020463Y-73012484D01*
X164020734Y-73011731D01*
X164145316Y-72701805D01*
X164151580Y-72695409D01*
X164151735Y-72695344D01*
X164461924Y-72570657D01*
X164470877Y-72570751D01*
G37*
%TD.AperFunction*%
%TD*%
%TA.AperFunction,Conductor*%
%TO.N,FT_3V3*%
G36*
X131718464Y-87755021D02*
G01*
X131731783Y-87758932D01*
X131746781Y-87768571D01*
X131763887Y-87773594D01*
X131775561Y-87787066D01*
X131790561Y-87796706D01*
X131797967Y-87812923D01*
X131809643Y-87826397D01*
X131819587Y-87860262D01*
X131821154Y-87871160D01*
X131820033Y-87912999D01*
X131799500Y-88016223D01*
X131799500Y-88016228D01*
X131799500Y-88183771D01*
X131799500Y-88183773D01*
X131799499Y-88183773D01*
X131832178Y-88348056D01*
X131832184Y-88348083D01*
X131896291Y-88502853D01*
X131896298Y-88502866D01*
X131987432Y-88639256D01*
X131998463Y-88659674D01*
X132005878Y-88677133D01*
X132013966Y-88746533D01*
X132013966Y-88746536D01*
X132012695Y-88753958D01*
X131990826Y-88805144D01*
X131991066Y-88805305D01*
X131990212Y-88806583D01*
X131990089Y-88806871D01*
X131989385Y-88807820D01*
X131896298Y-88947133D01*
X131896291Y-88947145D01*
X131832184Y-89101915D01*
X131832178Y-89101942D01*
X131799500Y-89266225D01*
X131799500Y-89266228D01*
X131799500Y-89433771D01*
X131799500Y-89433773D01*
X131799499Y-89433773D01*
X131832178Y-89598056D01*
X131832184Y-89598083D01*
X131896291Y-89752853D01*
X131896298Y-89752866D01*
X131987432Y-89889256D01*
X131998463Y-89909674D01*
X132005878Y-89927133D01*
X132013966Y-89996533D01*
X132013966Y-89996536D01*
X132012695Y-90003958D01*
X131990826Y-90055144D01*
X131991066Y-90055305D01*
X131990212Y-90056583D01*
X131990089Y-90056871D01*
X131989385Y-90057820D01*
X131896298Y-90197133D01*
X131896291Y-90197145D01*
X131832184Y-90351915D01*
X131832178Y-90351942D01*
X131799500Y-90516225D01*
X131799500Y-90516228D01*
X131799500Y-90683771D01*
X131799500Y-90683773D01*
X131799499Y-90683773D01*
X131832178Y-90848056D01*
X131832184Y-90848083D01*
X131896292Y-91002856D01*
X131989374Y-91142164D01*
X132107833Y-91260623D01*
X132107837Y-91260626D01*
X132200492Y-91322536D01*
X132200494Y-91322538D01*
X132247134Y-91353701D01*
X132247137Y-91353703D01*
X132401918Y-91417816D01*
X132532535Y-91443797D01*
X132554077Y-91448082D01*
X132563257Y-91449908D01*
X132565492Y-91450409D01*
X132566230Y-91450500D01*
X132733768Y-91450500D01*
X132737889Y-91450500D01*
X132745742Y-91448117D01*
X132898082Y-91417816D01*
X133052863Y-91353703D01*
X133192162Y-91260626D01*
X133310626Y-91142162D01*
X133403703Y-91002863D01*
X133467816Y-90848082D01*
X133500500Y-90683767D01*
X133500500Y-90516233D01*
X133467816Y-90351918D01*
X133403703Y-90197137D01*
X133312565Y-90060741D01*
X133301542Y-90040337D01*
X133294121Y-90022867D01*
X133292945Y-90012780D01*
X133286029Y-89953481D01*
X133287269Y-89946236D01*
X133309100Y-89898468D01*
X133307242Y-89897227D01*
X133331568Y-89860819D01*
X133403703Y-89752863D01*
X133467816Y-89598082D01*
X133500500Y-89433767D01*
X133500500Y-89266233D01*
X133467816Y-89101918D01*
X133411887Y-88966895D01*
X133403704Y-88947139D01*
X133311490Y-88809132D01*
X133310462Y-88807483D01*
X133310094Y-88806166D01*
X133301540Y-88790333D01*
X133294122Y-88772869D01*
X133286029Y-88703481D01*
X133287269Y-88696236D01*
X133309100Y-88648468D01*
X133307242Y-88647227D01*
X133331568Y-88610819D01*
X133403703Y-88502863D01*
X133467816Y-88348082D01*
X133500500Y-88183767D01*
X133500500Y-88016233D01*
X133500341Y-88015438D01*
X133480497Y-87915671D01*
X133478609Y-87880440D01*
X133479847Y-87866607D01*
X133486375Y-87850016D01*
X133486727Y-87846084D01*
X133489148Y-87842966D01*
X133505428Y-87801592D01*
X133562097Y-87760727D01*
X133572493Y-87757059D01*
X133613736Y-87750000D01*
X134111321Y-87750000D01*
X134146256Y-87755023D01*
X134178061Y-87764362D01*
X134212014Y-87780236D01*
X134247128Y-87803697D01*
X134247134Y-87803701D01*
X134247137Y-87803703D01*
X134401918Y-87867816D01*
X134521726Y-87891647D01*
X134563257Y-87899908D01*
X134565492Y-87900409D01*
X134566230Y-87900500D01*
X134733768Y-87900500D01*
X134737889Y-87900500D01*
X134745742Y-87898117D01*
X134898082Y-87867816D01*
X135052863Y-87803703D01*
X135076724Y-87787759D01*
X135087143Y-87780797D01*
X135118970Y-87765572D01*
X135150611Y-87755665D01*
X135187662Y-87750000D01*
X137358170Y-87750000D01*
X137393106Y-87755023D01*
X137408104Y-87759427D01*
X137423094Y-87769057D01*
X137440175Y-87774067D01*
X137466855Y-87797172D01*
X137468042Y-87798541D01*
X137495518Y-87853402D01*
X137497163Y-87860960D01*
X137500000Y-87887331D01*
X137500000Y-99613641D01*
X137494975Y-99648582D01*
X137491064Y-99661899D01*
X137481426Y-99676894D01*
X137476404Y-99693998D01*
X137462927Y-99705675D01*
X137453287Y-99720675D01*
X137437071Y-99728079D01*
X137423600Y-99739753D01*
X137389736Y-99749696D01*
X137378837Y-99751263D01*
X137337001Y-99750143D01*
X137333768Y-99749500D01*
X137333767Y-99749500D01*
X137166233Y-99749500D01*
X137166228Y-99749500D01*
X137166226Y-99749500D01*
X137001942Y-99782178D01*
X137001915Y-99782184D01*
X136847142Y-99846292D01*
X136707834Y-99939374D01*
X136589374Y-100057834D01*
X136496292Y-100197142D01*
X136432184Y-100351915D01*
X136432178Y-100351942D01*
X136399500Y-100516225D01*
X136399500Y-100516228D01*
X136399500Y-100683771D01*
X136399500Y-100683773D01*
X136399499Y-100683773D01*
X136432178Y-100848056D01*
X136432184Y-100848083D01*
X136496292Y-101002856D01*
X136589374Y-101142164D01*
X136707834Y-101260624D01*
X136707837Y-101260626D01*
X136782668Y-101310626D01*
X136847137Y-101353703D01*
X137001918Y-101417816D01*
X137148190Y-101446911D01*
X137163257Y-101449908D01*
X137165492Y-101450409D01*
X137166230Y-101450500D01*
X137333767Y-101450500D01*
X137333768Y-101450500D01*
X137334305Y-101450393D01*
X137334317Y-101450392D01*
X137334322Y-101450389D01*
X137334331Y-101450387D01*
X137335607Y-101450319D01*
X137339836Y-101449903D01*
X137339854Y-101450091D01*
X137369569Y-101448500D01*
X137373576Y-101448858D01*
X137383391Y-101449737D01*
X137448409Y-101475319D01*
X137489272Y-101531986D01*
X137492935Y-101542368D01*
X137500000Y-101583625D01*
X137500000Y-106363641D01*
X137494975Y-106398582D01*
X137491064Y-106411899D01*
X137481426Y-106426894D01*
X137476404Y-106443998D01*
X137462927Y-106455675D01*
X137453287Y-106470675D01*
X137437071Y-106478079D01*
X137423600Y-106489753D01*
X137389736Y-106499696D01*
X137378837Y-106501263D01*
X137337001Y-106500143D01*
X137333768Y-106499500D01*
X137333767Y-106499500D01*
X137166233Y-106499500D01*
X137166228Y-106499500D01*
X137166226Y-106499500D01*
X137001942Y-106532178D01*
X137001915Y-106532184D01*
X136847142Y-106596292D01*
X136707834Y-106689374D01*
X136589374Y-106807834D01*
X136496295Y-106947139D01*
X136496293Y-106947140D01*
X136432184Y-107101915D01*
X136432178Y-107101942D01*
X136399500Y-107266225D01*
X136399500Y-107266228D01*
X136399500Y-107433771D01*
X136399500Y-107433773D01*
X136399499Y-107433773D01*
X136432178Y-107598056D01*
X136432184Y-107598083D01*
X136496292Y-107752856D01*
X136589374Y-107892164D01*
X136707833Y-108010623D01*
X136707837Y-108010626D01*
X136800492Y-108072536D01*
X136800494Y-108072538D01*
X136839302Y-108098468D01*
X136847137Y-108103703D01*
X137001918Y-108167816D01*
X137148190Y-108196911D01*
X137163257Y-108199908D01*
X137165492Y-108200409D01*
X137166230Y-108200500D01*
X137333767Y-108200500D01*
X137333768Y-108200500D01*
X137334305Y-108200393D01*
X137334317Y-108200392D01*
X137334322Y-108200389D01*
X137334331Y-108200387D01*
X137335607Y-108200319D01*
X137339836Y-108199903D01*
X137339854Y-108200091D01*
X137369569Y-108198500D01*
X137373576Y-108198858D01*
X137383391Y-108199737D01*
X137448409Y-108225319D01*
X137489272Y-108281986D01*
X137492935Y-108292368D01*
X137500000Y-108333625D01*
X137500000Y-115843683D01*
X137494976Y-115878620D01*
X137489064Y-115898753D01*
X137481750Y-115911206D01*
X137479448Y-115922266D01*
X137458552Y-115950707D01*
X137453843Y-115955501D01*
X137434274Y-115971708D01*
X137407839Y-115989371D01*
X137407820Y-115989388D01*
X137289374Y-116107834D01*
X137196292Y-116247142D01*
X137132184Y-116401915D01*
X137132182Y-116401925D01*
X137099500Y-116566225D01*
X137099500Y-116566228D01*
X137099500Y-116733771D01*
X137099500Y-116733773D01*
X137099499Y-116733773D01*
X137132178Y-116898056D01*
X137132184Y-116898083D01*
X137196292Y-117052856D01*
X137289374Y-117192164D01*
X137407824Y-117310614D01*
X137407829Y-117310618D01*
X137407832Y-117310621D01*
X137407835Y-117310623D01*
X137407838Y-117310626D01*
X137430071Y-117325482D01*
X137456324Y-117349065D01*
X137469778Y-117365164D01*
X137496023Y-117419386D01*
X137497393Y-117425968D01*
X137500000Y-117451255D01*
X137500000Y-124269457D01*
X137499449Y-124273283D01*
X137499602Y-124273287D01*
X137499558Y-124275412D01*
X137497234Y-124288681D01*
X137494973Y-124304405D01*
X137494602Y-124305668D01*
X137494277Y-124305572D01*
X137493055Y-124312554D01*
X137489699Y-124322482D01*
X137480870Y-124335071D01*
X137476536Y-124349826D01*
X137461218Y-124363095D01*
X137449583Y-124379687D01*
X137434572Y-124386178D01*
X137423726Y-124395574D01*
X137389860Y-124405513D01*
X137385864Y-124406087D01*
X137329021Y-124400984D01*
X137328874Y-124400935D01*
X137317720Y-124396280D01*
X137316707Y-124396135D01*
X137316090Y-124395600D01*
X137312060Y-124393919D01*
X137122204Y-124297763D01*
X137120194Y-124296722D01*
X137119782Y-124296504D01*
X137118124Y-124295625D01*
X137116130Y-124294544D01*
X136725677Y-124078104D01*
X136223742Y-123799866D01*
X136221721Y-123798721D01*
X136219742Y-123797575D01*
X136217755Y-123796399D01*
X135344468Y-123268742D01*
X135342555Y-123267562D01*
X135340496Y-123266264D01*
X135338633Y-123265065D01*
X134876762Y-122961885D01*
X134485704Y-122705189D01*
X134483787Y-122703905D01*
X134481858Y-122702586D01*
X134479978Y-122701275D01*
X133648557Y-122109936D01*
X133646702Y-122108590D01*
X133644831Y-122107207D01*
X133643000Y-122105825D01*
X132834230Y-121483838D01*
X132832393Y-121482398D01*
X132830578Y-121480947D01*
X132828797Y-121479495D01*
X132043864Y-120827773D01*
X132042081Y-120826264D01*
X132040334Y-120824757D01*
X132038609Y-120823241D01*
X131278535Y-120142634D01*
X131276814Y-120141063D01*
X131275088Y-120139458D01*
X131273417Y-120137875D01*
X130539322Y-119429385D01*
X130537697Y-119427788D01*
X130536103Y-119426192D01*
X130534455Y-119424511D01*
X129827277Y-118689039D01*
X129825694Y-118687362D01*
X129824109Y-118685651D01*
X129822545Y-118683930D01*
X129143344Y-117922580D01*
X129141865Y-117920890D01*
X129140316Y-117919087D01*
X129138843Y-117917339D01*
X128742758Y-117438485D01*
X128488561Y-117131169D01*
X128487149Y-117129430D01*
X128485605Y-117127491D01*
X128484257Y-117125764D01*
X127929727Y-116401925D01*
X127863736Y-116315785D01*
X127862402Y-116314010D01*
X127860990Y-116312094D01*
X127859700Y-116310309D01*
X127632335Y-115989371D01*
X127269840Y-115477688D01*
X127268529Y-115475800D01*
X127267290Y-115473980D01*
X127266004Y-115472052D01*
X126707675Y-114618020D01*
X126706415Y-114616054D01*
X126705202Y-114614120D01*
X126704000Y-114612163D01*
X126578067Y-114402863D01*
X126386076Y-114083773D01*
X126899499Y-114083773D01*
X126932178Y-114248056D01*
X126932184Y-114248083D01*
X126996292Y-114402856D01*
X127089374Y-114542164D01*
X127207833Y-114660623D01*
X127207837Y-114660626D01*
X127300492Y-114722536D01*
X127300494Y-114722538D01*
X127347134Y-114753701D01*
X127347137Y-114753703D01*
X127501918Y-114817816D01*
X127666228Y-114850499D01*
X127666232Y-114850500D01*
X127666233Y-114850500D01*
X127833768Y-114850500D01*
X127833769Y-114850499D01*
X127998082Y-114817816D01*
X128152863Y-114753703D01*
X128292162Y-114660626D01*
X128410626Y-114542162D01*
X128503703Y-114402863D01*
X128567816Y-114248082D01*
X128600500Y-114083767D01*
X128600500Y-113916233D01*
X128567816Y-113751918D01*
X128503703Y-113597137D01*
X128472537Y-113550494D01*
X128410626Y-113457837D01*
X128410623Y-113457833D01*
X128292164Y-113339374D01*
X128152856Y-113246292D01*
X127998083Y-113182184D01*
X127998056Y-113182178D01*
X127833773Y-113149500D01*
X127833771Y-113149500D01*
X127833767Y-113149500D01*
X127666233Y-113149500D01*
X127666228Y-113149500D01*
X127666226Y-113149500D01*
X127501942Y-113182178D01*
X127501915Y-113182184D01*
X127347142Y-113246292D01*
X127207834Y-113339374D01*
X127089374Y-113457834D01*
X126996292Y-113597142D01*
X126932184Y-113751915D01*
X126932178Y-113751942D01*
X126899500Y-113916225D01*
X126899500Y-113916228D01*
X126899500Y-114083771D01*
X126899500Y-114083773D01*
X126899499Y-114083773D01*
X126386076Y-114083773D01*
X126177945Y-113737860D01*
X126176859Y-113736015D01*
X126175651Y-113733919D01*
X126174577Y-113732017D01*
X126014059Y-113441171D01*
X125681516Y-112838628D01*
X125680468Y-112836687D01*
X125679344Y-112834556D01*
X125678329Y-112832588D01*
X125218995Y-111921444D01*
X125217979Y-111919380D01*
X125217002Y-111917349D01*
X125216042Y-111915303D01*
X124791071Y-110987669D01*
X124790120Y-110985540D01*
X124789204Y-110983437D01*
X124788305Y-110981320D01*
X124398295Y-110038513D01*
X124397479Y-110036486D01*
X124396564Y-110034153D01*
X124395777Y-110032084D01*
X124041276Y-109075437D01*
X124040499Y-109073281D01*
X124039695Y-109070982D01*
X124038984Y-109068883D01*
X123720412Y-108099526D01*
X123719745Y-108097430D01*
X123719043Y-108095150D01*
X123718403Y-108092999D01*
X123712515Y-108072537D01*
X123436279Y-107112505D01*
X123435671Y-107110315D01*
X123435054Y-107108011D01*
X123434486Y-107105805D01*
X123433522Y-107101915D01*
X123395185Y-106947139D01*
X123189153Y-106115355D01*
X123188637Y-106113183D01*
X123188117Y-106110900D01*
X123187645Y-106108732D01*
X123133830Y-105850499D01*
X122979479Y-105109841D01*
X122979035Y-105107603D01*
X122978606Y-105105333D01*
X122978206Y-105103106D01*
X122974925Y-105083773D01*
X132199499Y-105083773D01*
X132232178Y-105248056D01*
X132232184Y-105248083D01*
X132296292Y-105402856D01*
X132389374Y-105542164D01*
X132507833Y-105660623D01*
X132507837Y-105660626D01*
X132600492Y-105722536D01*
X132600494Y-105722538D01*
X132647134Y-105753701D01*
X132647137Y-105753703D01*
X132801918Y-105817816D01*
X132966228Y-105850499D01*
X132966232Y-105850500D01*
X132966233Y-105850500D01*
X133133768Y-105850500D01*
X133133769Y-105850499D01*
X133298082Y-105817816D01*
X133452863Y-105753703D01*
X133592162Y-105660626D01*
X133710626Y-105542162D01*
X133803703Y-105402863D01*
X133867816Y-105248082D01*
X133900500Y-105083767D01*
X133900500Y-104916233D01*
X133867816Y-104751918D01*
X133803703Y-104597137D01*
X133772537Y-104550494D01*
X133710626Y-104457837D01*
X133710623Y-104457833D01*
X133592164Y-104339374D01*
X133452856Y-104246292D01*
X133298083Y-104182184D01*
X133298056Y-104182178D01*
X133133773Y-104149500D01*
X133133771Y-104149500D01*
X133133767Y-104149500D01*
X132966233Y-104149500D01*
X132966228Y-104149500D01*
X132966226Y-104149500D01*
X132801942Y-104182178D01*
X132801915Y-104182184D01*
X132647142Y-104246292D01*
X132507834Y-104339374D01*
X132389374Y-104457834D01*
X132296292Y-104597142D01*
X132232184Y-104751915D01*
X132232178Y-104751942D01*
X132199500Y-104916225D01*
X132199500Y-104916228D01*
X132199500Y-105083771D01*
X132199500Y-105083773D01*
X132199499Y-105083773D01*
X122974925Y-105083773D01*
X122948981Y-104930887D01*
X122918610Y-104751918D01*
X122807491Y-104097133D01*
X122807145Y-104094979D01*
X122806784Y-104092577D01*
X122806478Y-104090403D01*
X122673443Y-103078692D01*
X122673176Y-103076511D01*
X122672909Y-103074140D01*
X122672691Y-103072019D01*
X122577532Y-102056042D01*
X122577338Y-102053717D01*
X122577165Y-102051395D01*
X122577015Y-102049093D01*
X122576957Y-102048054D01*
X122576957Y-102048053D01*
X122549128Y-101551942D01*
X122519871Y-101030354D01*
X122519771Y-101028196D01*
X122519683Y-101025845D01*
X122519620Y-101023587D01*
X122500548Y-100002716D01*
X122500530Y-100001174D01*
X122500521Y-99999548D01*
X122500522Y-99998056D01*
X122500708Y-99969438D01*
X122500726Y-99967948D01*
X122500755Y-99966382D01*
X122500791Y-99964932D01*
X122501564Y-99939374D01*
X122501771Y-99932509D01*
X122520978Y-99296769D01*
X122521046Y-99294964D01*
X122521136Y-99292978D01*
X122521224Y-99291323D01*
X122583717Y-98254900D01*
X122583827Y-98253266D01*
X122583969Y-98251375D01*
X122584108Y-98249689D01*
X122592993Y-98149903D01*
X122691120Y-97047863D01*
X122691277Y-97046226D01*
X122691457Y-97044477D01*
X122691626Y-97042940D01*
X122842160Y-95753825D01*
X122842354Y-95752257D01*
X122842410Y-95751823D01*
X122842584Y-95750492D01*
X122842778Y-95749075D01*
X122849778Y-95700499D01*
X123035222Y-94413416D01*
X123035465Y-94411814D01*
X123035720Y-94410204D01*
X123035974Y-94408661D01*
X123037374Y-94400495D01*
X123053249Y-94307838D01*
X123268546Y-93051276D01*
X123268831Y-93049684D01*
X123269132Y-93048058D01*
X123269409Y-93046611D01*
X123292276Y-92931592D01*
X123538295Y-91694065D01*
X123539058Y-91691992D01*
X123538985Y-91690824D01*
X123551607Y-91657871D01*
X123556568Y-91648974D01*
X123606405Y-91600008D01*
X123674806Y-91585759D01*
X123740048Y-91610749D01*
X123747089Y-91616117D01*
X123775009Y-91645834D01*
X123839374Y-91742164D01*
X123957833Y-91860623D01*
X123957837Y-91860626D01*
X124050492Y-91922536D01*
X124050494Y-91922538D01*
X124097134Y-91953701D01*
X124097137Y-91953703D01*
X124251918Y-92017816D01*
X124416228Y-92050499D01*
X124416232Y-92050500D01*
X124416233Y-92050500D01*
X124583768Y-92050500D01*
X124583769Y-92050499D01*
X124748082Y-92017816D01*
X124902863Y-91953703D01*
X125042162Y-91860626D01*
X125160626Y-91742162D01*
X125253703Y-91602863D01*
X125304116Y-91481154D01*
X125305461Y-91479485D01*
X125305761Y-91477364D01*
X125322126Y-91450802D01*
X125327771Y-91443797D01*
X125342414Y-91433629D01*
X125347957Y-91426752D01*
X125362086Y-91419970D01*
X125385163Y-91403949D01*
X125454988Y-91401455D01*
X125515077Y-91437107D01*
X125544997Y-91493081D01*
X125546175Y-91498065D01*
X125547141Y-91506353D01*
X125548196Y-91508649D01*
X125547764Y-91511700D01*
X125549500Y-91526587D01*
X125549500Y-98461590D01*
X125549499Y-98461664D01*
X125549499Y-98586960D01*
X125543600Y-98607046D01*
X125590423Y-98781786D01*
X125610662Y-98816841D01*
X125610663Y-98816841D01*
X125619358Y-98831901D01*
X125619359Y-98831904D01*
X125619360Y-98831904D01*
X125631422Y-98852796D01*
X125631422Y-98852798D01*
X125669467Y-98918695D01*
X125669477Y-98918711D01*
X125669481Y-98918717D01*
X125669485Y-98918722D01*
X125790314Y-99039551D01*
X125790359Y-99039594D01*
X127196629Y-100445864D01*
X127205949Y-100456300D01*
X127208975Y-100460100D01*
X127219619Y-100475852D01*
X127235108Y-100492917D01*
X127237601Y-100496047D01*
X127245390Y-100515164D01*
X127261787Y-100547032D01*
X127262355Y-100549652D01*
X127263132Y-100553181D01*
X127263204Y-100553504D01*
X127286593Y-100657794D01*
X127293288Y-100684271D01*
X127293642Y-100685527D01*
X127301987Y-100712271D01*
X127344445Y-100836153D01*
X127344459Y-100836192D01*
X127344461Y-100836198D01*
X127348876Y-100848556D01*
X127348882Y-100848571D01*
X127349002Y-100848894D01*
X127349011Y-100848932D01*
X127349147Y-100849313D01*
X127349104Y-100849328D01*
X127356067Y-100878858D01*
X127356287Y-100880904D01*
X127343883Y-100949664D01*
X127343866Y-100949698D01*
X127343055Y-100951317D01*
X127302917Y-100997629D01*
X127296561Y-101002043D01*
X127273283Y-101014755D01*
X127197138Y-101046294D01*
X127197135Y-101046296D01*
X127057841Y-101139369D01*
X127057833Y-101139375D01*
X126939374Y-101257834D01*
X126846292Y-101397142D01*
X126782184Y-101551915D01*
X126782178Y-101551942D01*
X126749500Y-101716225D01*
X126749500Y-101716228D01*
X126749500Y-101883771D01*
X126749500Y-101883773D01*
X126749499Y-101883773D01*
X126782178Y-102048054D01*
X126782184Y-102048083D01*
X126846292Y-102202856D01*
X126939374Y-102342164D01*
X127057833Y-102460623D01*
X127057837Y-102460626D01*
X127150492Y-102522536D01*
X127150494Y-102522538D01*
X127197134Y-102553701D01*
X127197137Y-102553703D01*
X127351918Y-102617816D01*
X127516228Y-102650499D01*
X127516232Y-102650500D01*
X127516233Y-102650500D01*
X127683768Y-102650500D01*
X127683769Y-102650499D01*
X127848082Y-102617816D01*
X128002863Y-102553703D01*
X128142162Y-102460626D01*
X128260626Y-102342162D01*
X128353703Y-102202863D01*
X128373170Y-102155865D01*
X128391177Y-102125514D01*
X128400984Y-102113344D01*
X128458371Y-102073496D01*
X128460147Y-102072905D01*
X128521261Y-102068545D01*
X128528881Y-102069919D01*
X128554318Y-102077388D01*
X128583310Y-102089396D01*
X128651918Y-102117816D01*
X128816228Y-102150499D01*
X128816232Y-102150500D01*
X128816233Y-102150500D01*
X128983768Y-102150500D01*
X128983769Y-102150499D01*
X129148082Y-102117816D01*
X129302863Y-102053703D01*
X129442162Y-101960626D01*
X129560626Y-101842162D01*
X129653703Y-101702863D01*
X129717816Y-101548082D01*
X129750500Y-101383767D01*
X129750500Y-101216233D01*
X129717816Y-101051918D01*
X129703784Y-101018043D01*
X129702751Y-101014413D01*
X129666398Y-100922205D01*
X129654367Y-100898739D01*
X129653707Y-100897145D01*
X129650815Y-100891735D01*
X129650903Y-100891687D01*
X129649749Y-100889731D01*
X129589865Y-100772919D01*
X129589843Y-100772877D01*
X129583144Y-100760253D01*
X129582869Y-100759752D01*
X129576800Y-100749008D01*
X129576474Y-100748447D01*
X129569641Y-100737036D01*
X129569319Y-100736514D01*
X129562246Y-100725375D01*
X129527245Y-100671816D01*
X129526687Y-100670952D01*
X129526335Y-100670402D01*
X129506993Y-100611227D01*
X129505340Y-100584675D01*
X129501943Y-100562604D01*
X129500500Y-100543741D01*
X129500500Y-99570946D01*
X129500500Y-99570943D01*
X129479419Y-99492265D01*
X129459577Y-99418215D01*
X129395370Y-99307006D01*
X129385707Y-99290268D01*
X129381589Y-99273298D01*
X129377394Y-99265938D01*
X129377295Y-99265895D01*
X129357453Y-99252376D01*
X129349399Y-99249079D01*
X129346465Y-99244890D01*
X129339130Y-99239893D01*
X129264397Y-99165160D01*
X129264396Y-99165159D01*
X129263424Y-99164187D01*
X129263334Y-99164099D01*
X128733508Y-98634273D01*
X129349499Y-98634273D01*
X129382178Y-98798556D01*
X129382182Y-98798574D01*
X129382184Y-98798582D01*
X129446296Y-98953361D01*
X129446298Y-98953365D01*
X129529707Y-99078197D01*
X129534991Y-99094443D01*
X129544098Y-99107446D01*
X129544942Y-99110042D01*
X129545406Y-99111525D01*
X129548461Y-99112114D01*
X129552652Y-99114274D01*
X129580966Y-99134945D01*
X129582404Y-99135707D01*
X129582679Y-99136196D01*
X129583523Y-99136812D01*
X129657836Y-99211125D01*
X129715410Y-99249595D01*
X129797130Y-99304199D01*
X129797134Y-99304201D01*
X129797137Y-99304203D01*
X129951918Y-99368316D01*
X130116228Y-99400999D01*
X130116232Y-99401000D01*
X130116233Y-99401000D01*
X130283768Y-99401000D01*
X130283769Y-99400999D01*
X130448082Y-99368316D01*
X130602863Y-99304203D01*
X130742162Y-99211126D01*
X130860626Y-99092662D01*
X130953703Y-98953363D01*
X131017816Y-98798582D01*
X131050500Y-98634267D01*
X131050500Y-98466733D01*
X131017816Y-98302418D01*
X130953703Y-98147637D01*
X130920586Y-98098074D01*
X130860626Y-98008337D01*
X130860623Y-98008333D01*
X130786063Y-97933773D01*
X135449499Y-97933773D01*
X135482178Y-98098056D01*
X135482184Y-98098083D01*
X135546292Y-98252856D01*
X135639374Y-98392164D01*
X135757833Y-98510623D01*
X135757837Y-98510626D01*
X135850492Y-98572536D01*
X135850494Y-98572538D01*
X135872079Y-98586960D01*
X135897137Y-98603703D01*
X136051918Y-98667816D01*
X136216228Y-98700499D01*
X136216232Y-98700500D01*
X136216233Y-98700500D01*
X136383768Y-98700500D01*
X136383769Y-98700499D01*
X136548082Y-98667816D01*
X136702863Y-98603703D01*
X136842162Y-98510626D01*
X136960626Y-98392162D01*
X137053703Y-98252863D01*
X137117816Y-98098082D01*
X137150500Y-97933767D01*
X137150500Y-97766233D01*
X137117816Y-97601918D01*
X137053703Y-97447137D01*
X137022537Y-97400494D01*
X136960626Y-97307837D01*
X136960623Y-97307833D01*
X136842164Y-97189374D01*
X136702856Y-97096292D01*
X136548083Y-97032184D01*
X136548056Y-97032178D01*
X136383773Y-96999500D01*
X136383771Y-96999500D01*
X136383767Y-96999500D01*
X136216233Y-96999500D01*
X136216228Y-96999500D01*
X136216226Y-96999500D01*
X136051942Y-97032178D01*
X136051915Y-97032184D01*
X135897142Y-97096292D01*
X135757834Y-97189374D01*
X135639374Y-97307834D01*
X135546292Y-97447142D01*
X135482184Y-97601915D01*
X135482178Y-97601942D01*
X135449500Y-97766225D01*
X135449500Y-97766228D01*
X135449500Y-97933771D01*
X135449500Y-97933773D01*
X135449499Y-97933773D01*
X130786063Y-97933773D01*
X130742169Y-97889879D01*
X130742151Y-97889865D01*
X130742138Y-97889856D01*
X130702301Y-97863239D01*
X130702206Y-97863176D01*
X130701970Y-97863018D01*
X130701922Y-97862985D01*
X130602866Y-97796798D01*
X130602853Y-97796791D01*
X130448083Y-97732684D01*
X130448056Y-97732678D01*
X130283773Y-97700000D01*
X130283771Y-97700000D01*
X130283767Y-97700000D01*
X130116233Y-97700000D01*
X130116228Y-97700000D01*
X130116226Y-97700000D01*
X129951942Y-97732678D01*
X129951915Y-97732684D01*
X129797142Y-97796792D01*
X129657834Y-97889874D01*
X129539374Y-98008334D01*
X129446292Y-98147642D01*
X129382184Y-98302415D01*
X129382178Y-98302442D01*
X129349500Y-98466725D01*
X129349500Y-98466728D01*
X129349500Y-98634271D01*
X129349500Y-98634273D01*
X129349499Y-98634273D01*
X128733508Y-98634273D01*
X128349426Y-98250191D01*
X128349421Y-98250186D01*
X128328274Y-98221935D01*
X128315667Y-98198846D01*
X128300500Y-98139421D01*
X128300500Y-96433773D01*
X132799499Y-96433773D01*
X132832178Y-96598056D01*
X132832184Y-96598083D01*
X132896292Y-96752856D01*
X132989374Y-96892164D01*
X133107833Y-97010623D01*
X133107837Y-97010626D01*
X133200492Y-97072536D01*
X133200494Y-97072538D01*
X133236050Y-97096295D01*
X133247137Y-97103703D01*
X133401918Y-97167816D01*
X133566228Y-97200499D01*
X133566232Y-97200500D01*
X133566233Y-97200500D01*
X133733768Y-97200500D01*
X133733769Y-97200499D01*
X133898082Y-97167816D01*
X134052863Y-97103703D01*
X134192162Y-97010626D01*
X134310626Y-96892162D01*
X134403703Y-96752863D01*
X134467816Y-96598082D01*
X134500500Y-96433767D01*
X134500500Y-96266233D01*
X134467816Y-96101918D01*
X134403703Y-95947137D01*
X134372537Y-95900494D01*
X134310626Y-95807837D01*
X134310623Y-95807833D01*
X134192164Y-95689374D01*
X134052856Y-95596292D01*
X133898083Y-95532184D01*
X133898056Y-95532178D01*
X133733773Y-95499500D01*
X133733771Y-95499500D01*
X133733767Y-95499500D01*
X133566233Y-95499500D01*
X133566228Y-95499500D01*
X133566226Y-95499500D01*
X133401942Y-95532178D01*
X133401915Y-95532184D01*
X133247142Y-95596292D01*
X133107834Y-95689374D01*
X132989374Y-95807834D01*
X132896292Y-95947142D01*
X132832184Y-96101915D01*
X132832178Y-96101942D01*
X132799500Y-96266225D01*
X132799500Y-96266228D01*
X132799500Y-96433771D01*
X132799500Y-96433773D01*
X132799499Y-96433773D01*
X128300500Y-96433773D01*
X128300500Y-94933773D01*
X129399499Y-94933773D01*
X129432178Y-95098056D01*
X129432184Y-95098083D01*
X129496292Y-95252856D01*
X129589374Y-95392164D01*
X129707834Y-95510624D01*
X129769442Y-95551789D01*
X129769441Y-95551789D01*
X129836050Y-95596295D01*
X129847137Y-95603703D01*
X130001918Y-95667816D01*
X130166228Y-95700499D01*
X130166232Y-95700500D01*
X130166233Y-95700500D01*
X130333768Y-95700500D01*
X130333769Y-95700499D01*
X130498082Y-95667816D01*
X130652863Y-95603703D01*
X130792162Y-95510626D01*
X130910626Y-95392162D01*
X131003703Y-95252863D01*
X131067816Y-95098082D01*
X131100500Y-94933767D01*
X131100500Y-94766233D01*
X131067816Y-94601918D01*
X131003703Y-94447137D01*
X130972537Y-94400494D01*
X130910626Y-94307837D01*
X130910623Y-94307833D01*
X130792164Y-94189374D01*
X130652856Y-94096292D01*
X130498083Y-94032184D01*
X130498056Y-94032178D01*
X130333773Y-93999500D01*
X130333771Y-93999500D01*
X130333767Y-93999500D01*
X130166233Y-93999500D01*
X130166228Y-93999500D01*
X130166226Y-93999500D01*
X130001942Y-94032178D01*
X130001915Y-94032184D01*
X129847142Y-94096292D01*
X129707834Y-94189374D01*
X129589374Y-94307834D01*
X129496292Y-94447142D01*
X129432184Y-94601915D01*
X129432178Y-94601942D01*
X129399500Y-94766225D01*
X129399500Y-94766228D01*
X129399500Y-94933771D01*
X129399500Y-94933773D01*
X129399499Y-94933773D01*
X128300500Y-94933773D01*
X128300500Y-87891829D01*
X128302863Y-87875397D01*
X128305523Y-87856893D01*
X128307543Y-87850016D01*
X128309927Y-87841894D01*
X128347672Y-87783144D01*
X128347700Y-87783119D01*
X128347699Y-87783119D01*
X128349041Y-87781956D01*
X128403920Y-87754477D01*
X128411479Y-87752833D01*
X128437832Y-87750000D01*
X131683532Y-87750000D01*
X131718464Y-87755021D01*
G37*
%TD.AperFunction*%
%TD*%
%TA.AperFunction,Conductor*%
%TO.N,VBUS*%
G36*
X140697626Y-72306513D02*
G01*
X140739499Y-72362445D01*
X140739501Y-72362449D01*
X140742182Y-72369637D01*
X140750000Y-72412971D01*
X140750000Y-78428735D01*
X140749999Y-78428741D01*
X140750000Y-78428744D01*
X140744975Y-78463679D01*
X140740570Y-78478677D01*
X140702802Y-78537442D01*
X140702791Y-78537450D01*
X140702791Y-78537452D01*
X140702789Y-78537452D01*
X140696101Y-78543249D01*
X140646989Y-78569314D01*
X140570038Y-78589934D01*
X140568334Y-78590363D01*
X140568217Y-78590422D01*
X140568191Y-78590435D01*
X140431298Y-78669470D01*
X140431280Y-78669482D01*
X140319478Y-78781286D01*
X140319477Y-78781286D01*
X139241455Y-79859307D01*
X139235531Y-79864856D01*
X139230273Y-79869466D01*
X139210060Y-79883514D01*
X139143014Y-79945988D01*
X139141580Y-79947246D01*
X139141242Y-79947402D01*
X139136461Y-79951497D01*
X139101707Y-79978820D01*
X139093425Y-79984797D01*
X139063471Y-80004587D01*
X139041002Y-80019433D01*
X139040990Y-80019441D01*
X139040988Y-80019441D01*
X138991379Y-80052220D01*
X138987494Y-80055460D01*
X138914119Y-80105209D01*
X138887333Y-80124681D01*
X138886133Y-80125614D01*
X138860913Y-80146590D01*
X138723734Y-80268427D01*
X138697389Y-80299279D01*
X138690775Y-80306434D01*
X138639372Y-80357837D01*
X138546293Y-80497141D01*
X138482184Y-80651915D01*
X138482178Y-80651942D01*
X138449500Y-80816225D01*
X138449500Y-80983772D01*
X138450046Y-80989318D01*
X138450149Y-81012527D01*
X138448739Y-81028275D01*
X138423154Y-81093292D01*
X138418648Y-81099092D01*
X138368182Y-81137577D01*
X138347145Y-81146291D01*
X138347141Y-81146293D01*
X138347140Y-81146294D01*
X138347139Y-81146295D01*
X138336981Y-81153082D01*
X138336967Y-81153090D01*
X138207841Y-81239369D01*
X138207833Y-81239375D01*
X138089374Y-81357834D01*
X137996292Y-81497142D01*
X137932184Y-81651915D01*
X137932178Y-81651942D01*
X137899500Y-81816225D01*
X137899500Y-81816228D01*
X137899500Y-81983771D01*
X137899500Y-81983773D01*
X137899499Y-81983773D01*
X137932178Y-82148056D01*
X137932184Y-82148083D01*
X137996292Y-82302856D01*
X138020133Y-82338536D01*
X138089373Y-82442162D01*
X138207837Y-82560626D01*
X138219940Y-82568712D01*
X138219944Y-82568717D01*
X138219945Y-82568716D01*
X138347130Y-82653699D01*
X138347134Y-82653701D01*
X138347137Y-82653703D01*
X138501918Y-82717816D01*
X138666228Y-82750499D01*
X138666232Y-82750500D01*
X138666233Y-82750500D01*
X138833768Y-82750500D01*
X138833769Y-82750499D01*
X138998082Y-82717816D01*
X139025626Y-82706406D01*
X139031962Y-82703781D01*
X139035500Y-82702776D01*
X139127814Y-82666389D01*
X139130449Y-82665038D01*
X139130448Y-82665037D01*
X139151264Y-82654365D01*
X139152863Y-82653703D01*
X139152867Y-82653699D01*
X139158248Y-82650823D01*
X139158297Y-82650916D01*
X139160265Y-82649749D01*
X139277109Y-82589849D01*
X139289213Y-82583435D01*
X139289730Y-82583152D01*
X139300990Y-82576800D01*
X139301551Y-82576474D01*
X139312962Y-82569641D01*
X139313484Y-82569319D01*
X139324621Y-82562247D01*
X139378261Y-82527192D01*
X139378918Y-82526768D01*
X139379689Y-82526275D01*
X139438766Y-82506993D01*
X139445794Y-82506555D01*
X139465328Y-82505339D01*
X139465334Y-82505338D01*
X139465335Y-82505338D01*
X139487393Y-82501942D01*
X139506256Y-82500500D01*
X139511380Y-82500500D01*
X139511443Y-82500501D01*
X139513347Y-82500501D01*
X139520943Y-82500501D01*
X139679054Y-82500501D01*
X139679057Y-82500501D01*
X139831785Y-82459577D01*
X139881904Y-82430639D01*
X139968716Y-82380520D01*
X140035213Y-82314021D01*
X140042152Y-82308796D01*
X140052610Y-82304860D01*
X140072191Y-82292129D01*
X140075400Y-82290895D01*
X140075406Y-82290891D01*
X140078010Y-82289889D01*
X140096410Y-82288377D01*
X140107544Y-82284188D01*
X140118586Y-82286556D01*
X140147645Y-82284170D01*
X140174755Y-82298604D01*
X140175860Y-82298841D01*
X140176620Y-82299597D01*
X140209318Y-82317006D01*
X140238744Y-82362262D01*
X140241678Y-82370126D01*
X140249500Y-82413471D01*
X140249500Y-82434108D01*
X140249501Y-116434107D01*
X140249501Y-116499999D01*
X140249501Y-116651251D01*
X140285964Y-116951550D01*
X140328201Y-117122914D01*
X140358359Y-117245270D01*
X140442761Y-117467817D01*
X140465628Y-117528112D01*
X140465630Y-117528116D01*
X140465631Y-117528118D01*
X140606208Y-117795968D01*
X140606803Y-117796959D01*
X140608280Y-117798970D01*
X140717923Y-117957814D01*
X140733634Y-117989416D01*
X140743761Y-118020122D01*
X140750000Y-118058960D01*
X140750000Y-118500000D01*
X141189246Y-118500000D01*
X141224181Y-118505023D01*
X141255210Y-118514134D01*
X141290714Y-118531060D01*
X141454033Y-118643792D01*
X141721888Y-118784372D01*
X141917784Y-118858665D01*
X141998874Y-118889419D01*
X141999813Y-118889831D01*
X142004187Y-118891441D01*
X142005330Y-118891868D01*
X142005427Y-118891905D01*
X142008316Y-118892524D01*
X142298450Y-118964036D01*
X142549660Y-118994537D01*
X142549661Y-118994538D01*
X142559479Y-118995730D01*
X142598747Y-119000499D01*
X142598749Y-119000499D01*
X157401250Y-119000499D01*
X157401253Y-119000499D01*
X157446629Y-118994989D01*
X157701550Y-118964036D01*
X157995265Y-118891642D01*
X158278112Y-118784372D01*
X158545967Y-118643792D01*
X158626929Y-118587907D01*
X158639259Y-118583840D01*
X158649328Y-118575641D01*
X158671802Y-118573107D01*
X158693283Y-118566023D01*
X158705855Y-118569268D01*
X158718758Y-118567814D01*
X158739036Y-118577834D01*
X158760935Y-118583488D01*
X158771200Y-118593728D01*
X158781397Y-118598767D01*
X158796910Y-118619376D01*
X158803685Y-118626134D01*
X158806121Y-118630192D01*
X158829964Y-118677804D01*
X158876369Y-118747212D01*
X158877920Y-118749795D01*
X158880510Y-118759730D01*
X158884111Y-118763952D01*
X158912639Y-118827733D01*
X158902156Y-118896812D01*
X158855990Y-118949257D01*
X158837220Y-118958982D01*
X158747140Y-118996294D01*
X158607834Y-119089374D01*
X158489374Y-119207834D01*
X158396292Y-119347142D01*
X158332184Y-119501915D01*
X158332178Y-119501942D01*
X158299500Y-119666225D01*
X158299500Y-119666228D01*
X158299500Y-119833771D01*
X158299500Y-119833773D01*
X158299499Y-119833773D01*
X158332178Y-119998056D01*
X158332184Y-119998083D01*
X158396292Y-120152856D01*
X158396295Y-120152860D01*
X158489373Y-120292162D01*
X158607837Y-120410626D01*
X158616218Y-120416225D01*
X158616226Y-120416236D01*
X158616229Y-120416233D01*
X158747130Y-120503699D01*
X158747134Y-120503701D01*
X158747137Y-120503703D01*
X158901918Y-120567816D01*
X159066228Y-120600499D01*
X159066232Y-120600500D01*
X159066233Y-120600500D01*
X159233768Y-120600500D01*
X159233769Y-120600499D01*
X159398082Y-120567816D01*
X159552863Y-120503703D01*
X159692162Y-120410626D01*
X159703983Y-120398805D01*
X159782819Y-120319970D01*
X159844142Y-120286485D01*
X159913834Y-120291469D01*
X159969767Y-120333341D01*
X159994184Y-120398805D01*
X159994500Y-120407651D01*
X159994500Y-122312221D01*
X159974815Y-122379260D01*
X159922011Y-122425015D01*
X159906211Y-122430546D01*
X159906277Y-122430744D01*
X159901920Y-122432182D01*
X159747142Y-122496292D01*
X159607834Y-122589374D01*
X159489374Y-122707834D01*
X159396292Y-122847142D01*
X159332184Y-123001915D01*
X159332178Y-123001942D01*
X159299500Y-123166225D01*
X159299500Y-123166228D01*
X159299500Y-123333771D01*
X159299500Y-123333773D01*
X159299499Y-123333773D01*
X159332178Y-123498056D01*
X159332184Y-123498083D01*
X159396292Y-123652856D01*
X159489374Y-123792164D01*
X159607834Y-123910624D01*
X159607837Y-123910626D01*
X159682668Y-123960626D01*
X159747137Y-124003703D01*
X159901918Y-124067816D01*
X159901921Y-124067816D01*
X159901922Y-124067817D01*
X159906496Y-124069205D01*
X159964934Y-124107502D01*
X159993391Y-124171315D01*
X159994500Y-124187865D01*
X159994500Y-125215199D01*
X160012592Y-125349223D01*
X160012596Y-125349241D01*
X160030031Y-125412637D01*
X160049506Y-125458374D01*
X160057659Y-125527767D01*
X160027001Y-125590551D01*
X159978721Y-125623147D01*
X159123717Y-125941794D01*
X159121544Y-125942581D01*
X159119354Y-125943351D01*
X159117158Y-125944100D01*
X158148497Y-126264442D01*
X158146291Y-126265149D01*
X158144095Y-126265830D01*
X158141877Y-126266495D01*
X157161938Y-126550434D01*
X157159667Y-126551069D01*
X157157420Y-126551674D01*
X157155219Y-126552245D01*
X156165335Y-126799395D01*
X156163100Y-126799931D01*
X156160879Y-126800442D01*
X156158600Y-126800944D01*
X155472759Y-126945203D01*
X155437542Y-126947478D01*
X155426266Y-126946594D01*
X155360972Y-126921730D01*
X155319485Y-126865511D01*
X155318996Y-126857953D01*
X155314977Y-126795793D01*
X155316197Y-126790364D01*
X155334627Y-126747846D01*
X155356042Y-126716339D01*
X155358066Y-126712474D01*
X155447481Y-126578657D01*
X155447481Y-126578656D01*
X155447485Y-126578651D01*
X155447488Y-126578642D01*
X155448165Y-126577630D01*
X155449801Y-126573057D01*
X155526380Y-126388182D01*
X155566600Y-126185981D01*
X155566600Y-125014619D01*
X155526380Y-124812418D01*
X155447485Y-124621949D01*
X155447484Y-124621948D01*
X155447481Y-124621942D01*
X155447481Y-124621941D01*
X155332945Y-124450528D01*
X155332944Y-124450527D01*
X155332939Y-124450521D01*
X155187177Y-124304759D01*
X155187171Y-124304754D01*
X155187170Y-124304753D01*
X155015751Y-124190214D01*
X155015752Y-124190214D01*
X155015742Y-124190209D01*
X154842330Y-124118381D01*
X154811978Y-124100373D01*
X154803171Y-124093275D01*
X154763322Y-124035886D01*
X154760827Y-123966061D01*
X154796476Y-123905973D01*
X154802102Y-123900735D01*
X154839137Y-123876936D01*
X154996188Y-123811885D01*
X155160841Y-123701867D01*
X155300867Y-123561841D01*
X155410885Y-123397188D01*
X155486667Y-123214235D01*
X155525300Y-123020013D01*
X155525300Y-122180587D01*
X155525299Y-122180584D01*
X155525299Y-122180582D01*
X155486846Y-121987265D01*
X155486667Y-121986365D01*
X155410885Y-121803412D01*
X155410884Y-121803411D01*
X155410883Y-121803409D01*
X155410883Y-121803408D01*
X155300865Y-121638756D01*
X155300864Y-121638755D01*
X155300859Y-121638749D01*
X155160849Y-121498739D01*
X155160843Y-121498734D01*
X155160842Y-121498733D01*
X154996188Y-121388714D01*
X154996189Y-121388714D01*
X154996179Y-121388709D01*
X154813236Y-121312933D01*
X154813209Y-121312927D01*
X154619019Y-121274300D01*
X154619017Y-121274300D01*
X154619013Y-121274300D01*
X154420987Y-121274300D01*
X154420982Y-121274300D01*
X154420980Y-121274300D01*
X154226789Y-121312927D01*
X154226762Y-121312933D01*
X154043819Y-121388709D01*
X154043809Y-121388714D01*
X153879156Y-121498733D01*
X153879155Y-121498734D01*
X153879149Y-121498739D01*
X153739139Y-121638749D01*
X153739134Y-121638755D01*
X153739133Y-121638756D01*
X153629114Y-121803409D01*
X153629109Y-121803419D01*
X153553333Y-121986362D01*
X153553327Y-121986389D01*
X153514700Y-122180579D01*
X153514700Y-122816565D01*
X153514699Y-122816569D01*
X153514700Y-122816572D01*
X153509675Y-122851506D01*
X153505764Y-122864823D01*
X153467987Y-122923599D01*
X153404434Y-122952620D01*
X153404429Y-122952620D01*
X153404429Y-122952621D01*
X153404428Y-122952620D01*
X153393534Y-122954187D01*
X153351698Y-122953066D01*
X153333771Y-122949500D01*
X153333767Y-122949500D01*
X153166233Y-122949500D01*
X153166228Y-122949500D01*
X153166226Y-122949500D01*
X153001942Y-122982178D01*
X153001915Y-122982184D01*
X152847142Y-123046292D01*
X152707834Y-123139374D01*
X152589374Y-123257834D01*
X152496292Y-123397142D01*
X152432184Y-123551915D01*
X152432178Y-123551942D01*
X152399500Y-123716225D01*
X152399500Y-123716228D01*
X152399500Y-123883771D01*
X152399500Y-123883773D01*
X152399499Y-123883773D01*
X152432178Y-124048056D01*
X152432184Y-124048083D01*
X152496292Y-124202856D01*
X152589374Y-124342164D01*
X152707833Y-124460623D01*
X152707838Y-124460627D01*
X152711134Y-124462829D01*
X152800492Y-124522536D01*
X152800494Y-124522538D01*
X152842924Y-124550888D01*
X152847137Y-124553703D01*
X153001918Y-124617816D01*
X153124672Y-124642233D01*
X153136893Y-124644664D01*
X153163257Y-124649908D01*
X153165492Y-124650409D01*
X153166230Y-124650500D01*
X153333768Y-124650500D01*
X153358695Y-124650500D01*
X153365089Y-124647008D01*
X153366563Y-124646915D01*
X153367247Y-124646558D01*
X153402490Y-124644664D01*
X153406632Y-124645034D01*
X153471654Y-124670605D01*
X153512529Y-124727271D01*
X153517822Y-124789459D01*
X153515264Y-124804406D01*
X153513675Y-124812186D01*
X153513615Y-124812437D01*
X153473400Y-125014609D01*
X153473400Y-125014614D01*
X153473400Y-126185985D01*
X153473400Y-126185987D01*
X153473399Y-126185987D01*
X153513614Y-126388156D01*
X153513620Y-126388183D01*
X153592509Y-126578642D01*
X153592514Y-126578652D01*
X153707048Y-126750062D01*
X153707052Y-126750069D01*
X153707055Y-126750072D01*
X153735485Y-126778502D01*
X153749771Y-126797586D01*
X153756635Y-126806755D01*
X153762055Y-126816681D01*
X153776907Y-126884954D01*
X153752490Y-126950418D01*
X153696557Y-126992290D01*
X153689369Y-126994971D01*
X153646035Y-127002789D01*
X146357420Y-127002789D01*
X146322485Y-126997766D01*
X146311631Y-126994579D01*
X146296631Y-126984939D01*
X146279524Y-126979916D01*
X146267850Y-126966443D01*
X146252853Y-126956805D01*
X146245445Y-126940585D01*
X146233771Y-126927111D01*
X146231234Y-126909466D01*
X146223828Y-126893249D01*
X146226365Y-126875601D01*
X146223828Y-126857953D01*
X146233771Y-126824093D01*
X146236961Y-126817108D01*
X146262069Y-126780947D01*
X146292944Y-126750072D01*
X146292947Y-126750069D01*
X146407485Y-126578651D01*
X146486380Y-126388182D01*
X146526600Y-126185981D01*
X146526600Y-125014619D01*
X146486380Y-124812418D01*
X146470168Y-124773281D01*
X146461441Y-124739089D01*
X146459985Y-124725549D01*
X146472389Y-124656789D01*
X146519998Y-124605651D01*
X146579953Y-124588336D01*
X146588221Y-124588114D01*
X146615722Y-124590452D01*
X146628270Y-124592948D01*
X146654253Y-124598117D01*
X146662109Y-124600500D01*
X146833768Y-124600500D01*
X146837889Y-124600500D01*
X146845742Y-124598117D01*
X146998082Y-124567816D01*
X147152863Y-124503703D01*
X147292162Y-124410626D01*
X147410626Y-124292162D01*
X147503703Y-124152863D01*
X147567816Y-123998082D01*
X147600500Y-123833767D01*
X147600500Y-123666233D01*
X147567816Y-123501918D01*
X147503703Y-123347137D01*
X147444035Y-123257838D01*
X147444035Y-123257837D01*
X147410627Y-123207838D01*
X147410621Y-123207831D01*
X147292164Y-123089374D01*
X147152856Y-122996292D01*
X146998083Y-122932184D01*
X146998056Y-122932178D01*
X146833773Y-122899500D01*
X146833771Y-122899500D01*
X146833767Y-122899500D01*
X146666233Y-122899500D01*
X146666228Y-122899500D01*
X146650977Y-122902533D01*
X146650975Y-122902535D01*
X146615732Y-122904423D01*
X146601910Y-122903186D01*
X146536892Y-122877604D01*
X146496026Y-122820932D01*
X146496024Y-122820927D01*
X146494485Y-122816565D01*
X146492361Y-122810542D01*
X146485300Y-122769295D01*
X146485300Y-122180584D01*
X146485209Y-122179846D01*
X146484708Y-122177611D01*
X146447329Y-121989695D01*
X146446913Y-121987265D01*
X146446668Y-121986370D01*
X146446667Y-121986368D01*
X146446667Y-121986365D01*
X146370885Y-121803412D01*
X146370884Y-121803411D01*
X146370883Y-121803409D01*
X146370883Y-121803408D01*
X146260865Y-121638756D01*
X146260864Y-121638755D01*
X146260859Y-121638749D01*
X146120849Y-121498739D01*
X146120843Y-121498734D01*
X146120842Y-121498733D01*
X145956188Y-121388714D01*
X145956189Y-121388714D01*
X145956179Y-121388709D01*
X145773236Y-121312933D01*
X145773209Y-121312927D01*
X145579019Y-121274300D01*
X145579017Y-121274300D01*
X145579013Y-121274300D01*
X145380987Y-121274300D01*
X145380982Y-121274300D01*
X145380980Y-121274300D01*
X145186789Y-121312927D01*
X145186762Y-121312933D01*
X145003819Y-121388709D01*
X145003809Y-121388714D01*
X144839156Y-121498733D01*
X144839155Y-121498734D01*
X144839149Y-121498739D01*
X144699139Y-121638749D01*
X144699134Y-121638755D01*
X144699133Y-121638756D01*
X144589114Y-121803409D01*
X144589109Y-121803419D01*
X144513333Y-121986362D01*
X144513327Y-121986389D01*
X144474700Y-122180579D01*
X144474700Y-122180582D01*
X144474700Y-123020017D01*
X144474700Y-123020019D01*
X144474699Y-123020019D01*
X144513327Y-123214209D01*
X144513333Y-123214236D01*
X144589109Y-123397179D01*
X144589114Y-123397189D01*
X144699133Y-123561842D01*
X144699134Y-123561843D01*
X144699139Y-123561849D01*
X144839149Y-123701859D01*
X144839155Y-123701864D01*
X144839159Y-123701867D01*
X145003805Y-123811881D01*
X145003811Y-123811884D01*
X145003812Y-123811885D01*
X145158135Y-123875808D01*
X145158665Y-123876033D01*
X145159426Y-123876657D01*
X145188019Y-123893622D01*
X145196823Y-123900716D01*
X145207499Y-123916091D01*
X145212685Y-123920345D01*
X145214628Y-123926357D01*
X145236674Y-123958106D01*
X145239172Y-124027931D01*
X145203522Y-124088022D01*
X145203519Y-124088024D01*
X145197905Y-124093251D01*
X145160861Y-124117059D01*
X144984246Y-124190215D01*
X144984244Y-124190216D01*
X144984234Y-124190222D01*
X144812828Y-124304753D01*
X144812827Y-124304754D01*
X144812821Y-124304759D01*
X144667059Y-124450521D01*
X144667054Y-124450527D01*
X144667053Y-124450528D01*
X144552514Y-124621946D01*
X144552509Y-124621956D01*
X144473620Y-124812415D01*
X144473614Y-124812442D01*
X144433400Y-125014611D01*
X144433400Y-125039469D01*
X144429848Y-125053584D01*
X144430743Y-125065001D01*
X144428376Y-125074407D01*
X144425189Y-125085260D01*
X144419747Y-125093726D01*
X144418634Y-125098153D01*
X144413324Y-125108037D01*
X144405365Y-125116104D01*
X144387414Y-125144037D01*
X144369940Y-125152015D01*
X144364257Y-125157778D01*
X144350606Y-125160844D01*
X144323857Y-125173060D01*
X144307011Y-125170639D01*
X144296087Y-125173094D01*
X144277923Y-125166460D01*
X144254725Y-125163127D01*
X144252600Y-125162156D01*
X144242416Y-125153491D01*
X144230457Y-125149124D01*
X144218001Y-125132719D01*
X144200989Y-125118245D01*
X144160626Y-125057838D01*
X144160623Y-125057834D01*
X144160618Y-125057828D01*
X144042164Y-124939374D01*
X143902856Y-124846292D01*
X143748083Y-124782184D01*
X143748056Y-124782178D01*
X143583773Y-124749500D01*
X143583771Y-124749500D01*
X143583767Y-124749500D01*
X143416233Y-124749500D01*
X143416228Y-124749500D01*
X143416226Y-124749500D01*
X143251942Y-124782178D01*
X143251915Y-124782184D01*
X143097142Y-124846292D01*
X142957834Y-124939374D01*
X142839374Y-125057834D01*
X142746292Y-125197142D01*
X142682184Y-125351915D01*
X142682178Y-125351942D01*
X142649500Y-125516225D01*
X142649500Y-125516228D01*
X142649500Y-125683771D01*
X142649500Y-125683773D01*
X142649499Y-125683773D01*
X142682178Y-125848056D01*
X142682184Y-125848083D01*
X142746292Y-126002856D01*
X142839374Y-126142164D01*
X142957833Y-126260623D01*
X142957838Y-126260627D01*
X142988722Y-126281263D01*
X143050494Y-126322537D01*
X143095313Y-126352484D01*
X143097938Y-126354306D01*
X143102750Y-126356028D01*
X143125245Y-126365346D01*
X143146389Y-126377892D01*
X143155593Y-126383353D01*
X143160466Y-126387280D01*
X143200314Y-126444673D01*
X143202807Y-126514498D01*
X143167154Y-126574587D01*
X143104674Y-126605861D01*
X143052621Y-126604138D01*
X142844794Y-126552249D01*
X142842567Y-126551671D01*
X142840296Y-126551059D01*
X142838051Y-126550431D01*
X142570869Y-126473015D01*
X141858114Y-126266493D01*
X141855910Y-126265832D01*
X141853726Y-126265155D01*
X141851506Y-126264444D01*
X141483372Y-126142700D01*
X140882840Y-125944100D01*
X140880644Y-125943351D01*
X140878454Y-125942581D01*
X140876281Y-125941794D01*
X139920308Y-125585517D01*
X139918167Y-125584697D01*
X139915976Y-125583834D01*
X139913807Y-125582956D01*
X138971749Y-125191201D01*
X138969644Y-125190302D01*
X138967526Y-125189375D01*
X138965447Y-125188442D01*
X138038600Y-124761742D01*
X138036569Y-124760784D01*
X138034384Y-124759727D01*
X138032374Y-124758732D01*
X137982258Y-124733350D01*
X137931346Y-124685500D01*
X137914385Y-124617720D01*
X137925493Y-124571211D01*
X137932743Y-124555341D01*
X137934887Y-124550888D01*
X137968579Y-124484360D01*
X137971935Y-124474432D01*
X137975455Y-124460623D01*
X137977412Y-124452946D01*
X137979610Y-124448137D01*
X137979981Y-124446874D01*
X137985930Y-124419535D01*
X137990986Y-124399703D01*
X137992139Y-124393110D01*
X137992441Y-124391456D01*
X137995142Y-124377199D01*
X137995327Y-124376352D01*
X137996218Y-124370151D01*
X137996813Y-124366419D01*
X137997866Y-124360408D01*
X137997894Y-124360225D01*
X137999543Y-124350802D01*
X137999842Y-124344952D01*
X138000338Y-124341513D01*
X138002578Y-124310235D01*
X138004950Y-124285877D01*
X138004994Y-124283752D01*
X138004786Y-124279422D01*
X138005500Y-124269457D01*
X138005500Y-123216228D01*
X138249500Y-123216228D01*
X138249500Y-123383771D01*
X138253500Y-123403880D01*
X138253500Y-123403881D01*
X138282178Y-123548056D01*
X138282184Y-123548083D01*
X138346292Y-123702856D01*
X138439374Y-123842164D01*
X138557833Y-123960623D01*
X138557837Y-123960626D01*
X138650492Y-124022536D01*
X138650494Y-124022538D01*
X138688726Y-124048083D01*
X138697137Y-124053703D01*
X138851918Y-124117816D01*
X139016228Y-124150499D01*
X139016232Y-124150500D01*
X139016233Y-124150500D01*
X139183768Y-124150500D01*
X139183769Y-124150499D01*
X139348082Y-124117816D01*
X139502863Y-124053703D01*
X139642162Y-123960626D01*
X139760626Y-123842162D01*
X139853703Y-123702863D01*
X139917816Y-123548082D01*
X139950500Y-123383767D01*
X139950500Y-123216233D01*
X139917816Y-123051918D01*
X139855483Y-122901434D01*
X139853704Y-122897139D01*
X139760626Y-122757837D01*
X139760624Y-122757834D01*
X139642164Y-122639374D01*
X139502856Y-122546292D01*
X139348083Y-122482184D01*
X139348056Y-122482178D01*
X139183773Y-122449500D01*
X139183771Y-122449500D01*
X139183767Y-122449500D01*
X139016233Y-122449500D01*
X139016228Y-122449500D01*
X139016226Y-122449500D01*
X138851942Y-122482178D01*
X138851915Y-122482184D01*
X138697142Y-122546292D01*
X138557834Y-122639374D01*
X138439374Y-122757834D01*
X138346292Y-122897142D01*
X138282184Y-123051915D01*
X138282178Y-123051942D01*
X138253500Y-123196116D01*
X138253500Y-123196118D01*
X138249500Y-123216228D01*
X138005500Y-123216228D01*
X138005500Y-121380614D01*
X138025185Y-121313575D01*
X138077989Y-121267820D01*
X138147147Y-121257876D01*
X138176950Y-121266052D01*
X138301918Y-121317816D01*
X138466228Y-121350499D01*
X138466232Y-121350500D01*
X138466233Y-121350500D01*
X138633768Y-121350500D01*
X138633769Y-121350499D01*
X138798082Y-121317816D01*
X138952863Y-121253703D01*
X139092162Y-121160626D01*
X139210626Y-121042162D01*
X139303703Y-120902863D01*
X139367816Y-120748082D01*
X139400500Y-120583767D01*
X139400500Y-120416233D01*
X139400500Y-120416232D01*
X139400499Y-120416223D01*
X139367817Y-120251925D01*
X139367816Y-120251918D01*
X139303703Y-120097137D01*
X139272537Y-120050494D01*
X139210626Y-119957837D01*
X139210623Y-119957833D01*
X139092167Y-119839377D01*
X139092160Y-119839371D01*
X138978225Y-119763243D01*
X138978224Y-119763242D01*
X138952860Y-119746295D01*
X138952855Y-119746292D01*
X138798083Y-119682184D01*
X138798056Y-119682178D01*
X138633773Y-119649500D01*
X138633771Y-119649500D01*
X138633767Y-119649500D01*
X138466233Y-119649500D01*
X138466228Y-119649500D01*
X138466226Y-119649500D01*
X138301942Y-119682178D01*
X138301915Y-119682184D01*
X138176952Y-119733945D01*
X138107482Y-119741414D01*
X138045003Y-119710138D01*
X138009352Y-119650049D01*
X138005500Y-119619384D01*
X138005500Y-117607886D01*
X138025185Y-117540847D01*
X138077989Y-117495092D01*
X138105301Y-117486270D01*
X138198082Y-117467816D01*
X138352863Y-117403703D01*
X138492162Y-117310626D01*
X138610626Y-117192162D01*
X138703703Y-117052863D01*
X138767816Y-116898082D01*
X138800500Y-116733767D01*
X138800500Y-116566233D01*
X138767816Y-116401918D01*
X138703703Y-116247137D01*
X138672537Y-116200494D01*
X138610626Y-116107837D01*
X138610623Y-116107833D01*
X138492164Y-115989374D01*
X138352856Y-115896292D01*
X138198083Y-115832184D01*
X138198056Y-115832178D01*
X138105308Y-115813729D01*
X138043397Y-115781344D01*
X138008823Y-115720628D01*
X138005500Y-115692112D01*
X138005500Y-108333620D01*
X137998248Y-108248312D01*
X137998247Y-108248309D01*
X137998247Y-108248303D01*
X137991182Y-108207046D01*
X137969634Y-108124178D01*
X137965971Y-108113796D01*
X137963422Y-108108923D01*
X137961598Y-108099753D01*
X137956166Y-108092144D01*
X137954891Y-108066033D01*
X137949792Y-108040396D01*
X137953214Y-108031696D01*
X137952759Y-108022358D01*
X137965801Y-107999705D01*
X137975373Y-107975378D01*
X137982956Y-107969909D01*
X137987622Y-107961807D01*
X138010842Y-107949801D01*
X138032046Y-107934512D01*
X138041382Y-107934011D01*
X138049687Y-107929718D01*
X138075711Y-107932171D01*
X138101815Y-107930773D01*
X138111787Y-107935573D01*
X138119248Y-107936277D01*
X138135525Y-107947000D01*
X138149834Y-107953888D01*
X138155703Y-107958492D01*
X138207837Y-108010626D01*
X138300494Y-108072537D01*
X138304425Y-108075164D01*
X138304432Y-108075169D01*
X138341225Y-108099753D01*
X138347137Y-108103703D01*
X138501918Y-108167816D01*
X138666228Y-108200499D01*
X138666232Y-108200500D01*
X138666233Y-108200500D01*
X138833768Y-108200500D01*
X138833769Y-108200499D01*
X138998082Y-108167816D01*
X139152863Y-108103703D01*
X139292162Y-108010626D01*
X139410626Y-107892162D01*
X139503703Y-107752863D01*
X139567816Y-107598082D01*
X139600500Y-107433767D01*
X139600500Y-107266233D01*
X139567816Y-107101918D01*
X139503703Y-106947137D01*
X139503701Y-106947134D01*
X139503699Y-106947130D01*
X139434131Y-106843015D01*
X139434131Y-106843014D01*
X139434129Y-106843013D01*
X139410626Y-106807837D01*
X139410625Y-106807835D01*
X139292164Y-106689374D01*
X139152856Y-106596292D01*
X138998083Y-106532184D01*
X138998056Y-106532178D01*
X138833773Y-106499500D01*
X138833771Y-106499500D01*
X138833767Y-106499500D01*
X138666233Y-106499500D01*
X138666228Y-106499500D01*
X138666226Y-106499500D01*
X138501942Y-106532178D01*
X138501915Y-106532184D01*
X138347142Y-106596292D01*
X138207836Y-106689373D01*
X138207833Y-106689377D01*
X138153750Y-106743459D01*
X138092427Y-106776943D01*
X138022735Y-106771958D01*
X137966802Y-106730087D01*
X137942386Y-106664622D01*
X137953277Y-106604262D01*
X137976080Y-106554341D01*
X137979991Y-106541024D01*
X137995327Y-106470540D01*
X138000352Y-106435599D01*
X138005500Y-106363641D01*
X138005500Y-101583625D01*
X137998397Y-101500071D01*
X137998248Y-101498312D01*
X137998247Y-101498309D01*
X137998247Y-101498303D01*
X137991182Y-101457046D01*
X137978357Y-101407724D01*
X137980537Y-101337888D01*
X138020126Y-101280317D01*
X138084557Y-101253289D01*
X138153371Y-101265386D01*
X138172379Y-101277029D01*
X138179646Y-101282435D01*
X138207837Y-101310626D01*
X138300494Y-101372537D01*
X138347137Y-101403703D01*
X138501918Y-101467816D01*
X138663091Y-101499875D01*
X138663484Y-101499953D01*
X138663764Y-101500010D01*
X138663935Y-101500045D01*
X138663984Y-101500071D01*
X138665491Y-101500409D01*
X138666230Y-101500500D01*
X138833768Y-101500500D01*
X138837889Y-101500500D01*
X138845742Y-101498117D01*
X138998082Y-101467816D01*
X139152863Y-101403703D01*
X139292162Y-101310626D01*
X139410626Y-101192162D01*
X139503703Y-101052863D01*
X139567816Y-100898082D01*
X139600500Y-100733767D01*
X139600500Y-100566233D01*
X139567816Y-100401918D01*
X139503703Y-100247137D01*
X139503701Y-100247134D01*
X139503699Y-100247130D01*
X139419826Y-100121606D01*
X139410624Y-100107834D01*
X139292164Y-99989374D01*
X139152856Y-99896292D01*
X138998083Y-99832184D01*
X138998056Y-99832178D01*
X138833773Y-99799500D01*
X138833771Y-99799500D01*
X138833767Y-99799500D01*
X138666233Y-99799500D01*
X138666228Y-99799500D01*
X138666226Y-99799500D01*
X138501942Y-99832178D01*
X138501915Y-99832184D01*
X138347145Y-99896291D01*
X138347132Y-99896298D01*
X138207838Y-99989372D01*
X138207834Y-99989375D01*
X138121699Y-100075510D01*
X138121698Y-100075513D01*
X138093443Y-100096664D01*
X138086222Y-100100607D01*
X138017949Y-100115459D01*
X137952485Y-100091042D01*
X137910613Y-100035109D01*
X137905629Y-99965417D01*
X137914000Y-99940265D01*
X137937226Y-99889406D01*
X137976080Y-99804341D01*
X137979991Y-99791024D01*
X137995327Y-99720540D01*
X138000352Y-99685599D01*
X138005500Y-99613641D01*
X138005500Y-95047597D01*
X138025185Y-94980558D01*
X138077989Y-94934803D01*
X138082047Y-94933036D01*
X138152863Y-94903703D01*
X138292162Y-94810626D01*
X138410626Y-94692162D01*
X138503703Y-94552863D01*
X138567816Y-94398082D01*
X138600500Y-94233767D01*
X138600500Y-94066233D01*
X138567816Y-93901918D01*
X138503703Y-93747137D01*
X138470294Y-93697137D01*
X138410626Y-93607837D01*
X138410623Y-93607833D01*
X138292164Y-93489374D01*
X138222974Y-93443143D01*
X138152860Y-93396295D01*
X138152858Y-93396294D01*
X138152855Y-93396292D01*
X138082046Y-93366961D01*
X138027643Y-93323120D01*
X138005579Y-93256825D01*
X138005500Y-93252401D01*
X138005500Y-87887330D01*
X138002600Y-87833269D01*
X138002600Y-87833261D01*
X137999763Y-87806890D01*
X137991099Y-87753455D01*
X137989454Y-87745897D01*
X137978268Y-87714205D01*
X137947502Y-87627037D01*
X137920029Y-87572183D01*
X137920025Y-87572175D01*
X137920014Y-87572158D01*
X137919926Y-87572026D01*
X137919912Y-87571983D01*
X137918074Y-87568822D01*
X137918791Y-87568404D01*
X137899035Y-87505353D01*
X137910221Y-87451603D01*
X137965338Y-87330917D01*
X137985023Y-87263878D01*
X137985024Y-87263874D01*
X138005500Y-87121458D01*
X138005500Y-85379500D01*
X137993947Y-85272044D01*
X137982741Y-85220533D01*
X137982637Y-85220222D01*
X137948616Y-85118002D01*
X137948613Y-85117996D01*
X137870828Y-84996962D01*
X137870825Y-84996957D01*
X137870820Y-84996951D01*
X137825076Y-84944159D01*
X137825072Y-84944156D01*
X137825070Y-84944153D01*
X137716336Y-84849933D01*
X137716333Y-84849931D01*
X137716331Y-84849930D01*
X137585457Y-84790160D01*
X137581315Y-84788616D01*
X137582017Y-84786732D01*
X137530182Y-84753325D01*
X137501239Y-84689731D01*
X137500000Y-84672243D01*
X137500000Y-75418426D01*
X137505022Y-75383493D01*
X137512434Y-75358248D01*
X137543728Y-75305506D01*
X140525714Y-72323520D01*
X140553957Y-72302376D01*
X140563891Y-72296952D01*
X140632161Y-72282099D01*
X140697626Y-72306513D01*
G37*
%TD.AperFunction*%
%TD*%
%TA.AperFunction,Conductor*%
%TO.N,MCU.MISO*%
G36*
X165954562Y-80297952D02*
G01*
X166261808Y-80429012D01*
X166262021Y-80429103D01*
X166268286Y-80435501D01*
X166268192Y-80444456D01*
X166267938Y-80445009D01*
X166210363Y-80562625D01*
X166209738Y-80563743D01*
X166152462Y-80654140D01*
X166152416Y-80654213D01*
X166113875Y-80714059D01*
X166068470Y-80821094D01*
X166068468Y-80821101D01*
X166054810Y-80897638D01*
X166054808Y-80897659D01*
X166050539Y-80985872D01*
X166046717Y-80993969D01*
X166038853Y-80997006D01*
X165860993Y-80997006D01*
X165852720Y-80993579D01*
X165849316Y-80986034D01*
X165842453Y-80875907D01*
X165842452Y-80875901D01*
X165821342Y-80788005D01*
X165821340Y-80788000D01*
X165788958Y-80718910D01*
X165788957Y-80718909D01*
X165788956Y-80718907D01*
X165788954Y-80718903D01*
X165747584Y-80654214D01*
X165747553Y-80654166D01*
X165747553Y-80654165D01*
X165723520Y-80617390D01*
X165710726Y-80597812D01*
X165710126Y-80596780D01*
X165632368Y-80445109D01*
X165631645Y-80436186D01*
X165637443Y-80429362D01*
X165638165Y-80429023D01*
X165945409Y-80297963D01*
X165954364Y-80297870D01*
X165954562Y-80297952D01*
G37*
%TD.AperFunction*%
%TD*%
%TA.AperFunction,Conductor*%
%TO.N,PGOOD*%
G36*
X132770637Y-85537443D02*
G01*
X132770987Y-85538190D01*
X132902035Y-85845409D01*
X132902129Y-85854364D01*
X132902035Y-85854591D01*
X132770896Y-86162021D01*
X132764498Y-86168286D01*
X132755543Y-86168192D01*
X132755003Y-86167945D01*
X132637365Y-86110359D01*
X132636263Y-86109742D01*
X132545859Y-86052462D01*
X132545786Y-86052416D01*
X132485943Y-86013877D01*
X132485940Y-86013875D01*
X132485939Y-86013875D01*
X132378905Y-85968470D01*
X132378898Y-85968468D01*
X132302361Y-85954810D01*
X132302340Y-85954808D01*
X132214128Y-85950538D01*
X132206030Y-85946715D01*
X132202994Y-85938852D01*
X132202994Y-85760993D01*
X132206421Y-85752720D01*
X132213965Y-85749316D01*
X132324095Y-85742453D01*
X132411998Y-85721341D01*
X132458959Y-85699329D01*
X132481089Y-85688958D01*
X132481089Y-85688957D01*
X132481097Y-85688954D01*
X132545786Y-85647584D01*
X132602203Y-85610716D01*
X132603210Y-85610130D01*
X132754890Y-85532368D01*
X132763813Y-85531645D01*
X132770637Y-85537443D01*
G37*
%TD.AperFunction*%
%TD*%
%TA.AperFunction,Conductor*%
%TO.N,MCU.TX*%
G36*
X127736094Y-99993706D02*
G01*
X127770901Y-100024428D01*
X127818820Y-100066726D01*
X127895906Y-100113954D01*
X127967667Y-100139914D01*
X128042662Y-100156403D01*
X128108611Y-100170223D01*
X128109770Y-100170530D01*
X128271989Y-100222792D01*
X128278812Y-100228589D01*
X128279536Y-100237515D01*
X128279256Y-100238291D01*
X128154684Y-100548192D01*
X128148419Y-100554590D01*
X128148192Y-100554684D01*
X127838077Y-100679342D01*
X127829122Y-100679248D01*
X127822857Y-100672850D01*
X127822655Y-100672307D01*
X127780185Y-100548390D01*
X127779844Y-100547180D01*
X127756403Y-100442662D01*
X127741338Y-100373096D01*
X127741336Y-100373090D01*
X127697760Y-100265305D01*
X127697758Y-100265302D01*
X127697757Y-100265299D01*
X127653286Y-100201509D01*
X127653283Y-100201506D01*
X127653282Y-100201504D01*
X127593923Y-100136107D01*
X127590900Y-100127677D01*
X127594312Y-100119971D01*
X127720079Y-99994204D01*
X127728351Y-99990778D01*
X127736094Y-99993706D01*
G37*
%TD.AperFunction*%
%TD*%
%TA.AperFunction,Conductor*%
%TO.N,VBUS*%
G36*
X139512650Y-90625892D02*
G01*
X139543730Y-90776563D01*
X139550492Y-90804156D01*
X139597006Y-91054316D01*
X139250000Y-91103994D01*
X138902994Y-91054316D01*
X138929891Y-90891330D01*
X138956270Y-90776562D01*
X138982821Y-90655262D01*
X138995353Y-90549202D01*
X139000000Y-90402994D01*
X139500000Y-90402994D01*
X139512650Y-90625892D01*
G37*
%TD.AperFunction*%
%TD*%
%TA.AperFunction,Conductor*%
%TO.N,MCU.MOSI*%
G36*
X168397280Y-97856421D02*
G01*
X168400684Y-97863966D01*
X168407546Y-97974092D01*
X168407547Y-97974098D01*
X168428657Y-98061994D01*
X168428659Y-98061999D01*
X168461041Y-98131089D01*
X168461042Y-98131090D01*
X168461044Y-98131094D01*
X168461046Y-98131097D01*
X168502416Y-98195786D01*
X168502447Y-98195834D01*
X168539267Y-98252178D01*
X168539884Y-98253240D01*
X168617629Y-98404887D01*
X168618354Y-98413813D01*
X168612556Y-98420636D01*
X168611809Y-98420987D01*
X168304591Y-98552035D01*
X168295636Y-98552129D01*
X168295409Y-98552035D01*
X167987978Y-98420896D01*
X167981713Y-98414498D01*
X167981807Y-98405543D01*
X167982041Y-98405031D01*
X168039638Y-98287366D01*
X168040256Y-98286262D01*
X168097584Y-98195786D01*
X168136123Y-98135942D01*
X168181530Y-98028902D01*
X168195191Y-97952350D01*
X168199461Y-97864127D01*
X168203283Y-97856031D01*
X168211147Y-97852994D01*
X168389007Y-97852994D01*
X168397280Y-97856421D01*
G37*
%TD.AperFunction*%
%TD*%
%TA.AperFunction,Conductor*%
%TO.N,NRST*%
G36*
X163120637Y-82137443D02*
G01*
X163120987Y-82138190D01*
X163252035Y-82445409D01*
X163252129Y-82454364D01*
X163252035Y-82454591D01*
X163120896Y-82762021D01*
X163114498Y-82768286D01*
X163105543Y-82768192D01*
X163105003Y-82767945D01*
X162987365Y-82710359D01*
X162986263Y-82709742D01*
X162895859Y-82652462D01*
X162895786Y-82652416D01*
X162835943Y-82613877D01*
X162835940Y-82613875D01*
X162835939Y-82613875D01*
X162728905Y-82568470D01*
X162728898Y-82568468D01*
X162652361Y-82554810D01*
X162652340Y-82554808D01*
X162564128Y-82550538D01*
X162556030Y-82546715D01*
X162552994Y-82538852D01*
X162552994Y-82360993D01*
X162556421Y-82352720D01*
X162563965Y-82349316D01*
X162674095Y-82342453D01*
X162761998Y-82321341D01*
X162808959Y-82299329D01*
X162831089Y-82288958D01*
X162831089Y-82288957D01*
X162831097Y-82288954D01*
X162895786Y-82247584D01*
X162952203Y-82210716D01*
X162953210Y-82210130D01*
X163104890Y-82132368D01*
X163113813Y-82131645D01*
X163120637Y-82137443D01*
G37*
%TD.AperFunction*%
%TD*%
%TA.AperFunction,Conductor*%
%TO.N,VBUS*%
G36*
X137443039Y-77519685D02*
G01*
X137488794Y-77572489D01*
X137500000Y-77624000D01*
X137500000Y-84626000D01*
X137480315Y-84693039D01*
X137427511Y-84738794D01*
X137376000Y-84750000D01*
X134319981Y-84750000D01*
X134285046Y-84744977D01*
X134274192Y-84741790D01*
X134215414Y-84704016D01*
X134186389Y-84640460D01*
X134196332Y-84571303D01*
X134199522Y-84564320D01*
X134224631Y-84528158D01*
X134310624Y-84442165D01*
X134310626Y-84442162D01*
X134310627Y-84442161D01*
X134403703Y-84302863D01*
X134467816Y-84148082D01*
X134500500Y-83983767D01*
X134500500Y-83816233D01*
X134480597Y-83716175D01*
X134478708Y-83680941D01*
X134479945Y-83667109D01*
X134505526Y-83602093D01*
X134562194Y-83561227D01*
X134572592Y-83557559D01*
X134613835Y-83550500D01*
X134737889Y-83550500D01*
X134745742Y-83548117D01*
X134898082Y-83517816D01*
X135052863Y-83453703D01*
X135192162Y-83360626D01*
X135310626Y-83242162D01*
X135403703Y-83102863D01*
X135467816Y-82948082D01*
X135500500Y-82783767D01*
X135500500Y-82616233D01*
X135467816Y-82451918D01*
X135403703Y-82297137D01*
X135349677Y-82216282D01*
X135349677Y-82216281D01*
X135310627Y-82157838D01*
X135310621Y-82157831D01*
X135192164Y-82039374D01*
X135052856Y-81946292D01*
X134898083Y-81882184D01*
X134898056Y-81882178D01*
X134733773Y-81849500D01*
X134733771Y-81849500D01*
X134733767Y-81849500D01*
X134566233Y-81849500D01*
X134566228Y-81849500D01*
X134566226Y-81849500D01*
X134401942Y-81882178D01*
X134401915Y-81882184D01*
X134247142Y-81946292D01*
X134107834Y-82039374D01*
X133989374Y-82157834D01*
X133896292Y-82297142D01*
X133832184Y-82451915D01*
X133832178Y-82451942D01*
X133799500Y-82616225D01*
X133799500Y-82616228D01*
X133799500Y-82783771D01*
X133799500Y-82783773D01*
X133799499Y-82783773D01*
X133819400Y-82883818D01*
X133819401Y-82883819D01*
X133821291Y-82919063D01*
X133820054Y-82932888D01*
X133794473Y-82997906D01*
X133737804Y-83038772D01*
X133727422Y-83042435D01*
X133686165Y-83049500D01*
X133566226Y-83049500D01*
X133401942Y-83082178D01*
X133401915Y-83082184D01*
X133247142Y-83146292D01*
X133107834Y-83239374D01*
X132989374Y-83357834D01*
X132896292Y-83497142D01*
X132832184Y-83651915D01*
X132832178Y-83651942D01*
X132799500Y-83816225D01*
X132799500Y-83816228D01*
X132799500Y-83983771D01*
X132799500Y-83983773D01*
X132799499Y-83983773D01*
X132832178Y-84148056D01*
X132832184Y-84148083D01*
X132896292Y-84302856D01*
X132896295Y-84302860D01*
X132989373Y-84442162D01*
X133072925Y-84525714D01*
X133076018Y-84529846D01*
X133094074Y-84553966D01*
X133099494Y-84563892D01*
X133114346Y-84632165D01*
X133089929Y-84697629D01*
X133033996Y-84739501D01*
X133026808Y-84742182D01*
X132983474Y-84750000D01*
X132641830Y-84750000D01*
X132606889Y-84744975D01*
X132591890Y-84740570D01*
X132576902Y-84730940D01*
X132559824Y-84725932D01*
X132533144Y-84702827D01*
X132531957Y-84701458D01*
X132504477Y-84646583D01*
X132502832Y-84639021D01*
X132500000Y-84612668D01*
X132500000Y-81468425D01*
X132505022Y-81433492D01*
X132512434Y-81408247D01*
X132543728Y-81355505D01*
X133204754Y-80694480D01*
X133926274Y-79972960D01*
X133926277Y-79972958D01*
X133943715Y-79955520D01*
X133943716Y-79955520D01*
X134055520Y-79843716D01*
X134114668Y-79741268D01*
X134134577Y-79706785D01*
X134175500Y-79554057D01*
X134175500Y-79395943D01*
X134175500Y-78742926D01*
X134180522Y-78707993D01*
X134187934Y-78682748D01*
X134219228Y-78630006D01*
X135300311Y-77548923D01*
X135328561Y-77527775D01*
X135351653Y-77515167D01*
X135411078Y-77500000D01*
X137376000Y-77500000D01*
X137443039Y-77519685D01*
G37*
%TD.AperFunction*%
%TD*%
%TA.AperFunction,Conductor*%
%TO.N,+BATT*%
G36*
X146001083Y-75457080D02*
G01*
X146005965Y-75464587D01*
X146006044Y-75465068D01*
X146053756Y-75798342D01*
X146053756Y-75801658D01*
X146006009Y-76135173D01*
X146001444Y-76142877D01*
X145992769Y-76145097D01*
X145992522Y-76145059D01*
X145860524Y-76123276D01*
X145841691Y-76120168D01*
X145840982Y-76120028D01*
X145726563Y-76093730D01*
X145726503Y-76093716D01*
X145605269Y-76067179D01*
X145605261Y-76067178D01*
X145499208Y-76054647D01*
X145499211Y-76054647D01*
X145364322Y-76050360D01*
X145356162Y-76046672D01*
X145352994Y-76038666D01*
X145352994Y-75561054D01*
X145356421Y-75552781D01*
X145364029Y-75549373D01*
X145575891Y-75537350D01*
X145726562Y-75506270D01*
X145753852Y-75499581D01*
X145754470Y-75499448D01*
X145992325Y-75455223D01*
X146001083Y-75457080D01*
G37*
%TD.AperFunction*%
%TD*%
%TA.AperFunction,Conductor*%
%TO.N,BOOT0*%
G36*
X138891850Y-81581779D02*
G01*
X138896864Y-81582969D01*
X139012325Y-81639489D01*
X139012894Y-81639787D01*
X139013473Y-81640111D01*
X139014022Y-81640438D01*
X139102184Y-81696298D01*
X139104825Y-81698809D01*
X139107180Y-81699494D01*
X139164057Y-81736123D01*
X139271098Y-81781530D01*
X139347649Y-81795191D01*
X139433548Y-81799348D01*
X139437973Y-81800453D01*
X139439734Y-81801284D01*
X139445653Y-81807645D01*
X139446218Y-81809106D01*
X139447006Y-81813326D01*
X139447006Y-81986678D01*
X139446114Y-81991158D01*
X139445351Y-81992999D01*
X139439358Y-81999182D01*
X139437985Y-81999802D01*
X139433898Y-82000816D01*
X139325922Y-82007544D01*
X139325912Y-82007545D01*
X139325882Y-82007550D01*
X139238014Y-82028653D01*
X139238008Y-82028655D01*
X139237976Y-82028669D01*
X139168874Y-82061057D01*
X139168703Y-82061172D01*
X139104117Y-82102478D01*
X139048093Y-82139089D01*
X139047571Y-82139411D01*
X139047010Y-82139737D01*
X139046493Y-82140020D01*
X138899819Y-82215216D01*
X138897184Y-82216567D01*
X138892790Y-82217817D01*
X138891012Y-82217961D01*
X138882493Y-82215216D01*
X138881416Y-82214301D01*
X138878230Y-82209977D01*
X138748874Y-81906727D01*
X138747938Y-81902262D01*
X138747895Y-81898082D01*
X138748832Y-81893373D01*
X138878191Y-81590113D01*
X138880763Y-81586351D01*
X138882038Y-81585103D01*
X138890341Y-81581763D01*
X138891850Y-81581779D01*
G37*
%TD.AperFunction*%
%TD*%
%TA.AperFunction,Conductor*%
%TO.N,MCU.MOSI*%
G36*
X168870637Y-79037443D02*
G01*
X168870987Y-79038190D01*
X169002035Y-79345409D01*
X169002129Y-79354364D01*
X169002035Y-79354591D01*
X168870896Y-79662021D01*
X168864498Y-79668286D01*
X168855543Y-79668192D01*
X168855003Y-79667945D01*
X168737365Y-79610359D01*
X168736263Y-79609742D01*
X168645859Y-79552462D01*
X168645786Y-79552416D01*
X168585943Y-79513877D01*
X168585940Y-79513875D01*
X168585939Y-79513875D01*
X168478905Y-79468470D01*
X168478898Y-79468468D01*
X168402361Y-79454810D01*
X168402340Y-79454808D01*
X168314128Y-79450538D01*
X168306030Y-79446715D01*
X168302994Y-79438852D01*
X168302994Y-79260993D01*
X168306421Y-79252720D01*
X168313965Y-79249316D01*
X168424095Y-79242453D01*
X168511998Y-79221341D01*
X168558959Y-79199329D01*
X168581089Y-79188958D01*
X168581089Y-79188957D01*
X168581097Y-79188954D01*
X168645786Y-79147584D01*
X168702203Y-79110716D01*
X168703210Y-79110130D01*
X168854890Y-79032368D01*
X168863813Y-79031645D01*
X168870637Y-79037443D01*
G37*
%TD.AperFunction*%
%TD*%
%TA.AperFunction,Conductor*%
%TO.N,GPOUT*%
G36*
X142944456Y-77781807D02*
G01*
X142945009Y-77782061D01*
X143062625Y-77839636D01*
X143063743Y-77840261D01*
X143154141Y-77897538D01*
X143154194Y-77897613D01*
X143154214Y-77897584D01*
X143214057Y-77936123D01*
X143321098Y-77981530D01*
X143397649Y-77995191D01*
X143485872Y-77999461D01*
X143493969Y-78003283D01*
X143497006Y-78011147D01*
X143497006Y-78189006D01*
X143493579Y-78197279D01*
X143486034Y-78200683D01*
X143375907Y-78207546D01*
X143375901Y-78207547D01*
X143288004Y-78228657D01*
X143287999Y-78228659D01*
X143218909Y-78261041D01*
X143218908Y-78261042D01*
X143154165Y-78302447D01*
X143097821Y-78339267D01*
X143096759Y-78339884D01*
X142945112Y-78417629D01*
X142936186Y-78418354D01*
X142929363Y-78412556D01*
X142929018Y-78411823D01*
X142797963Y-78104590D01*
X142797870Y-78095636D01*
X142797964Y-78095409D01*
X142929103Y-77787977D01*
X142935501Y-77781713D01*
X142944456Y-77781807D01*
G37*
%TD.AperFunction*%
%TD*%
%TA.AperFunction,Conductor*%
%TO.N,NRST*%
G36*
X163347280Y-81756421D02*
G01*
X163350684Y-81763966D01*
X163357546Y-81874092D01*
X163357547Y-81874098D01*
X163378657Y-81961994D01*
X163378659Y-81961999D01*
X163411041Y-82031089D01*
X163411042Y-82031090D01*
X163411044Y-82031094D01*
X163411046Y-82031097D01*
X163452416Y-82095786D01*
X163452447Y-82095834D01*
X163489267Y-82152178D01*
X163489884Y-82153240D01*
X163567629Y-82304887D01*
X163568354Y-82313813D01*
X163562556Y-82320636D01*
X163561809Y-82320987D01*
X163254591Y-82452035D01*
X163245636Y-82452129D01*
X163245409Y-82452035D01*
X162937978Y-82320896D01*
X162931713Y-82314498D01*
X162931807Y-82305543D01*
X162932041Y-82305031D01*
X162989638Y-82187366D01*
X162990256Y-82186262D01*
X163047584Y-82095786D01*
X163086123Y-82035942D01*
X163131530Y-81928902D01*
X163145191Y-81852350D01*
X163149461Y-81764127D01*
X163153283Y-81756031D01*
X163161147Y-81752994D01*
X163339007Y-81752994D01*
X163347280Y-81756421D01*
G37*
%TD.AperFunction*%
%TD*%
%TA.AperFunction,Conductor*%
%TO.N,MCU.TX*%
G36*
X164341154Y-74853883D02*
G01*
X164342998Y-74854647D01*
X164349183Y-74860641D01*
X164349803Y-74862014D01*
X164350817Y-74866101D01*
X164357544Y-74974076D01*
X164357545Y-74974086D01*
X164357550Y-74974116D01*
X164378653Y-75061983D01*
X164378655Y-75061989D01*
X164378669Y-75062021D01*
X164411055Y-75131120D01*
X164411164Y-75131281D01*
X164414144Y-75135942D01*
X164452412Y-75195779D01*
X164452418Y-75195789D01*
X164452430Y-75195808D01*
X164489089Y-75251905D01*
X164489411Y-75252427D01*
X164489737Y-75252988D01*
X164490012Y-75253489D01*
X164566567Y-75402817D01*
X164567817Y-75407208D01*
X164567961Y-75408986D01*
X164565216Y-75417505D01*
X164564301Y-75418582D01*
X164559975Y-75421769D01*
X164256730Y-75551122D01*
X164252262Y-75552059D01*
X164248086Y-75552103D01*
X164243372Y-75551166D01*
X163940118Y-75421809D01*
X163936348Y-75419231D01*
X163935101Y-75417957D01*
X163931763Y-75409650D01*
X163931779Y-75408149D01*
X163932967Y-75403137D01*
X163989507Y-75287632D01*
X163989776Y-75287119D01*
X163990125Y-75286495D01*
X163990401Y-75286031D01*
X164047584Y-75195786D01*
X164086123Y-75135942D01*
X164131530Y-75028902D01*
X164145191Y-74952350D01*
X164149348Y-74866448D01*
X164150452Y-74862027D01*
X164151285Y-74860263D01*
X164157652Y-74854343D01*
X164159120Y-74853776D01*
X164163327Y-74852994D01*
X164336680Y-74852994D01*
X164341154Y-74853883D01*
G37*
%TD.AperFunction*%
%TD*%
%TA.AperFunction,Conductor*%
%TO.N,FT_3V3*%
G36*
X131949760Y-107712135D02*
G01*
X131952088Y-107840829D01*
X131975717Y-107942254D01*
X132020888Y-108016242D01*
X132100000Y-108105051D01*
X131800000Y-108355150D01*
X131500000Y-108350000D01*
X131506971Y-108228216D01*
X131541547Y-108083037D01*
X131589044Y-107969896D01*
X131632811Y-107836634D01*
X131645351Y-107755175D01*
X131650000Y-107654150D01*
X131950000Y-107654150D01*
X131949760Y-107712135D01*
G37*
%TD.AperFunction*%
%TD*%
%TA.AperFunction,Conductor*%
%TO.N,MCU.RX*%
G36*
X128991154Y-100603883D02*
G01*
X128992998Y-100604647D01*
X128999183Y-100610641D01*
X128999803Y-100612014D01*
X129000817Y-100616101D01*
X129007544Y-100724076D01*
X129007545Y-100724086D01*
X129007550Y-100724116D01*
X129028653Y-100811983D01*
X129028655Y-100811989D01*
X129028669Y-100812021D01*
X129061055Y-100881120D01*
X129061164Y-100881281D01*
X129064144Y-100885942D01*
X129102412Y-100945779D01*
X129102418Y-100945789D01*
X129102430Y-100945808D01*
X129139089Y-101001905D01*
X129139411Y-101002427D01*
X129139737Y-101002988D01*
X129140012Y-101003489D01*
X129216567Y-101152817D01*
X129217817Y-101157208D01*
X129217961Y-101158986D01*
X129215216Y-101167505D01*
X129214301Y-101168582D01*
X129209975Y-101171769D01*
X128906730Y-101301122D01*
X128902262Y-101302059D01*
X128898086Y-101302103D01*
X128893372Y-101301166D01*
X128590118Y-101171809D01*
X128586348Y-101169231D01*
X128585101Y-101167957D01*
X128581763Y-101159650D01*
X128581779Y-101158149D01*
X128582967Y-101153137D01*
X128639507Y-101037632D01*
X128639776Y-101037119D01*
X128640125Y-101036495D01*
X128640401Y-101036031D01*
X128697584Y-100945786D01*
X128736123Y-100885942D01*
X128781530Y-100778902D01*
X128795191Y-100702350D01*
X128799348Y-100616448D01*
X128800452Y-100612027D01*
X128801285Y-100610263D01*
X128807652Y-100604343D01*
X128809120Y-100603776D01*
X128813327Y-100602994D01*
X128986680Y-100602994D01*
X128991154Y-100603883D01*
G37*
%TD.AperFunction*%
%TD*%
%TA.AperFunction,Conductor*%
%TO.N,MCU.MOSI*%
G36*
X160491154Y-89953883D02*
G01*
X160492998Y-89954647D01*
X160499183Y-89960641D01*
X160499803Y-89962014D01*
X160500817Y-89966101D01*
X160507544Y-90074076D01*
X160507545Y-90074086D01*
X160507550Y-90074116D01*
X160528653Y-90161983D01*
X160528655Y-90161989D01*
X160528669Y-90162021D01*
X160561055Y-90231120D01*
X160561164Y-90231281D01*
X160564144Y-90235942D01*
X160602412Y-90295779D01*
X160602418Y-90295789D01*
X160602430Y-90295808D01*
X160639089Y-90351905D01*
X160639411Y-90352427D01*
X160639737Y-90352988D01*
X160640012Y-90353489D01*
X160716567Y-90502817D01*
X160717817Y-90507208D01*
X160717961Y-90508986D01*
X160715216Y-90517505D01*
X160714301Y-90518582D01*
X160709975Y-90521769D01*
X160406730Y-90651122D01*
X160402262Y-90652059D01*
X160398086Y-90652103D01*
X160393372Y-90651166D01*
X160090118Y-90521809D01*
X160086348Y-90519231D01*
X160085101Y-90517957D01*
X160081763Y-90509650D01*
X160081779Y-90508149D01*
X160082967Y-90503137D01*
X160139507Y-90387632D01*
X160139776Y-90387119D01*
X160140125Y-90386495D01*
X160140401Y-90386031D01*
X160197584Y-90295786D01*
X160236123Y-90235942D01*
X160281530Y-90128902D01*
X160295191Y-90052350D01*
X160299348Y-89966448D01*
X160300452Y-89962027D01*
X160301285Y-89960263D01*
X160307652Y-89954343D01*
X160309120Y-89953776D01*
X160313327Y-89952994D01*
X160486680Y-89952994D01*
X160491154Y-89953883D01*
G37*
%TD.AperFunction*%
%TD*%
%TA.AperFunction,Conductor*%
%TO.N,VBUS*%
G36*
X140047006Y-73795684D02*
G01*
X140020109Y-73958668D01*
X139993730Y-74073436D01*
X139967179Y-74194736D01*
X139954647Y-74300797D01*
X139950000Y-74447006D01*
X139450000Y-74447006D01*
X139437350Y-74224109D01*
X139406270Y-74073438D01*
X139399507Y-74045842D01*
X139352994Y-73795684D01*
X139700000Y-73746006D01*
X140047006Y-73795684D01*
G37*
%TD.AperFunction*%
%TD*%
%TA.AperFunction,Conductor*%
%TO.N,FT_3V3*%
G36*
X132123358Y-94983939D02*
G01*
X132037690Y-95166980D01*
X132017233Y-95207529D01*
X131969689Y-95331412D01*
X131954961Y-95422463D01*
X131950000Y-95547006D01*
X131650000Y-95547006D01*
X131644379Y-95415724D01*
X131627702Y-95321258D01*
X131600252Y-95244660D01*
X131562310Y-95166982D01*
X131476642Y-94983939D01*
X131800000Y-94846006D01*
X132123358Y-94983939D01*
G37*
%TD.AperFunction*%
%TD*%
%TA.AperFunction,Conductor*%
%TO.N,PGOOD*%
G36*
X152770637Y-73937443D02*
G01*
X152770987Y-73938190D01*
X152902035Y-74245409D01*
X152902129Y-74254364D01*
X152902035Y-74254591D01*
X152770896Y-74562021D01*
X152764498Y-74568286D01*
X152755543Y-74568192D01*
X152755003Y-74567945D01*
X152637365Y-74510359D01*
X152636263Y-74509742D01*
X152545859Y-74452462D01*
X152545786Y-74452416D01*
X152485943Y-74413877D01*
X152485940Y-74413875D01*
X152485939Y-74413875D01*
X152378905Y-74368470D01*
X152378898Y-74368468D01*
X152302361Y-74354810D01*
X152302340Y-74354808D01*
X152214128Y-74350538D01*
X152206030Y-74346715D01*
X152202994Y-74338852D01*
X152202994Y-74160993D01*
X152206421Y-74152720D01*
X152213965Y-74149316D01*
X152324095Y-74142453D01*
X152411998Y-74121341D01*
X152458959Y-74099329D01*
X152481089Y-74088958D01*
X152481089Y-74088957D01*
X152481097Y-74088954D01*
X152545786Y-74047584D01*
X152602203Y-74010716D01*
X152603210Y-74010130D01*
X152754890Y-73932368D01*
X152763813Y-73931645D01*
X152770637Y-73937443D01*
G37*
%TD.AperFunction*%
%TD*%
%TA.AperFunction,Conductor*%
%TO.N,MCU.MISO*%
G36*
X162280029Y-90094313D02*
G01*
X162405795Y-90220079D01*
X162409222Y-90228352D01*
X162406294Y-90236095D01*
X162333275Y-90318820D01*
X162333270Y-90318826D01*
X162286047Y-90395900D01*
X162286041Y-90395914D01*
X162260085Y-90467670D01*
X162243595Y-90542667D01*
X162229779Y-90608596D01*
X162229464Y-90609784D01*
X162177208Y-90771988D01*
X162171410Y-90778811D01*
X162162484Y-90779536D01*
X162161708Y-90779256D01*
X161851807Y-90654684D01*
X161845409Y-90648419D01*
X161845315Y-90648192D01*
X161829876Y-90609784D01*
X161720657Y-90338075D01*
X161720751Y-90329122D01*
X161727149Y-90322857D01*
X161727680Y-90322659D01*
X161851613Y-90280184D01*
X161852813Y-90279845D01*
X161957255Y-90256421D01*
X161957345Y-90256437D01*
X161957338Y-90256403D01*
X162026903Y-90241338D01*
X162026908Y-90241336D01*
X162134693Y-90197760D01*
X162134693Y-90197759D01*
X162134700Y-90197757D01*
X162198491Y-90153286D01*
X162263893Y-90093922D01*
X162272321Y-90090900D01*
X162280029Y-90094313D01*
G37*
%TD.AperFunction*%
%TD*%
%TA.AperFunction,Conductor*%
%TO.N,NRST*%
G36*
X139570922Y-80253628D02*
G01*
X139695250Y-80377956D01*
X139698677Y-80386229D01*
X139695250Y-80394502D01*
X139694419Y-80395257D01*
X139608984Y-80465683D01*
X139608579Y-80466002D01*
X139578784Y-80488432D01*
X139578762Y-80488451D01*
X139521993Y-80542751D01*
X139521992Y-80542753D01*
X139508444Y-80588114D01*
X139518605Y-80617422D01*
X139518606Y-80617423D01*
X139534973Y-80637661D01*
X139537511Y-80646248D01*
X139533233Y-80654115D01*
X139530203Y-80655888D01*
X139147672Y-80808169D01*
X139138718Y-80808045D01*
X139133032Y-80802824D01*
X139056873Y-80660653D01*
X139055987Y-80651742D01*
X139059415Y-80646382D01*
X139196608Y-80524533D01*
X139197794Y-80523610D01*
X139307695Y-80449096D01*
X139307763Y-80449052D01*
X139319653Y-80441196D01*
X139393722Y-80392260D01*
X139469655Y-80332563D01*
X139554674Y-80253340D01*
X139563062Y-80250208D01*
X139570922Y-80253628D01*
G37*
%TD.AperFunction*%
%TD*%
%TA.AperFunction,Conductor*%
%TO.N,MCU.RX*%
G36*
X163197280Y-74806421D02*
G01*
X163200684Y-74813966D01*
X163207546Y-74924092D01*
X163207547Y-74924098D01*
X163228657Y-75011994D01*
X163228659Y-75011999D01*
X163261041Y-75081089D01*
X163261042Y-75081090D01*
X163261044Y-75081094D01*
X163261046Y-75081097D01*
X163302416Y-75145786D01*
X163302447Y-75145834D01*
X163339267Y-75202178D01*
X163339884Y-75203240D01*
X163417629Y-75354887D01*
X163418354Y-75363813D01*
X163412556Y-75370636D01*
X163411809Y-75370987D01*
X163104591Y-75502035D01*
X163095636Y-75502129D01*
X163095409Y-75502035D01*
X162787978Y-75370896D01*
X162781713Y-75364498D01*
X162781807Y-75355543D01*
X162782041Y-75355031D01*
X162839638Y-75237366D01*
X162840256Y-75236262D01*
X162897584Y-75145786D01*
X162936123Y-75085942D01*
X162981530Y-74978902D01*
X162995191Y-74902350D01*
X162999461Y-74814127D01*
X163003283Y-74806031D01*
X163011147Y-74802994D01*
X163189007Y-74802994D01*
X163197280Y-74806421D01*
G37*
%TD.AperFunction*%
%TD*%
%TA.AperFunction,Conductor*%
%TO.N,BOOT0*%
G36*
X160347280Y-81606421D02*
G01*
X160350684Y-81613966D01*
X160357546Y-81724092D01*
X160357547Y-81724098D01*
X160378657Y-81811994D01*
X160378659Y-81811999D01*
X160411041Y-81881089D01*
X160411042Y-81881090D01*
X160411044Y-81881094D01*
X160411046Y-81881097D01*
X160452416Y-81945786D01*
X160452447Y-81945834D01*
X160489267Y-82002178D01*
X160489884Y-82003240D01*
X160567629Y-82154887D01*
X160568354Y-82163813D01*
X160562556Y-82170636D01*
X160561809Y-82170987D01*
X160254591Y-82302035D01*
X160245636Y-82302129D01*
X160245409Y-82302035D01*
X159937978Y-82170896D01*
X159931713Y-82164498D01*
X159931807Y-82155543D01*
X159932041Y-82155031D01*
X159989638Y-82037366D01*
X159990256Y-82036262D01*
X160047584Y-81945786D01*
X160086123Y-81885942D01*
X160131530Y-81778902D01*
X160145191Y-81702350D01*
X160149461Y-81614127D01*
X160153283Y-81606031D01*
X160161147Y-81602994D01*
X160339007Y-81602994D01*
X160347280Y-81606421D01*
G37*
%TD.AperFunction*%
%TD*%
%TA.AperFunction,Conductor*%
%TO.N,GPOUT*%
G36*
X161570637Y-79787443D02*
G01*
X161570987Y-79788190D01*
X161702035Y-80095409D01*
X161702129Y-80104364D01*
X161702035Y-80104591D01*
X161570896Y-80412021D01*
X161564498Y-80418286D01*
X161555543Y-80418192D01*
X161555003Y-80417945D01*
X161437365Y-80360359D01*
X161436263Y-80359742D01*
X161345859Y-80302462D01*
X161345786Y-80302416D01*
X161285943Y-80263877D01*
X161285940Y-80263875D01*
X161285939Y-80263875D01*
X161178905Y-80218470D01*
X161178898Y-80218468D01*
X161102361Y-80204810D01*
X161102340Y-80204808D01*
X161014128Y-80200538D01*
X161006030Y-80196715D01*
X161002994Y-80188852D01*
X161002994Y-80010993D01*
X161006421Y-80002720D01*
X161013965Y-79999316D01*
X161124095Y-79992453D01*
X161211998Y-79971341D01*
X161258959Y-79949329D01*
X161281089Y-79938958D01*
X161281089Y-79938957D01*
X161281097Y-79938954D01*
X161345786Y-79897584D01*
X161402203Y-79860716D01*
X161403210Y-79860130D01*
X161554890Y-79782368D01*
X161563813Y-79781645D01*
X161570637Y-79787443D01*
G37*
%TD.AperFunction*%
%TD*%
M02*
