%TF.GenerationSoftware,KiCad,Pcbnew,10.0.3*%
%TF.CreationDate,2026-06-11T17:49:32-06:00*%
%TF.ProjectId,picowy,7069636f-7779-42e6-9b69-6361645f7063,01*%
%TF.SameCoordinates,Original*%
%TF.FileFunction,Legend,Bot*%
%TF.FilePolarity,Positive*%
%FSLAX46Y46*%
G04 Gerber Fmt 4.6, Leading zero omitted, Abs format (unit mm)*
G04 Created by KiCad (PCBNEW 10.0.3) date 2026-06-11 17:49:32*
%MOMM*%
%LPD*%
G01*
G04 APERTURE LIST*
%ADD10C,0.000000*%
G04 APERTURE END LIST*
D10*
%TO.C,G\u002A\u002A\u002A*%
G36*
X131415667Y-96281666D02*
G01*
X131415667Y-96747333D01*
X130992333Y-96747333D01*
X130569000Y-96747333D01*
X130569000Y-96281666D01*
X130569000Y-95816000D01*
X130992333Y-95816000D01*
X131415667Y-95816000D01*
X131415667Y-96281666D01*
G37*
G36*
X150563083Y-122844882D02*
G01*
X150624368Y-122929798D01*
X150618807Y-123115817D01*
X150582083Y-123322083D01*
X150500486Y-123527165D01*
X150370417Y-123586666D01*
X150270533Y-123557957D01*
X150223413Y-123444009D01*
X150211667Y-123205666D01*
X150220440Y-122970559D01*
X150263563Y-122859168D01*
X150366242Y-122826121D01*
X150423333Y-122824666D01*
X150563083Y-122844882D01*
G37*
G36*
X149821829Y-122756701D02*
G01*
X149864582Y-122841105D01*
X149841250Y-123004583D01*
X149802955Y-123245529D01*
X149788333Y-123427916D01*
X149761267Y-123555725D01*
X149652926Y-123564902D01*
X149555500Y-123530593D01*
X149486643Y-123421864D01*
X149451681Y-123194361D01*
X149449667Y-123113944D01*
X149458419Y-122881923D01*
X149502891Y-122773055D01*
X149610407Y-122741367D01*
X149671917Y-122740000D01*
X149821829Y-122756701D01*
G37*
G36*
X151799167Y-65720966D02*
G01*
X152010338Y-65757299D01*
X152314640Y-65782696D01*
X152561167Y-65790412D01*
X152854657Y-65799115D01*
X153015834Y-65827642D01*
X153081475Y-65886799D01*
X153090333Y-65945909D01*
X153080592Y-66071037D01*
X153069167Y-66092049D01*
X152984862Y-66057704D01*
X152878667Y-66011762D01*
X152709545Y-65980530D01*
X152434292Y-65972020D01*
X152137833Y-65986319D01*
X151835523Y-66009000D01*
X151664456Y-66005819D01*
X151587362Y-65967565D01*
X151566971Y-65885028D01*
X151566333Y-65845069D01*
X151587331Y-65715293D01*
X151683980Y-65693469D01*
X151799167Y-65720966D01*
G37*
G36*
X154121122Y-63513500D02*
G01*
X154380178Y-63575358D01*
X154691728Y-63662711D01*
X154795903Y-63694799D01*
X154998504Y-63762508D01*
X155112304Y-63832659D01*
X155148594Y-63944685D01*
X155118663Y-64138021D01*
X155033802Y-64452100D01*
X155023382Y-64489333D01*
X154896197Y-64896748D01*
X154785842Y-65144893D01*
X154688192Y-65242527D01*
X154667561Y-65244649D01*
X154533525Y-65213881D01*
X154311134Y-65144638D01*
X154219568Y-65113060D01*
X154004522Y-65030372D01*
X153920665Y-64958852D01*
X153939037Y-64854669D01*
X153986213Y-64759911D01*
X154094224Y-64384511D01*
X154068324Y-63977325D01*
X153972956Y-63715000D01*
X153839578Y-63457077D01*
X154121122Y-63513500D01*
G37*
G36*
X154925026Y-65274362D02*
G01*
X155114923Y-65327572D01*
X155426218Y-65428547D01*
X155553852Y-65470840D01*
X156215630Y-65690346D01*
X156169696Y-65957673D01*
X156113572Y-66203224D01*
X156026176Y-66507648D01*
X155987322Y-66627166D01*
X155895647Y-66867533D01*
X155805558Y-66986554D01*
X155673837Y-67026179D01*
X155572988Y-67029333D01*
X155310357Y-66996485D01*
X155013744Y-66915287D01*
X154954885Y-66893209D01*
X154720536Y-66817882D01*
X154542253Y-66792747D01*
X154506048Y-66798769D01*
X154424234Y-66898425D01*
X154325084Y-67110767D01*
X154227068Y-67382975D01*
X154148653Y-67662230D01*
X154108308Y-67895714D01*
X154106333Y-67941944D01*
X154085306Y-68091384D01*
X153998299Y-68151245D01*
X153809420Y-68133075D01*
X153640667Y-68091763D01*
X153346741Y-68000625D01*
X153071830Y-67895820D01*
X153041613Y-67882361D01*
X152781226Y-67763081D01*
X153083946Y-67477546D01*
X153276336Y-67270183D01*
X153365088Y-67079291D01*
X153386666Y-66826239D01*
X153386667Y-66824759D01*
X153386667Y-66457506D01*
X153767667Y-66573170D01*
X154067010Y-66656461D01*
X154261358Y-66669313D01*
X154389466Y-66588396D01*
X154490090Y-66390376D01*
X154594656Y-66075314D01*
X154687273Y-65766061D01*
X154754930Y-65513663D01*
X154784739Y-65366709D01*
X154785156Y-65357166D01*
X154790000Y-65293574D01*
X154826671Y-65264501D01*
X154925026Y-65274362D01*
G37*
G36*
X130877533Y-76357352D02*
G01*
X131108536Y-76396920D01*
X131406016Y-76451966D01*
X131723475Y-76513478D01*
X132014418Y-76572444D01*
X132232350Y-76619852D01*
X132330776Y-76646690D01*
X132331107Y-76646891D01*
X132324649Y-76730753D01*
X132285097Y-76941119D01*
X132219922Y-77240090D01*
X132182700Y-77399858D01*
X132109807Y-77736007D01*
X132063181Y-78010491D01*
X132049381Y-78181401D01*
X132055423Y-78213029D01*
X132167136Y-78271371D01*
X132330830Y-78292974D01*
X132509621Y-78310059D01*
X132773545Y-78351445D01*
X133071457Y-78406997D01*
X133352210Y-78466581D01*
X133564658Y-78520061D01*
X133656294Y-78555625D01*
X133651020Y-78645781D01*
X133611847Y-78862117D01*
X133546106Y-79166579D01*
X133503557Y-79348333D01*
X133320667Y-80110333D01*
X132855000Y-80060045D01*
X132508615Y-80017253D01*
X132163105Y-79966294D01*
X132029500Y-79943391D01*
X131669667Y-79877024D01*
X131669667Y-80220053D01*
X131649244Y-80516386D01*
X131597778Y-80861210D01*
X131570458Y-80992874D01*
X131471250Y-81422666D01*
X131083625Y-81411008D01*
X130748040Y-81383805D01*
X130383979Y-81330158D01*
X130285026Y-81310506D01*
X129874052Y-81221662D01*
X129925193Y-80814164D01*
X129969655Y-80459985D01*
X130017031Y-80082731D01*
X130028507Y-79991378D01*
X130080357Y-79578670D01*
X130167434Y-79578670D01*
X130170743Y-79613298D01*
X130261821Y-79636504D01*
X130473188Y-79671875D01*
X130756840Y-79712835D01*
X131064773Y-79752808D01*
X131348981Y-79785221D01*
X131557830Y-79803289D01*
X131667514Y-79786739D01*
X131743119Y-79696792D01*
X131807002Y-79496369D01*
X131844915Y-79327166D01*
X131904501Y-79000459D01*
X131945868Y-78691565D01*
X131956751Y-78546901D01*
X131966000Y-78253469D01*
X131373333Y-78109310D01*
X130958872Y-78014191D01*
X130678957Y-77968283D01*
X130505837Y-77972485D01*
X130411764Y-78027694D01*
X130368988Y-78134806D01*
X130367643Y-78141833D01*
X130311813Y-78465430D01*
X130258312Y-78812500D01*
X130212705Y-79141456D01*
X130180558Y-79410709D01*
X130167434Y-79578670D01*
X130080357Y-79578670D01*
X130080681Y-79576091D01*
X129626340Y-79486124D01*
X129303463Y-79428830D01*
X128996137Y-79384848D01*
X128875667Y-79372245D01*
X128579333Y-79348333D01*
X128608939Y-78840333D01*
X128652267Y-78532090D01*
X128736806Y-78219705D01*
X128845348Y-77947240D01*
X128960683Y-77758755D01*
X129055337Y-77697333D01*
X129164576Y-77715239D01*
X129390025Y-77762211D01*
X129683156Y-77828133D01*
X129686990Y-77829022D01*
X130015541Y-77891541D01*
X130244176Y-77906883D01*
X130332066Y-77883467D01*
X130396382Y-77755064D01*
X130473175Y-77513212D01*
X130549305Y-77211847D01*
X130611637Y-76904905D01*
X130647033Y-76646322D01*
X130650651Y-76575500D01*
X130686039Y-76406420D01*
X130759500Y-76342274D01*
X130877533Y-76357352D01*
G37*
G36*
X167822333Y-75907898D02*
G01*
X168175843Y-75924502D01*
X168462807Y-75943646D01*
X168643015Y-75962357D01*
X168682172Y-75971454D01*
X168701300Y-76064405D01*
X168708121Y-76288465D01*
X168702227Y-76605827D01*
X168691548Y-76841274D01*
X168669240Y-77217652D01*
X168669064Y-77471856D01*
X168717263Y-77632264D01*
X168840082Y-77727259D01*
X169063763Y-77785219D01*
X169414550Y-77834525D01*
X169636901Y-77863601D01*
X169951453Y-77907953D01*
X170191483Y-77945682D01*
X170315961Y-77970211D01*
X170324496Y-77973789D01*
X170323881Y-78065805D01*
X170300570Y-78279609D01*
X170261396Y-78570252D01*
X170213196Y-78892784D01*
X170162806Y-79202254D01*
X170117061Y-79453714D01*
X170082796Y-79602214D01*
X170073722Y-79622833D01*
X169974729Y-79632566D01*
X169748590Y-79619680D01*
X169435560Y-79587046D01*
X169266742Y-79565276D01*
X168920191Y-79524844D01*
X168635031Y-79504411D01*
X168454342Y-79506494D01*
X168418239Y-79515664D01*
X168366574Y-79625743D01*
X168334966Y-79843703D01*
X168330333Y-79976513D01*
X168317702Y-80329547D01*
X168286367Y-80696899D01*
X168276492Y-80775849D01*
X168231636Y-81017736D01*
X168168141Y-81130870D01*
X168061134Y-81155715D01*
X168043658Y-81154644D01*
X167874173Y-81141544D01*
X167592994Y-81119985D01*
X167257272Y-81094348D01*
X167215225Y-81091144D01*
X166900134Y-81061797D01*
X166655594Y-81029030D01*
X166526470Y-80999091D01*
X166518567Y-80994120D01*
X166506146Y-80891693D01*
X166521839Y-80674069D01*
X166553685Y-80443786D01*
X166599973Y-80106846D01*
X166630064Y-79783807D01*
X166636509Y-79625113D01*
X166635098Y-79480976D01*
X166611871Y-79380918D01*
X166539136Y-79311561D01*
X166389197Y-79259526D01*
X166134360Y-79211436D01*
X165746932Y-79153911D01*
X165624555Y-79136263D01*
X165317176Y-79088161D01*
X165082215Y-79044486D01*
X165045056Y-79034792D01*
X166691380Y-79034792D01*
X166695309Y-79203435D01*
X166705662Y-79234281D01*
X166832114Y-79301217D01*
X167060838Y-79345959D01*
X167416604Y-79371990D01*
X167747938Y-79380845D01*
X168393209Y-79390666D01*
X168500042Y-78583493D01*
X168540074Y-78230408D01*
X168560213Y-77942185D01*
X168558334Y-77758609D01*
X168546381Y-77715825D01*
X168440553Y-77689822D01*
X168205548Y-77669383D01*
X167881499Y-77657276D01*
X167667554Y-77655165D01*
X166849223Y-77655000D01*
X166748273Y-78417000D01*
X166709744Y-78759040D01*
X166691380Y-79034792D01*
X165045056Y-79034792D01*
X164963691Y-79013566D01*
X164958331Y-79010220D01*
X164953653Y-78916882D01*
X164969026Y-78693413D01*
X165001352Y-78377426D01*
X165029850Y-78141328D01*
X165136149Y-77307215D01*
X165975493Y-77427466D01*
X166333569Y-77473831D01*
X166625329Y-77502328D01*
X166812793Y-77509776D01*
X166860903Y-77501652D01*
X166886553Y-77402241D01*
X166917168Y-77173751D01*
X166947888Y-76856147D01*
X166962484Y-76666293D01*
X167018000Y-75877000D01*
X167822333Y-75907898D01*
G37*
G36*
X138318135Y-80237333D02*
G01*
X138357949Y-80634513D01*
X138402672Y-81060247D01*
X138428368Y-81294741D01*
X138485333Y-81801816D01*
X139449292Y-81773262D01*
X140413252Y-81744707D01*
X140353163Y-81985853D01*
X140322978Y-82172985D01*
X140290871Y-82479252D01*
X140261635Y-82854593D01*
X140247701Y-83087631D01*
X140202327Y-83948263D01*
X139399317Y-84008467D01*
X138596306Y-84068671D01*
X138644561Y-84417835D01*
X138673906Y-84669554D01*
X138708309Y-85022866D01*
X138741314Y-85410426D01*
X138747974Y-85496610D01*
X138803132Y-86226220D01*
X138432566Y-86277684D01*
X138169362Y-86308696D01*
X137806801Y-86344369D01*
X137414474Y-86377958D01*
X137333872Y-86384186D01*
X136605745Y-86439224D01*
X136555506Y-86188032D01*
X136528273Y-85996911D01*
X136495855Y-85686994D01*
X136463190Y-85308517D01*
X136445395Y-85067535D01*
X136385523Y-84198230D01*
X135996095Y-84247952D01*
X135716869Y-84279436D01*
X135344820Y-84315960D01*
X134955999Y-84350097D01*
X134920149Y-84353011D01*
X134632419Y-84377329D01*
X134427441Y-84380705D01*
X134289312Y-84339635D01*
X134202128Y-84230616D01*
X134149985Y-84030143D01*
X134116979Y-83714714D01*
X134087206Y-83260824D01*
X134077402Y-83107557D01*
X134018929Y-82210114D01*
X134294214Y-82155057D01*
X134369235Y-82146051D01*
X136256284Y-82146051D01*
X136268762Y-82361631D01*
X136292987Y-82665503D01*
X136325104Y-83017706D01*
X136361258Y-83378281D01*
X136397595Y-83707268D01*
X136430261Y-83964706D01*
X136455400Y-84110635D01*
X136458284Y-84120439D01*
X136563594Y-84197869D01*
X136687195Y-84185095D01*
X136852708Y-84162775D01*
X137138855Y-84145185D01*
X137496950Y-84134837D01*
X137693108Y-84133156D01*
X138107222Y-84125338D01*
X138374511Y-84101347D01*
X138516965Y-84058275D01*
X138552739Y-84019451D01*
X138559087Y-83906745D01*
X138552230Y-83668364D01*
X138535136Y-83344919D01*
X138510774Y-82977023D01*
X138482111Y-82605289D01*
X138452118Y-82270329D01*
X138423762Y-82012755D01*
X138400013Y-81873179D01*
X138394978Y-81861255D01*
X138309853Y-81859691D01*
X138095551Y-81872571D01*
X137791259Y-81896272D01*
X137436165Y-81927171D01*
X137069459Y-81961644D01*
X136730329Y-81996067D01*
X136457963Y-82026816D01*
X136291549Y-82050268D01*
X136259407Y-82058723D01*
X136256284Y-82146051D01*
X134369235Y-82146051D01*
X134506849Y-82129531D01*
X134829007Y-82110290D01*
X135200905Y-82100574D01*
X135310550Y-82100000D01*
X135752830Y-82086623D01*
X136030369Y-82046611D01*
X136133955Y-81994166D01*
X136170796Y-81847360D01*
X136173511Y-81565648D01*
X136149556Y-81253333D01*
X136114822Y-80874000D01*
X136088856Y-80498998D01*
X136077568Y-80220003D01*
X136081664Y-79977459D01*
X136122756Y-79853889D01*
X136231479Y-79799053D01*
X136347500Y-79777344D01*
X136553479Y-79755426D01*
X136874200Y-79733930D01*
X137255095Y-79716205D01*
X137443766Y-79710007D01*
X138264865Y-79687000D01*
X138318135Y-80237333D01*
G37*
G36*
X146232333Y-70416000D02*
G01*
X146232333Y-72956000D01*
X146740333Y-72956000D01*
X147248333Y-72956000D01*
X147248333Y-72448000D01*
X147248333Y-71940000D01*
X151312333Y-71940000D01*
X155376333Y-71940000D01*
X155376333Y-72448000D01*
X155376333Y-72956000D01*
X155884333Y-72956000D01*
X156392333Y-72956000D01*
X156392333Y-73464000D01*
X156392333Y-73972000D01*
X157408333Y-73972000D01*
X158424333Y-73972000D01*
X158424333Y-73464000D01*
X158424333Y-72956000D01*
X158932333Y-72956000D01*
X159440333Y-72956000D01*
X159440333Y-73464000D01*
X159440333Y-73972000D01*
X160922000Y-73972000D01*
X162403667Y-73972000D01*
X162403667Y-77020000D01*
X162403667Y-80068000D01*
X161430000Y-80068000D01*
X160456333Y-80068000D01*
X160456333Y-80576000D01*
X160456333Y-81084000D01*
X159821333Y-81084000D01*
X159517817Y-81074844D01*
X159293286Y-81050627D01*
X159189111Y-81016219D01*
X159186333Y-81009221D01*
X159123861Y-80921127D01*
X158962776Y-80772611D01*
X158807951Y-80649388D01*
X158429569Y-80364333D01*
X158426951Y-79157833D01*
X158424333Y-77951333D01*
X158932333Y-77951333D01*
X159440333Y-77951333D01*
X159440333Y-76935333D01*
X159440333Y-75919333D01*
X158932333Y-75919333D01*
X158424333Y-75919333D01*
X158424333Y-76427333D01*
X158424333Y-76935333D01*
X157408333Y-76935333D01*
X156392333Y-76935333D01*
X156392333Y-77993666D01*
X156392333Y-79052000D01*
X155376333Y-79052000D01*
X154360333Y-79052000D01*
X154360333Y-79560000D01*
X154360333Y-80068000D01*
X147798667Y-80068000D01*
X141237000Y-80068000D01*
X141237000Y-79560000D01*
X141237000Y-79052000D01*
X140729000Y-79052000D01*
X140221000Y-79052000D01*
X140221000Y-78501666D01*
X140221000Y-77951333D01*
X141237000Y-77951333D01*
X141745000Y-77951333D01*
X142253000Y-77951333D01*
X142253000Y-77443333D01*
X142253000Y-76935333D01*
X141745000Y-76935333D01*
X141237000Y-76935333D01*
X141237000Y-77443333D01*
X141237000Y-77951333D01*
X140221000Y-77951333D01*
X139713000Y-77951333D01*
X139205000Y-77951333D01*
X139205000Y-77443333D01*
X139205000Y-76935333D01*
X138739333Y-76935333D01*
X138273667Y-76935333D01*
X138273667Y-76427333D01*
X138273667Y-75919333D01*
X137765667Y-75919333D01*
X137257667Y-75919333D01*
X137257667Y-74945666D01*
X137257667Y-74903333D01*
X139205000Y-74903333D01*
X139713000Y-74903333D01*
X140221000Y-74903333D01*
X142253000Y-74903333D01*
X142761000Y-74903333D01*
X143269000Y-74903333D01*
X143269000Y-73929666D01*
X143269000Y-72956000D01*
X142761000Y-72956000D01*
X142253000Y-72956000D01*
X142253000Y-73929666D01*
X142253000Y-74903333D01*
X140221000Y-74903333D01*
X140221000Y-73929666D01*
X140221000Y-72956000D01*
X139713000Y-72956000D01*
X139205000Y-72956000D01*
X139205000Y-73929666D01*
X139205000Y-74903333D01*
X137257667Y-74903333D01*
X137257667Y-73972000D01*
X136749667Y-73972000D01*
X136241667Y-73972000D01*
X136241667Y-73929666D01*
X136241667Y-71432000D01*
X136241667Y-68892000D01*
X137257667Y-68892000D01*
X138273667Y-68892000D01*
X138273667Y-69400000D01*
X138273667Y-69908000D01*
X138739333Y-69908000D01*
X139205000Y-69908000D01*
X139205000Y-70416000D01*
X139205000Y-70924000D01*
X141237000Y-70924000D01*
X143269000Y-70924000D01*
X143269000Y-69908000D01*
X143269000Y-68892000D01*
X143777000Y-68892000D01*
X144285000Y-68892000D01*
X144285000Y-68384000D01*
X144285000Y-67876000D01*
X145258667Y-67876000D01*
X146232333Y-67876000D01*
X146232333Y-70416000D01*
G37*
G36*
X159203484Y-65391032D02*
G01*
X159301453Y-65430659D01*
X159462148Y-65525666D01*
X159525000Y-65603590D01*
X159596028Y-65661373D01*
X159694333Y-65674666D01*
X159832001Y-65704182D01*
X159863667Y-65745026D01*
X159930255Y-65831496D01*
X160078227Y-65930215D01*
X160262662Y-66078230D01*
X160445163Y-66297696D01*
X160476867Y-66346689D01*
X160693624Y-66650147D01*
X160873768Y-66789456D01*
X161018479Y-66765529D01*
X161018800Y-66765263D01*
X161146124Y-66762301D01*
X161365075Y-66861377D01*
X161647385Y-67044947D01*
X161964788Y-67295470D01*
X162169912Y-67479652D01*
X162418548Y-67705081D01*
X162670680Y-67920110D01*
X162748691Y-67982820D01*
X163014667Y-68190978D01*
X162624500Y-68471175D01*
X162360126Y-68687516D01*
X162246538Y-68854033D01*
X162277240Y-68983642D01*
X162340414Y-69035959D01*
X162439228Y-69139124D01*
X162606516Y-69355365D01*
X162820444Y-69654517D01*
X163059180Y-70006415D01*
X163208000Y-70234613D01*
X163343626Y-70418100D01*
X163398500Y-70481972D01*
X163494065Y-70635912D01*
X163475555Y-70737300D01*
X163415160Y-70754666D01*
X163310835Y-70801903D01*
X163107731Y-70928182D01*
X162842088Y-71110352D01*
X162716660Y-71200836D01*
X162317255Y-71489152D01*
X161990690Y-71716585D01*
X161756256Y-71870120D01*
X161633241Y-71936741D01*
X161623479Y-71938478D01*
X161567218Y-71873611D01*
X161444676Y-71706121D01*
X161303000Y-71502278D01*
X161131238Y-71249639D01*
X160989428Y-71039836D01*
X160922000Y-70938991D01*
X160808050Y-70774721D01*
X160646223Y-70559416D01*
X160473558Y-70337756D01*
X160312364Y-70132513D01*
X160001103Y-70324883D01*
X159780934Y-70467993D01*
X159612918Y-70589388D01*
X159582679Y-70614793D01*
X159414361Y-70746935D01*
X159339580Y-70797000D01*
X159194393Y-70892627D01*
X158972077Y-71044388D01*
X158826840Y-71145295D01*
X158450036Y-71408924D01*
X158140851Y-70992860D01*
X157977203Y-70760374D01*
X157865122Y-70577685D01*
X157831667Y-70496398D01*
X157776429Y-70417632D01*
X157762590Y-70416000D01*
X157683554Y-70348691D01*
X157563138Y-70178403D01*
X157503173Y-70077333D01*
X157373706Y-69875072D01*
X157265713Y-69753986D01*
X157233582Y-69738666D01*
X157155229Y-69685471D01*
X157167994Y-69570243D01*
X157252798Y-69459518D01*
X157323667Y-69424532D01*
X157460839Y-69361064D01*
X157493000Y-69313821D01*
X157558071Y-69231916D01*
X157721824Y-69104105D01*
X157805292Y-69048529D01*
X158031405Y-68904437D01*
X158213738Y-68788062D01*
X158249792Y-68765000D01*
X158523872Y-68575760D01*
X158751949Y-68393548D01*
X158898065Y-68248890D01*
X158903730Y-68238423D01*
X159084398Y-68238423D01*
X159099239Y-68340856D01*
X159168014Y-68457809D01*
X159281907Y-68627618D01*
X159356638Y-68722666D01*
X159432467Y-68818148D01*
X159570252Y-69012613D01*
X159740663Y-69262422D01*
X159914366Y-69523939D01*
X160062031Y-69753527D01*
X160154326Y-69907550D01*
X160158910Y-69916206D01*
X160287264Y-70054359D01*
X160428628Y-70060277D01*
X160497399Y-69994716D01*
X160590170Y-69909049D01*
X160783824Y-69764492D01*
X161031563Y-69595594D01*
X161286819Y-69419329D01*
X161485590Y-69265463D01*
X161582374Y-69170210D01*
X161708162Y-69071187D01*
X161759751Y-69061333D01*
X161896021Y-69003491D01*
X162015624Y-68899781D01*
X162088250Y-68804256D01*
X162099282Y-68709062D01*
X162036866Y-68571517D01*
X161889152Y-68348944D01*
X161845165Y-68285948D01*
X161517283Y-67820842D01*
X161268984Y-67478808D01*
X161085044Y-67242611D01*
X160950243Y-67095016D01*
X160849357Y-67018789D01*
X160767164Y-66996694D01*
X160713002Y-67004103D01*
X160574540Y-67062699D01*
X160541000Y-67103887D01*
X160475416Y-67176737D01*
X160309022Y-67299259D01*
X160202333Y-67368000D01*
X160002394Y-67504127D01*
X159880797Y-67611132D01*
X159863667Y-67641987D01*
X159798083Y-67704287D01*
X159774035Y-67706666D01*
X159660488Y-67756099D01*
X159471506Y-67881982D01*
X159355505Y-67970976D01*
X159163327Y-68131989D01*
X159084398Y-68238423D01*
X158903730Y-68238423D01*
X158932333Y-68185569D01*
X158884802Y-68071674D01*
X158766242Y-67887817D01*
X158720667Y-67826140D01*
X158587161Y-67630742D01*
X158513838Y-67483842D01*
X158509000Y-67458315D01*
X158453755Y-67371519D01*
X158432696Y-67368000D01*
X158344596Y-67302741D01*
X158213039Y-67138569D01*
X158157530Y-67055707D01*
X157945615Y-66714667D01*
X157827459Y-66480672D01*
X157803769Y-66319292D01*
X157875252Y-66196097D01*
X158042614Y-66076659D01*
X158179232Y-65998158D01*
X158378200Y-65872248D01*
X158495590Y-65770742D01*
X158509000Y-65743742D01*
X158575641Y-65678704D01*
X158609376Y-65674666D01*
X158738881Y-65621086D01*
X158893830Y-65501735D01*
X159051625Y-65386486D01*
X159203484Y-65391032D01*
G37*
G36*
X163237416Y-108577622D02*
G01*
X163477698Y-108638634D01*
X163788814Y-108713855D01*
X163860542Y-108730767D01*
X164513084Y-108883919D01*
X164464345Y-109239510D01*
X164441149Y-109464453D01*
X164478167Y-109579480D01*
X164612295Y-109642394D01*
X164743136Y-109676299D01*
X164945793Y-109744664D01*
X165051968Y-109816222D01*
X165056945Y-109835249D01*
X165033494Y-109963733D01*
X164993162Y-110181433D01*
X164984022Y-110230500D01*
X164953779Y-110436844D01*
X164988137Y-110526237D01*
X165117474Y-110547565D01*
X165181319Y-110548000D01*
X165407844Y-110563015D01*
X165560496Y-110595076D01*
X165652944Y-110574139D01*
X165733449Y-110418127D01*
X165781547Y-110251484D01*
X165856501Y-110010724D01*
X165935080Y-109906875D01*
X166025626Y-109904054D01*
X166327893Y-109989591D01*
X166505899Y-110014321D01*
X166597580Y-109966075D01*
X166640874Y-109832688D01*
X166660239Y-109700513D01*
X166696699Y-109475018D01*
X166731217Y-109333726D01*
X166740475Y-109315635D01*
X166834713Y-109315345D01*
X167030246Y-109354681D01*
X167107427Y-109374899D01*
X167416865Y-109448665D01*
X167757143Y-109513629D01*
X167822333Y-109523872D01*
X168048889Y-109567343D01*
X168161665Y-109639796D01*
X168183539Y-109784156D01*
X168137389Y-110043350D01*
X168126191Y-110093992D01*
X168100179Y-110268482D01*
X168151832Y-110360324D01*
X168320206Y-110420546D01*
X168389194Y-110437629D01*
X168584577Y-110492988D01*
X168675302Y-110569839D01*
X168695772Y-110722554D01*
X168686487Y-110907473D01*
X168661640Y-111299339D01*
X168982820Y-111325836D01*
X169195654Y-111358274D01*
X169293110Y-111438139D01*
X169329131Y-111610657D01*
X169329726Y-111616703D01*
X169321019Y-111823815D01*
X169274732Y-112133801D01*
X169200238Y-112486841D01*
X169181559Y-112562143D01*
X169099557Y-112910006D01*
X169038377Y-113220395D01*
X169008844Y-113436931D01*
X169007667Y-113467645D01*
X168982722Y-113627406D01*
X168889911Y-113655685D01*
X168859500Y-113648059D01*
X168551464Y-113560625D01*
X168365492Y-113534300D01*
X168261274Y-113582138D01*
X168198502Y-113717192D01*
X168156334Y-113875787D01*
X168092158Y-114105732D01*
X168026035Y-114206256D01*
X167916135Y-114212506D01*
X167793739Y-114180466D01*
X167535395Y-114118872D01*
X167391604Y-114138861D01*
X167318079Y-114263333D01*
X167281385Y-114445392D01*
X167226794Y-114786784D01*
X166813978Y-114732022D01*
X166401162Y-114677260D01*
X166340619Y-115035612D01*
X166280076Y-115393964D01*
X165922551Y-115353666D01*
X165565025Y-115313367D01*
X165467783Y-115676947D01*
X165401474Y-115899501D01*
X165331638Y-115993154D01*
X165212262Y-115992921D01*
X165094162Y-115961264D01*
X164822920Y-115896107D01*
X164673444Y-115905188D01*
X164610438Y-115999455D01*
X164599049Y-116114833D01*
X164571269Y-116393303D01*
X164484612Y-116532243D01*
X164306696Y-116559372D01*
X164116397Y-116527953D01*
X163884157Y-116460231D01*
X163792921Y-116379374D01*
X163794877Y-116314097D01*
X163878394Y-116015932D01*
X163899927Y-115839572D01*
X163845918Y-115744557D01*
X163702806Y-115690430D01*
X163576471Y-115662430D01*
X163213575Y-115585666D01*
X163238226Y-115185503D01*
X163262876Y-114785340D01*
X162917938Y-114730182D01*
X162695097Y-114680379D01*
X162595329Y-114594826D01*
X162595420Y-114429169D01*
X162649466Y-114217260D01*
X162687608Y-114052580D01*
X162655066Y-113960910D01*
X162516617Y-113899955D01*
X162348208Y-113855527D01*
X162112620Y-113781061D01*
X162014091Y-113701013D01*
X162013721Y-113614707D01*
X162101488Y-113304727D01*
X162131423Y-113122388D01*
X162096321Y-113033741D01*
X161988976Y-113004838D01*
X161883678Y-113002036D01*
X161602852Y-112978738D01*
X161463694Y-112894326D01*
X161442072Y-112722104D01*
X161478643Y-112553945D01*
X161531095Y-112296975D01*
X161490283Y-112150452D01*
X161329998Y-112069331D01*
X161176935Y-112035428D01*
X161030243Y-111996621D01*
X160934551Y-111928354D01*
X160887888Y-111805574D01*
X160888284Y-111603228D01*
X160933143Y-111300486D01*
X161740610Y-111300486D01*
X161802157Y-111397010D01*
X161989069Y-111465973D01*
X161991898Y-111466788D01*
X162260391Y-111534324D01*
X162411464Y-111525966D01*
X162488101Y-111420083D01*
X162533286Y-111195046D01*
X162533399Y-111194292D01*
X162588840Y-110824585D01*
X162951191Y-110865428D01*
X163179105Y-110883554D01*
X163295935Y-110845056D01*
X163358793Y-110712899D01*
X163392971Y-110578968D01*
X163448800Y-110381224D01*
X163525342Y-110288150D01*
X163676709Y-110264900D01*
X163869367Y-110272195D01*
X164110855Y-110276660D01*
X164228083Y-110244615D01*
X164265192Y-110157285D01*
X164267489Y-110102862D01*
X164291506Y-109858303D01*
X164319697Y-109722500D01*
X164334615Y-109593268D01*
X164256419Y-109540567D01*
X164085708Y-109530995D01*
X163832756Y-109507838D01*
X163515429Y-109450240D01*
X163363782Y-109413667D01*
X162926898Y-109297344D01*
X162832156Y-109673597D01*
X162757743Y-109908590D01*
X162677514Y-110006506D01*
X162591707Y-110006612D01*
X162397883Y-109953901D01*
X162216851Y-109908766D01*
X162092556Y-109887070D01*
X162011298Y-109914521D01*
X161956227Y-110021670D01*
X161910492Y-110239068D01*
X161864277Y-110548000D01*
X161816067Y-110844804D01*
X161764524Y-111114591D01*
X161740610Y-111300486D01*
X160933143Y-111300486D01*
X160933769Y-111296263D01*
X161022372Y-110859629D01*
X161067960Y-110649831D01*
X161259063Y-109777997D01*
X161562856Y-109829322D01*
X161812743Y-109838475D01*
X161970833Y-109743047D01*
X162073977Y-109514853D01*
X162099017Y-109419214D01*
X162150460Y-109268666D01*
X162244096Y-109205686D01*
X162435131Y-109201967D01*
X162511805Y-109207548D01*
X162867229Y-109235666D01*
X162944677Y-108871723D01*
X163010768Y-108656524D01*
X163086089Y-108546778D01*
X163115063Y-108542698D01*
X163237416Y-108577622D01*
G37*
G36*
X161388142Y-117728108D02*
G01*
X161447724Y-117796921D01*
X161537598Y-117972076D01*
X161557000Y-118067052D01*
X161624947Y-118145339D01*
X161812681Y-118135361D01*
X162074066Y-118047472D01*
X162194101Y-118054498D01*
X162298504Y-118205285D01*
X162317171Y-118248251D01*
X162456850Y-118452403D01*
X162644300Y-118495415D01*
X162875429Y-118387052D01*
X162996650Y-118321355D01*
X163074434Y-118364946D01*
X163154511Y-118535219D01*
X163261983Y-118792469D01*
X163389190Y-119086082D01*
X163413843Y-119141666D01*
X163583157Y-119528756D01*
X163686784Y-119791337D01*
X163732005Y-119957705D01*
X163726098Y-120056157D01*
X163676344Y-120114991D01*
X163666011Y-120121856D01*
X163478051Y-120188972D01*
X163388630Y-120198703D01*
X163280934Y-120229864D01*
X163268931Y-120351802D01*
X163285460Y-120432833D01*
X163340817Y-120703794D01*
X163336414Y-120862937D01*
X163259602Y-120961090D01*
X163136798Y-121030210D01*
X162967155Y-121149051D01*
X162940177Y-121286264D01*
X162946298Y-121308977D01*
X163015726Y-121533080D01*
X163048577Y-121639467D01*
X163055105Y-121763622D01*
X162949350Y-121833865D01*
X162829352Y-121863229D01*
X162653667Y-121925783D01*
X162590159Y-122042657D01*
X162630503Y-122248399D01*
X162695974Y-122416777D01*
X162693738Y-122542402D01*
X162554354Y-122661571D01*
X162490887Y-122696345D01*
X162313186Y-122813136D01*
X162265852Y-122934853D01*
X162282720Y-123019568D01*
X162362941Y-123213584D01*
X162419495Y-123305595D01*
X162420310Y-123410922D01*
X162303583Y-123513670D01*
X162117983Y-123578875D01*
X162028233Y-123586666D01*
X161916274Y-123646395D01*
X161913333Y-123805707D01*
X162019197Y-124034795D01*
X162031561Y-124054025D01*
X162116195Y-124205195D01*
X162082398Y-124284799D01*
X161941383Y-124347380D01*
X161715622Y-124418917D01*
X161577382Y-124399766D01*
X161461099Y-124271625D01*
X161415244Y-124200500D01*
X161309970Y-124032492D01*
X161252933Y-123941975D01*
X161251826Y-123940256D01*
X161173699Y-123956260D01*
X161005348Y-124031366D01*
X160975446Y-124046586D01*
X160796534Y-124128737D01*
X160702252Y-124121247D01*
X160630286Y-124018627D01*
X160628911Y-124016062D01*
X160556123Y-123821603D01*
X160541000Y-123719232D01*
X160500782Y-123608075D01*
X160367507Y-123605590D01*
X160126873Y-123708905D01*
X159968579Y-123778941D01*
X159874173Y-123754840D01*
X159785621Y-123610425D01*
X159751447Y-123539572D01*
X159635952Y-123329534D01*
X159528889Y-123261861D01*
X159379341Y-123320327D01*
X159277411Y-123388505D01*
X159127116Y-123478974D01*
X159036614Y-123461154D01*
X158962239Y-123372322D01*
X158868683Y-123179364D01*
X158847667Y-123062484D01*
X158820194Y-122940650D01*
X158718427Y-122922412D01*
X158513342Y-123005455D01*
X158461787Y-123031721D01*
X158292013Y-123105475D01*
X158197289Y-123075606D01*
X158118590Y-122947298D01*
X157996614Y-122724913D01*
X157904204Y-122629117D01*
X157794326Y-122635485D01*
X157650096Y-122703994D01*
X157469293Y-122785640D01*
X157365794Y-122777341D01*
X157276593Y-122682517D01*
X157181693Y-122520012D01*
X157157026Y-122432731D01*
X157123574Y-122314331D01*
X157039589Y-122091241D01*
X156925434Y-121812547D01*
X156801467Y-121527339D01*
X156688049Y-121284704D01*
X156649793Y-121209807D01*
X156654667Y-121070419D01*
X156779293Y-120946522D01*
X156892837Y-120908201D01*
X157245034Y-120908201D01*
X157291136Y-121063089D01*
X157356362Y-121223791D01*
X157465886Y-121490214D01*
X157557962Y-121719135D01*
X157582070Y-121780841D01*
X157682411Y-121915888D01*
X157847984Y-121916779D01*
X158044174Y-121847689D01*
X158140426Y-121793325D01*
X158195975Y-121657208D01*
X158171727Y-121452531D01*
X158077126Y-121254644D01*
X158072067Y-121248006D01*
X158082307Y-121149226D01*
X158253629Y-121047234D01*
X158457376Y-120892385D01*
X158509438Y-120674769D01*
X158425036Y-120454000D01*
X158404847Y-120351053D01*
X158511516Y-120256292D01*
X158624837Y-120200000D01*
X158808099Y-120102467D01*
X158867337Y-119997111D01*
X158837140Y-119816812D01*
X158832083Y-119797833D01*
X158753847Y-119609018D01*
X158631275Y-119535683D01*
X158432482Y-119572730D01*
X158170333Y-119692000D01*
X157938105Y-119796868D01*
X157754797Y-119856293D01*
X157715095Y-119861333D01*
X157581781Y-119920694D01*
X157562180Y-120075758D01*
X157649614Y-120273764D01*
X157721436Y-120399514D01*
X157720326Y-120491724D01*
X157623362Y-120588008D01*
X157407618Y-120725984D01*
X157354444Y-120758124D01*
X157266208Y-120823756D01*
X157245034Y-120908201D01*
X156892837Y-120908201D01*
X156976168Y-120880077D01*
X157026184Y-120877333D01*
X157134898Y-120817243D01*
X157136256Y-120657590D01*
X157030827Y-120429296D01*
X157017596Y-120408687D01*
X156932548Y-120261324D01*
X156948247Y-120206304D01*
X157008216Y-120200000D01*
X157163283Y-120149665D01*
X157331189Y-120041600D01*
X157459499Y-119923612D01*
X157473850Y-119823325D01*
X157383130Y-119663937D01*
X157376137Y-119653254D01*
X157281041Y-119492153D01*
X157251740Y-119408552D01*
X157253401Y-119406683D01*
X157343272Y-119364655D01*
X157493000Y-119299111D01*
X157698807Y-119207556D01*
X157970612Y-119082887D01*
X158085667Y-119029177D01*
X158466667Y-118850190D01*
X158531507Y-119097593D01*
X158620551Y-119325655D01*
X158749886Y-119401258D01*
X158956484Y-119341244D01*
X159009019Y-119315126D01*
X159182955Y-119235421D01*
X159266206Y-119244408D01*
X159310100Y-119332833D01*
X159403167Y-119522726D01*
X159477495Y-119634517D01*
X159568832Y-119731011D01*
X159670558Y-119737660D01*
X159849100Y-119657185D01*
X159862443Y-119650299D01*
X160035721Y-119550783D01*
X160079106Y-119466026D01*
X160014528Y-119335798D01*
X159990442Y-119298774D01*
X159897821Y-119076696D01*
X159929754Y-118913907D01*
X160078484Y-118844521D01*
X160093843Y-118844036D01*
X160292851Y-118802085D01*
X160361755Y-118768584D01*
X160430604Y-118691071D01*
X160390965Y-118573177D01*
X160340588Y-118497041D01*
X160246606Y-118350598D01*
X160215256Y-118238078D01*
X160265656Y-118140331D01*
X160416925Y-118038206D01*
X160688183Y-117912552D01*
X161087891Y-117748517D01*
X161275709Y-117691521D01*
X161388142Y-117728108D01*
G37*
G36*
X140170455Y-118964969D02*
G01*
X140220106Y-119102659D01*
X140221000Y-119141666D01*
X140256393Y-119303218D01*
X140393633Y-119352630D01*
X140426778Y-119353333D01*
X140598674Y-119402960D01*
X140659611Y-119543833D01*
X140755666Y-119715020D01*
X140871960Y-119760706D01*
X141039518Y-119858507D01*
X141083627Y-119972373D01*
X141181164Y-120139436D01*
X141300500Y-120184721D01*
X141459764Y-120268590D01*
X141491000Y-120375221D01*
X141553703Y-120512508D01*
X141660333Y-120538666D01*
X141801837Y-120598535D01*
X141829667Y-120708000D01*
X141890190Y-120850232D01*
X141993111Y-120877333D01*
X142139895Y-120948721D01*
X142183611Y-121067833D01*
X142279666Y-121239020D01*
X142395960Y-121284706D01*
X142563518Y-121382507D01*
X142607627Y-121496373D01*
X142705428Y-121663931D01*
X142819293Y-121708039D01*
X142986852Y-121805840D01*
X143030960Y-121919706D01*
X143128761Y-122087264D01*
X143242627Y-122131373D01*
X143410185Y-122229174D01*
X143454293Y-122343039D01*
X143551830Y-122510102D01*
X143671167Y-122555388D01*
X143830431Y-122639257D01*
X143861667Y-122745888D01*
X143924370Y-122883174D01*
X144031000Y-122909333D01*
X144163785Y-122958942D01*
X144200333Y-123121000D01*
X144194811Y-123218771D01*
X144157174Y-123280560D01*
X144055820Y-123314625D01*
X143859146Y-123329221D01*
X143535549Y-123332603D01*
X143390111Y-123332666D01*
X143016109Y-123334376D01*
X142780952Y-123344448D01*
X142654154Y-123370299D01*
X142605230Y-123419344D01*
X142603695Y-123498997D01*
X142606945Y-123523166D01*
X142703092Y-123694378D01*
X142820078Y-123740142D01*
X142937478Y-123783336D01*
X142999782Y-123900066D01*
X143029916Y-124136187D01*
X143031744Y-124163475D01*
X143060204Y-124411998D01*
X143118875Y-124537180D01*
X143230657Y-124584854D01*
X143243223Y-124586784D01*
X143366890Y-124635570D01*
X143430009Y-124767247D01*
X143454890Y-124967784D01*
X143487762Y-125200815D01*
X143559568Y-125313056D01*
X143671167Y-125349388D01*
X143790991Y-125389658D01*
X143846859Y-125497292D01*
X143861579Y-125720441D01*
X143861667Y-125751555D01*
X143852569Y-125984358D01*
X143808094Y-126093774D01*
X143702470Y-126125475D01*
X143650000Y-126126666D01*
X143488878Y-126161636D01*
X143439227Y-126299326D01*
X143438333Y-126338333D01*
X143415342Y-126484007D01*
X143312419Y-126537570D01*
X143163167Y-126540178D01*
X142921254Y-126521400D01*
X142739833Y-126491637D01*
X142616417Y-126386245D01*
X142591667Y-126289791D01*
X142538646Y-126160920D01*
X142380000Y-126126666D01*
X142249385Y-126110875D01*
X142187501Y-126033253D01*
X142169142Y-125848430D01*
X142168333Y-125745666D01*
X142157254Y-125507571D01*
X142111248Y-125394983D01*
X142011164Y-125364812D01*
X141999000Y-125364666D01*
X141893180Y-125339737D01*
X141843141Y-125236224D01*
X141829731Y-125011037D01*
X141829667Y-124983666D01*
X141818587Y-124745571D01*
X141772581Y-124632983D01*
X141672498Y-124602812D01*
X141660333Y-124602666D01*
X141558766Y-124580378D01*
X141508111Y-124485775D01*
X141491724Y-124277249D01*
X141491000Y-124179333D01*
X141484137Y-123928089D01*
X141449115Y-123802749D01*
X141364280Y-123760010D01*
X141279333Y-123756000D01*
X141118211Y-123790969D01*
X141068560Y-123928659D01*
X141067667Y-123967666D01*
X141032697Y-124128788D01*
X140895007Y-124178439D01*
X140856000Y-124179333D01*
X140694878Y-124214302D01*
X140645227Y-124351993D01*
X140644333Y-124391000D01*
X140609364Y-124552121D01*
X140471673Y-124601772D01*
X140432667Y-124602666D01*
X140266685Y-124642353D01*
X140221000Y-124772000D01*
X140171391Y-124904784D01*
X140009333Y-124941333D01*
X139797667Y-124941333D01*
X139797667Y-124191110D01*
X140221000Y-124191110D01*
X140411500Y-124164055D01*
X140582687Y-124068000D01*
X140628373Y-123951706D01*
X140726174Y-123784148D01*
X140840040Y-123740039D01*
X141007103Y-123642502D01*
X141052388Y-123523166D01*
X141134177Y-123366937D01*
X141277135Y-123315978D01*
X141417079Y-123367192D01*
X141489825Y-123517481D01*
X141491000Y-123544333D01*
X141530687Y-123710314D01*
X141660333Y-123756000D01*
X141765309Y-123780380D01*
X141815492Y-123882069D01*
X141829525Y-124103884D01*
X141829667Y-124144926D01*
X141844092Y-124396538D01*
X141899123Y-124526576D01*
X141994557Y-124576972D01*
X142111527Y-124656435D01*
X142171464Y-124842907D01*
X142185057Y-124971213D01*
X142218264Y-125203017D01*
X142291321Y-125314215D01*
X142401167Y-125349388D01*
X142529113Y-125396513D01*
X142582966Y-125522411D01*
X142591667Y-125695110D01*
X142608435Y-125950963D01*
X142685321Y-126079828D01*
X142862192Y-126117417D01*
X143054262Y-126109483D01*
X143269110Y-126084605D01*
X143371834Y-126018440D01*
X143410836Y-125860323D01*
X143422035Y-125724500D01*
X143429892Y-125498804D01*
X143393326Y-125394725D01*
X143287689Y-125365707D01*
X143231535Y-125364666D01*
X143098005Y-125349568D01*
X143034741Y-125273950D01*
X143015893Y-125092332D01*
X143015000Y-124983666D01*
X143006227Y-124748559D01*
X142963103Y-124637168D01*
X142860424Y-124604121D01*
X142803333Y-124602666D01*
X142677711Y-124588941D01*
X142615041Y-124518896D01*
X142593672Y-124349226D01*
X142591667Y-124179333D01*
X142584804Y-123928089D01*
X142549781Y-123802749D01*
X142464947Y-123760010D01*
X142380000Y-123756000D01*
X142254378Y-123742274D01*
X142191708Y-123672229D01*
X142170338Y-123502560D01*
X142168333Y-123332666D01*
X142168333Y-122909333D01*
X142803333Y-122909333D01*
X143128001Y-122905333D01*
X143318496Y-122887097D01*
X143409912Y-122845265D01*
X143437337Y-122770481D01*
X143438333Y-122740000D01*
X143388724Y-122607215D01*
X143226667Y-122570666D01*
X143065545Y-122535697D01*
X143015894Y-122398006D01*
X143015000Y-122359000D01*
X142980030Y-122197878D01*
X142842340Y-122148227D01*
X142803333Y-122147333D01*
X142642211Y-122112363D01*
X142592560Y-121974673D01*
X142591667Y-121935666D01*
X142556697Y-121774544D01*
X142419007Y-121724893D01*
X142380000Y-121724000D01*
X142218878Y-121689030D01*
X142169227Y-121551340D01*
X142168333Y-121512333D01*
X142128646Y-121346352D01*
X141999000Y-121300666D01*
X141866215Y-121251057D01*
X141829667Y-121089000D01*
X141789980Y-120923018D01*
X141660333Y-120877333D01*
X141518829Y-120817464D01*
X141491000Y-120708000D01*
X141441391Y-120575215D01*
X141279333Y-120538666D01*
X141113352Y-120498979D01*
X141067667Y-120369333D01*
X141018058Y-120236548D01*
X140856000Y-120200000D01*
X140694878Y-120165030D01*
X140645227Y-120027340D01*
X140644333Y-119988333D01*
X140609364Y-119827211D01*
X140471673Y-119777560D01*
X140432667Y-119776666D01*
X140221000Y-119776666D01*
X140221000Y-121983888D01*
X140221000Y-124191110D01*
X139797667Y-124191110D01*
X139797667Y-121983888D01*
X139797667Y-121935666D01*
X139797667Y-118930000D01*
X140009333Y-118930000D01*
X140170455Y-118964969D01*
G37*
G36*
X136061757Y-110842010D02*
G01*
X136215282Y-110876585D01*
X136294165Y-110922108D01*
X136307053Y-111018924D01*
X136262595Y-111207381D01*
X136192010Y-111449658D01*
X136110609Y-111782339D01*
X136108008Y-111994285D01*
X136193971Y-112119381D01*
X136378266Y-112191514D01*
X136407752Y-112198286D01*
X136581283Y-112251456D01*
X136638767Y-112344704D01*
X136616781Y-112539243D01*
X136615519Y-112545987D01*
X136593390Y-112746821D01*
X136654697Y-112852878D01*
X136834410Y-112931380D01*
X136999090Y-112998441D01*
X137070519Y-113083810D01*
X137073500Y-113243390D01*
X137049922Y-113417162D01*
X136996757Y-113788722D01*
X136977957Y-114026630D01*
X137004837Y-114164994D01*
X137088714Y-114237920D01*
X137240902Y-114279514D01*
X137342333Y-114298512D01*
X137619939Y-114355721D01*
X137983253Y-114438151D01*
X138354187Y-114528076D01*
X138358333Y-114529120D01*
X138732516Y-114616581D01*
X139104021Y-114692322D01*
X139392653Y-114739997D01*
X139393526Y-114740108D01*
X139674254Y-114788414D01*
X139817946Y-114863482D01*
X139856789Y-114998180D01*
X139830885Y-115186742D01*
X139784903Y-115348601D01*
X139698262Y-115410812D01*
X139514729Y-115404284D01*
X139450262Y-115395956D01*
X139120333Y-115351704D01*
X139120333Y-115668363D01*
X139110214Y-115872942D01*
X139058941Y-115949345D01*
X138935137Y-115938448D01*
X138916532Y-115933872D01*
X138704832Y-115874180D01*
X138588241Y-115834950D01*
X138490612Y-115853135D01*
X138423308Y-116012535D01*
X138407205Y-116088589D01*
X138349521Y-116292715D01*
X138250931Y-116376267D01*
X138121663Y-116389083D01*
X137899029Y-116363621D01*
X137612233Y-116300765D01*
X137505892Y-116270765D01*
X137119118Y-116153364D01*
X136976726Y-116687745D01*
X136888443Y-117030938D01*
X136848498Y-117242862D01*
X136859006Y-117355151D01*
X136922082Y-117399438D01*
X137024833Y-117407296D01*
X137226713Y-117423644D01*
X137345355Y-117487862D01*
X137388537Y-117627736D01*
X137364041Y-117871050D01*
X137279647Y-118245590D01*
X137270178Y-118283498D01*
X137187698Y-118628688D01*
X137124625Y-118923722D01*
X137090907Y-119120789D01*
X137087861Y-119159769D01*
X137065595Y-119352537D01*
X137011496Y-119581384D01*
X136943157Y-119788729D01*
X136878171Y-119916991D01*
X136851520Y-119933314D01*
X136730935Y-119912335D01*
X136559067Y-119885347D01*
X136410713Y-119848841D01*
X136356375Y-119765464D01*
X136369316Y-119581610D01*
X136378413Y-119523131D01*
X136403781Y-119311483D01*
X136365220Y-119213842D01*
X136228049Y-119177426D01*
X136145679Y-119168932D01*
X135960411Y-119139081D01*
X135885836Y-119061984D01*
X135881181Y-118883365D01*
X135885666Y-118822816D01*
X135889482Y-118611093D01*
X135830908Y-118508436D01*
X135672124Y-118456367D01*
X135645097Y-118450852D01*
X135473452Y-118402163D01*
X135405732Y-118311833D01*
X135406004Y-118122117D01*
X135410428Y-118073719D01*
X135418267Y-117859279D01*
X135365482Y-117754260D01*
X135220099Y-117701191D01*
X135200776Y-117696866D01*
X134981886Y-117605495D01*
X134910314Y-117445165D01*
X134960271Y-117224306D01*
X134997120Y-117085825D01*
X134946355Y-117005736D01*
X134773097Y-116942390D01*
X134709726Y-116925134D01*
X134498060Y-116877291D01*
X134402659Y-116891274D01*
X134379113Y-116975459D01*
X134379000Y-116987504D01*
X134340317Y-117241820D01*
X134204361Y-117371418D01*
X133957191Y-117406000D01*
X133743077Y-117421326D01*
X133638961Y-117494189D01*
X133587107Y-117661297D01*
X133541887Y-117823862D01*
X133458119Y-117885225D01*
X133279774Y-117875224D01*
X133206643Y-117863921D01*
X132993034Y-117838701D01*
X132889087Y-117880162D01*
X132837619Y-118026063D01*
X132819384Y-118119634D01*
X132770839Y-118320327D01*
X132691569Y-118394602D01*
X132524928Y-118383380D01*
X132468548Y-118373057D01*
X132266464Y-118350318D01*
X132160289Y-118408729D01*
X132083666Y-118581713D01*
X131992351Y-118765901D01*
X131850483Y-118836745D01*
X131703717Y-118845333D01*
X131541189Y-118839265D01*
X131453048Y-118798733D01*
X131430793Y-118690245D01*
X131465922Y-118480308D01*
X131536845Y-118187888D01*
X131618622Y-117852503D01*
X131716203Y-117441296D01*
X131807800Y-117046166D01*
X131957576Y-116390000D01*
X132270229Y-116390000D01*
X132497133Y-116363403D01*
X132624893Y-116260291D01*
X132681008Y-116045680D01*
X132691617Y-115853908D01*
X132716979Y-115604621D01*
X132763828Y-115416333D01*
X132782725Y-115302218D01*
X132705030Y-115223374D01*
X132496778Y-115146707D01*
X132482710Y-115142451D01*
X132202477Y-115074536D01*
X131947204Y-115038363D01*
X131902500Y-115036618D01*
X131751837Y-115019628D01*
X131685636Y-114938386D01*
X131678597Y-114852006D01*
X134227207Y-114852006D01*
X134282524Y-114936038D01*
X134443607Y-114987907D01*
X134677747Y-115023803D01*
X134699569Y-114999067D01*
X135412134Y-114999067D01*
X135418851Y-115101106D01*
X135474651Y-115155379D01*
X135582328Y-115200755D01*
X135585500Y-115202028D01*
X135837538Y-115280537D01*
X135986580Y-115247946D01*
X136068423Y-115082492D01*
X136103395Y-114887166D01*
X136147521Y-114592863D01*
X136193309Y-114332331D01*
X136207777Y-114262354D01*
X136223836Y-114110493D01*
X136151737Y-114039093D01*
X135966034Y-114005680D01*
X135674556Y-113971652D01*
X135534778Y-114496222D01*
X135451708Y-114810395D01*
X135412134Y-114999067D01*
X134699569Y-114999067D01*
X134739385Y-114953934D01*
X134821623Y-114758886D01*
X134908000Y-114478704D01*
X134918975Y-114436950D01*
X134988801Y-114140956D01*
X135030147Y-113914678D01*
X135035157Y-113802155D01*
X135032885Y-113798329D01*
X134929898Y-113759052D01*
X134730573Y-113715758D01*
X134698682Y-113710387D01*
X134404716Y-113662683D01*
X134349003Y-114073841D01*
X134304652Y-114370889D01*
X134258573Y-114634755D01*
X134242948Y-114710826D01*
X134227207Y-114852006D01*
X131678597Y-114852006D01*
X131669804Y-114744097D01*
X131669667Y-114703393D01*
X131655679Y-114483935D01*
X131587783Y-114374947D01*
X131427075Y-114318233D01*
X131409587Y-114314331D01*
X131243431Y-114265181D01*
X131181504Y-114179919D01*
X131193104Y-114001261D01*
X131204505Y-113931675D01*
X131231140Y-113719775D01*
X131189763Y-113617046D01*
X131043201Y-113566160D01*
X130956585Y-113549315D01*
X130747906Y-113490734D01*
X130666772Y-113388149D01*
X130685884Y-113192842D01*
X130707964Y-113105599D01*
X130755752Y-112989252D01*
X130848795Y-112942956D01*
X131037524Y-112950774D01*
X131151307Y-112965512D01*
X131460643Y-113018098D01*
X131830454Y-113094538D01*
X132050667Y-113146257D01*
X132414364Y-113230566D01*
X132791242Y-113308111D01*
X132982000Y-113342431D01*
X133279557Y-113395167D01*
X133542695Y-113448295D01*
X133626539Y-113467847D01*
X133764746Y-113487972D01*
X133847531Y-113433535D01*
X133910950Y-113267466D01*
X133944039Y-113141434D01*
X134003876Y-112854256D01*
X134037595Y-112596322D01*
X134040333Y-112531686D01*
X134052610Y-112387466D01*
X134121447Y-112333865D01*
X134294855Y-112345420D01*
X134369669Y-112357020D01*
X134583352Y-112381997D01*
X134687078Y-112341689D01*
X134737479Y-112201177D01*
X134753258Y-112120494D01*
X134800389Y-111929608D01*
X134879583Y-111868734D01*
X135048569Y-111900508D01*
X135079529Y-111909319D01*
X135280063Y-111962726D01*
X135400102Y-111987172D01*
X135404038Y-111987333D01*
X135447833Y-111911733D01*
X135508539Y-111715326D01*
X135561927Y-111490670D01*
X135642091Y-111143816D01*
X135716582Y-110935504D01*
X135807374Y-110837218D01*
X135936443Y-110820438D01*
X136061757Y-110842010D01*
G37*
G36*
X164332432Y-83326342D02*
G01*
X164333025Y-83326574D01*
X164499421Y-83373822D01*
X164757898Y-83429398D01*
X164901333Y-83455515D01*
X165246174Y-83529495D01*
X165597245Y-83627521D01*
X165695145Y-83660440D01*
X165958867Y-83741873D01*
X166181940Y-83788807D01*
X166239471Y-83793333D01*
X166405949Y-83818589D01*
X166673869Y-83884736D01*
X166978700Y-83975426D01*
X167544081Y-84157519D01*
X167429055Y-84539719D01*
X167365744Y-84765814D01*
X167334681Y-84908994D01*
X167335348Y-84933507D01*
X167465533Y-84980548D01*
X167706939Y-85050764D01*
X168005601Y-85130069D01*
X168307557Y-85204379D01*
X168558844Y-85259608D01*
X168642795Y-85274764D01*
X168997590Y-85330514D01*
X169095874Y-84964090D01*
X169162954Y-84729375D01*
X169216366Y-84568955D01*
X169229709Y-84539344D01*
X169321729Y-84533577D01*
X169524564Y-84577781D01*
X169742384Y-84645178D01*
X170031235Y-84734867D01*
X170277227Y-84794491D01*
X170391713Y-84809333D01*
X170550243Y-84833492D01*
X170819224Y-84897692D01*
X171148105Y-84989521D01*
X171246292Y-85019185D01*
X171610433Y-85125036D01*
X171955751Y-85214991D01*
X172217583Y-85272413D01*
X172254013Y-85278494D01*
X172462055Y-85321188D01*
X172541183Y-85388398D01*
X172531196Y-85519132D01*
X172525087Y-85544185D01*
X172443593Y-85885293D01*
X172409054Y-86094832D01*
X172422151Y-86204125D01*
X172483570Y-86244492D01*
X172540449Y-86248666D01*
X172741265Y-86276382D01*
X172961582Y-86337159D01*
X173067668Y-86377432D01*
X173136463Y-86428857D01*
X173166767Y-86517374D01*
X173157382Y-86668923D01*
X173107109Y-86909442D01*
X173014749Y-87264871D01*
X172899161Y-87688000D01*
X172809302Y-88039228D01*
X172731224Y-88385047D01*
X172690835Y-88598166D01*
X172641989Y-88817422D01*
X172586734Y-88944896D01*
X172566869Y-88958000D01*
X172452558Y-88931893D01*
X172242404Y-88866094D01*
X172140333Y-88831000D01*
X171920559Y-88754918D01*
X171781572Y-88709567D01*
X171759766Y-88704000D01*
X171731492Y-88777104D01*
X171689970Y-88955483D01*
X171685255Y-88979166D01*
X171634397Y-89207624D01*
X171556531Y-89524101D01*
X171482999Y-89805615D01*
X171334643Y-90356898D01*
X170914669Y-90296823D01*
X170668182Y-90268007D01*
X170501869Y-90260670D01*
X170463729Y-90267715D01*
X170434152Y-90363328D01*
X170397779Y-90564774D01*
X170386400Y-90644340D01*
X170335222Y-90869567D01*
X170236123Y-90975708D01*
X170054268Y-90976941D01*
X169773209Y-90893881D01*
X169539484Y-90851813D01*
X169403999Y-90936324D01*
X169349405Y-91161642D01*
X169346333Y-91244000D01*
X169324463Y-91474770D01*
X169246669Y-91596968D01*
X169084063Y-91621958D01*
X168807756Y-91561104D01*
X168657706Y-91514880D01*
X168331066Y-91418324D01*
X168027244Y-91342146D01*
X167844248Y-91307798D01*
X167675212Y-91298400D01*
X167576578Y-91351027D01*
X167505294Y-91505061D01*
X167458202Y-91660940D01*
X167381306Y-91894755D01*
X167302353Y-92003479D01*
X167181249Y-92027026D01*
X167097620Y-92019938D01*
X166796158Y-91988922D01*
X166617542Y-91995776D01*
X166516178Y-92060984D01*
X166446474Y-92205031D01*
X166402814Y-92332098D01*
X166328853Y-92530547D01*
X166247194Y-92636390D01*
X166116320Y-92661732D01*
X165894715Y-92618677D01*
X165651871Y-92551034D01*
X165540761Y-92540093D01*
X165464834Y-92609296D01*
X165397246Y-92793580D01*
X165360698Y-92929996D01*
X165290768Y-93169771D01*
X165229698Y-93323115D01*
X165202827Y-93353982D01*
X165100755Y-93323973D01*
X164899243Y-93256194D01*
X164799740Y-93221340D01*
X164583005Y-93135215D01*
X164495196Y-93056675D01*
X164502992Y-92944847D01*
X164524574Y-92883846D01*
X164608821Y-92569677D01*
X164573881Y-92363413D01*
X164414655Y-92247829D01*
X164329833Y-92225843D01*
X164053396Y-92156972D01*
X163914617Y-92057843D01*
X163882403Y-91884177D01*
X163916898Y-91637819D01*
X163991627Y-91237812D01*
X163612123Y-91136310D01*
X163232619Y-91034808D01*
X163272013Y-90624823D01*
X163287815Y-90374730D01*
X163259643Y-90238527D01*
X163167796Y-90162520D01*
X163090370Y-90129744D01*
X162880496Y-90066349D01*
X162585157Y-89997170D01*
X162398620Y-89960784D01*
X162059668Y-89894231D01*
X161860128Y-89824321D01*
X161772002Y-89722265D01*
X161767289Y-89559274D01*
X161807567Y-89353048D01*
X161885353Y-89004225D01*
X161967058Y-88637800D01*
X161983650Y-88563383D01*
X162029260Y-88275990D01*
X161987401Y-88106731D01*
X161830732Y-88015439D01*
X161578378Y-87967996D01*
X161240586Y-87922688D01*
X161269884Y-87817331D01*
X168426996Y-87817331D01*
X168464058Y-87910933D01*
X168570915Y-87943883D01*
X168647833Y-87947950D01*
X168890834Y-87977386D01*
X169050000Y-88021061D01*
X169216570Y-88037646D01*
X169311977Y-87917108D01*
X169344873Y-87647964D01*
X169345037Y-87629496D01*
X169367406Y-87417027D01*
X169453618Y-87313883D01*
X169636249Y-87303991D01*
X169895567Y-87357888D01*
X170128991Y-87409167D01*
X170282520Y-87428781D01*
X170312395Y-87423701D01*
X170340058Y-87328280D01*
X170378501Y-87121916D01*
X170399006Y-86989500D01*
X170426918Y-86746682D01*
X170410879Y-86627462D01*
X170340022Y-86589371D01*
X170296109Y-86587333D01*
X170131795Y-86560619D01*
X169872191Y-86491443D01*
X169642667Y-86418000D01*
X169258813Y-86296694D01*
X169001292Y-86249736D01*
X168842203Y-86281568D01*
X168753647Y-86396635D01*
X168712534Y-86566166D01*
X168658372Y-86842674D01*
X168577922Y-87174355D01*
X168539365Y-87314441D01*
X168454007Y-87629645D01*
X168426996Y-87817331D01*
X161269884Y-87817331D01*
X161385053Y-87403177D01*
X161473802Y-87070011D01*
X161580253Y-86650006D01*
X161619426Y-86489216D01*
X162552494Y-86489216D01*
X162964913Y-86550571D01*
X163284352Y-86612072D01*
X163589631Y-86692511D01*
X163673667Y-86720664D01*
X163966105Y-86815296D01*
X164141006Y-86822468D01*
X164234050Y-86726810D01*
X164280923Y-86512950D01*
X164287727Y-86456151D01*
X164323181Y-86215693D01*
X164362456Y-86054442D01*
X164377919Y-86024191D01*
X164478482Y-86020709D01*
X164683983Y-86063262D01*
X164832348Y-86106000D01*
X165151422Y-86196518D01*
X165467653Y-86270835D01*
X165563512Y-86288924D01*
X165802524Y-86334858D01*
X165976556Y-86378358D01*
X165995786Y-86384997D01*
X166090738Y-86337331D01*
X166186284Y-86127790D01*
X166213124Y-86038938D01*
X166270366Y-85807781D01*
X166293595Y-85656917D01*
X166288850Y-85627927D01*
X166197435Y-85597911D01*
X165977396Y-85535644D01*
X165664260Y-85450443D01*
X165293555Y-85351624D01*
X164900809Y-85248503D01*
X164521548Y-85150397D01*
X164191302Y-85066623D01*
X163945596Y-85006497D01*
X163819961Y-84979336D01*
X163812948Y-84978666D01*
X163774151Y-85052466D01*
X163711260Y-85240775D01*
X163671199Y-85380833D01*
X163605233Y-85617314D01*
X163558427Y-85772982D01*
X163546403Y-85805070D01*
X163465316Y-85792805D01*
X163277697Y-85736506D01*
X163163580Y-85697597D01*
X162900210Y-85624296D01*
X162739535Y-85649493D01*
X162649421Y-85796378D01*
X162597733Y-86088143D01*
X162595510Y-86107578D01*
X162552494Y-86489216D01*
X161619426Y-86489216D01*
X161684659Y-86221464D01*
X161708245Y-86121666D01*
X161802674Y-85719345D01*
X161896297Y-85320927D01*
X161972669Y-84996382D01*
X161989781Y-84923789D01*
X162092592Y-84487913D01*
X162428107Y-84606289D01*
X162652366Y-84680189D01*
X162806495Y-84721510D01*
X162830840Y-84724666D01*
X162893039Y-84651474D01*
X162979740Y-84463833D01*
X163036836Y-84306843D01*
X163175615Y-83889021D01*
X163518322Y-84009935D01*
X163743366Y-84075803D01*
X163899009Y-84096762D01*
X163926268Y-84090530D01*
X163983895Y-83990875D01*
X164055749Y-83784052D01*
X164089778Y-83659938D01*
X164162006Y-83423074D01*
X164235190Y-83322428D01*
X164332432Y-83326342D01*
G37*
G36*
X150353171Y-120598535D02*
G01*
X150381000Y-120708000D01*
X150440868Y-120849504D01*
X150550333Y-120877333D01*
X150683118Y-120926942D01*
X150719667Y-121089000D01*
X150759353Y-121254981D01*
X150889000Y-121300666D01*
X150990567Y-121322954D01*
X151041222Y-121417557D01*
X151057609Y-121626083D01*
X151058333Y-121724000D01*
X151067248Y-121977917D01*
X151105090Y-122104555D01*
X151188500Y-122145521D01*
X151227667Y-122147333D01*
X151360451Y-122196942D01*
X151397000Y-122359000D01*
X151397000Y-122570666D01*
X152349500Y-122571822D01*
X152861754Y-122577193D01*
X153227566Y-122594849D01*
X153469646Y-122629264D01*
X153610704Y-122684913D01*
X153673451Y-122766269D01*
X153683000Y-122834541D01*
X153627718Y-122961143D01*
X153471333Y-122994000D01*
X153309297Y-123029869D01*
X153260182Y-123166755D01*
X153259667Y-123193925D01*
X153232537Y-123337346D01*
X153117329Y-123364218D01*
X153048000Y-123353388D01*
X152892131Y-123348241D01*
X152839778Y-123447666D01*
X152836333Y-123532843D01*
X152825540Y-123666007D01*
X152763079Y-123721617D01*
X152603827Y-123719533D01*
X152455333Y-123700538D01*
X152221991Y-123675100D01*
X152110721Y-123695907D01*
X152076555Y-123781431D01*
X152074333Y-123857047D01*
X152038529Y-124016252D01*
X151904045Y-124059450D01*
X151883833Y-124059055D01*
X151762014Y-124077356D01*
X151699284Y-124172836D01*
X151669166Y-124389407D01*
X151666977Y-124418736D01*
X151662635Y-124655695D01*
X151706549Y-124776398D01*
X151815144Y-124830777D01*
X151960807Y-124939514D01*
X151989667Y-125043801D01*
X152062620Y-125202634D01*
X152159000Y-125255467D01*
X152271456Y-125321584D01*
X152320057Y-125473114D01*
X152327177Y-125649708D01*
X152314218Y-126004514D01*
X152264368Y-126222739D01*
X152156871Y-126336366D01*
X151970971Y-126377378D01*
X151852792Y-126380666D01*
X151621556Y-126371339D01*
X151513483Y-126325912D01*
X151482693Y-126218218D01*
X151481667Y-126169000D01*
X151444521Y-126005630D01*
X151307043Y-125956478D01*
X151291167Y-125956177D01*
X150974752Y-125923276D01*
X150802973Y-125832218D01*
X150778850Y-125706969D01*
X150756354Y-125575660D01*
X150599681Y-125500992D01*
X150422106Y-125400658D01*
X150381000Y-125288261D01*
X150309787Y-125141191D01*
X150211667Y-125086134D01*
X150068332Y-124972663D01*
X150042333Y-124864593D01*
X149986490Y-124717829D01*
X149873000Y-124687333D01*
X149731496Y-124747201D01*
X149703667Y-124856666D01*
X149654058Y-124989451D01*
X149492000Y-125026000D01*
X149326019Y-125065686D01*
X149280333Y-125195333D01*
X149220465Y-125336837D01*
X149111000Y-125364666D01*
X148969496Y-125424535D01*
X148941667Y-125534000D01*
X148917286Y-125638975D01*
X148815597Y-125689158D01*
X148593782Y-125703191D01*
X148552740Y-125703333D01*
X148302272Y-125717321D01*
X148172601Y-125771563D01*
X148119532Y-125872666D01*
X148056644Y-125982396D01*
X147912596Y-126032208D01*
X147704125Y-126042000D01*
X147503756Y-126036187D01*
X147386686Y-125996530D01*
X147337977Y-125889698D01*
X147342687Y-125682360D01*
X147385877Y-125341186D01*
X147386841Y-125334150D01*
X147435238Y-125086361D01*
X147505731Y-124968609D01*
X147606435Y-124941333D01*
X147763023Y-124869430D01*
X147815224Y-124776757D01*
X147925294Y-124632907D01*
X148040130Y-124586257D01*
X148162577Y-124535423D01*
X148224853Y-124397604D01*
X148247497Y-124211507D01*
X148250057Y-123980680D01*
X148200262Y-123864675D01*
X148099330Y-123817266D01*
X147954370Y-123708467D01*
X147925667Y-123604467D01*
X147848059Y-123449698D01*
X147623838Y-123357854D01*
X147354167Y-123333822D01*
X147207337Y-123291659D01*
X147163851Y-123138641D01*
X147163667Y-123121000D01*
X147123980Y-122955018D01*
X146994333Y-122909333D01*
X146852829Y-122849464D01*
X146825000Y-122740000D01*
X146765131Y-122598495D01*
X146655667Y-122570666D01*
X146614234Y-122555465D01*
X147248333Y-122555465D01*
X147248333Y-122774732D01*
X147265673Y-122915819D01*
X147349596Y-122978537D01*
X147547958Y-122993870D01*
X147587000Y-122994000D01*
X147805197Y-123005553D01*
X147902178Y-123060046D01*
X147925546Y-123187233D01*
X147925667Y-123205666D01*
X147965353Y-123371647D01*
X148095000Y-123417333D01*
X148227785Y-123466942D01*
X148264333Y-123629000D01*
X148304020Y-123794981D01*
X148433667Y-123840666D01*
X148539486Y-123865595D01*
X148589526Y-123969108D01*
X148602935Y-124194296D01*
X148603000Y-124221666D01*
X148592473Y-124458868D01*
X148547308Y-124571140D01*
X148447126Y-124602284D01*
X148425740Y-124602666D01*
X148258118Y-124673270D01*
X148205443Y-124767242D01*
X148095372Y-124911092D01*
X147980536Y-124957742D01*
X147859833Y-125006969D01*
X147797553Y-125140587D01*
X147772632Y-125343500D01*
X147764775Y-125569195D01*
X147801341Y-125673274D01*
X147906977Y-125702292D01*
X147963132Y-125703333D01*
X148131540Y-125665530D01*
X148179667Y-125534000D01*
X148204595Y-125428180D01*
X148308108Y-125378140D01*
X148533296Y-125364731D01*
X148560667Y-125364666D01*
X148798761Y-125353587D01*
X148911349Y-125307581D01*
X148941521Y-125207497D01*
X148941667Y-125195333D01*
X149001535Y-125053829D01*
X149111000Y-125026000D01*
X149252504Y-124966131D01*
X149280333Y-124856666D01*
X149329942Y-124723881D01*
X149492000Y-124687333D01*
X149657981Y-124647646D01*
X149703667Y-124518000D01*
X149753275Y-124385215D01*
X149915333Y-124348666D01*
X150081314Y-124388353D01*
X150127000Y-124518000D01*
X150186868Y-124659504D01*
X150296333Y-124687333D01*
X150429118Y-124736942D01*
X150465667Y-124899000D01*
X150506463Y-125066150D01*
X150629111Y-125110666D01*
X150775895Y-125182054D01*
X150819611Y-125301166D01*
X150873927Y-125433467D01*
X151019332Y-125505377D01*
X151185333Y-125534000D01*
X151415386Y-125582740D01*
X151523636Y-125672317D01*
X151551055Y-125766833D01*
X151621086Y-125932779D01*
X151736582Y-125964352D01*
X151856580Y-125872791D01*
X151940113Y-125669338D01*
X151942017Y-125659559D01*
X151966726Y-125387312D01*
X151904196Y-125241084D01*
X151742895Y-125195432D01*
X151731668Y-125195333D01*
X151606556Y-125147215D01*
X151588498Y-125005107D01*
X151559545Y-124848960D01*
X151409001Y-124786350D01*
X151273338Y-124743465D01*
X151240801Y-124633416D01*
X151260834Y-124500326D01*
X151297870Y-124282240D01*
X151312333Y-124135595D01*
X151384421Y-124037052D01*
X151524000Y-123975232D01*
X151682858Y-123895979D01*
X151735667Y-123806595D01*
X151806587Y-123694193D01*
X151905000Y-123646801D01*
X152042737Y-123545141D01*
X152074224Y-123446426D01*
X152105758Y-123345740D01*
X152228330Y-123299816D01*
X152434057Y-123290333D01*
X152664024Y-123277852D01*
X152769406Y-123226680D01*
X152794000Y-123121000D01*
X152781577Y-123044288D01*
X152724172Y-122993471D01*
X152591581Y-122961815D01*
X152353601Y-122942588D01*
X151980029Y-122929056D01*
X151926167Y-122927538D01*
X151058333Y-122903409D01*
X151058333Y-122517444D01*
X151044096Y-122267958D01*
X150988990Y-122139099D01*
X150889000Y-122087198D01*
X150779270Y-122024310D01*
X150729458Y-121880262D01*
X150719667Y-121671791D01*
X150707962Y-121437486D01*
X150659643Y-121328257D01*
X150554896Y-121300686D01*
X150550333Y-121300666D01*
X150417548Y-121251057D01*
X150381000Y-121089000D01*
X150324816Y-120925365D01*
X150199866Y-120872661D01*
X150071553Y-120938510D01*
X150017801Y-121046666D01*
X149905967Y-121189368D01*
X149801447Y-121216000D01*
X149687036Y-121249131D01*
X149616869Y-121375466D01*
X149572241Y-121597000D01*
X149524359Y-121834561D01*
X149455252Y-121946844D01*
X149335098Y-121977685D01*
X149313053Y-121978000D01*
X149152024Y-122021733D01*
X149111000Y-122147333D01*
X149052543Y-122287534D01*
X148933740Y-122316666D01*
X148764626Y-122390274D01*
X148709846Y-122494995D01*
X148676875Y-122581176D01*
X148610000Y-122629626D01*
X148473387Y-122646020D01*
X148231198Y-122636031D01*
X147955773Y-122614395D01*
X147248333Y-122555465D01*
X146614234Y-122555465D01*
X146523998Y-122522359D01*
X146486333Y-122354003D01*
X146507660Y-122208036D01*
X146552321Y-122178122D01*
X146657899Y-122195329D01*
X146897974Y-122212631D01*
X147237722Y-122228093D01*
X147642319Y-122239780D01*
X147674154Y-122240447D01*
X148112413Y-122248161D01*
X148409770Y-122247313D01*
X148594603Y-122233637D01*
X148695290Y-122202868D01*
X148740208Y-122150739D01*
X148757055Y-122077662D01*
X148835746Y-121928947D01*
X148989888Y-121893333D01*
X149122628Y-121873866D01*
X149181613Y-121783889D01*
X149195626Y-121576034D01*
X149195667Y-121554666D01*
X149207220Y-121336469D01*
X149261713Y-121239488D01*
X149388900Y-121216120D01*
X149407333Y-121216000D01*
X149573314Y-121176313D01*
X149619000Y-121046666D01*
X149668609Y-120913881D01*
X149830667Y-120877333D01*
X149996648Y-120837646D01*
X150042333Y-120708000D01*
X150102202Y-120566495D01*
X150211667Y-120538666D01*
X150353171Y-120598535D01*
G37*
G36*
X132347000Y-85783000D02*
G01*
X132347000Y-86248666D01*
X133193667Y-86248666D01*
X134040333Y-86248666D01*
X134040333Y-86672000D01*
X134040333Y-87095333D01*
X134887000Y-87095333D01*
X135733667Y-87095333D01*
X135733667Y-87518666D01*
X135733667Y-87942000D01*
X136622667Y-87942000D01*
X137511667Y-87942000D01*
X137511667Y-88831000D01*
X137511667Y-89720000D01*
X137977333Y-89720000D01*
X138443000Y-89720000D01*
X138443000Y-90185666D01*
X138443000Y-90651333D01*
X138866333Y-90651333D01*
X139289667Y-90651333D01*
X139289667Y-93233666D01*
X139289667Y-95816000D01*
X138869295Y-95816000D01*
X138443000Y-95816000D01*
X138443000Y-96709638D01*
X138443000Y-97603277D01*
X138845167Y-97577472D01*
X139247333Y-97551666D01*
X139271462Y-96683833D01*
X139295590Y-95816000D01*
X139713000Y-95816000D01*
X140136333Y-95816000D01*
X140136333Y-96705000D01*
X140136333Y-97594000D01*
X139713000Y-97594000D01*
X139289667Y-97594000D01*
X139289667Y-98483000D01*
X139289667Y-99372000D01*
X138866333Y-99372000D01*
X138443000Y-99372000D01*
X138443000Y-101150000D01*
X138443000Y-102928000D01*
X138866333Y-102928000D01*
X139289667Y-102928000D01*
X139289667Y-103817000D01*
X139289667Y-104706000D01*
X139713000Y-104706000D01*
X140136333Y-104706000D01*
X140136333Y-105129333D01*
X140136333Y-105552666D01*
X139713000Y-105552666D01*
X139289667Y-105552666D01*
X139289667Y-106399333D01*
X139289667Y-107246000D01*
X138866333Y-107246000D01*
X138443000Y-107246000D01*
X138443000Y-106822666D01*
X138443000Y-106399333D01*
X137554000Y-106399333D01*
X136665000Y-106399333D01*
X136665000Y-105976000D01*
X136665000Y-105552666D01*
X136199333Y-105552666D01*
X135733667Y-105552666D01*
X135733667Y-105976000D01*
X135733667Y-106399333D01*
X135310333Y-106399333D01*
X134887000Y-106399333D01*
X134887000Y-105976000D01*
X134887000Y-105552666D01*
X134463667Y-105552666D01*
X134040333Y-105552666D01*
X134040333Y-105976000D01*
X134040333Y-106399333D01*
X132304667Y-106399333D01*
X130569000Y-106399333D01*
X130569000Y-106822666D01*
X130569000Y-107246000D01*
X130103333Y-107246000D01*
X129637667Y-107246000D01*
X129637667Y-107711666D01*
X129637667Y-108177333D01*
X130103333Y-108177333D01*
X130569000Y-108177333D01*
X130569000Y-109489666D01*
X130569000Y-110802000D01*
X130103333Y-110802000D01*
X129637667Y-110802000D01*
X129637667Y-110336333D01*
X129637667Y-109870666D01*
X129214333Y-109870666D01*
X128791000Y-109870666D01*
X128791000Y-109024000D01*
X128791000Y-108177333D01*
X127902000Y-108177333D01*
X127013000Y-108177333D01*
X127013000Y-109024000D01*
X127013000Y-109870666D01*
X126124000Y-109870666D01*
X125235000Y-109870666D01*
X125235000Y-109024000D01*
X125235000Y-108177333D01*
X125700667Y-108177333D01*
X126166333Y-108177333D01*
X126166333Y-107288333D01*
X126166333Y-106399333D01*
X126589667Y-106399333D01*
X127013000Y-106399333D01*
X127013000Y-105976000D01*
X127013000Y-105552666D01*
X126124000Y-105552666D01*
X125235000Y-105552666D01*
X125235000Y-104663666D01*
X125235000Y-103774666D01*
X124811667Y-103774666D01*
X124388333Y-103774666D01*
X124388333Y-104240333D01*
X124388333Y-104706000D01*
X123965000Y-104706000D01*
X123541667Y-104706000D01*
X123541667Y-103351333D01*
X123541667Y-101996666D01*
X123965000Y-101996666D01*
X124388333Y-101996666D01*
X124388333Y-101150000D01*
X124388333Y-100303333D01*
X124811667Y-100303333D01*
X125235000Y-100303333D01*
X125235000Y-99837666D01*
X125235000Y-99380849D01*
X137511667Y-99380849D01*
X137956167Y-99355257D01*
X138400667Y-99329666D01*
X138426472Y-98927500D01*
X138452278Y-98525333D01*
X137981972Y-98525333D01*
X137511667Y-98525333D01*
X137511667Y-98953091D01*
X137511667Y-99380849D01*
X125235000Y-99380849D01*
X125235000Y-99372000D01*
X125700667Y-99372000D01*
X126166333Y-99372000D01*
X126166333Y-98953091D01*
X126166333Y-98948666D01*
X126166333Y-98525333D01*
X126589667Y-98525333D01*
X127013000Y-98525333D01*
X127013000Y-96747333D01*
X127013000Y-94969333D01*
X127944333Y-94969333D01*
X127944333Y-95816000D01*
X128367667Y-95816000D01*
X128791000Y-95816000D01*
X128791000Y-96281666D01*
X128791000Y-96747333D01*
X129214333Y-96747333D01*
X129637667Y-96747333D01*
X129637667Y-97170666D01*
X129637667Y-97594000D01*
X130526667Y-97594000D01*
X131415667Y-97594000D01*
X131415667Y-98059666D01*
X131415667Y-98525333D01*
X132304667Y-98525333D01*
X133193667Y-98525333D01*
X133193667Y-98059666D01*
X133193667Y-97594000D01*
X133617000Y-97594000D01*
X134040333Y-97594000D01*
X134040333Y-97170666D01*
X134040333Y-96747333D01*
X134463667Y-96747333D01*
X134887000Y-96747333D01*
X134887000Y-96281666D01*
X134887000Y-95816000D01*
X135310333Y-95816000D01*
X135733667Y-95816000D01*
X135733667Y-95392666D01*
X135733667Y-94969333D01*
X135310333Y-94969333D01*
X134887000Y-94969333D01*
X134887000Y-95392666D01*
X134887000Y-95816000D01*
X134463667Y-95816000D01*
X134040333Y-95816000D01*
X134040333Y-94969333D01*
X134040333Y-94122666D01*
X135733667Y-94122666D01*
X136199333Y-94122666D01*
X136665000Y-94122666D01*
X136665000Y-93699333D01*
X136665000Y-93276000D01*
X136199333Y-93276000D01*
X135733667Y-93276000D01*
X135733667Y-93699333D01*
X135733667Y-94122666D01*
X134040333Y-94122666D01*
X133617000Y-94122666D01*
X133193667Y-94122666D01*
X133193667Y-94969333D01*
X133193667Y-95816000D01*
X132770333Y-95816000D01*
X132347000Y-95816000D01*
X132347000Y-95392666D01*
X132347000Y-94969333D01*
X131881333Y-94969333D01*
X131415667Y-94969333D01*
X131415667Y-94546000D01*
X131415667Y-94122666D01*
X132347000Y-94122666D01*
X132770333Y-94122666D01*
X133193667Y-94122666D01*
X133193667Y-93699333D01*
X133193667Y-93276000D01*
X132770333Y-93276000D01*
X132347000Y-93276000D01*
X132347000Y-93699333D01*
X132347000Y-94122666D01*
X131415667Y-94122666D01*
X130992333Y-94122666D01*
X130569000Y-94122666D01*
X130569000Y-94546000D01*
X130569000Y-94969333D01*
X130103333Y-94969333D01*
X129637667Y-94969333D01*
X129637667Y-94122666D01*
X129637667Y-93699333D01*
X129637667Y-93276000D01*
X129214333Y-93276000D01*
X128791000Y-93276000D01*
X128791000Y-93699333D01*
X128791000Y-94122666D01*
X128367667Y-94122666D01*
X127944333Y-94122666D01*
X127944333Y-94969333D01*
X127013000Y-94969333D01*
X126589667Y-94969333D01*
X126166333Y-94969333D01*
X126166333Y-95392666D01*
X126166333Y-95816000D01*
X125700667Y-95816000D01*
X125235000Y-95816000D01*
X125235000Y-95397091D01*
X125235000Y-94978182D01*
X125679500Y-94952591D01*
X126124000Y-94927000D01*
X126139091Y-94122666D01*
X126147430Y-93678166D01*
X126163977Y-92796222D01*
X126170860Y-92429333D01*
X126589667Y-92429333D01*
X127013000Y-92429333D01*
X129637667Y-92429333D01*
X130103333Y-92429333D01*
X130569000Y-92429333D01*
X133193667Y-92429333D01*
X133193667Y-92796222D01*
X133205675Y-93033809D01*
X133235823Y-93193282D01*
X133250111Y-93219555D01*
X133362872Y-93254259D01*
X133578726Y-93274156D01*
X133673444Y-93276000D01*
X134040333Y-93276000D01*
X134040333Y-92852666D01*
X134040333Y-92429333D01*
X133617000Y-92429333D01*
X133193667Y-92429333D01*
X130569000Y-92429333D01*
X130569000Y-91963666D01*
X130569000Y-91498000D01*
X130103333Y-91498000D01*
X129637667Y-91498000D01*
X129637667Y-91963666D01*
X129637667Y-92429333D01*
X127013000Y-92429333D01*
X127013000Y-91963666D01*
X127013000Y-91498000D01*
X126589667Y-91498000D01*
X126166333Y-91498000D01*
X126166333Y-91963666D01*
X126166333Y-92429333D01*
X125702930Y-92429333D01*
X125235000Y-92429333D01*
X125235000Y-93276000D01*
X125235000Y-94122666D01*
X124811667Y-94122666D01*
X124388333Y-94122666D01*
X124388333Y-93276000D01*
X124388333Y-92429333D01*
X124811667Y-92429333D01*
X125235000Y-92429333D01*
X125235000Y-91968091D01*
X125235000Y-91506849D01*
X125679500Y-91481257D01*
X126124000Y-91455666D01*
X126148128Y-90587833D01*
X126172257Y-89719999D01*
X126592628Y-89720000D01*
X127013000Y-89720000D01*
X127013000Y-89296666D01*
X127013000Y-88873333D01*
X126589667Y-88873333D01*
X126166333Y-88873333D01*
X126166333Y-88407666D01*
X126166333Y-87942000D01*
X126589667Y-87942000D01*
X127013000Y-87942000D01*
X127013000Y-88407666D01*
X127013000Y-88873333D01*
X127478667Y-88873333D01*
X127944333Y-88873333D01*
X127944333Y-88407666D01*
X127944333Y-87942000D01*
X128791000Y-87942000D01*
X129637667Y-87942000D01*
X129637667Y-87518666D01*
X129637667Y-87095333D01*
X130103333Y-87095333D01*
X130569000Y-87095333D01*
X130569000Y-86672000D01*
X130569000Y-86248666D01*
X130103333Y-86248666D01*
X129637667Y-86248666D01*
X129637667Y-86672000D01*
X129637667Y-87095333D01*
X128791000Y-87095333D01*
X127944333Y-87095333D01*
X127944333Y-87518666D01*
X127944333Y-87942000D01*
X127478667Y-87942000D01*
X127013000Y-87942000D01*
X127013000Y-87523091D01*
X127013000Y-87104182D01*
X127457500Y-87078591D01*
X127902000Y-87053000D01*
X127927805Y-86650833D01*
X127953611Y-86248666D01*
X128795639Y-86248666D01*
X129637667Y-86248666D01*
X129637667Y-85783000D01*
X129637667Y-85317333D01*
X130992333Y-85317333D01*
X132347000Y-85317333D01*
X132347000Y-85783000D01*
G37*
G36*
X167073451Y-93333518D02*
G01*
X167153342Y-93468666D01*
X167211544Y-93656111D01*
X167274134Y-93924082D01*
X167310561Y-94145732D01*
X167314333Y-94203551D01*
X167333719Y-94333253D01*
X167410180Y-94402889D01*
X167571170Y-94415560D01*
X167844144Y-94374369D01*
X168177300Y-94301059D01*
X168563957Y-94212481D01*
X168943844Y-94128303D01*
X169244263Y-94064586D01*
X169282738Y-94056838D01*
X169684810Y-93976868D01*
X169764881Y-94282600D01*
X169837303Y-94564426D01*
X169901931Y-94823995D01*
X169903764Y-94831563D01*
X169950379Y-94978154D01*
X170030097Y-95041220D01*
X170194725Y-95042984D01*
X170352955Y-95024232D01*
X170631810Y-94982082D01*
X170865378Y-94936696D01*
X170922556Y-94922242D01*
X171020728Y-94911470D01*
X171093635Y-94967612D01*
X171161172Y-95122266D01*
X171243238Y-95407024D01*
X171254427Y-95449240D01*
X171331017Y-95736506D01*
X171389219Y-95949261D01*
X171417252Y-96044503D01*
X171417821Y-96045728D01*
X171497145Y-96033942D01*
X171688475Y-95984077D01*
X171840240Y-95939895D01*
X172179177Y-95847567D01*
X172396090Y-95824379D01*
X172527137Y-95879044D01*
X172608477Y-96020270D01*
X172643881Y-96133500D01*
X172703681Y-96410376D01*
X172732155Y-96663107D01*
X172732528Y-96684572D01*
X172733000Y-96918145D01*
X173219833Y-96859640D01*
X173596816Y-96816634D01*
X173837716Y-96800689D01*
X173974383Y-96817139D01*
X174038669Y-96871318D01*
X174062425Y-96968560D01*
X174065871Y-97001333D01*
X174096972Y-97209847D01*
X174158939Y-97543366D01*
X174243420Y-97962166D01*
X174342059Y-98426524D01*
X174446502Y-98896715D01*
X174548397Y-99333015D01*
X174602184Y-99551518D01*
X174691513Y-99906269D01*
X174739989Y-100127514D01*
X174745374Y-100246617D01*
X174705428Y-100294945D01*
X174617910Y-100303863D01*
X174548492Y-100303333D01*
X174331596Y-100324186D01*
X174048105Y-100376438D01*
X173949027Y-100399763D01*
X173716964Y-100468952D01*
X173616132Y-100540510D01*
X173610674Y-100644316D01*
X173618854Y-100674929D01*
X173661508Y-100858818D01*
X173713248Y-101135046D01*
X173743454Y-101319333D01*
X173886417Y-102046416D01*
X174054457Y-102690059D01*
X174037918Y-102800095D01*
X173893901Y-102884754D01*
X173774251Y-102922420D01*
X173498863Y-102982521D01*
X173249591Y-103011687D01*
X173224830Y-103012194D01*
X173043087Y-103033615D01*
X172959029Y-103076166D01*
X172951724Y-103201679D01*
X172984579Y-103461716D01*
X173052387Y-103827660D01*
X173149936Y-104270894D01*
X173252024Y-104685778D01*
X173328564Y-104992189D01*
X173384763Y-105234662D01*
X173409902Y-105366617D01*
X173410333Y-105373694D01*
X173336899Y-105438349D01*
X173158261Y-105497077D01*
X173139779Y-105500944D01*
X172865056Y-105561977D01*
X172568584Y-105636029D01*
X172553468Y-105640079D01*
X172351468Y-105704218D01*
X172278048Y-105782984D01*
X172297177Y-105930713D01*
X172316022Y-105998159D01*
X172371500Y-106283024D01*
X172394333Y-106580148D01*
X172386961Y-106753920D01*
X172338777Y-106858011D01*
X172210679Y-106926834D01*
X171963566Y-106994802D01*
X171907500Y-107008602D01*
X171420667Y-107128124D01*
X171423601Y-107462228D01*
X171442817Y-107759470D01*
X171485703Y-108035963D01*
X171490670Y-108057121D01*
X171554805Y-108317909D01*
X171064402Y-108421900D01*
X170753084Y-108487879D01*
X170347367Y-108573812D01*
X169918520Y-108664607D01*
X169769667Y-108696111D01*
X169350699Y-108785796D01*
X168929383Y-108877677D01*
X168576730Y-108956215D01*
X168478500Y-108978636D01*
X168207377Y-109038418D01*
X168062004Y-109053132D01*
X168003184Y-109016011D01*
X167991725Y-108920290D01*
X167991667Y-108894596D01*
X167972744Y-108696305D01*
X167924790Y-108418143D01*
X167894960Y-108279298D01*
X167798254Y-107860345D01*
X167408127Y-107963664D01*
X167132410Y-108038756D01*
X166899276Y-108105710D01*
X166837259Y-108124766D01*
X166740609Y-108140249D01*
X166670225Y-108091765D01*
X166607350Y-107948209D01*
X166533226Y-107678474D01*
X166508914Y-107580235D01*
X166428172Y-107270684D01*
X166363298Y-107095532D01*
X166295647Y-107023398D01*
X166206573Y-107022903D01*
X166181655Y-107029462D01*
X165987836Y-107071927D01*
X165714915Y-107117231D01*
X165608955Y-107131881D01*
X165215911Y-107182759D01*
X165079789Y-106714515D01*
X165004609Y-106431774D01*
X164955172Y-106199580D01*
X164943667Y-106102190D01*
X164925157Y-105969710D01*
X164878054Y-105739319D01*
X164814997Y-105464039D01*
X164768405Y-105276510D01*
X169690403Y-105276510D01*
X169725762Y-105533884D01*
X169780880Y-105785790D01*
X169876760Y-106201165D01*
X170292667Y-106135419D01*
X170573059Y-106085876D01*
X170804859Y-106036024D01*
X170874120Y-106017131D01*
X170986450Y-105950137D01*
X171030326Y-105821874D01*
X171007027Y-105601465D01*
X170917831Y-105258034D01*
X170907077Y-105221591D01*
X170844747Y-105008955D01*
X170786957Y-104879923D01*
X170697846Y-104824439D01*
X170541552Y-104832449D01*
X170282212Y-104893895D01*
X170002500Y-104967954D01*
X169818895Y-105029995D01*
X169718155Y-105120698D01*
X169690403Y-105276510D01*
X164768405Y-105276510D01*
X164748625Y-105196896D01*
X164691576Y-104990915D01*
X164657020Y-104899618D01*
X164572947Y-104909651D01*
X164373968Y-104954352D01*
X164177729Y-105004446D01*
X163908295Y-105072369D01*
X163702389Y-105117429D01*
X163627121Y-105128328D01*
X163579894Y-105086814D01*
X163522248Y-104950882D01*
X163449897Y-104704919D01*
X163358555Y-104333313D01*
X163243938Y-103820451D01*
X163202261Y-103625543D01*
X165644846Y-103625543D01*
X165685047Y-103850237D01*
X165754838Y-104108858D01*
X165839002Y-104352209D01*
X165922323Y-104531089D01*
X165989582Y-104596300D01*
X165993200Y-104595372D01*
X166123580Y-104556177D01*
X166356802Y-104493081D01*
X166531167Y-104448053D01*
X166781627Y-104371435D01*
X166925964Y-104273708D01*
X166978336Y-104118535D01*
X166952900Y-103869580D01*
X166879754Y-103553415D01*
X166805879Y-103317933D01*
X166728787Y-103221321D01*
X166646921Y-103225602D01*
X166483781Y-103267019D01*
X166228754Y-103310655D01*
X166100308Y-103327696D01*
X165853354Y-103376615D01*
X165685932Y-103445927D01*
X165649452Y-103483976D01*
X165644846Y-103625543D01*
X163202261Y-103625543D01*
X163158702Y-103421834D01*
X163084039Y-103089996D01*
X163012973Y-102897680D01*
X162914763Y-102818594D01*
X162758665Y-102826444D01*
X162535162Y-102888550D01*
X162217814Y-102978738D01*
X162011510Y-103002742D01*
X161882506Y-102937531D01*
X161797057Y-102760073D01*
X161721419Y-102447335D01*
X161693618Y-102314166D01*
X161599400Y-101870337D01*
X161489641Y-101367608D01*
X161387485Y-100911934D01*
X161383842Y-100896000D01*
X161304131Y-100519007D01*
X161255105Y-100246944D01*
X163700734Y-100246944D01*
X163702010Y-100255112D01*
X163738330Y-100382384D01*
X163796181Y-100617437D01*
X163845678Y-100832500D01*
X163914504Y-101102790D01*
X163996577Y-101256448D01*
X164129555Y-101309885D01*
X164351093Y-101279515D01*
X164667986Y-101190928D01*
X165100373Y-101062522D01*
X165022020Y-100789320D01*
X165013198Y-100744889D01*
X167524907Y-100744889D01*
X167550067Y-100967690D01*
X167592714Y-101221579D01*
X167651715Y-101506678D01*
X167705887Y-101659750D01*
X167777828Y-101715865D01*
X167890136Y-101710095D01*
X167905656Y-101707238D01*
X168126715Y-101668721D01*
X168411497Y-101622900D01*
X168486811Y-101611352D01*
X168713496Y-101569768D01*
X168811895Y-101510214D01*
X168821589Y-101392460D01*
X168803644Y-101289320D01*
X168801812Y-101278969D01*
X170041485Y-101278969D01*
X170049744Y-101363347D01*
X170095255Y-101565609D01*
X170164047Y-101826812D01*
X170311124Y-102355817D01*
X170812188Y-102310383D01*
X171091991Y-102274834D01*
X171301294Y-102229498D01*
X171380411Y-102194307D01*
X171401259Y-102080918D01*
X171392174Y-101859665D01*
X171360883Y-101587776D01*
X171315114Y-101322480D01*
X171262592Y-101121004D01*
X171225672Y-101048311D01*
X171129025Y-101043771D01*
X170921302Y-101070173D01*
X170655648Y-101117167D01*
X170385208Y-101174399D01*
X170163126Y-101231519D01*
X170042548Y-101278174D01*
X170041485Y-101278969D01*
X168801812Y-101278969D01*
X168757181Y-101026818D01*
X168708063Y-100719206D01*
X168699414Y-100661032D01*
X168650387Y-100430693D01*
X168581552Y-100338369D01*
X168509581Y-100339703D01*
X168348447Y-100383406D01*
X168097652Y-100447405D01*
X167969061Y-100479251D01*
X167727468Y-100547827D01*
X167564551Y-100611605D01*
X167529119Y-100636952D01*
X167524907Y-100744889D01*
X165013198Y-100744889D01*
X164964443Y-100499353D01*
X164943667Y-100240392D01*
X164924544Y-100048654D01*
X164842272Y-99974083D01*
X164738459Y-99964666D01*
X164493821Y-99984813D01*
X164220327Y-100036398D01*
X163965380Y-100106137D01*
X163776382Y-100180747D01*
X163700734Y-100246944D01*
X161255105Y-100246944D01*
X161239609Y-100160951D01*
X161201630Y-99886352D01*
X161197573Y-99837666D01*
X161176000Y-99499000D01*
X161705167Y-99372209D01*
X161990823Y-99297786D01*
X162155322Y-99217354D01*
X162217907Y-99091678D01*
X162197822Y-98881523D01*
X162114311Y-98547653D01*
X162112651Y-98541416D01*
X162049533Y-98263322D01*
X162046696Y-98112791D01*
X162092489Y-98062040D01*
X162236478Y-98017345D01*
X162455024Y-97948046D01*
X162479801Y-97940123D01*
X162736622Y-97875994D01*
X162960447Y-97848042D01*
X162966634Y-97848000D01*
X163087270Y-97834609D01*
X163146329Y-97773143D01*
X163147289Y-97631658D01*
X163093628Y-97378210D01*
X163040191Y-97172370D01*
X162981449Y-96891576D01*
X162971267Y-96693957D01*
X162991499Y-96633633D01*
X163114426Y-96581186D01*
X163341656Y-96532864D01*
X163475803Y-96515022D01*
X163800045Y-96464247D01*
X163907901Y-96416585D01*
X164111091Y-96416585D01*
X164188712Y-96687233D01*
X164246003Y-96977174D01*
X164266333Y-97233607D01*
X164282921Y-97423244D01*
X164367329Y-97497408D01*
X164536099Y-97509333D01*
X164754594Y-97487127D01*
X165067311Y-97428934D01*
X165403933Y-97348020D01*
X165758786Y-97258516D01*
X166101298Y-97182359D01*
X166343575Y-97138273D01*
X166685150Y-97089838D01*
X166838831Y-97686412D01*
X166934901Y-98005885D01*
X167023284Y-98199095D01*
X167089923Y-98246886D01*
X167222689Y-98206795D01*
X167457740Y-98143048D01*
X167632600Y-98097857D01*
X168077867Y-97984927D01*
X168019545Y-97556630D01*
X168013970Y-97514289D01*
X170471284Y-97514289D01*
X170602367Y-98062144D01*
X170683944Y-98362118D01*
X170777626Y-98538782D01*
X170920898Y-98610874D01*
X171151245Y-98597132D01*
X171506154Y-98516294D01*
X171509319Y-98515497D01*
X171739176Y-98445983D01*
X171838532Y-98371666D01*
X171844201Y-98261689D01*
X171838988Y-98239173D01*
X171799634Y-98048132D01*
X171752250Y-97772607D01*
X171731078Y-97635176D01*
X171696053Y-97420919D01*
X171645741Y-97294631D01*
X171546548Y-97246397D01*
X171364876Y-97266306D01*
X171067130Y-97344444D01*
X170903642Y-97391027D01*
X170471284Y-97514289D01*
X168013970Y-97514289D01*
X167972842Y-97201927D01*
X167965541Y-96976580D01*
X168020203Y-96841450D01*
X168159389Y-96757398D01*
X168405662Y-96685287D01*
X168542000Y-96650297D01*
X168867006Y-96573173D01*
X169151793Y-96517527D01*
X169335255Y-96495281D01*
X169336510Y-96495266D01*
X169550109Y-96469548D01*
X169819038Y-96408569D01*
X169871584Y-96393495D01*
X170083388Y-96314878D01*
X170164011Y-96229152D01*
X170154405Y-96118328D01*
X170113056Y-95928720D01*
X170068105Y-95657039D01*
X170052038Y-95540833D01*
X170017707Y-95327601D01*
X169960628Y-95200483D01*
X169849242Y-95150942D01*
X169651984Y-95170442D01*
X169337295Y-95250445D01*
X169162148Y-95300140D01*
X168779553Y-95391933D01*
X168373300Y-95462526D01*
X168109244Y-95490640D01*
X167620987Y-95519666D01*
X167499209Y-95026037D01*
X167417682Y-94756199D01*
X167330658Y-94560665D01*
X167271139Y-94491620D01*
X167136379Y-94491649D01*
X166899759Y-94534398D01*
X166695271Y-94587342D01*
X166225695Y-94723852D01*
X166270353Y-95037092D01*
X166320261Y-95330512D01*
X166378755Y-95604115D01*
X166380133Y-95609633D01*
X166445255Y-95868934D01*
X165884961Y-96012511D01*
X165576164Y-96085864D01*
X165316254Y-96137364D01*
X165168364Y-96155377D01*
X165001387Y-96177910D01*
X164742449Y-96236448D01*
X164561576Y-96285626D01*
X164111091Y-96416585D01*
X163907901Y-96416585D01*
X163980166Y-96384651D01*
X164041191Y-96255390D01*
X164011892Y-96068462D01*
X163955271Y-95808612D01*
X163914893Y-95516605D01*
X163913619Y-95502365D01*
X163886103Y-95182982D01*
X164281039Y-95126489D01*
X164601926Y-95067440D01*
X164970122Y-94981379D01*
X165140352Y-94934997D01*
X165436082Y-94859253D01*
X165694850Y-94810272D01*
X165807597Y-94799999D01*
X166017112Y-94769503D01*
X166119745Y-94661064D01*
X166125742Y-94449253D01*
X166062240Y-94167972D01*
X165999845Y-93894433D01*
X165974450Y-93676295D01*
X165982591Y-93592380D01*
X166094054Y-93505823D01*
X166327674Y-93438563D01*
X166438975Y-93421696D01*
X166708737Y-93382518D01*
X166920553Y-93339692D01*
X166978710Y-93322241D01*
X167073451Y-93333518D01*
G37*
%TD*%
M02*
