%TF.GenerationSoftware,KiCad,Pcbnew,10.0.3*%
%TF.CreationDate,2026-06-11T17:49:32-06:00*%
%TF.ProjectId,picowy,7069636f-7779-42e6-9b69-6361645f7063,01*%
%TF.SameCoordinates,Original*%
%TF.FileFunction,Legend,Top*%
%TF.FilePolarity,Positive*%
%FSLAX46Y46*%
G04 Gerber Fmt 4.6, Leading zero omitted, Abs format (unit mm)*
G04 Created by KiCad (PCBNEW 10.0.3) date 2026-06-11 17:49:32*
%MOMM*%
%LPD*%
G01*
G04 APERTURE LIST*
%ADD10C,0.150000*%
%ADD11C,0.200000*%
%ADD12C,0.152400*%
%ADD13C,0.508000*%
%ADD14C,0.120000*%
%ADD15C,0.000000*%
G04 APERTURE END LIST*
D10*
X129500000Y-78500000D02*
X129500000Y-79500000D01*
X129500000Y-79500000D02*
X128500000Y-79500000D01*
X142500000Y-74750000D02*
X142500000Y-75750000D01*
X142500000Y-75750000D02*
X141500000Y-75750000D01*
X125670112Y-104596009D02*
X125336779Y-104596009D01*
X125336779Y-105119819D02*
X125336779Y-104119819D01*
X125336779Y-104119819D02*
X125812969Y-104119819D01*
X126051065Y-104119819D02*
X126622493Y-104119819D01*
X126336779Y-105119819D02*
X126336779Y-104119819D01*
X126717732Y-105215057D02*
X127479636Y-105215057D01*
X127622494Y-104119819D02*
X128241541Y-104119819D01*
X128241541Y-104119819D02*
X127908208Y-104500771D01*
X127908208Y-104500771D02*
X128051065Y-104500771D01*
X128051065Y-104500771D02*
X128146303Y-104548390D01*
X128146303Y-104548390D02*
X128193922Y-104596009D01*
X128193922Y-104596009D02*
X128241541Y-104691247D01*
X128241541Y-104691247D02*
X128241541Y-104929342D01*
X128241541Y-104929342D02*
X128193922Y-105024580D01*
X128193922Y-105024580D02*
X128146303Y-105072200D01*
X128146303Y-105072200D02*
X128051065Y-105119819D01*
X128051065Y-105119819D02*
X127765351Y-105119819D01*
X127765351Y-105119819D02*
X127670113Y-105072200D01*
X127670113Y-105072200D02*
X127622494Y-105024580D01*
X128527256Y-104119819D02*
X128860589Y-105119819D01*
X128860589Y-105119819D02*
X129193922Y-104119819D01*
X129432018Y-104119819D02*
X130051065Y-104119819D01*
X130051065Y-104119819D02*
X129717732Y-104500771D01*
X129717732Y-104500771D02*
X129860589Y-104500771D01*
X129860589Y-104500771D02*
X129955827Y-104548390D01*
X129955827Y-104548390D02*
X130003446Y-104596009D01*
X130003446Y-104596009D02*
X130051065Y-104691247D01*
X130051065Y-104691247D02*
X130051065Y-104929342D01*
X130051065Y-104929342D02*
X130003446Y-105024580D01*
X130003446Y-105024580D02*
X129955827Y-105072200D01*
X129955827Y-105072200D02*
X129860589Y-105119819D01*
X129860589Y-105119819D02*
X129574875Y-105119819D01*
X129574875Y-105119819D02*
X129479637Y-105072200D01*
X129479637Y-105072200D02*
X129432018Y-105024580D01*
X130110588Y-113667438D02*
X130015350Y-113619819D01*
X130015350Y-113619819D02*
X129872493Y-113619819D01*
X129872493Y-113619819D02*
X129729636Y-113667438D01*
X129729636Y-113667438D02*
X129634398Y-113762676D01*
X129634398Y-113762676D02*
X129586779Y-113857914D01*
X129586779Y-113857914D02*
X129539160Y-114048390D01*
X129539160Y-114048390D02*
X129539160Y-114191247D01*
X129539160Y-114191247D02*
X129586779Y-114381723D01*
X129586779Y-114381723D02*
X129634398Y-114476961D01*
X129634398Y-114476961D02*
X129729636Y-114572200D01*
X129729636Y-114572200D02*
X129872493Y-114619819D01*
X129872493Y-114619819D02*
X129967731Y-114619819D01*
X129967731Y-114619819D02*
X130110588Y-114572200D01*
X130110588Y-114572200D02*
X130158207Y-114524580D01*
X130158207Y-114524580D02*
X130158207Y-114191247D01*
X130158207Y-114191247D02*
X129967731Y-114191247D01*
X130586779Y-114619819D02*
X130586779Y-113619819D01*
X130586779Y-113619819D02*
X131158207Y-114619819D01*
X131158207Y-114619819D02*
X131158207Y-113619819D01*
X131634398Y-114619819D02*
X131634398Y-113619819D01*
X131634398Y-113619819D02*
X131872493Y-113619819D01*
X131872493Y-113619819D02*
X132015350Y-113667438D01*
X132015350Y-113667438D02*
X132110588Y-113762676D01*
X132110588Y-113762676D02*
X132158207Y-113857914D01*
X132158207Y-113857914D02*
X132205826Y-114048390D01*
X132205826Y-114048390D02*
X132205826Y-114191247D01*
X132205826Y-114191247D02*
X132158207Y-114381723D01*
X132158207Y-114381723D02*
X132110588Y-114476961D01*
X132110588Y-114476961D02*
X132015350Y-114572200D01*
X132015350Y-114572200D02*
X131872493Y-114619819D01*
X131872493Y-114619819D02*
X131634398Y-114619819D01*
X164336779Y-119738866D02*
X165098684Y-119738866D01*
X164717731Y-120119819D02*
X164717731Y-119357914D01*
X165479636Y-119119819D02*
X166098683Y-119119819D01*
X166098683Y-119119819D02*
X165765350Y-119500771D01*
X165765350Y-119500771D02*
X165908207Y-119500771D01*
X165908207Y-119500771D02*
X166003445Y-119548390D01*
X166003445Y-119548390D02*
X166051064Y-119596009D01*
X166051064Y-119596009D02*
X166098683Y-119691247D01*
X166098683Y-119691247D02*
X166098683Y-119929342D01*
X166098683Y-119929342D02*
X166051064Y-120024580D01*
X166051064Y-120024580D02*
X166003445Y-120072200D01*
X166003445Y-120072200D02*
X165908207Y-120119819D01*
X165908207Y-120119819D02*
X165622493Y-120119819D01*
X165622493Y-120119819D02*
X165527255Y-120072200D01*
X165527255Y-120072200D02*
X165479636Y-120024580D01*
X166384398Y-119119819D02*
X166717731Y-120119819D01*
X166717731Y-120119819D02*
X167051064Y-119119819D01*
X167289160Y-119119819D02*
X167908207Y-119119819D01*
X167908207Y-119119819D02*
X167574874Y-119500771D01*
X167574874Y-119500771D02*
X167717731Y-119500771D01*
X167717731Y-119500771D02*
X167812969Y-119548390D01*
X167812969Y-119548390D02*
X167860588Y-119596009D01*
X167860588Y-119596009D02*
X167908207Y-119691247D01*
X167908207Y-119691247D02*
X167908207Y-119929342D01*
X167908207Y-119929342D02*
X167860588Y-120024580D01*
X167860588Y-120024580D02*
X167812969Y-120072200D01*
X167812969Y-120072200D02*
X167717731Y-120119819D01*
X167717731Y-120119819D02*
X167432017Y-120119819D01*
X167432017Y-120119819D02*
X167336779Y-120072200D01*
X167336779Y-120072200D02*
X167289160Y-120024580D01*
D11*
X124376816Y-107447331D02*
X124948244Y-107447331D01*
X124662530Y-108447331D02*
X124662530Y-107447331D01*
X125472054Y-107447331D02*
X125662530Y-107447331D01*
X125662530Y-107447331D02*
X125757768Y-107494950D01*
X125757768Y-107494950D02*
X125853006Y-107590188D01*
X125853006Y-107590188D02*
X125900625Y-107780664D01*
X125900625Y-107780664D02*
X125900625Y-108113997D01*
X125900625Y-108113997D02*
X125853006Y-108304473D01*
X125853006Y-108304473D02*
X125757768Y-108399712D01*
X125757768Y-108399712D02*
X125662530Y-108447331D01*
X125662530Y-108447331D02*
X125472054Y-108447331D01*
X125472054Y-108447331D02*
X125376816Y-108399712D01*
X125376816Y-108399712D02*
X125281578Y-108304473D01*
X125281578Y-108304473D02*
X125233959Y-108113997D01*
X125233959Y-108113997D02*
X125233959Y-107780664D01*
X125233959Y-107780664D02*
X125281578Y-107590188D01*
X125281578Y-107590188D02*
X125376816Y-107494950D01*
X125376816Y-107494950D02*
X125472054Y-107447331D01*
X126329197Y-108352092D02*
X126376816Y-108399712D01*
X126376816Y-108399712D02*
X126329197Y-108447331D01*
X126329197Y-108447331D02*
X126281578Y-108399712D01*
X126281578Y-108399712D02*
X126329197Y-108352092D01*
X126329197Y-108352092D02*
X126329197Y-108447331D01*
X126329197Y-107828283D02*
X126376816Y-107875902D01*
X126376816Y-107875902D02*
X126329197Y-107923521D01*
X126329197Y-107923521D02*
X126281578Y-107875902D01*
X126281578Y-107875902D02*
X126329197Y-107828283D01*
X126329197Y-107828283D02*
X126329197Y-107923521D01*
X125281578Y-109390608D02*
X124519673Y-109676322D01*
X124519673Y-109676322D02*
X125281578Y-109962036D01*
X125662530Y-109057275D02*
X126281577Y-109057275D01*
X126281577Y-109057275D02*
X125948244Y-109438227D01*
X125948244Y-109438227D02*
X126091101Y-109438227D01*
X126091101Y-109438227D02*
X126186339Y-109485846D01*
X126186339Y-109485846D02*
X126233958Y-109533465D01*
X126233958Y-109533465D02*
X126281577Y-109628703D01*
X126281577Y-109628703D02*
X126281577Y-109866798D01*
X126281577Y-109866798D02*
X126233958Y-109962036D01*
X126233958Y-109962036D02*
X126186339Y-110009656D01*
X126186339Y-110009656D02*
X126091101Y-110057275D01*
X126091101Y-110057275D02*
X125805387Y-110057275D01*
X125805387Y-110057275D02*
X125710149Y-110009656D01*
X125710149Y-110009656D02*
X125662530Y-109962036D01*
X128233959Y-109390608D02*
X127472054Y-109676322D01*
X127472054Y-109676322D02*
X128233959Y-109962036D01*
X128614911Y-109057275D02*
X129233958Y-109057275D01*
X129233958Y-109057275D02*
X128900625Y-109438227D01*
X128900625Y-109438227D02*
X129043482Y-109438227D01*
X129043482Y-109438227D02*
X129138720Y-109485846D01*
X129138720Y-109485846D02*
X129186339Y-109533465D01*
X129186339Y-109533465D02*
X129233958Y-109628703D01*
X129233958Y-109628703D02*
X129233958Y-109866798D01*
X129233958Y-109866798D02*
X129186339Y-109962036D01*
X129186339Y-109962036D02*
X129138720Y-110009656D01*
X129138720Y-110009656D02*
X129043482Y-110057275D01*
X129043482Y-110057275D02*
X128757768Y-110057275D01*
X128757768Y-110057275D02*
X128662530Y-110009656D01*
X128662530Y-110009656D02*
X128614911Y-109962036D01*
X131186340Y-109390608D02*
X130424435Y-109676322D01*
X130424435Y-109676322D02*
X131186340Y-109962036D01*
X131567292Y-109057275D02*
X132186339Y-109057275D01*
X132186339Y-109057275D02*
X131853006Y-109438227D01*
X131853006Y-109438227D02*
X131995863Y-109438227D01*
X131995863Y-109438227D02*
X132091101Y-109485846D01*
X132091101Y-109485846D02*
X132138720Y-109533465D01*
X132138720Y-109533465D02*
X132186339Y-109628703D01*
X132186339Y-109628703D02*
X132186339Y-109866798D01*
X132186339Y-109866798D02*
X132138720Y-109962036D01*
X132138720Y-109962036D02*
X132091101Y-110009656D01*
X132091101Y-110009656D02*
X131995863Y-110057275D01*
X131995863Y-110057275D02*
X131710149Y-110057275D01*
X131710149Y-110057275D02*
X131614911Y-110009656D01*
X131614911Y-110009656D02*
X131567292Y-109962036D01*
X125805387Y-110714838D02*
X125710149Y-110667219D01*
X125710149Y-110667219D02*
X125567292Y-110667219D01*
X125567292Y-110667219D02*
X125424435Y-110714838D01*
X125424435Y-110714838D02*
X125329197Y-110810076D01*
X125329197Y-110810076D02*
X125281578Y-110905314D01*
X125281578Y-110905314D02*
X125233959Y-111095790D01*
X125233959Y-111095790D02*
X125233959Y-111238647D01*
X125233959Y-111238647D02*
X125281578Y-111429123D01*
X125281578Y-111429123D02*
X125329197Y-111524361D01*
X125329197Y-111524361D02*
X125424435Y-111619600D01*
X125424435Y-111619600D02*
X125567292Y-111667219D01*
X125567292Y-111667219D02*
X125662530Y-111667219D01*
X125662530Y-111667219D02*
X125805387Y-111619600D01*
X125805387Y-111619600D02*
X125853006Y-111571980D01*
X125853006Y-111571980D02*
X125853006Y-111238647D01*
X125853006Y-111238647D02*
X125662530Y-111238647D01*
X126233959Y-111381504D02*
X126710149Y-111381504D01*
X126138721Y-111667219D02*
X126472054Y-110667219D01*
X126472054Y-110667219D02*
X126805387Y-111667219D01*
X127138721Y-111667219D02*
X127138721Y-110667219D01*
X127138721Y-111143409D02*
X127710149Y-111143409D01*
X127710149Y-111667219D02*
X127710149Y-110667219D01*
X128376816Y-111191028D02*
X128376816Y-111667219D01*
X128043483Y-110667219D02*
X128376816Y-111191028D01*
X128376816Y-111191028D02*
X128710149Y-110667219D01*
X129043483Y-111143409D02*
X129376816Y-111143409D01*
X129519673Y-111667219D02*
X129043483Y-111667219D01*
X129043483Y-111667219D02*
X129043483Y-110667219D01*
X129043483Y-110667219D02*
X129519673Y-110667219D01*
X130138721Y-110667219D02*
X130329197Y-110667219D01*
X130329197Y-110667219D02*
X130424435Y-110714838D01*
X130424435Y-110714838D02*
X130519673Y-110810076D01*
X130519673Y-110810076D02*
X130567292Y-111000552D01*
X130567292Y-111000552D02*
X130567292Y-111333885D01*
X130567292Y-111333885D02*
X130519673Y-111524361D01*
X130519673Y-111524361D02*
X130424435Y-111619600D01*
X130424435Y-111619600D02*
X130329197Y-111667219D01*
X130329197Y-111667219D02*
X130138721Y-111667219D01*
X130138721Y-111667219D02*
X130043483Y-111619600D01*
X130043483Y-111619600D02*
X129948245Y-111524361D01*
X129948245Y-111524361D02*
X129900626Y-111333885D01*
X129900626Y-111333885D02*
X129900626Y-111000552D01*
X129900626Y-111000552D02*
X129948245Y-110810076D01*
X129948245Y-110810076D02*
X130043483Y-110714838D01*
X130043483Y-110714838D02*
X130138721Y-110667219D01*
X130995864Y-111667219D02*
X130995864Y-110667219D01*
X130995864Y-110667219D02*
X131567292Y-111667219D01*
X131567292Y-111667219D02*
X131567292Y-110667219D01*
X131603006Y-117433465D02*
X131269673Y-117433465D01*
X131269673Y-117957275D02*
X131269673Y-116957275D01*
X131269673Y-116957275D02*
X131745863Y-116957275D01*
X132698244Y-117957275D02*
X132364911Y-117481084D01*
X132126816Y-117957275D02*
X132126816Y-116957275D01*
X132126816Y-116957275D02*
X132507768Y-116957275D01*
X132507768Y-116957275D02*
X132603006Y-117004894D01*
X132603006Y-117004894D02*
X132650625Y-117052513D01*
X132650625Y-117052513D02*
X132698244Y-117147751D01*
X132698244Y-117147751D02*
X132698244Y-117290608D01*
X132698244Y-117290608D02*
X132650625Y-117385846D01*
X132650625Y-117385846D02*
X132603006Y-117433465D01*
X132603006Y-117433465D02*
X132507768Y-117481084D01*
X132507768Y-117481084D02*
X132126816Y-117481084D01*
X133317292Y-116957275D02*
X133507768Y-116957275D01*
X133507768Y-116957275D02*
X133603006Y-117004894D01*
X133603006Y-117004894D02*
X133698244Y-117100132D01*
X133698244Y-117100132D02*
X133745863Y-117290608D01*
X133745863Y-117290608D02*
X133745863Y-117623941D01*
X133745863Y-117623941D02*
X133698244Y-117814417D01*
X133698244Y-117814417D02*
X133603006Y-117909656D01*
X133603006Y-117909656D02*
X133507768Y-117957275D01*
X133507768Y-117957275D02*
X133317292Y-117957275D01*
X133317292Y-117957275D02*
X133222054Y-117909656D01*
X133222054Y-117909656D02*
X133126816Y-117814417D01*
X133126816Y-117814417D02*
X133079197Y-117623941D01*
X133079197Y-117623941D02*
X133079197Y-117290608D01*
X133079197Y-117290608D02*
X133126816Y-117100132D01*
X133126816Y-117100132D02*
X133222054Y-117004894D01*
X133222054Y-117004894D02*
X133317292Y-116957275D01*
X134174435Y-117957275D02*
X134174435Y-116957275D01*
X134174435Y-116957275D02*
X134507768Y-117671560D01*
X134507768Y-117671560D02*
X134841101Y-116957275D01*
X134841101Y-116957275D02*
X134841101Y-117957275D01*
X135317292Y-117862036D02*
X135364911Y-117909656D01*
X135364911Y-117909656D02*
X135317292Y-117957275D01*
X135317292Y-117957275D02*
X135269673Y-117909656D01*
X135269673Y-117909656D02*
X135317292Y-117862036D01*
X135317292Y-117862036D02*
X135317292Y-117957275D01*
X135317292Y-117338227D02*
X135364911Y-117385846D01*
X135364911Y-117385846D02*
X135317292Y-117433465D01*
X135317292Y-117433465D02*
X135269673Y-117385846D01*
X135269673Y-117385846D02*
X135317292Y-117338227D01*
X135317292Y-117338227D02*
X135317292Y-117433465D01*
X131174435Y-118567219D02*
X131412530Y-119567219D01*
X131412530Y-119567219D02*
X131603006Y-118852933D01*
X131603006Y-118852933D02*
X131793482Y-119567219D01*
X131793482Y-119567219D02*
X132031578Y-118567219D01*
X132603006Y-119091028D02*
X132603006Y-119567219D01*
X132269673Y-118567219D02*
X132603006Y-119091028D01*
X132603006Y-119091028D02*
X132936339Y-118567219D01*
X133222054Y-119281504D02*
X133698244Y-119281504D01*
X133126816Y-119567219D02*
X133460149Y-118567219D01*
X133460149Y-118567219D02*
X133793482Y-119567219D01*
X133983959Y-118567219D02*
X134555387Y-118567219D01*
X134269673Y-119567219D02*
X134269673Y-118567219D01*
X134745864Y-118567219D02*
X135317292Y-118567219D01*
X135031578Y-119567219D02*
X135031578Y-118567219D01*
D10*
X134416666Y-84954819D02*
X134416666Y-85669104D01*
X134416666Y-85669104D02*
X134369047Y-85811961D01*
X134369047Y-85811961D02*
X134273809Y-85907200D01*
X134273809Y-85907200D02*
X134130952Y-85954819D01*
X134130952Y-85954819D02*
X134035714Y-85954819D01*
X134845238Y-85050057D02*
X134892857Y-85002438D01*
X134892857Y-85002438D02*
X134988095Y-84954819D01*
X134988095Y-84954819D02*
X135226190Y-84954819D01*
X135226190Y-84954819D02*
X135321428Y-85002438D01*
X135321428Y-85002438D02*
X135369047Y-85050057D01*
X135369047Y-85050057D02*
X135416666Y-85145295D01*
X135416666Y-85145295D02*
X135416666Y-85240533D01*
X135416666Y-85240533D02*
X135369047Y-85383390D01*
X135369047Y-85383390D02*
X134797619Y-85954819D01*
X134797619Y-85954819D02*
X135416666Y-85954819D01*
X161833333Y-100109580D02*
X161785714Y-100157200D01*
X161785714Y-100157200D02*
X161642857Y-100204819D01*
X161642857Y-100204819D02*
X161547619Y-100204819D01*
X161547619Y-100204819D02*
X161404762Y-100157200D01*
X161404762Y-100157200D02*
X161309524Y-100061961D01*
X161309524Y-100061961D02*
X161261905Y-99966723D01*
X161261905Y-99966723D02*
X161214286Y-99776247D01*
X161214286Y-99776247D02*
X161214286Y-99633390D01*
X161214286Y-99633390D02*
X161261905Y-99442914D01*
X161261905Y-99442914D02*
X161309524Y-99347676D01*
X161309524Y-99347676D02*
X161404762Y-99252438D01*
X161404762Y-99252438D02*
X161547619Y-99204819D01*
X161547619Y-99204819D02*
X161642857Y-99204819D01*
X161642857Y-99204819D02*
X161785714Y-99252438D01*
X161785714Y-99252438D02*
X161833333Y-99300057D01*
X162785714Y-100204819D02*
X162214286Y-100204819D01*
X162500000Y-100204819D02*
X162500000Y-99204819D01*
X162500000Y-99204819D02*
X162404762Y-99347676D01*
X162404762Y-99347676D02*
X162309524Y-99442914D01*
X162309524Y-99442914D02*
X162214286Y-99490533D01*
X128857142Y-80954819D02*
X128523809Y-80478628D01*
X128285714Y-80954819D02*
X128285714Y-79954819D01*
X128285714Y-79954819D02*
X128666666Y-79954819D01*
X128666666Y-79954819D02*
X128761904Y-80002438D01*
X128761904Y-80002438D02*
X128809523Y-80050057D01*
X128809523Y-80050057D02*
X128857142Y-80145295D01*
X128857142Y-80145295D02*
X128857142Y-80288152D01*
X128857142Y-80288152D02*
X128809523Y-80383390D01*
X128809523Y-80383390D02*
X128761904Y-80431009D01*
X128761904Y-80431009D02*
X128666666Y-80478628D01*
X128666666Y-80478628D02*
X128285714Y-80478628D01*
X129809523Y-80954819D02*
X129238095Y-80954819D01*
X129523809Y-80954819D02*
X129523809Y-79954819D01*
X129523809Y-79954819D02*
X129428571Y-80097676D01*
X129428571Y-80097676D02*
X129333333Y-80192914D01*
X129333333Y-80192914D02*
X129238095Y-80240533D01*
X130666666Y-79954819D02*
X130476190Y-79954819D01*
X130476190Y-79954819D02*
X130380952Y-80002438D01*
X130380952Y-80002438D02*
X130333333Y-80050057D01*
X130333333Y-80050057D02*
X130238095Y-80192914D01*
X130238095Y-80192914D02*
X130190476Y-80383390D01*
X130190476Y-80383390D02*
X130190476Y-80764342D01*
X130190476Y-80764342D02*
X130238095Y-80859580D01*
X130238095Y-80859580D02*
X130285714Y-80907200D01*
X130285714Y-80907200D02*
X130380952Y-80954819D01*
X130380952Y-80954819D02*
X130571428Y-80954819D01*
X130571428Y-80954819D02*
X130666666Y-80907200D01*
X130666666Y-80907200D02*
X130714285Y-80859580D01*
X130714285Y-80859580D02*
X130761904Y-80764342D01*
X130761904Y-80764342D02*
X130761904Y-80526247D01*
X130761904Y-80526247D02*
X130714285Y-80431009D01*
X130714285Y-80431009D02*
X130666666Y-80383390D01*
X130666666Y-80383390D02*
X130571428Y-80335771D01*
X130571428Y-80335771D02*
X130380952Y-80335771D01*
X130380952Y-80335771D02*
X130285714Y-80383390D01*
X130285714Y-80383390D02*
X130238095Y-80431009D01*
X130238095Y-80431009D02*
X130190476Y-80526247D01*
X161083333Y-101954819D02*
X160750000Y-101478628D01*
X160511905Y-101954819D02*
X160511905Y-100954819D01*
X160511905Y-100954819D02*
X160892857Y-100954819D01*
X160892857Y-100954819D02*
X160988095Y-101002438D01*
X160988095Y-101002438D02*
X161035714Y-101050057D01*
X161035714Y-101050057D02*
X161083333Y-101145295D01*
X161083333Y-101145295D02*
X161083333Y-101288152D01*
X161083333Y-101288152D02*
X161035714Y-101383390D01*
X161035714Y-101383390D02*
X160988095Y-101431009D01*
X160988095Y-101431009D02*
X160892857Y-101478628D01*
X160892857Y-101478628D02*
X160511905Y-101478628D01*
X161559524Y-101954819D02*
X161750000Y-101954819D01*
X161750000Y-101954819D02*
X161845238Y-101907200D01*
X161845238Y-101907200D02*
X161892857Y-101859580D01*
X161892857Y-101859580D02*
X161988095Y-101716723D01*
X161988095Y-101716723D02*
X162035714Y-101526247D01*
X162035714Y-101526247D02*
X162035714Y-101145295D01*
X162035714Y-101145295D02*
X161988095Y-101050057D01*
X161988095Y-101050057D02*
X161940476Y-101002438D01*
X161940476Y-101002438D02*
X161845238Y-100954819D01*
X161845238Y-100954819D02*
X161654762Y-100954819D01*
X161654762Y-100954819D02*
X161559524Y-101002438D01*
X161559524Y-101002438D02*
X161511905Y-101050057D01*
X161511905Y-101050057D02*
X161464286Y-101145295D01*
X161464286Y-101145295D02*
X161464286Y-101383390D01*
X161464286Y-101383390D02*
X161511905Y-101478628D01*
X161511905Y-101478628D02*
X161559524Y-101526247D01*
X161559524Y-101526247D02*
X161654762Y-101573866D01*
X161654762Y-101573866D02*
X161845238Y-101573866D01*
X161845238Y-101573866D02*
X161940476Y-101526247D01*
X161940476Y-101526247D02*
X161988095Y-101478628D01*
X161988095Y-101478628D02*
X162035714Y-101383390D01*
X146204819Y-73642857D02*
X145728628Y-73976190D01*
X146204819Y-74214285D02*
X145204819Y-74214285D01*
X145204819Y-74214285D02*
X145204819Y-73833333D01*
X145204819Y-73833333D02*
X145252438Y-73738095D01*
X145252438Y-73738095D02*
X145300057Y-73690476D01*
X145300057Y-73690476D02*
X145395295Y-73642857D01*
X145395295Y-73642857D02*
X145538152Y-73642857D01*
X145538152Y-73642857D02*
X145633390Y-73690476D01*
X145633390Y-73690476D02*
X145681009Y-73738095D01*
X145681009Y-73738095D02*
X145728628Y-73833333D01*
X145728628Y-73833333D02*
X145728628Y-74214285D01*
X146204819Y-72690476D02*
X146204819Y-73261904D01*
X146204819Y-72976190D02*
X145204819Y-72976190D01*
X145204819Y-72976190D02*
X145347676Y-73071428D01*
X145347676Y-73071428D02*
X145442914Y-73166666D01*
X145442914Y-73166666D02*
X145490533Y-73261904D01*
X146204819Y-72214285D02*
X146204819Y-72023809D01*
X146204819Y-72023809D02*
X146157200Y-71928571D01*
X146157200Y-71928571D02*
X146109580Y-71880952D01*
X146109580Y-71880952D02*
X145966723Y-71785714D01*
X145966723Y-71785714D02*
X145776247Y-71738095D01*
X145776247Y-71738095D02*
X145395295Y-71738095D01*
X145395295Y-71738095D02*
X145300057Y-71785714D01*
X145300057Y-71785714D02*
X145252438Y-71833333D01*
X145252438Y-71833333D02*
X145204819Y-71928571D01*
X145204819Y-71928571D02*
X145204819Y-72119047D01*
X145204819Y-72119047D02*
X145252438Y-72214285D01*
X145252438Y-72214285D02*
X145300057Y-72261904D01*
X145300057Y-72261904D02*
X145395295Y-72309523D01*
X145395295Y-72309523D02*
X145633390Y-72309523D01*
X145633390Y-72309523D02*
X145728628Y-72261904D01*
X145728628Y-72261904D02*
X145776247Y-72214285D01*
X145776247Y-72214285D02*
X145823866Y-72119047D01*
X145823866Y-72119047D02*
X145823866Y-71928571D01*
X145823866Y-71928571D02*
X145776247Y-71833333D01*
X145776247Y-71833333D02*
X145728628Y-71785714D01*
X145728628Y-71785714D02*
X145633390Y-71738095D01*
X157454819Y-78142857D02*
X156978628Y-78476190D01*
X157454819Y-78714285D02*
X156454819Y-78714285D01*
X156454819Y-78714285D02*
X156454819Y-78333333D01*
X156454819Y-78333333D02*
X156502438Y-78238095D01*
X156502438Y-78238095D02*
X156550057Y-78190476D01*
X156550057Y-78190476D02*
X156645295Y-78142857D01*
X156645295Y-78142857D02*
X156788152Y-78142857D01*
X156788152Y-78142857D02*
X156883390Y-78190476D01*
X156883390Y-78190476D02*
X156931009Y-78238095D01*
X156931009Y-78238095D02*
X156978628Y-78333333D01*
X156978628Y-78333333D02*
X156978628Y-78714285D01*
X157454819Y-77190476D02*
X157454819Y-77761904D01*
X157454819Y-77476190D02*
X156454819Y-77476190D01*
X156454819Y-77476190D02*
X156597676Y-77571428D01*
X156597676Y-77571428D02*
X156692914Y-77666666D01*
X156692914Y-77666666D02*
X156740533Y-77761904D01*
X157454819Y-76238095D02*
X157454819Y-76809523D01*
X157454819Y-76523809D02*
X156454819Y-76523809D01*
X156454819Y-76523809D02*
X156597676Y-76619047D01*
X156597676Y-76619047D02*
X156692914Y-76714285D01*
X156692914Y-76714285D02*
X156740533Y-76809523D01*
X139238095Y-122454819D02*
X139238095Y-123264342D01*
X139238095Y-123264342D02*
X139285714Y-123359580D01*
X139285714Y-123359580D02*
X139333333Y-123407200D01*
X139333333Y-123407200D02*
X139428571Y-123454819D01*
X139428571Y-123454819D02*
X139619047Y-123454819D01*
X139619047Y-123454819D02*
X139714285Y-123407200D01*
X139714285Y-123407200D02*
X139761904Y-123359580D01*
X139761904Y-123359580D02*
X139809523Y-123264342D01*
X139809523Y-123264342D02*
X139809523Y-122454819D01*
X140190476Y-122454819D02*
X140857142Y-122454819D01*
X140857142Y-122454819D02*
X140428571Y-123454819D01*
X171204819Y-94511904D02*
X172014342Y-94511904D01*
X172014342Y-94511904D02*
X172109580Y-94464285D01*
X172109580Y-94464285D02*
X172157200Y-94416666D01*
X172157200Y-94416666D02*
X172204819Y-94321428D01*
X172204819Y-94321428D02*
X172204819Y-94130952D01*
X172204819Y-94130952D02*
X172157200Y-94035714D01*
X172157200Y-94035714D02*
X172109580Y-93988095D01*
X172109580Y-93988095D02*
X172014342Y-93940476D01*
X172014342Y-93940476D02*
X171204819Y-93940476D01*
X171538152Y-93035714D02*
X172204819Y-93035714D01*
X171157200Y-93273809D02*
X171871485Y-93511904D01*
X171871485Y-93511904D02*
X171871485Y-92892857D01*
X166607142Y-118109580D02*
X166559523Y-118157200D01*
X166559523Y-118157200D02*
X166416666Y-118204819D01*
X166416666Y-118204819D02*
X166321428Y-118204819D01*
X166321428Y-118204819D02*
X166178571Y-118157200D01*
X166178571Y-118157200D02*
X166083333Y-118061961D01*
X166083333Y-118061961D02*
X166035714Y-117966723D01*
X166035714Y-117966723D02*
X165988095Y-117776247D01*
X165988095Y-117776247D02*
X165988095Y-117633390D01*
X165988095Y-117633390D02*
X166035714Y-117442914D01*
X166035714Y-117442914D02*
X166083333Y-117347676D01*
X166083333Y-117347676D02*
X166178571Y-117252438D01*
X166178571Y-117252438D02*
X166321428Y-117204819D01*
X166321428Y-117204819D02*
X166416666Y-117204819D01*
X166416666Y-117204819D02*
X166559523Y-117252438D01*
X166559523Y-117252438D02*
X166607142Y-117300057D01*
X166940476Y-117204819D02*
X167559523Y-117204819D01*
X167559523Y-117204819D02*
X167226190Y-117585771D01*
X167226190Y-117585771D02*
X167369047Y-117585771D01*
X167369047Y-117585771D02*
X167464285Y-117633390D01*
X167464285Y-117633390D02*
X167511904Y-117681009D01*
X167511904Y-117681009D02*
X167559523Y-117776247D01*
X167559523Y-117776247D02*
X167559523Y-118014342D01*
X167559523Y-118014342D02*
X167511904Y-118109580D01*
X167511904Y-118109580D02*
X167464285Y-118157200D01*
X167464285Y-118157200D02*
X167369047Y-118204819D01*
X167369047Y-118204819D02*
X167083333Y-118204819D01*
X167083333Y-118204819D02*
X166988095Y-118157200D01*
X166988095Y-118157200D02*
X166940476Y-118109580D01*
X168511904Y-118204819D02*
X167940476Y-118204819D01*
X168226190Y-118204819D02*
X168226190Y-117204819D01*
X168226190Y-117204819D02*
X168130952Y-117347676D01*
X168130952Y-117347676D02*
X168035714Y-117442914D01*
X168035714Y-117442914D02*
X167940476Y-117490533D01*
X139704819Y-96166666D02*
X139228628Y-96499999D01*
X139704819Y-96738094D02*
X138704819Y-96738094D01*
X138704819Y-96738094D02*
X138704819Y-96357142D01*
X138704819Y-96357142D02*
X138752438Y-96261904D01*
X138752438Y-96261904D02*
X138800057Y-96214285D01*
X138800057Y-96214285D02*
X138895295Y-96166666D01*
X138895295Y-96166666D02*
X139038152Y-96166666D01*
X139038152Y-96166666D02*
X139133390Y-96214285D01*
X139133390Y-96214285D02*
X139181009Y-96261904D01*
X139181009Y-96261904D02*
X139228628Y-96357142D01*
X139228628Y-96357142D02*
X139228628Y-96738094D01*
X139133390Y-95595237D02*
X139085771Y-95690475D01*
X139085771Y-95690475D02*
X139038152Y-95738094D01*
X139038152Y-95738094D02*
X138942914Y-95785713D01*
X138942914Y-95785713D02*
X138895295Y-95785713D01*
X138895295Y-95785713D02*
X138800057Y-95738094D01*
X138800057Y-95738094D02*
X138752438Y-95690475D01*
X138752438Y-95690475D02*
X138704819Y-95595237D01*
X138704819Y-95595237D02*
X138704819Y-95404761D01*
X138704819Y-95404761D02*
X138752438Y-95309523D01*
X138752438Y-95309523D02*
X138800057Y-95261904D01*
X138800057Y-95261904D02*
X138895295Y-95214285D01*
X138895295Y-95214285D02*
X138942914Y-95214285D01*
X138942914Y-95214285D02*
X139038152Y-95261904D01*
X139038152Y-95261904D02*
X139085771Y-95309523D01*
X139085771Y-95309523D02*
X139133390Y-95404761D01*
X139133390Y-95404761D02*
X139133390Y-95595237D01*
X139133390Y-95595237D02*
X139181009Y-95690475D01*
X139181009Y-95690475D02*
X139228628Y-95738094D01*
X139228628Y-95738094D02*
X139323866Y-95785713D01*
X139323866Y-95785713D02*
X139514342Y-95785713D01*
X139514342Y-95785713D02*
X139609580Y-95738094D01*
X139609580Y-95738094D02*
X139657200Y-95690475D01*
X139657200Y-95690475D02*
X139704819Y-95595237D01*
X139704819Y-95595237D02*
X139704819Y-95404761D01*
X139704819Y-95404761D02*
X139657200Y-95309523D01*
X139657200Y-95309523D02*
X139609580Y-95261904D01*
X139609580Y-95261904D02*
X139514342Y-95214285D01*
X139514342Y-95214285D02*
X139323866Y-95214285D01*
X139323866Y-95214285D02*
X139228628Y-95261904D01*
X139228628Y-95261904D02*
X139181009Y-95309523D01*
X139181009Y-95309523D02*
X139133390Y-95404761D01*
X161859580Y-107392857D02*
X161907200Y-107440476D01*
X161907200Y-107440476D02*
X161954819Y-107583333D01*
X161954819Y-107583333D02*
X161954819Y-107678571D01*
X161954819Y-107678571D02*
X161907200Y-107821428D01*
X161907200Y-107821428D02*
X161811961Y-107916666D01*
X161811961Y-107916666D02*
X161716723Y-107964285D01*
X161716723Y-107964285D02*
X161526247Y-108011904D01*
X161526247Y-108011904D02*
X161383390Y-108011904D01*
X161383390Y-108011904D02*
X161192914Y-107964285D01*
X161192914Y-107964285D02*
X161097676Y-107916666D01*
X161097676Y-107916666D02*
X161002438Y-107821428D01*
X161002438Y-107821428D02*
X160954819Y-107678571D01*
X160954819Y-107678571D02*
X160954819Y-107583333D01*
X160954819Y-107583333D02*
X161002438Y-107440476D01*
X161002438Y-107440476D02*
X161050057Y-107392857D01*
X161954819Y-106440476D02*
X161954819Y-107011904D01*
X161954819Y-106726190D02*
X160954819Y-106726190D01*
X160954819Y-106726190D02*
X161097676Y-106821428D01*
X161097676Y-106821428D02*
X161192914Y-106916666D01*
X161192914Y-106916666D02*
X161240533Y-107011904D01*
X160954819Y-106107142D02*
X160954819Y-105488095D01*
X160954819Y-105488095D02*
X161335771Y-105821428D01*
X161335771Y-105821428D02*
X161335771Y-105678571D01*
X161335771Y-105678571D02*
X161383390Y-105583333D01*
X161383390Y-105583333D02*
X161431009Y-105535714D01*
X161431009Y-105535714D02*
X161526247Y-105488095D01*
X161526247Y-105488095D02*
X161764342Y-105488095D01*
X161764342Y-105488095D02*
X161859580Y-105535714D01*
X161859580Y-105535714D02*
X161907200Y-105583333D01*
X161907200Y-105583333D02*
X161954819Y-105678571D01*
X161954819Y-105678571D02*
X161954819Y-105964285D01*
X161954819Y-105964285D02*
X161907200Y-106059523D01*
X161907200Y-106059523D02*
X161859580Y-106107142D01*
X152954819Y-77392857D02*
X152478628Y-77726190D01*
X152954819Y-77964285D02*
X151954819Y-77964285D01*
X151954819Y-77964285D02*
X151954819Y-77583333D01*
X151954819Y-77583333D02*
X152002438Y-77488095D01*
X152002438Y-77488095D02*
X152050057Y-77440476D01*
X152050057Y-77440476D02*
X152145295Y-77392857D01*
X152145295Y-77392857D02*
X152288152Y-77392857D01*
X152288152Y-77392857D02*
X152383390Y-77440476D01*
X152383390Y-77440476D02*
X152431009Y-77488095D01*
X152431009Y-77488095D02*
X152478628Y-77583333D01*
X152478628Y-77583333D02*
X152478628Y-77964285D01*
X152954819Y-76440476D02*
X152954819Y-77011904D01*
X152954819Y-76726190D02*
X151954819Y-76726190D01*
X151954819Y-76726190D02*
X152097676Y-76821428D01*
X152097676Y-76821428D02*
X152192914Y-76916666D01*
X152192914Y-76916666D02*
X152240533Y-77011904D01*
X152050057Y-76059523D02*
X152002438Y-76011904D01*
X152002438Y-76011904D02*
X151954819Y-75916666D01*
X151954819Y-75916666D02*
X151954819Y-75678571D01*
X151954819Y-75678571D02*
X152002438Y-75583333D01*
X152002438Y-75583333D02*
X152050057Y-75535714D01*
X152050057Y-75535714D02*
X152145295Y-75488095D01*
X152145295Y-75488095D02*
X152240533Y-75488095D01*
X152240533Y-75488095D02*
X152383390Y-75535714D01*
X152383390Y-75535714D02*
X152954819Y-76107142D01*
X152954819Y-76107142D02*
X152954819Y-75488095D01*
X133704819Y-92142857D02*
X133228628Y-92476190D01*
X133704819Y-92714285D02*
X132704819Y-92714285D01*
X132704819Y-92714285D02*
X132704819Y-92333333D01*
X132704819Y-92333333D02*
X132752438Y-92238095D01*
X132752438Y-92238095D02*
X132800057Y-92190476D01*
X132800057Y-92190476D02*
X132895295Y-92142857D01*
X132895295Y-92142857D02*
X133038152Y-92142857D01*
X133038152Y-92142857D02*
X133133390Y-92190476D01*
X133133390Y-92190476D02*
X133181009Y-92238095D01*
X133181009Y-92238095D02*
X133228628Y-92333333D01*
X133228628Y-92333333D02*
X133228628Y-92714285D01*
X132800057Y-91761904D02*
X132752438Y-91714285D01*
X132752438Y-91714285D02*
X132704819Y-91619047D01*
X132704819Y-91619047D02*
X132704819Y-91380952D01*
X132704819Y-91380952D02*
X132752438Y-91285714D01*
X132752438Y-91285714D02*
X132800057Y-91238095D01*
X132800057Y-91238095D02*
X132895295Y-91190476D01*
X132895295Y-91190476D02*
X132990533Y-91190476D01*
X132990533Y-91190476D02*
X133133390Y-91238095D01*
X133133390Y-91238095D02*
X133704819Y-91809523D01*
X133704819Y-91809523D02*
X133704819Y-91190476D01*
X132704819Y-90333333D02*
X132704819Y-90523809D01*
X132704819Y-90523809D02*
X132752438Y-90619047D01*
X132752438Y-90619047D02*
X132800057Y-90666666D01*
X132800057Y-90666666D02*
X132942914Y-90761904D01*
X132942914Y-90761904D02*
X133133390Y-90809523D01*
X133133390Y-90809523D02*
X133514342Y-90809523D01*
X133514342Y-90809523D02*
X133609580Y-90761904D01*
X133609580Y-90761904D02*
X133657200Y-90714285D01*
X133657200Y-90714285D02*
X133704819Y-90619047D01*
X133704819Y-90619047D02*
X133704819Y-90428571D01*
X133704819Y-90428571D02*
X133657200Y-90333333D01*
X133657200Y-90333333D02*
X133609580Y-90285714D01*
X133609580Y-90285714D02*
X133514342Y-90238095D01*
X133514342Y-90238095D02*
X133276247Y-90238095D01*
X133276247Y-90238095D02*
X133181009Y-90285714D01*
X133181009Y-90285714D02*
X133133390Y-90333333D01*
X133133390Y-90333333D02*
X133085771Y-90428571D01*
X133085771Y-90428571D02*
X133085771Y-90619047D01*
X133085771Y-90619047D02*
X133133390Y-90714285D01*
X133133390Y-90714285D02*
X133181009Y-90761904D01*
X133181009Y-90761904D02*
X133276247Y-90809523D01*
X149959580Y-73642857D02*
X150007200Y-73690476D01*
X150007200Y-73690476D02*
X150054819Y-73833333D01*
X150054819Y-73833333D02*
X150054819Y-73928571D01*
X150054819Y-73928571D02*
X150007200Y-74071428D01*
X150007200Y-74071428D02*
X149911961Y-74166666D01*
X149911961Y-74166666D02*
X149816723Y-74214285D01*
X149816723Y-74214285D02*
X149626247Y-74261904D01*
X149626247Y-74261904D02*
X149483390Y-74261904D01*
X149483390Y-74261904D02*
X149292914Y-74214285D01*
X149292914Y-74214285D02*
X149197676Y-74166666D01*
X149197676Y-74166666D02*
X149102438Y-74071428D01*
X149102438Y-74071428D02*
X149054819Y-73928571D01*
X149054819Y-73928571D02*
X149054819Y-73833333D01*
X149054819Y-73833333D02*
X149102438Y-73690476D01*
X149102438Y-73690476D02*
X149150057Y-73642857D01*
X149150057Y-73261904D02*
X149102438Y-73214285D01*
X149102438Y-73214285D02*
X149054819Y-73119047D01*
X149054819Y-73119047D02*
X149054819Y-72880952D01*
X149054819Y-72880952D02*
X149102438Y-72785714D01*
X149102438Y-72785714D02*
X149150057Y-72738095D01*
X149150057Y-72738095D02*
X149245295Y-72690476D01*
X149245295Y-72690476D02*
X149340533Y-72690476D01*
X149340533Y-72690476D02*
X149483390Y-72738095D01*
X149483390Y-72738095D02*
X150054819Y-73309523D01*
X150054819Y-73309523D02*
X150054819Y-72690476D01*
X149388152Y-71833333D02*
X150054819Y-71833333D01*
X149007200Y-72071428D02*
X149721485Y-72309523D01*
X149721485Y-72309523D02*
X149721485Y-71690476D01*
X127833333Y-99704819D02*
X127500000Y-99228628D01*
X127261905Y-99704819D02*
X127261905Y-98704819D01*
X127261905Y-98704819D02*
X127642857Y-98704819D01*
X127642857Y-98704819D02*
X127738095Y-98752438D01*
X127738095Y-98752438D02*
X127785714Y-98800057D01*
X127785714Y-98800057D02*
X127833333Y-98895295D01*
X127833333Y-98895295D02*
X127833333Y-99038152D01*
X127833333Y-99038152D02*
X127785714Y-99133390D01*
X127785714Y-99133390D02*
X127738095Y-99181009D01*
X127738095Y-99181009D02*
X127642857Y-99228628D01*
X127642857Y-99228628D02*
X127261905Y-99228628D01*
X128690476Y-98704819D02*
X128500000Y-98704819D01*
X128500000Y-98704819D02*
X128404762Y-98752438D01*
X128404762Y-98752438D02*
X128357143Y-98800057D01*
X128357143Y-98800057D02*
X128261905Y-98942914D01*
X128261905Y-98942914D02*
X128214286Y-99133390D01*
X128214286Y-99133390D02*
X128214286Y-99514342D01*
X128214286Y-99514342D02*
X128261905Y-99609580D01*
X128261905Y-99609580D02*
X128309524Y-99657200D01*
X128309524Y-99657200D02*
X128404762Y-99704819D01*
X128404762Y-99704819D02*
X128595238Y-99704819D01*
X128595238Y-99704819D02*
X128690476Y-99657200D01*
X128690476Y-99657200D02*
X128738095Y-99609580D01*
X128738095Y-99609580D02*
X128785714Y-99514342D01*
X128785714Y-99514342D02*
X128785714Y-99276247D01*
X128785714Y-99276247D02*
X128738095Y-99181009D01*
X128738095Y-99181009D02*
X128690476Y-99133390D01*
X128690476Y-99133390D02*
X128595238Y-99085771D01*
X128595238Y-99085771D02*
X128404762Y-99085771D01*
X128404762Y-99085771D02*
X128309524Y-99133390D01*
X128309524Y-99133390D02*
X128261905Y-99181009D01*
X128261905Y-99181009D02*
X128214286Y-99276247D01*
X139109580Y-108166666D02*
X139157200Y-108214285D01*
X139157200Y-108214285D02*
X139204819Y-108357142D01*
X139204819Y-108357142D02*
X139204819Y-108452380D01*
X139204819Y-108452380D02*
X139157200Y-108595237D01*
X139157200Y-108595237D02*
X139061961Y-108690475D01*
X139061961Y-108690475D02*
X138966723Y-108738094D01*
X138966723Y-108738094D02*
X138776247Y-108785713D01*
X138776247Y-108785713D02*
X138633390Y-108785713D01*
X138633390Y-108785713D02*
X138442914Y-108738094D01*
X138442914Y-108738094D02*
X138347676Y-108690475D01*
X138347676Y-108690475D02*
X138252438Y-108595237D01*
X138252438Y-108595237D02*
X138204819Y-108452380D01*
X138204819Y-108452380D02*
X138204819Y-108357142D01*
X138204819Y-108357142D02*
X138252438Y-108214285D01*
X138252438Y-108214285D02*
X138300057Y-108166666D01*
X138633390Y-107595237D02*
X138585771Y-107690475D01*
X138585771Y-107690475D02*
X138538152Y-107738094D01*
X138538152Y-107738094D02*
X138442914Y-107785713D01*
X138442914Y-107785713D02*
X138395295Y-107785713D01*
X138395295Y-107785713D02*
X138300057Y-107738094D01*
X138300057Y-107738094D02*
X138252438Y-107690475D01*
X138252438Y-107690475D02*
X138204819Y-107595237D01*
X138204819Y-107595237D02*
X138204819Y-107404761D01*
X138204819Y-107404761D02*
X138252438Y-107309523D01*
X138252438Y-107309523D02*
X138300057Y-107261904D01*
X138300057Y-107261904D02*
X138395295Y-107214285D01*
X138395295Y-107214285D02*
X138442914Y-107214285D01*
X138442914Y-107214285D02*
X138538152Y-107261904D01*
X138538152Y-107261904D02*
X138585771Y-107309523D01*
X138585771Y-107309523D02*
X138633390Y-107404761D01*
X138633390Y-107404761D02*
X138633390Y-107595237D01*
X138633390Y-107595237D02*
X138681009Y-107690475D01*
X138681009Y-107690475D02*
X138728628Y-107738094D01*
X138728628Y-107738094D02*
X138823866Y-107785713D01*
X138823866Y-107785713D02*
X139014342Y-107785713D01*
X139014342Y-107785713D02*
X139109580Y-107738094D01*
X139109580Y-107738094D02*
X139157200Y-107690475D01*
X139157200Y-107690475D02*
X139204819Y-107595237D01*
X139204819Y-107595237D02*
X139204819Y-107404761D01*
X139204819Y-107404761D02*
X139157200Y-107309523D01*
X139157200Y-107309523D02*
X139109580Y-107261904D01*
X139109580Y-107261904D02*
X139014342Y-107214285D01*
X139014342Y-107214285D02*
X138823866Y-107214285D01*
X138823866Y-107214285D02*
X138728628Y-107261904D01*
X138728628Y-107261904D02*
X138681009Y-107309523D01*
X138681009Y-107309523D02*
X138633390Y-107404761D01*
X161833333Y-98859580D02*
X161785714Y-98907200D01*
X161785714Y-98907200D02*
X161642857Y-98954819D01*
X161642857Y-98954819D02*
X161547619Y-98954819D01*
X161547619Y-98954819D02*
X161404762Y-98907200D01*
X161404762Y-98907200D02*
X161309524Y-98811961D01*
X161309524Y-98811961D02*
X161261905Y-98716723D01*
X161261905Y-98716723D02*
X161214286Y-98526247D01*
X161214286Y-98526247D02*
X161214286Y-98383390D01*
X161214286Y-98383390D02*
X161261905Y-98192914D01*
X161261905Y-98192914D02*
X161309524Y-98097676D01*
X161309524Y-98097676D02*
X161404762Y-98002438D01*
X161404762Y-98002438D02*
X161547619Y-97954819D01*
X161547619Y-97954819D02*
X161642857Y-97954819D01*
X161642857Y-97954819D02*
X161785714Y-98002438D01*
X161785714Y-98002438D02*
X161833333Y-98050057D01*
X162690476Y-98288152D02*
X162690476Y-98954819D01*
X162452381Y-97907200D02*
X162214286Y-98621485D01*
X162214286Y-98621485D02*
X162833333Y-98621485D01*
X152954819Y-73142857D02*
X152478628Y-73476190D01*
X152954819Y-73714285D02*
X151954819Y-73714285D01*
X151954819Y-73714285D02*
X151954819Y-73333333D01*
X151954819Y-73333333D02*
X152002438Y-73238095D01*
X152002438Y-73238095D02*
X152050057Y-73190476D01*
X152050057Y-73190476D02*
X152145295Y-73142857D01*
X152145295Y-73142857D02*
X152288152Y-73142857D01*
X152288152Y-73142857D02*
X152383390Y-73190476D01*
X152383390Y-73190476D02*
X152431009Y-73238095D01*
X152431009Y-73238095D02*
X152478628Y-73333333D01*
X152478628Y-73333333D02*
X152478628Y-73714285D01*
X152050057Y-72761904D02*
X152002438Y-72714285D01*
X152002438Y-72714285D02*
X151954819Y-72619047D01*
X151954819Y-72619047D02*
X151954819Y-72380952D01*
X151954819Y-72380952D02*
X152002438Y-72285714D01*
X152002438Y-72285714D02*
X152050057Y-72238095D01*
X152050057Y-72238095D02*
X152145295Y-72190476D01*
X152145295Y-72190476D02*
X152240533Y-72190476D01*
X152240533Y-72190476D02*
X152383390Y-72238095D01*
X152383390Y-72238095D02*
X152954819Y-72809523D01*
X152954819Y-72809523D02*
X152954819Y-72190476D01*
X151954819Y-71285714D02*
X151954819Y-71761904D01*
X151954819Y-71761904D02*
X152431009Y-71809523D01*
X152431009Y-71809523D02*
X152383390Y-71761904D01*
X152383390Y-71761904D02*
X152335771Y-71666666D01*
X152335771Y-71666666D02*
X152335771Y-71428571D01*
X152335771Y-71428571D02*
X152383390Y-71333333D01*
X152383390Y-71333333D02*
X152431009Y-71285714D01*
X152431009Y-71285714D02*
X152526247Y-71238095D01*
X152526247Y-71238095D02*
X152764342Y-71238095D01*
X152764342Y-71238095D02*
X152859580Y-71285714D01*
X152859580Y-71285714D02*
X152907200Y-71333333D01*
X152907200Y-71333333D02*
X152954819Y-71428571D01*
X152954819Y-71428571D02*
X152954819Y-71666666D01*
X152954819Y-71666666D02*
X152907200Y-71761904D01*
X152907200Y-71761904D02*
X152859580Y-71809523D01*
X149261905Y-78704819D02*
X149261905Y-79514342D01*
X149261905Y-79514342D02*
X149309524Y-79609580D01*
X149309524Y-79609580D02*
X149357143Y-79657200D01*
X149357143Y-79657200D02*
X149452381Y-79704819D01*
X149452381Y-79704819D02*
X149642857Y-79704819D01*
X149642857Y-79704819D02*
X149738095Y-79657200D01*
X149738095Y-79657200D02*
X149785714Y-79609580D01*
X149785714Y-79609580D02*
X149833333Y-79514342D01*
X149833333Y-79514342D02*
X149833333Y-78704819D01*
X150833333Y-79704819D02*
X150261905Y-79704819D01*
X150547619Y-79704819D02*
X150547619Y-78704819D01*
X150547619Y-78704819D02*
X150452381Y-78847676D01*
X150452381Y-78847676D02*
X150357143Y-78942914D01*
X150357143Y-78942914D02*
X150261905Y-78990533D01*
X151214286Y-78800057D02*
X151261905Y-78752438D01*
X151261905Y-78752438D02*
X151357143Y-78704819D01*
X151357143Y-78704819D02*
X151595238Y-78704819D01*
X151595238Y-78704819D02*
X151690476Y-78752438D01*
X151690476Y-78752438D02*
X151738095Y-78800057D01*
X151738095Y-78800057D02*
X151785714Y-78895295D01*
X151785714Y-78895295D02*
X151785714Y-78990533D01*
X151785714Y-78990533D02*
X151738095Y-79133390D01*
X151738095Y-79133390D02*
X151166667Y-79704819D01*
X151166667Y-79704819D02*
X151785714Y-79704819D01*
X160609580Y-107392857D02*
X160657200Y-107440476D01*
X160657200Y-107440476D02*
X160704819Y-107583333D01*
X160704819Y-107583333D02*
X160704819Y-107678571D01*
X160704819Y-107678571D02*
X160657200Y-107821428D01*
X160657200Y-107821428D02*
X160561961Y-107916666D01*
X160561961Y-107916666D02*
X160466723Y-107964285D01*
X160466723Y-107964285D02*
X160276247Y-108011904D01*
X160276247Y-108011904D02*
X160133390Y-108011904D01*
X160133390Y-108011904D02*
X159942914Y-107964285D01*
X159942914Y-107964285D02*
X159847676Y-107916666D01*
X159847676Y-107916666D02*
X159752438Y-107821428D01*
X159752438Y-107821428D02*
X159704819Y-107678571D01*
X159704819Y-107678571D02*
X159704819Y-107583333D01*
X159704819Y-107583333D02*
X159752438Y-107440476D01*
X159752438Y-107440476D02*
X159800057Y-107392857D01*
X160704819Y-106440476D02*
X160704819Y-107011904D01*
X160704819Y-106726190D02*
X159704819Y-106726190D01*
X159704819Y-106726190D02*
X159847676Y-106821428D01*
X159847676Y-106821428D02*
X159942914Y-106916666D01*
X159942914Y-106916666D02*
X159990533Y-107011904D01*
X160038152Y-105583333D02*
X160704819Y-105583333D01*
X159657200Y-105821428D02*
X160371485Y-106059523D01*
X160371485Y-106059523D02*
X160371485Y-105440476D01*
X132738095Y-71954819D02*
X132738095Y-72764342D01*
X132738095Y-72764342D02*
X132785714Y-72859580D01*
X132785714Y-72859580D02*
X132833333Y-72907200D01*
X132833333Y-72907200D02*
X132928571Y-72954819D01*
X132928571Y-72954819D02*
X133119047Y-72954819D01*
X133119047Y-72954819D02*
X133214285Y-72907200D01*
X133214285Y-72907200D02*
X133261904Y-72859580D01*
X133261904Y-72859580D02*
X133309523Y-72764342D01*
X133309523Y-72764342D02*
X133309523Y-71954819D01*
X133833333Y-72954819D02*
X134023809Y-72954819D01*
X134023809Y-72954819D02*
X134119047Y-72907200D01*
X134119047Y-72907200D02*
X134166666Y-72859580D01*
X134166666Y-72859580D02*
X134261904Y-72716723D01*
X134261904Y-72716723D02*
X134309523Y-72526247D01*
X134309523Y-72526247D02*
X134309523Y-72145295D01*
X134309523Y-72145295D02*
X134261904Y-72050057D01*
X134261904Y-72050057D02*
X134214285Y-72002438D01*
X134214285Y-72002438D02*
X134119047Y-71954819D01*
X134119047Y-71954819D02*
X133928571Y-71954819D01*
X133928571Y-71954819D02*
X133833333Y-72002438D01*
X133833333Y-72002438D02*
X133785714Y-72050057D01*
X133785714Y-72050057D02*
X133738095Y-72145295D01*
X133738095Y-72145295D02*
X133738095Y-72383390D01*
X133738095Y-72383390D02*
X133785714Y-72478628D01*
X133785714Y-72478628D02*
X133833333Y-72526247D01*
X133833333Y-72526247D02*
X133928571Y-72573866D01*
X133928571Y-72573866D02*
X134119047Y-72573866D01*
X134119047Y-72573866D02*
X134214285Y-72526247D01*
X134214285Y-72526247D02*
X134261904Y-72478628D01*
X134261904Y-72478628D02*
X134309523Y-72383390D01*
X139511905Y-65954819D02*
X139511905Y-66764342D01*
X139511905Y-66764342D02*
X139559524Y-66859580D01*
X139559524Y-66859580D02*
X139607143Y-66907200D01*
X139607143Y-66907200D02*
X139702381Y-66954819D01*
X139702381Y-66954819D02*
X139892857Y-66954819D01*
X139892857Y-66954819D02*
X139988095Y-66907200D01*
X139988095Y-66907200D02*
X140035714Y-66859580D01*
X140035714Y-66859580D02*
X140083333Y-66764342D01*
X140083333Y-66764342D02*
X140083333Y-65954819D01*
X141083333Y-66954819D02*
X140511905Y-66954819D01*
X140797619Y-66954819D02*
X140797619Y-65954819D01*
X140797619Y-65954819D02*
X140702381Y-66097676D01*
X140702381Y-66097676D02*
X140607143Y-66192914D01*
X140607143Y-66192914D02*
X140511905Y-66240533D01*
X141702381Y-65954819D02*
X141797619Y-65954819D01*
X141797619Y-65954819D02*
X141892857Y-66002438D01*
X141892857Y-66002438D02*
X141940476Y-66050057D01*
X141940476Y-66050057D02*
X141988095Y-66145295D01*
X141988095Y-66145295D02*
X142035714Y-66335771D01*
X142035714Y-66335771D02*
X142035714Y-66573866D01*
X142035714Y-66573866D02*
X141988095Y-66764342D01*
X141988095Y-66764342D02*
X141940476Y-66859580D01*
X141940476Y-66859580D02*
X141892857Y-66907200D01*
X141892857Y-66907200D02*
X141797619Y-66954819D01*
X141797619Y-66954819D02*
X141702381Y-66954819D01*
X141702381Y-66954819D02*
X141607143Y-66907200D01*
X141607143Y-66907200D02*
X141559524Y-66859580D01*
X141559524Y-66859580D02*
X141511905Y-66764342D01*
X141511905Y-66764342D02*
X141464286Y-66573866D01*
X141464286Y-66573866D02*
X141464286Y-66335771D01*
X141464286Y-66335771D02*
X141511905Y-66145295D01*
X141511905Y-66145295D02*
X141559524Y-66050057D01*
X141559524Y-66050057D02*
X141607143Y-66002438D01*
X141607143Y-66002438D02*
X141702381Y-65954819D01*
X144704819Y-73642857D02*
X144228628Y-73976190D01*
X144704819Y-74214285D02*
X143704819Y-74214285D01*
X143704819Y-74214285D02*
X143704819Y-73833333D01*
X143704819Y-73833333D02*
X143752438Y-73738095D01*
X143752438Y-73738095D02*
X143800057Y-73690476D01*
X143800057Y-73690476D02*
X143895295Y-73642857D01*
X143895295Y-73642857D02*
X144038152Y-73642857D01*
X144038152Y-73642857D02*
X144133390Y-73690476D01*
X144133390Y-73690476D02*
X144181009Y-73738095D01*
X144181009Y-73738095D02*
X144228628Y-73833333D01*
X144228628Y-73833333D02*
X144228628Y-74214285D01*
X143800057Y-73261904D02*
X143752438Y-73214285D01*
X143752438Y-73214285D02*
X143704819Y-73119047D01*
X143704819Y-73119047D02*
X143704819Y-72880952D01*
X143704819Y-72880952D02*
X143752438Y-72785714D01*
X143752438Y-72785714D02*
X143800057Y-72738095D01*
X143800057Y-72738095D02*
X143895295Y-72690476D01*
X143895295Y-72690476D02*
X143990533Y-72690476D01*
X143990533Y-72690476D02*
X144133390Y-72738095D01*
X144133390Y-72738095D02*
X144704819Y-73309523D01*
X144704819Y-73309523D02*
X144704819Y-72690476D01*
X143704819Y-72071428D02*
X143704819Y-71976190D01*
X143704819Y-71976190D02*
X143752438Y-71880952D01*
X143752438Y-71880952D02*
X143800057Y-71833333D01*
X143800057Y-71833333D02*
X143895295Y-71785714D01*
X143895295Y-71785714D02*
X144085771Y-71738095D01*
X144085771Y-71738095D02*
X144323866Y-71738095D01*
X144323866Y-71738095D02*
X144514342Y-71785714D01*
X144514342Y-71785714D02*
X144609580Y-71833333D01*
X144609580Y-71833333D02*
X144657200Y-71880952D01*
X144657200Y-71880952D02*
X144704819Y-71976190D01*
X144704819Y-71976190D02*
X144704819Y-72071428D01*
X144704819Y-72071428D02*
X144657200Y-72166666D01*
X144657200Y-72166666D02*
X144609580Y-72214285D01*
X144609580Y-72214285D02*
X144514342Y-72261904D01*
X144514342Y-72261904D02*
X144323866Y-72309523D01*
X144323866Y-72309523D02*
X144085771Y-72309523D01*
X144085771Y-72309523D02*
X143895295Y-72261904D01*
X143895295Y-72261904D02*
X143800057Y-72214285D01*
X143800057Y-72214285D02*
X143752438Y-72166666D01*
X143752438Y-72166666D02*
X143704819Y-72071428D01*
X127357142Y-96359580D02*
X127309523Y-96407200D01*
X127309523Y-96407200D02*
X127166666Y-96454819D01*
X127166666Y-96454819D02*
X127071428Y-96454819D01*
X127071428Y-96454819D02*
X126928571Y-96407200D01*
X126928571Y-96407200D02*
X126833333Y-96311961D01*
X126833333Y-96311961D02*
X126785714Y-96216723D01*
X126785714Y-96216723D02*
X126738095Y-96026247D01*
X126738095Y-96026247D02*
X126738095Y-95883390D01*
X126738095Y-95883390D02*
X126785714Y-95692914D01*
X126785714Y-95692914D02*
X126833333Y-95597676D01*
X126833333Y-95597676D02*
X126928571Y-95502438D01*
X126928571Y-95502438D02*
X127071428Y-95454819D01*
X127071428Y-95454819D02*
X127166666Y-95454819D01*
X127166666Y-95454819D02*
X127309523Y-95502438D01*
X127309523Y-95502438D02*
X127357142Y-95550057D01*
X128309523Y-96454819D02*
X127738095Y-96454819D01*
X128023809Y-96454819D02*
X128023809Y-95454819D01*
X128023809Y-95454819D02*
X127928571Y-95597676D01*
X127928571Y-95597676D02*
X127833333Y-95692914D01*
X127833333Y-95692914D02*
X127738095Y-95740533D01*
X128690476Y-95550057D02*
X128738095Y-95502438D01*
X128738095Y-95502438D02*
X128833333Y-95454819D01*
X128833333Y-95454819D02*
X129071428Y-95454819D01*
X129071428Y-95454819D02*
X129166666Y-95502438D01*
X129166666Y-95502438D02*
X129214285Y-95550057D01*
X129214285Y-95550057D02*
X129261904Y-95645295D01*
X129261904Y-95645295D02*
X129261904Y-95740533D01*
X129261904Y-95740533D02*
X129214285Y-95883390D01*
X129214285Y-95883390D02*
X128642857Y-96454819D01*
X128642857Y-96454819D02*
X129261904Y-96454819D01*
X158916666Y-121431009D02*
X158583333Y-121431009D01*
X158583333Y-121954819D02*
X158583333Y-120954819D01*
X158583333Y-120954819D02*
X159059523Y-120954819D01*
X159964285Y-121954819D02*
X159392857Y-121954819D01*
X159678571Y-121954819D02*
X159678571Y-120954819D01*
X159678571Y-120954819D02*
X159583333Y-121097676D01*
X159583333Y-121097676D02*
X159488095Y-121192914D01*
X159488095Y-121192914D02*
X159392857Y-121240533D01*
X130357142Y-79454819D02*
X130023809Y-78978628D01*
X129785714Y-79454819D02*
X129785714Y-78454819D01*
X129785714Y-78454819D02*
X130166666Y-78454819D01*
X130166666Y-78454819D02*
X130261904Y-78502438D01*
X130261904Y-78502438D02*
X130309523Y-78550057D01*
X130309523Y-78550057D02*
X130357142Y-78645295D01*
X130357142Y-78645295D02*
X130357142Y-78788152D01*
X130357142Y-78788152D02*
X130309523Y-78883390D01*
X130309523Y-78883390D02*
X130261904Y-78931009D01*
X130261904Y-78931009D02*
X130166666Y-78978628D01*
X130166666Y-78978628D02*
X129785714Y-78978628D01*
X131309523Y-79454819D02*
X130738095Y-79454819D01*
X131023809Y-79454819D02*
X131023809Y-78454819D01*
X131023809Y-78454819D02*
X130928571Y-78597676D01*
X130928571Y-78597676D02*
X130833333Y-78692914D01*
X130833333Y-78692914D02*
X130738095Y-78740533D01*
X132214285Y-78454819D02*
X131738095Y-78454819D01*
X131738095Y-78454819D02*
X131690476Y-78931009D01*
X131690476Y-78931009D02*
X131738095Y-78883390D01*
X131738095Y-78883390D02*
X131833333Y-78835771D01*
X131833333Y-78835771D02*
X132071428Y-78835771D01*
X132071428Y-78835771D02*
X132166666Y-78883390D01*
X132166666Y-78883390D02*
X132214285Y-78931009D01*
X132214285Y-78931009D02*
X132261904Y-79026247D01*
X132261904Y-79026247D02*
X132261904Y-79264342D01*
X132261904Y-79264342D02*
X132214285Y-79359580D01*
X132214285Y-79359580D02*
X132166666Y-79407200D01*
X132166666Y-79407200D02*
X132071428Y-79454819D01*
X132071428Y-79454819D02*
X131833333Y-79454819D01*
X131833333Y-79454819D02*
X131738095Y-79407200D01*
X131738095Y-79407200D02*
X131690476Y-79359580D01*
X160609580Y-111892857D02*
X160657200Y-111940476D01*
X160657200Y-111940476D02*
X160704819Y-112083333D01*
X160704819Y-112083333D02*
X160704819Y-112178571D01*
X160704819Y-112178571D02*
X160657200Y-112321428D01*
X160657200Y-112321428D02*
X160561961Y-112416666D01*
X160561961Y-112416666D02*
X160466723Y-112464285D01*
X160466723Y-112464285D02*
X160276247Y-112511904D01*
X160276247Y-112511904D02*
X160133390Y-112511904D01*
X160133390Y-112511904D02*
X159942914Y-112464285D01*
X159942914Y-112464285D02*
X159847676Y-112416666D01*
X159847676Y-112416666D02*
X159752438Y-112321428D01*
X159752438Y-112321428D02*
X159704819Y-112178571D01*
X159704819Y-112178571D02*
X159704819Y-112083333D01*
X159704819Y-112083333D02*
X159752438Y-111940476D01*
X159752438Y-111940476D02*
X159800057Y-111892857D01*
X159704819Y-111559523D02*
X159704819Y-110940476D01*
X159704819Y-110940476D02*
X160085771Y-111273809D01*
X160085771Y-111273809D02*
X160085771Y-111130952D01*
X160085771Y-111130952D02*
X160133390Y-111035714D01*
X160133390Y-111035714D02*
X160181009Y-110988095D01*
X160181009Y-110988095D02*
X160276247Y-110940476D01*
X160276247Y-110940476D02*
X160514342Y-110940476D01*
X160514342Y-110940476D02*
X160609580Y-110988095D01*
X160609580Y-110988095D02*
X160657200Y-111035714D01*
X160657200Y-111035714D02*
X160704819Y-111130952D01*
X160704819Y-111130952D02*
X160704819Y-111416666D01*
X160704819Y-111416666D02*
X160657200Y-111511904D01*
X160657200Y-111511904D02*
X160609580Y-111559523D01*
X159704819Y-110607142D02*
X159704819Y-109988095D01*
X159704819Y-109988095D02*
X160085771Y-110321428D01*
X160085771Y-110321428D02*
X160085771Y-110178571D01*
X160085771Y-110178571D02*
X160133390Y-110083333D01*
X160133390Y-110083333D02*
X160181009Y-110035714D01*
X160181009Y-110035714D02*
X160276247Y-109988095D01*
X160276247Y-109988095D02*
X160514342Y-109988095D01*
X160514342Y-109988095D02*
X160609580Y-110035714D01*
X160609580Y-110035714D02*
X160657200Y-110083333D01*
X160657200Y-110083333D02*
X160704819Y-110178571D01*
X160704819Y-110178571D02*
X160704819Y-110464285D01*
X160704819Y-110464285D02*
X160657200Y-110559523D01*
X160657200Y-110559523D02*
X160609580Y-110607142D01*
X138359580Y-116191666D02*
X138407200Y-116239285D01*
X138407200Y-116239285D02*
X138454819Y-116382142D01*
X138454819Y-116382142D02*
X138454819Y-116477380D01*
X138454819Y-116477380D02*
X138407200Y-116620237D01*
X138407200Y-116620237D02*
X138311961Y-116715475D01*
X138311961Y-116715475D02*
X138216723Y-116763094D01*
X138216723Y-116763094D02*
X138026247Y-116810713D01*
X138026247Y-116810713D02*
X137883390Y-116810713D01*
X137883390Y-116810713D02*
X137692914Y-116763094D01*
X137692914Y-116763094D02*
X137597676Y-116715475D01*
X137597676Y-116715475D02*
X137502438Y-116620237D01*
X137502438Y-116620237D02*
X137454819Y-116477380D01*
X137454819Y-116477380D02*
X137454819Y-116382142D01*
X137454819Y-116382142D02*
X137502438Y-116239285D01*
X137502438Y-116239285D02*
X137550057Y-116191666D01*
X137454819Y-115858332D02*
X137454819Y-115239285D01*
X137454819Y-115239285D02*
X137835771Y-115572618D01*
X137835771Y-115572618D02*
X137835771Y-115429761D01*
X137835771Y-115429761D02*
X137883390Y-115334523D01*
X137883390Y-115334523D02*
X137931009Y-115286904D01*
X137931009Y-115286904D02*
X138026247Y-115239285D01*
X138026247Y-115239285D02*
X138264342Y-115239285D01*
X138264342Y-115239285D02*
X138359580Y-115286904D01*
X138359580Y-115286904D02*
X138407200Y-115334523D01*
X138407200Y-115334523D02*
X138454819Y-115429761D01*
X138454819Y-115429761D02*
X138454819Y-115715475D01*
X138454819Y-115715475D02*
X138407200Y-115810713D01*
X138407200Y-115810713D02*
X138359580Y-115858332D01*
X160107142Y-104859580D02*
X160059523Y-104907200D01*
X160059523Y-104907200D02*
X159916666Y-104954819D01*
X159916666Y-104954819D02*
X159821428Y-104954819D01*
X159821428Y-104954819D02*
X159678571Y-104907200D01*
X159678571Y-104907200D02*
X159583333Y-104811961D01*
X159583333Y-104811961D02*
X159535714Y-104716723D01*
X159535714Y-104716723D02*
X159488095Y-104526247D01*
X159488095Y-104526247D02*
X159488095Y-104383390D01*
X159488095Y-104383390D02*
X159535714Y-104192914D01*
X159535714Y-104192914D02*
X159583333Y-104097676D01*
X159583333Y-104097676D02*
X159678571Y-104002438D01*
X159678571Y-104002438D02*
X159821428Y-103954819D01*
X159821428Y-103954819D02*
X159916666Y-103954819D01*
X159916666Y-103954819D02*
X160059523Y-104002438D01*
X160059523Y-104002438D02*
X160107142Y-104050057D01*
X161059523Y-104954819D02*
X160488095Y-104954819D01*
X160773809Y-104954819D02*
X160773809Y-103954819D01*
X160773809Y-103954819D02*
X160678571Y-104097676D01*
X160678571Y-104097676D02*
X160583333Y-104192914D01*
X160583333Y-104192914D02*
X160488095Y-104240533D01*
X161964285Y-103954819D02*
X161488095Y-103954819D01*
X161488095Y-103954819D02*
X161440476Y-104431009D01*
X161440476Y-104431009D02*
X161488095Y-104383390D01*
X161488095Y-104383390D02*
X161583333Y-104335771D01*
X161583333Y-104335771D02*
X161821428Y-104335771D01*
X161821428Y-104335771D02*
X161916666Y-104383390D01*
X161916666Y-104383390D02*
X161964285Y-104431009D01*
X161964285Y-104431009D02*
X162011904Y-104526247D01*
X162011904Y-104526247D02*
X162011904Y-104764342D01*
X162011904Y-104764342D02*
X161964285Y-104859580D01*
X161964285Y-104859580D02*
X161916666Y-104907200D01*
X161916666Y-104907200D02*
X161821428Y-104954819D01*
X161821428Y-104954819D02*
X161583333Y-104954819D01*
X161583333Y-104954819D02*
X161488095Y-104907200D01*
X161488095Y-104907200D02*
X161440476Y-104859580D01*
X142454819Y-124642857D02*
X141978628Y-124976190D01*
X142454819Y-125214285D02*
X141454819Y-125214285D01*
X141454819Y-125214285D02*
X141454819Y-124833333D01*
X141454819Y-124833333D02*
X141502438Y-124738095D01*
X141502438Y-124738095D02*
X141550057Y-124690476D01*
X141550057Y-124690476D02*
X141645295Y-124642857D01*
X141645295Y-124642857D02*
X141788152Y-124642857D01*
X141788152Y-124642857D02*
X141883390Y-124690476D01*
X141883390Y-124690476D02*
X141931009Y-124738095D01*
X141931009Y-124738095D02*
X141978628Y-124833333D01*
X141978628Y-124833333D02*
X141978628Y-125214285D01*
X142454819Y-123690476D02*
X142454819Y-124261904D01*
X142454819Y-123976190D02*
X141454819Y-123976190D01*
X141454819Y-123976190D02*
X141597676Y-124071428D01*
X141597676Y-124071428D02*
X141692914Y-124166666D01*
X141692914Y-124166666D02*
X141740533Y-124261904D01*
X141454819Y-123357142D02*
X141454819Y-122690476D01*
X141454819Y-122690476D02*
X142454819Y-123119047D01*
X136859580Y-122666666D02*
X136907200Y-122714285D01*
X136907200Y-122714285D02*
X136954819Y-122857142D01*
X136954819Y-122857142D02*
X136954819Y-122952380D01*
X136954819Y-122952380D02*
X136907200Y-123095237D01*
X136907200Y-123095237D02*
X136811961Y-123190475D01*
X136811961Y-123190475D02*
X136716723Y-123238094D01*
X136716723Y-123238094D02*
X136526247Y-123285713D01*
X136526247Y-123285713D02*
X136383390Y-123285713D01*
X136383390Y-123285713D02*
X136192914Y-123238094D01*
X136192914Y-123238094D02*
X136097676Y-123190475D01*
X136097676Y-123190475D02*
X136002438Y-123095237D01*
X136002438Y-123095237D02*
X135954819Y-122952380D01*
X135954819Y-122952380D02*
X135954819Y-122857142D01*
X135954819Y-122857142D02*
X136002438Y-122714285D01*
X136002438Y-122714285D02*
X136050057Y-122666666D01*
X136050057Y-122285713D02*
X136002438Y-122238094D01*
X136002438Y-122238094D02*
X135954819Y-122142856D01*
X135954819Y-122142856D02*
X135954819Y-121904761D01*
X135954819Y-121904761D02*
X136002438Y-121809523D01*
X136002438Y-121809523D02*
X136050057Y-121761904D01*
X136050057Y-121761904D02*
X136145295Y-121714285D01*
X136145295Y-121714285D02*
X136240533Y-121714285D01*
X136240533Y-121714285D02*
X136383390Y-121761904D01*
X136383390Y-121761904D02*
X136954819Y-122333332D01*
X136954819Y-122333332D02*
X136954819Y-121714285D01*
X161954819Y-111892857D02*
X161478628Y-112226190D01*
X161954819Y-112464285D02*
X160954819Y-112464285D01*
X160954819Y-112464285D02*
X160954819Y-112083333D01*
X160954819Y-112083333D02*
X161002438Y-111988095D01*
X161002438Y-111988095D02*
X161050057Y-111940476D01*
X161050057Y-111940476D02*
X161145295Y-111892857D01*
X161145295Y-111892857D02*
X161288152Y-111892857D01*
X161288152Y-111892857D02*
X161383390Y-111940476D01*
X161383390Y-111940476D02*
X161431009Y-111988095D01*
X161431009Y-111988095D02*
X161478628Y-112083333D01*
X161478628Y-112083333D02*
X161478628Y-112464285D01*
X161050057Y-111511904D02*
X161002438Y-111464285D01*
X161002438Y-111464285D02*
X160954819Y-111369047D01*
X160954819Y-111369047D02*
X160954819Y-111130952D01*
X160954819Y-111130952D02*
X161002438Y-111035714D01*
X161002438Y-111035714D02*
X161050057Y-110988095D01*
X161050057Y-110988095D02*
X161145295Y-110940476D01*
X161145295Y-110940476D02*
X161240533Y-110940476D01*
X161240533Y-110940476D02*
X161383390Y-110988095D01*
X161383390Y-110988095D02*
X161954819Y-111559523D01*
X161954819Y-111559523D02*
X161954819Y-110940476D01*
X161050057Y-110559523D02*
X161002438Y-110511904D01*
X161002438Y-110511904D02*
X160954819Y-110416666D01*
X160954819Y-110416666D02*
X160954819Y-110178571D01*
X160954819Y-110178571D02*
X161002438Y-110083333D01*
X161002438Y-110083333D02*
X161050057Y-110035714D01*
X161050057Y-110035714D02*
X161145295Y-109988095D01*
X161145295Y-109988095D02*
X161240533Y-109988095D01*
X161240533Y-109988095D02*
X161383390Y-110035714D01*
X161383390Y-110035714D02*
X161954819Y-110607142D01*
X161954819Y-110607142D02*
X161954819Y-109988095D01*
X128333333Y-97859580D02*
X128285714Y-97907200D01*
X128285714Y-97907200D02*
X128142857Y-97954819D01*
X128142857Y-97954819D02*
X128047619Y-97954819D01*
X128047619Y-97954819D02*
X127904762Y-97907200D01*
X127904762Y-97907200D02*
X127809524Y-97811961D01*
X127809524Y-97811961D02*
X127761905Y-97716723D01*
X127761905Y-97716723D02*
X127714286Y-97526247D01*
X127714286Y-97526247D02*
X127714286Y-97383390D01*
X127714286Y-97383390D02*
X127761905Y-97192914D01*
X127761905Y-97192914D02*
X127809524Y-97097676D01*
X127809524Y-97097676D02*
X127904762Y-97002438D01*
X127904762Y-97002438D02*
X128047619Y-96954819D01*
X128047619Y-96954819D02*
X128142857Y-96954819D01*
X128142857Y-96954819D02*
X128285714Y-97002438D01*
X128285714Y-97002438D02*
X128333333Y-97050057D01*
X128809524Y-97954819D02*
X129000000Y-97954819D01*
X129000000Y-97954819D02*
X129095238Y-97907200D01*
X129095238Y-97907200D02*
X129142857Y-97859580D01*
X129142857Y-97859580D02*
X129238095Y-97716723D01*
X129238095Y-97716723D02*
X129285714Y-97526247D01*
X129285714Y-97526247D02*
X129285714Y-97145295D01*
X129285714Y-97145295D02*
X129238095Y-97050057D01*
X129238095Y-97050057D02*
X129190476Y-97002438D01*
X129190476Y-97002438D02*
X129095238Y-96954819D01*
X129095238Y-96954819D02*
X128904762Y-96954819D01*
X128904762Y-96954819D02*
X128809524Y-97002438D01*
X128809524Y-97002438D02*
X128761905Y-97050057D01*
X128761905Y-97050057D02*
X128714286Y-97145295D01*
X128714286Y-97145295D02*
X128714286Y-97383390D01*
X128714286Y-97383390D02*
X128761905Y-97478628D01*
X128761905Y-97478628D02*
X128809524Y-97526247D01*
X128809524Y-97526247D02*
X128904762Y-97573866D01*
X128904762Y-97573866D02*
X129095238Y-97573866D01*
X129095238Y-97573866D02*
X129190476Y-97526247D01*
X129190476Y-97526247D02*
X129238095Y-97478628D01*
X129238095Y-97478628D02*
X129285714Y-97383390D01*
X139109580Y-100166666D02*
X139157200Y-100214285D01*
X139157200Y-100214285D02*
X139204819Y-100357142D01*
X139204819Y-100357142D02*
X139204819Y-100452380D01*
X139204819Y-100452380D02*
X139157200Y-100595237D01*
X139157200Y-100595237D02*
X139061961Y-100690475D01*
X139061961Y-100690475D02*
X138966723Y-100738094D01*
X138966723Y-100738094D02*
X138776247Y-100785713D01*
X138776247Y-100785713D02*
X138633390Y-100785713D01*
X138633390Y-100785713D02*
X138442914Y-100738094D01*
X138442914Y-100738094D02*
X138347676Y-100690475D01*
X138347676Y-100690475D02*
X138252438Y-100595237D01*
X138252438Y-100595237D02*
X138204819Y-100452380D01*
X138204819Y-100452380D02*
X138204819Y-100357142D01*
X138204819Y-100357142D02*
X138252438Y-100214285D01*
X138252438Y-100214285D02*
X138300057Y-100166666D01*
X138204819Y-99833332D02*
X138204819Y-99166666D01*
X138204819Y-99166666D02*
X139204819Y-99595237D01*
X167872142Y-83859580D02*
X167824523Y-83907200D01*
X167824523Y-83907200D02*
X167681666Y-83954819D01*
X167681666Y-83954819D02*
X167586428Y-83954819D01*
X167586428Y-83954819D02*
X167443571Y-83907200D01*
X167443571Y-83907200D02*
X167348333Y-83811961D01*
X167348333Y-83811961D02*
X167300714Y-83716723D01*
X167300714Y-83716723D02*
X167253095Y-83526247D01*
X167253095Y-83526247D02*
X167253095Y-83383390D01*
X167253095Y-83383390D02*
X167300714Y-83192914D01*
X167300714Y-83192914D02*
X167348333Y-83097676D01*
X167348333Y-83097676D02*
X167443571Y-83002438D01*
X167443571Y-83002438D02*
X167586428Y-82954819D01*
X167586428Y-82954819D02*
X167681666Y-82954819D01*
X167681666Y-82954819D02*
X167824523Y-83002438D01*
X167824523Y-83002438D02*
X167872142Y-83050057D01*
X168253095Y-83050057D02*
X168300714Y-83002438D01*
X168300714Y-83002438D02*
X168395952Y-82954819D01*
X168395952Y-82954819D02*
X168634047Y-82954819D01*
X168634047Y-82954819D02*
X168729285Y-83002438D01*
X168729285Y-83002438D02*
X168776904Y-83050057D01*
X168776904Y-83050057D02*
X168824523Y-83145295D01*
X168824523Y-83145295D02*
X168824523Y-83240533D01*
X168824523Y-83240533D02*
X168776904Y-83383390D01*
X168776904Y-83383390D02*
X168205476Y-83954819D01*
X168205476Y-83954819D02*
X168824523Y-83954819D01*
X169205476Y-83050057D02*
X169253095Y-83002438D01*
X169253095Y-83002438D02*
X169348333Y-82954819D01*
X169348333Y-82954819D02*
X169586428Y-82954819D01*
X169586428Y-82954819D02*
X169681666Y-83002438D01*
X169681666Y-83002438D02*
X169729285Y-83050057D01*
X169729285Y-83050057D02*
X169776904Y-83145295D01*
X169776904Y-83145295D02*
X169776904Y-83240533D01*
X169776904Y-83240533D02*
X169729285Y-83383390D01*
X169729285Y-83383390D02*
X169157857Y-83954819D01*
X169157857Y-83954819D02*
X169776904Y-83954819D01*
X173704819Y-112666666D02*
X173704819Y-113142856D01*
X173704819Y-113142856D02*
X172704819Y-113142856D01*
X173704819Y-111809523D02*
X173704819Y-112380951D01*
X173704819Y-112095237D02*
X172704819Y-112095237D01*
X172704819Y-112095237D02*
X172847676Y-112190475D01*
X172847676Y-112190475D02*
X172942914Y-112285713D01*
X172942914Y-112285713D02*
X172990533Y-112380951D01*
X131107142Y-75359580D02*
X131059523Y-75407200D01*
X131059523Y-75407200D02*
X130916666Y-75454819D01*
X130916666Y-75454819D02*
X130821428Y-75454819D01*
X130821428Y-75454819D02*
X130678571Y-75407200D01*
X130678571Y-75407200D02*
X130583333Y-75311961D01*
X130583333Y-75311961D02*
X130535714Y-75216723D01*
X130535714Y-75216723D02*
X130488095Y-75026247D01*
X130488095Y-75026247D02*
X130488095Y-74883390D01*
X130488095Y-74883390D02*
X130535714Y-74692914D01*
X130535714Y-74692914D02*
X130583333Y-74597676D01*
X130583333Y-74597676D02*
X130678571Y-74502438D01*
X130678571Y-74502438D02*
X130821428Y-74454819D01*
X130821428Y-74454819D02*
X130916666Y-74454819D01*
X130916666Y-74454819D02*
X131059523Y-74502438D01*
X131059523Y-74502438D02*
X131107142Y-74550057D01*
X131488095Y-74550057D02*
X131535714Y-74502438D01*
X131535714Y-74502438D02*
X131630952Y-74454819D01*
X131630952Y-74454819D02*
X131869047Y-74454819D01*
X131869047Y-74454819D02*
X131964285Y-74502438D01*
X131964285Y-74502438D02*
X132011904Y-74550057D01*
X132011904Y-74550057D02*
X132059523Y-74645295D01*
X132059523Y-74645295D02*
X132059523Y-74740533D01*
X132059523Y-74740533D02*
X132011904Y-74883390D01*
X132011904Y-74883390D02*
X131440476Y-75454819D01*
X131440476Y-75454819D02*
X132059523Y-75454819D01*
X132630952Y-74883390D02*
X132535714Y-74835771D01*
X132535714Y-74835771D02*
X132488095Y-74788152D01*
X132488095Y-74788152D02*
X132440476Y-74692914D01*
X132440476Y-74692914D02*
X132440476Y-74645295D01*
X132440476Y-74645295D02*
X132488095Y-74550057D01*
X132488095Y-74550057D02*
X132535714Y-74502438D01*
X132535714Y-74502438D02*
X132630952Y-74454819D01*
X132630952Y-74454819D02*
X132821428Y-74454819D01*
X132821428Y-74454819D02*
X132916666Y-74502438D01*
X132916666Y-74502438D02*
X132964285Y-74550057D01*
X132964285Y-74550057D02*
X133011904Y-74645295D01*
X133011904Y-74645295D02*
X133011904Y-74692914D01*
X133011904Y-74692914D02*
X132964285Y-74788152D01*
X132964285Y-74788152D02*
X132916666Y-74835771D01*
X132916666Y-74835771D02*
X132821428Y-74883390D01*
X132821428Y-74883390D02*
X132630952Y-74883390D01*
X132630952Y-74883390D02*
X132535714Y-74931009D01*
X132535714Y-74931009D02*
X132488095Y-74978628D01*
X132488095Y-74978628D02*
X132440476Y-75073866D01*
X132440476Y-75073866D02*
X132440476Y-75264342D01*
X132440476Y-75264342D02*
X132488095Y-75359580D01*
X132488095Y-75359580D02*
X132535714Y-75407200D01*
X132535714Y-75407200D02*
X132630952Y-75454819D01*
X132630952Y-75454819D02*
X132821428Y-75454819D01*
X132821428Y-75454819D02*
X132916666Y-75407200D01*
X132916666Y-75407200D02*
X132964285Y-75359580D01*
X132964285Y-75359580D02*
X133011904Y-75264342D01*
X133011904Y-75264342D02*
X133011904Y-75073866D01*
X133011904Y-75073866D02*
X132964285Y-74978628D01*
X132964285Y-74978628D02*
X132916666Y-74931009D01*
X132916666Y-74931009D02*
X132821428Y-74883390D01*
X128607142Y-93859580D02*
X128559523Y-93907200D01*
X128559523Y-93907200D02*
X128416666Y-93954819D01*
X128416666Y-93954819D02*
X128321428Y-93954819D01*
X128321428Y-93954819D02*
X128178571Y-93907200D01*
X128178571Y-93907200D02*
X128083333Y-93811961D01*
X128083333Y-93811961D02*
X128035714Y-93716723D01*
X128035714Y-93716723D02*
X127988095Y-93526247D01*
X127988095Y-93526247D02*
X127988095Y-93383390D01*
X127988095Y-93383390D02*
X128035714Y-93192914D01*
X128035714Y-93192914D02*
X128083333Y-93097676D01*
X128083333Y-93097676D02*
X128178571Y-93002438D01*
X128178571Y-93002438D02*
X128321428Y-92954819D01*
X128321428Y-92954819D02*
X128416666Y-92954819D01*
X128416666Y-92954819D02*
X128559523Y-93002438D01*
X128559523Y-93002438D02*
X128607142Y-93050057D01*
X129559523Y-93954819D02*
X128988095Y-93954819D01*
X129273809Y-93954819D02*
X129273809Y-92954819D01*
X129273809Y-92954819D02*
X129178571Y-93097676D01*
X129178571Y-93097676D02*
X129083333Y-93192914D01*
X129083333Y-93192914D02*
X128988095Y-93240533D01*
X130416666Y-92954819D02*
X130226190Y-92954819D01*
X130226190Y-92954819D02*
X130130952Y-93002438D01*
X130130952Y-93002438D02*
X130083333Y-93050057D01*
X130083333Y-93050057D02*
X129988095Y-93192914D01*
X129988095Y-93192914D02*
X129940476Y-93383390D01*
X129940476Y-93383390D02*
X129940476Y-93764342D01*
X129940476Y-93764342D02*
X129988095Y-93859580D01*
X129988095Y-93859580D02*
X130035714Y-93907200D01*
X130035714Y-93907200D02*
X130130952Y-93954819D01*
X130130952Y-93954819D02*
X130321428Y-93954819D01*
X130321428Y-93954819D02*
X130416666Y-93907200D01*
X130416666Y-93907200D02*
X130464285Y-93859580D01*
X130464285Y-93859580D02*
X130511904Y-93764342D01*
X130511904Y-93764342D02*
X130511904Y-93526247D01*
X130511904Y-93526247D02*
X130464285Y-93431009D01*
X130464285Y-93431009D02*
X130416666Y-93383390D01*
X130416666Y-93383390D02*
X130321428Y-93335771D01*
X130321428Y-93335771D02*
X130130952Y-93335771D01*
X130130952Y-93335771D02*
X130035714Y-93383390D01*
X130035714Y-93383390D02*
X129988095Y-93431009D01*
X129988095Y-93431009D02*
X129940476Y-93526247D01*
X163107142Y-75109580D02*
X163059523Y-75157200D01*
X163059523Y-75157200D02*
X162916666Y-75204819D01*
X162916666Y-75204819D02*
X162821428Y-75204819D01*
X162821428Y-75204819D02*
X162678571Y-75157200D01*
X162678571Y-75157200D02*
X162583333Y-75061961D01*
X162583333Y-75061961D02*
X162535714Y-74966723D01*
X162535714Y-74966723D02*
X162488095Y-74776247D01*
X162488095Y-74776247D02*
X162488095Y-74633390D01*
X162488095Y-74633390D02*
X162535714Y-74442914D01*
X162535714Y-74442914D02*
X162583333Y-74347676D01*
X162583333Y-74347676D02*
X162678571Y-74252438D01*
X162678571Y-74252438D02*
X162821428Y-74204819D01*
X162821428Y-74204819D02*
X162916666Y-74204819D01*
X162916666Y-74204819D02*
X163059523Y-74252438D01*
X163059523Y-74252438D02*
X163107142Y-74300057D01*
X164059523Y-75204819D02*
X163488095Y-75204819D01*
X163773809Y-75204819D02*
X163773809Y-74204819D01*
X163773809Y-74204819D02*
X163678571Y-74347676D01*
X163678571Y-74347676D02*
X163583333Y-74442914D01*
X163583333Y-74442914D02*
X163488095Y-74490533D01*
X164630952Y-74633390D02*
X164535714Y-74585771D01*
X164535714Y-74585771D02*
X164488095Y-74538152D01*
X164488095Y-74538152D02*
X164440476Y-74442914D01*
X164440476Y-74442914D02*
X164440476Y-74395295D01*
X164440476Y-74395295D02*
X164488095Y-74300057D01*
X164488095Y-74300057D02*
X164535714Y-74252438D01*
X164535714Y-74252438D02*
X164630952Y-74204819D01*
X164630952Y-74204819D02*
X164821428Y-74204819D01*
X164821428Y-74204819D02*
X164916666Y-74252438D01*
X164916666Y-74252438D02*
X164964285Y-74300057D01*
X164964285Y-74300057D02*
X165011904Y-74395295D01*
X165011904Y-74395295D02*
X165011904Y-74442914D01*
X165011904Y-74442914D02*
X164964285Y-74538152D01*
X164964285Y-74538152D02*
X164916666Y-74585771D01*
X164916666Y-74585771D02*
X164821428Y-74633390D01*
X164821428Y-74633390D02*
X164630952Y-74633390D01*
X164630952Y-74633390D02*
X164535714Y-74681009D01*
X164535714Y-74681009D02*
X164488095Y-74728628D01*
X164488095Y-74728628D02*
X164440476Y-74823866D01*
X164440476Y-74823866D02*
X164440476Y-75014342D01*
X164440476Y-75014342D02*
X164488095Y-75109580D01*
X164488095Y-75109580D02*
X164535714Y-75157200D01*
X164535714Y-75157200D02*
X164630952Y-75204819D01*
X164630952Y-75204819D02*
X164821428Y-75204819D01*
X164821428Y-75204819D02*
X164916666Y-75157200D01*
X164916666Y-75157200D02*
X164964285Y-75109580D01*
X164964285Y-75109580D02*
X165011904Y-75014342D01*
X165011904Y-75014342D02*
X165011904Y-74823866D01*
X165011904Y-74823866D02*
X164964285Y-74728628D01*
X164964285Y-74728628D02*
X164916666Y-74681009D01*
X164916666Y-74681009D02*
X164821428Y-74633390D01*
X167857142Y-85359580D02*
X167809523Y-85407200D01*
X167809523Y-85407200D02*
X167666666Y-85454819D01*
X167666666Y-85454819D02*
X167571428Y-85454819D01*
X167571428Y-85454819D02*
X167428571Y-85407200D01*
X167428571Y-85407200D02*
X167333333Y-85311961D01*
X167333333Y-85311961D02*
X167285714Y-85216723D01*
X167285714Y-85216723D02*
X167238095Y-85026247D01*
X167238095Y-85026247D02*
X167238095Y-84883390D01*
X167238095Y-84883390D02*
X167285714Y-84692914D01*
X167285714Y-84692914D02*
X167333333Y-84597676D01*
X167333333Y-84597676D02*
X167428571Y-84502438D01*
X167428571Y-84502438D02*
X167571428Y-84454819D01*
X167571428Y-84454819D02*
X167666666Y-84454819D01*
X167666666Y-84454819D02*
X167809523Y-84502438D01*
X167809523Y-84502438D02*
X167857142Y-84550057D01*
X168238095Y-84550057D02*
X168285714Y-84502438D01*
X168285714Y-84502438D02*
X168380952Y-84454819D01*
X168380952Y-84454819D02*
X168619047Y-84454819D01*
X168619047Y-84454819D02*
X168714285Y-84502438D01*
X168714285Y-84502438D02*
X168761904Y-84550057D01*
X168761904Y-84550057D02*
X168809523Y-84645295D01*
X168809523Y-84645295D02*
X168809523Y-84740533D01*
X168809523Y-84740533D02*
X168761904Y-84883390D01*
X168761904Y-84883390D02*
X168190476Y-85454819D01*
X168190476Y-85454819D02*
X168809523Y-85454819D01*
X169142857Y-84454819D02*
X169761904Y-84454819D01*
X169761904Y-84454819D02*
X169428571Y-84835771D01*
X169428571Y-84835771D02*
X169571428Y-84835771D01*
X169571428Y-84835771D02*
X169666666Y-84883390D01*
X169666666Y-84883390D02*
X169714285Y-84931009D01*
X169714285Y-84931009D02*
X169761904Y-85026247D01*
X169761904Y-85026247D02*
X169761904Y-85264342D01*
X169761904Y-85264342D02*
X169714285Y-85359580D01*
X169714285Y-85359580D02*
X169666666Y-85407200D01*
X169666666Y-85407200D02*
X169571428Y-85454819D01*
X169571428Y-85454819D02*
X169285714Y-85454819D01*
X169285714Y-85454819D02*
X169190476Y-85407200D01*
X169190476Y-85407200D02*
X169142857Y-85359580D01*
X137609580Y-100092166D02*
X137657200Y-100139785D01*
X137657200Y-100139785D02*
X137704819Y-100282642D01*
X137704819Y-100282642D02*
X137704819Y-100377880D01*
X137704819Y-100377880D02*
X137657200Y-100520737D01*
X137657200Y-100520737D02*
X137561961Y-100615975D01*
X137561961Y-100615975D02*
X137466723Y-100663594D01*
X137466723Y-100663594D02*
X137276247Y-100711213D01*
X137276247Y-100711213D02*
X137133390Y-100711213D01*
X137133390Y-100711213D02*
X136942914Y-100663594D01*
X136942914Y-100663594D02*
X136847676Y-100615975D01*
X136847676Y-100615975D02*
X136752438Y-100520737D01*
X136752438Y-100520737D02*
X136704819Y-100377880D01*
X136704819Y-100377880D02*
X136704819Y-100282642D01*
X136704819Y-100282642D02*
X136752438Y-100139785D01*
X136752438Y-100139785D02*
X136800057Y-100092166D01*
X136704819Y-99187404D02*
X136704819Y-99663594D01*
X136704819Y-99663594D02*
X137181009Y-99711213D01*
X137181009Y-99711213D02*
X137133390Y-99663594D01*
X137133390Y-99663594D02*
X137085771Y-99568356D01*
X137085771Y-99568356D02*
X137085771Y-99330261D01*
X137085771Y-99330261D02*
X137133390Y-99235023D01*
X137133390Y-99235023D02*
X137181009Y-99187404D01*
X137181009Y-99187404D02*
X137276247Y-99139785D01*
X137276247Y-99139785D02*
X137514342Y-99139785D01*
X137514342Y-99139785D02*
X137609580Y-99187404D01*
X137609580Y-99187404D02*
X137657200Y-99235023D01*
X137657200Y-99235023D02*
X137704819Y-99330261D01*
X137704819Y-99330261D02*
X137704819Y-99568356D01*
X137704819Y-99568356D02*
X137657200Y-99663594D01*
X137657200Y-99663594D02*
X137609580Y-99711213D01*
X163107142Y-76609580D02*
X163059523Y-76657200D01*
X163059523Y-76657200D02*
X162916666Y-76704819D01*
X162916666Y-76704819D02*
X162821428Y-76704819D01*
X162821428Y-76704819D02*
X162678571Y-76657200D01*
X162678571Y-76657200D02*
X162583333Y-76561961D01*
X162583333Y-76561961D02*
X162535714Y-76466723D01*
X162535714Y-76466723D02*
X162488095Y-76276247D01*
X162488095Y-76276247D02*
X162488095Y-76133390D01*
X162488095Y-76133390D02*
X162535714Y-75942914D01*
X162535714Y-75942914D02*
X162583333Y-75847676D01*
X162583333Y-75847676D02*
X162678571Y-75752438D01*
X162678571Y-75752438D02*
X162821428Y-75704819D01*
X162821428Y-75704819D02*
X162916666Y-75704819D01*
X162916666Y-75704819D02*
X163059523Y-75752438D01*
X163059523Y-75752438D02*
X163107142Y-75800057D01*
X163488095Y-75800057D02*
X163535714Y-75752438D01*
X163535714Y-75752438D02*
X163630952Y-75704819D01*
X163630952Y-75704819D02*
X163869047Y-75704819D01*
X163869047Y-75704819D02*
X163964285Y-75752438D01*
X163964285Y-75752438D02*
X164011904Y-75800057D01*
X164011904Y-75800057D02*
X164059523Y-75895295D01*
X164059523Y-75895295D02*
X164059523Y-75990533D01*
X164059523Y-75990533D02*
X164011904Y-76133390D01*
X164011904Y-76133390D02*
X163440476Y-76704819D01*
X163440476Y-76704819D02*
X164059523Y-76704819D01*
X165011904Y-76704819D02*
X164440476Y-76704819D01*
X164726190Y-76704819D02*
X164726190Y-75704819D01*
X164726190Y-75704819D02*
X164630952Y-75847676D01*
X164630952Y-75847676D02*
X164535714Y-75942914D01*
X164535714Y-75942914D02*
X164440476Y-75990533D01*
X148459580Y-72642857D02*
X148507200Y-72690476D01*
X148507200Y-72690476D02*
X148554819Y-72833333D01*
X148554819Y-72833333D02*
X148554819Y-72928571D01*
X148554819Y-72928571D02*
X148507200Y-73071428D01*
X148507200Y-73071428D02*
X148411961Y-73166666D01*
X148411961Y-73166666D02*
X148316723Y-73214285D01*
X148316723Y-73214285D02*
X148126247Y-73261904D01*
X148126247Y-73261904D02*
X147983390Y-73261904D01*
X147983390Y-73261904D02*
X147792914Y-73214285D01*
X147792914Y-73214285D02*
X147697676Y-73166666D01*
X147697676Y-73166666D02*
X147602438Y-73071428D01*
X147602438Y-73071428D02*
X147554819Y-72928571D01*
X147554819Y-72928571D02*
X147554819Y-72833333D01*
X147554819Y-72833333D02*
X147602438Y-72690476D01*
X147602438Y-72690476D02*
X147650057Y-72642857D01*
X147650057Y-72261904D02*
X147602438Y-72214285D01*
X147602438Y-72214285D02*
X147554819Y-72119047D01*
X147554819Y-72119047D02*
X147554819Y-71880952D01*
X147554819Y-71880952D02*
X147602438Y-71785714D01*
X147602438Y-71785714D02*
X147650057Y-71738095D01*
X147650057Y-71738095D02*
X147745295Y-71690476D01*
X147745295Y-71690476D02*
X147840533Y-71690476D01*
X147840533Y-71690476D02*
X147983390Y-71738095D01*
X147983390Y-71738095D02*
X148554819Y-72309523D01*
X148554819Y-72309523D02*
X148554819Y-71690476D01*
X147554819Y-71357142D02*
X147554819Y-70690476D01*
X147554819Y-70690476D02*
X148554819Y-71119047D01*
X171704819Y-110738094D02*
X170704819Y-110738094D01*
X170704819Y-110738094D02*
X170704819Y-110499999D01*
X170704819Y-110499999D02*
X170752438Y-110357142D01*
X170752438Y-110357142D02*
X170847676Y-110261904D01*
X170847676Y-110261904D02*
X170942914Y-110214285D01*
X170942914Y-110214285D02*
X171133390Y-110166666D01*
X171133390Y-110166666D02*
X171276247Y-110166666D01*
X171276247Y-110166666D02*
X171466723Y-110214285D01*
X171466723Y-110214285D02*
X171561961Y-110261904D01*
X171561961Y-110261904D02*
X171657200Y-110357142D01*
X171657200Y-110357142D02*
X171704819Y-110499999D01*
X171704819Y-110499999D02*
X171704819Y-110738094D01*
X171704819Y-109214285D02*
X171704819Y-109785713D01*
X171704819Y-109499999D02*
X170704819Y-109499999D01*
X170704819Y-109499999D02*
X170847676Y-109595237D01*
X170847676Y-109595237D02*
X170942914Y-109690475D01*
X170942914Y-109690475D02*
X170990533Y-109785713D01*
X138204819Y-93166666D02*
X137728628Y-93499999D01*
X138204819Y-93738094D02*
X137204819Y-93738094D01*
X137204819Y-93738094D02*
X137204819Y-93357142D01*
X137204819Y-93357142D02*
X137252438Y-93261904D01*
X137252438Y-93261904D02*
X137300057Y-93214285D01*
X137300057Y-93214285D02*
X137395295Y-93166666D01*
X137395295Y-93166666D02*
X137538152Y-93166666D01*
X137538152Y-93166666D02*
X137633390Y-93214285D01*
X137633390Y-93214285D02*
X137681009Y-93261904D01*
X137681009Y-93261904D02*
X137728628Y-93357142D01*
X137728628Y-93357142D02*
X137728628Y-93738094D01*
X138204819Y-92214285D02*
X138204819Y-92785713D01*
X138204819Y-92499999D02*
X137204819Y-92499999D01*
X137204819Y-92499999D02*
X137347676Y-92595237D01*
X137347676Y-92595237D02*
X137442914Y-92690475D01*
X137442914Y-92690475D02*
X137490533Y-92785713D01*
X144109580Y-66142857D02*
X144157200Y-66190476D01*
X144157200Y-66190476D02*
X144204819Y-66333333D01*
X144204819Y-66333333D02*
X144204819Y-66428571D01*
X144204819Y-66428571D02*
X144157200Y-66571428D01*
X144157200Y-66571428D02*
X144061961Y-66666666D01*
X144061961Y-66666666D02*
X143966723Y-66714285D01*
X143966723Y-66714285D02*
X143776247Y-66761904D01*
X143776247Y-66761904D02*
X143633390Y-66761904D01*
X143633390Y-66761904D02*
X143442914Y-66714285D01*
X143442914Y-66714285D02*
X143347676Y-66666666D01*
X143347676Y-66666666D02*
X143252438Y-66571428D01*
X143252438Y-66571428D02*
X143204819Y-66428571D01*
X143204819Y-66428571D02*
X143204819Y-66333333D01*
X143204819Y-66333333D02*
X143252438Y-66190476D01*
X143252438Y-66190476D02*
X143300057Y-66142857D01*
X143204819Y-65809523D02*
X143204819Y-65190476D01*
X143204819Y-65190476D02*
X143585771Y-65523809D01*
X143585771Y-65523809D02*
X143585771Y-65380952D01*
X143585771Y-65380952D02*
X143633390Y-65285714D01*
X143633390Y-65285714D02*
X143681009Y-65238095D01*
X143681009Y-65238095D02*
X143776247Y-65190476D01*
X143776247Y-65190476D02*
X144014342Y-65190476D01*
X144014342Y-65190476D02*
X144109580Y-65238095D01*
X144109580Y-65238095D02*
X144157200Y-65285714D01*
X144157200Y-65285714D02*
X144204819Y-65380952D01*
X144204819Y-65380952D02*
X144204819Y-65666666D01*
X144204819Y-65666666D02*
X144157200Y-65761904D01*
X144157200Y-65761904D02*
X144109580Y-65809523D01*
X143204819Y-64571428D02*
X143204819Y-64476190D01*
X143204819Y-64476190D02*
X143252438Y-64380952D01*
X143252438Y-64380952D02*
X143300057Y-64333333D01*
X143300057Y-64333333D02*
X143395295Y-64285714D01*
X143395295Y-64285714D02*
X143585771Y-64238095D01*
X143585771Y-64238095D02*
X143823866Y-64238095D01*
X143823866Y-64238095D02*
X144014342Y-64285714D01*
X144014342Y-64285714D02*
X144109580Y-64333333D01*
X144109580Y-64333333D02*
X144157200Y-64380952D01*
X144157200Y-64380952D02*
X144204819Y-64476190D01*
X144204819Y-64476190D02*
X144204819Y-64571428D01*
X144204819Y-64571428D02*
X144157200Y-64666666D01*
X144157200Y-64666666D02*
X144109580Y-64714285D01*
X144109580Y-64714285D02*
X144014342Y-64761904D01*
X144014342Y-64761904D02*
X143823866Y-64809523D01*
X143823866Y-64809523D02*
X143585771Y-64809523D01*
X143585771Y-64809523D02*
X143395295Y-64761904D01*
X143395295Y-64761904D02*
X143300057Y-64714285D01*
X143300057Y-64714285D02*
X143252438Y-64666666D01*
X143252438Y-64666666D02*
X143204819Y-64571428D01*
X134857142Y-92704819D02*
X134523809Y-92228628D01*
X134285714Y-92704819D02*
X134285714Y-91704819D01*
X134285714Y-91704819D02*
X134666666Y-91704819D01*
X134666666Y-91704819D02*
X134761904Y-91752438D01*
X134761904Y-91752438D02*
X134809523Y-91800057D01*
X134809523Y-91800057D02*
X134857142Y-91895295D01*
X134857142Y-91895295D02*
X134857142Y-92038152D01*
X134857142Y-92038152D02*
X134809523Y-92133390D01*
X134809523Y-92133390D02*
X134761904Y-92181009D01*
X134761904Y-92181009D02*
X134666666Y-92228628D01*
X134666666Y-92228628D02*
X134285714Y-92228628D01*
X135809523Y-92704819D02*
X135238095Y-92704819D01*
X135523809Y-92704819D02*
X135523809Y-91704819D01*
X135523809Y-91704819D02*
X135428571Y-91847676D01*
X135428571Y-91847676D02*
X135333333Y-91942914D01*
X135333333Y-91942914D02*
X135238095Y-91990533D01*
X136428571Y-91704819D02*
X136523809Y-91704819D01*
X136523809Y-91704819D02*
X136619047Y-91752438D01*
X136619047Y-91752438D02*
X136666666Y-91800057D01*
X136666666Y-91800057D02*
X136714285Y-91895295D01*
X136714285Y-91895295D02*
X136761904Y-92085771D01*
X136761904Y-92085771D02*
X136761904Y-92323866D01*
X136761904Y-92323866D02*
X136714285Y-92514342D01*
X136714285Y-92514342D02*
X136666666Y-92609580D01*
X136666666Y-92609580D02*
X136619047Y-92657200D01*
X136619047Y-92657200D02*
X136523809Y-92704819D01*
X136523809Y-92704819D02*
X136428571Y-92704819D01*
X136428571Y-92704819D02*
X136333333Y-92657200D01*
X136333333Y-92657200D02*
X136285714Y-92609580D01*
X136285714Y-92609580D02*
X136238095Y-92514342D01*
X136238095Y-92514342D02*
X136190476Y-92323866D01*
X136190476Y-92323866D02*
X136190476Y-92085771D01*
X136190476Y-92085771D02*
X136238095Y-91895295D01*
X136238095Y-91895295D02*
X136285714Y-91800057D01*
X136285714Y-91800057D02*
X136333333Y-91752438D01*
X136333333Y-91752438D02*
X136428571Y-91704819D01*
X134857142Y-94109580D02*
X134809523Y-94157200D01*
X134809523Y-94157200D02*
X134666666Y-94204819D01*
X134666666Y-94204819D02*
X134571428Y-94204819D01*
X134571428Y-94204819D02*
X134428571Y-94157200D01*
X134428571Y-94157200D02*
X134333333Y-94061961D01*
X134333333Y-94061961D02*
X134285714Y-93966723D01*
X134285714Y-93966723D02*
X134238095Y-93776247D01*
X134238095Y-93776247D02*
X134238095Y-93633390D01*
X134238095Y-93633390D02*
X134285714Y-93442914D01*
X134285714Y-93442914D02*
X134333333Y-93347676D01*
X134333333Y-93347676D02*
X134428571Y-93252438D01*
X134428571Y-93252438D02*
X134571428Y-93204819D01*
X134571428Y-93204819D02*
X134666666Y-93204819D01*
X134666666Y-93204819D02*
X134809523Y-93252438D01*
X134809523Y-93252438D02*
X134857142Y-93300057D01*
X135809523Y-94204819D02*
X135238095Y-94204819D01*
X135523809Y-94204819D02*
X135523809Y-93204819D01*
X135523809Y-93204819D02*
X135428571Y-93347676D01*
X135428571Y-93347676D02*
X135333333Y-93442914D01*
X135333333Y-93442914D02*
X135238095Y-93490533D01*
X136142857Y-93204819D02*
X136809523Y-93204819D01*
X136809523Y-93204819D02*
X136380952Y-94204819D01*
X164609580Y-95916666D02*
X164657200Y-95964285D01*
X164657200Y-95964285D02*
X164704819Y-96107142D01*
X164704819Y-96107142D02*
X164704819Y-96202380D01*
X164704819Y-96202380D02*
X164657200Y-96345237D01*
X164657200Y-96345237D02*
X164561961Y-96440475D01*
X164561961Y-96440475D02*
X164466723Y-96488094D01*
X164466723Y-96488094D02*
X164276247Y-96535713D01*
X164276247Y-96535713D02*
X164133390Y-96535713D01*
X164133390Y-96535713D02*
X163942914Y-96488094D01*
X163942914Y-96488094D02*
X163847676Y-96440475D01*
X163847676Y-96440475D02*
X163752438Y-96345237D01*
X163752438Y-96345237D02*
X163704819Y-96202380D01*
X163704819Y-96202380D02*
X163704819Y-96107142D01*
X163704819Y-96107142D02*
X163752438Y-95964285D01*
X163752438Y-95964285D02*
X163800057Y-95916666D01*
X163704819Y-95059523D02*
X163704819Y-95249999D01*
X163704819Y-95249999D02*
X163752438Y-95345237D01*
X163752438Y-95345237D02*
X163800057Y-95392856D01*
X163800057Y-95392856D02*
X163942914Y-95488094D01*
X163942914Y-95488094D02*
X164133390Y-95535713D01*
X164133390Y-95535713D02*
X164514342Y-95535713D01*
X164514342Y-95535713D02*
X164609580Y-95488094D01*
X164609580Y-95488094D02*
X164657200Y-95440475D01*
X164657200Y-95440475D02*
X164704819Y-95345237D01*
X164704819Y-95345237D02*
X164704819Y-95154761D01*
X164704819Y-95154761D02*
X164657200Y-95059523D01*
X164657200Y-95059523D02*
X164609580Y-95011904D01*
X164609580Y-95011904D02*
X164514342Y-94964285D01*
X164514342Y-94964285D02*
X164276247Y-94964285D01*
X164276247Y-94964285D02*
X164181009Y-95011904D01*
X164181009Y-95011904D02*
X164133390Y-95059523D01*
X164133390Y-95059523D02*
X164085771Y-95154761D01*
X164085771Y-95154761D02*
X164085771Y-95345237D01*
X164085771Y-95345237D02*
X164133390Y-95440475D01*
X164133390Y-95440475D02*
X164181009Y-95488094D01*
X164181009Y-95488094D02*
X164276247Y-95535713D01*
X127833333Y-101204819D02*
X127500000Y-100728628D01*
X127261905Y-101204819D02*
X127261905Y-100204819D01*
X127261905Y-100204819D02*
X127642857Y-100204819D01*
X127642857Y-100204819D02*
X127738095Y-100252438D01*
X127738095Y-100252438D02*
X127785714Y-100300057D01*
X127785714Y-100300057D02*
X127833333Y-100395295D01*
X127833333Y-100395295D02*
X127833333Y-100538152D01*
X127833333Y-100538152D02*
X127785714Y-100633390D01*
X127785714Y-100633390D02*
X127738095Y-100681009D01*
X127738095Y-100681009D02*
X127642857Y-100728628D01*
X127642857Y-100728628D02*
X127261905Y-100728628D01*
X128166667Y-100204819D02*
X128833333Y-100204819D01*
X128833333Y-100204819D02*
X128404762Y-101204819D01*
X128857142Y-82454819D02*
X128523809Y-81978628D01*
X128285714Y-82454819D02*
X128285714Y-81454819D01*
X128285714Y-81454819D02*
X128666666Y-81454819D01*
X128666666Y-81454819D02*
X128761904Y-81502438D01*
X128761904Y-81502438D02*
X128809523Y-81550057D01*
X128809523Y-81550057D02*
X128857142Y-81645295D01*
X128857142Y-81645295D02*
X128857142Y-81788152D01*
X128857142Y-81788152D02*
X128809523Y-81883390D01*
X128809523Y-81883390D02*
X128761904Y-81931009D01*
X128761904Y-81931009D02*
X128666666Y-81978628D01*
X128666666Y-81978628D02*
X128285714Y-81978628D01*
X129809523Y-82454819D02*
X129238095Y-82454819D01*
X129523809Y-82454819D02*
X129523809Y-81454819D01*
X129523809Y-81454819D02*
X129428571Y-81597676D01*
X129428571Y-81597676D02*
X129333333Y-81692914D01*
X129333333Y-81692914D02*
X129238095Y-81740533D01*
X130666666Y-81788152D02*
X130666666Y-82454819D01*
X130428571Y-81407200D02*
X130190476Y-82121485D01*
X130190476Y-82121485D02*
X130809523Y-82121485D01*
X167804819Y-89801904D02*
X168614342Y-89801904D01*
X168614342Y-89801904D02*
X168709580Y-89754285D01*
X168709580Y-89754285D02*
X168757200Y-89706666D01*
X168757200Y-89706666D02*
X168804819Y-89611428D01*
X168804819Y-89611428D02*
X168804819Y-89420952D01*
X168804819Y-89420952D02*
X168757200Y-89325714D01*
X168757200Y-89325714D02*
X168709580Y-89278095D01*
X168709580Y-89278095D02*
X168614342Y-89230476D01*
X168614342Y-89230476D02*
X167804819Y-89230476D01*
X168804819Y-88230476D02*
X168804819Y-88801904D01*
X168804819Y-88516190D02*
X167804819Y-88516190D01*
X167804819Y-88516190D02*
X167947676Y-88611428D01*
X167947676Y-88611428D02*
X168042914Y-88706666D01*
X168042914Y-88706666D02*
X168090533Y-88801904D01*
X136214819Y-108916666D02*
X135738628Y-109249999D01*
X136214819Y-109488094D02*
X135214819Y-109488094D01*
X135214819Y-109488094D02*
X135214819Y-109107142D01*
X135214819Y-109107142D02*
X135262438Y-109011904D01*
X135262438Y-109011904D02*
X135310057Y-108964285D01*
X135310057Y-108964285D02*
X135405295Y-108916666D01*
X135405295Y-108916666D02*
X135548152Y-108916666D01*
X135548152Y-108916666D02*
X135643390Y-108964285D01*
X135643390Y-108964285D02*
X135691009Y-109011904D01*
X135691009Y-109011904D02*
X135738628Y-109107142D01*
X135738628Y-109107142D02*
X135738628Y-109488094D01*
X135214819Y-108011904D02*
X135214819Y-108488094D01*
X135214819Y-108488094D02*
X135691009Y-108535713D01*
X135691009Y-108535713D02*
X135643390Y-108488094D01*
X135643390Y-108488094D02*
X135595771Y-108392856D01*
X135595771Y-108392856D02*
X135595771Y-108154761D01*
X135595771Y-108154761D02*
X135643390Y-108059523D01*
X135643390Y-108059523D02*
X135691009Y-108011904D01*
X135691009Y-108011904D02*
X135786247Y-107964285D01*
X135786247Y-107964285D02*
X136024342Y-107964285D01*
X136024342Y-107964285D02*
X136119580Y-108011904D01*
X136119580Y-108011904D02*
X136167200Y-108059523D01*
X136167200Y-108059523D02*
X136214819Y-108154761D01*
X136214819Y-108154761D02*
X136214819Y-108392856D01*
X136214819Y-108392856D02*
X136167200Y-108488094D01*
X136167200Y-108488094D02*
X136119580Y-108535713D01*
X161109580Y-124142857D02*
X161157200Y-124190476D01*
X161157200Y-124190476D02*
X161204819Y-124333333D01*
X161204819Y-124333333D02*
X161204819Y-124428571D01*
X161204819Y-124428571D02*
X161157200Y-124571428D01*
X161157200Y-124571428D02*
X161061961Y-124666666D01*
X161061961Y-124666666D02*
X160966723Y-124714285D01*
X160966723Y-124714285D02*
X160776247Y-124761904D01*
X160776247Y-124761904D02*
X160633390Y-124761904D01*
X160633390Y-124761904D02*
X160442914Y-124714285D01*
X160442914Y-124714285D02*
X160347676Y-124666666D01*
X160347676Y-124666666D02*
X160252438Y-124571428D01*
X160252438Y-124571428D02*
X160204819Y-124428571D01*
X160204819Y-124428571D02*
X160204819Y-124333333D01*
X160204819Y-124333333D02*
X160252438Y-124190476D01*
X160252438Y-124190476D02*
X160300057Y-124142857D01*
X160300057Y-123761904D02*
X160252438Y-123714285D01*
X160252438Y-123714285D02*
X160204819Y-123619047D01*
X160204819Y-123619047D02*
X160204819Y-123380952D01*
X160204819Y-123380952D02*
X160252438Y-123285714D01*
X160252438Y-123285714D02*
X160300057Y-123238095D01*
X160300057Y-123238095D02*
X160395295Y-123190476D01*
X160395295Y-123190476D02*
X160490533Y-123190476D01*
X160490533Y-123190476D02*
X160633390Y-123238095D01*
X160633390Y-123238095D02*
X161204819Y-123809523D01*
X161204819Y-123809523D02*
X161204819Y-123190476D01*
X160204819Y-122285714D02*
X160204819Y-122761904D01*
X160204819Y-122761904D02*
X160681009Y-122809523D01*
X160681009Y-122809523D02*
X160633390Y-122761904D01*
X160633390Y-122761904D02*
X160585771Y-122666666D01*
X160585771Y-122666666D02*
X160585771Y-122428571D01*
X160585771Y-122428571D02*
X160633390Y-122333333D01*
X160633390Y-122333333D02*
X160681009Y-122285714D01*
X160681009Y-122285714D02*
X160776247Y-122238095D01*
X160776247Y-122238095D02*
X161014342Y-122238095D01*
X161014342Y-122238095D02*
X161109580Y-122285714D01*
X161109580Y-122285714D02*
X161157200Y-122333333D01*
X161157200Y-122333333D02*
X161204819Y-122428571D01*
X161204819Y-122428571D02*
X161204819Y-122666666D01*
X161204819Y-122666666D02*
X161157200Y-122761904D01*
X161157200Y-122761904D02*
X161109580Y-122809523D01*
X162109580Y-81892857D02*
X162157200Y-81940476D01*
X162157200Y-81940476D02*
X162204819Y-82083333D01*
X162204819Y-82083333D02*
X162204819Y-82178571D01*
X162204819Y-82178571D02*
X162157200Y-82321428D01*
X162157200Y-82321428D02*
X162061961Y-82416666D01*
X162061961Y-82416666D02*
X161966723Y-82464285D01*
X161966723Y-82464285D02*
X161776247Y-82511904D01*
X161776247Y-82511904D02*
X161633390Y-82511904D01*
X161633390Y-82511904D02*
X161442914Y-82464285D01*
X161442914Y-82464285D02*
X161347676Y-82416666D01*
X161347676Y-82416666D02*
X161252438Y-82321428D01*
X161252438Y-82321428D02*
X161204819Y-82178571D01*
X161204819Y-82178571D02*
X161204819Y-82083333D01*
X161204819Y-82083333D02*
X161252438Y-81940476D01*
X161252438Y-81940476D02*
X161300057Y-81892857D01*
X161300057Y-81511904D02*
X161252438Y-81464285D01*
X161252438Y-81464285D02*
X161204819Y-81369047D01*
X161204819Y-81369047D02*
X161204819Y-81130952D01*
X161204819Y-81130952D02*
X161252438Y-81035714D01*
X161252438Y-81035714D02*
X161300057Y-80988095D01*
X161300057Y-80988095D02*
X161395295Y-80940476D01*
X161395295Y-80940476D02*
X161490533Y-80940476D01*
X161490533Y-80940476D02*
X161633390Y-80988095D01*
X161633390Y-80988095D02*
X162204819Y-81559523D01*
X162204819Y-81559523D02*
X162204819Y-80940476D01*
X161204819Y-80321428D02*
X161204819Y-80226190D01*
X161204819Y-80226190D02*
X161252438Y-80130952D01*
X161252438Y-80130952D02*
X161300057Y-80083333D01*
X161300057Y-80083333D02*
X161395295Y-80035714D01*
X161395295Y-80035714D02*
X161585771Y-79988095D01*
X161585771Y-79988095D02*
X161823866Y-79988095D01*
X161823866Y-79988095D02*
X162014342Y-80035714D01*
X162014342Y-80035714D02*
X162109580Y-80083333D01*
X162109580Y-80083333D02*
X162157200Y-80130952D01*
X162157200Y-80130952D02*
X162204819Y-80226190D01*
X162204819Y-80226190D02*
X162204819Y-80321428D01*
X162204819Y-80321428D02*
X162157200Y-80416666D01*
X162157200Y-80416666D02*
X162109580Y-80464285D01*
X162109580Y-80464285D02*
X162014342Y-80511904D01*
X162014342Y-80511904D02*
X161823866Y-80559523D01*
X161823866Y-80559523D02*
X161585771Y-80559523D01*
X161585771Y-80559523D02*
X161395295Y-80511904D01*
X161395295Y-80511904D02*
X161300057Y-80464285D01*
X161300057Y-80464285D02*
X161252438Y-80416666D01*
X161252438Y-80416666D02*
X161204819Y-80321428D01*
X138904761Y-88550057D02*
X138809523Y-88502438D01*
X138809523Y-88502438D02*
X138714285Y-88407200D01*
X138714285Y-88407200D02*
X138571428Y-88264342D01*
X138571428Y-88264342D02*
X138476190Y-88216723D01*
X138476190Y-88216723D02*
X138380952Y-88216723D01*
X138428571Y-88454819D02*
X138333333Y-88407200D01*
X138333333Y-88407200D02*
X138238095Y-88311961D01*
X138238095Y-88311961D02*
X138190476Y-88121485D01*
X138190476Y-88121485D02*
X138190476Y-87788152D01*
X138190476Y-87788152D02*
X138238095Y-87597676D01*
X138238095Y-87597676D02*
X138333333Y-87502438D01*
X138333333Y-87502438D02*
X138428571Y-87454819D01*
X138428571Y-87454819D02*
X138619047Y-87454819D01*
X138619047Y-87454819D02*
X138714285Y-87502438D01*
X138714285Y-87502438D02*
X138809523Y-87597676D01*
X138809523Y-87597676D02*
X138857142Y-87788152D01*
X138857142Y-87788152D02*
X138857142Y-88121485D01*
X138857142Y-88121485D02*
X138809523Y-88311961D01*
X138809523Y-88311961D02*
X138714285Y-88407200D01*
X138714285Y-88407200D02*
X138619047Y-88454819D01*
X138619047Y-88454819D02*
X138428571Y-88454819D01*
X139809523Y-88454819D02*
X139238095Y-88454819D01*
X139523809Y-88454819D02*
X139523809Y-87454819D01*
X139523809Y-87454819D02*
X139428571Y-87597676D01*
X139428571Y-87597676D02*
X139333333Y-87692914D01*
X139333333Y-87692914D02*
X139238095Y-87740533D01*
X136529580Y-70722857D02*
X136577200Y-70770476D01*
X136577200Y-70770476D02*
X136624819Y-70913333D01*
X136624819Y-70913333D02*
X136624819Y-71008571D01*
X136624819Y-71008571D02*
X136577200Y-71151428D01*
X136577200Y-71151428D02*
X136481961Y-71246666D01*
X136481961Y-71246666D02*
X136386723Y-71294285D01*
X136386723Y-71294285D02*
X136196247Y-71341904D01*
X136196247Y-71341904D02*
X136053390Y-71341904D01*
X136053390Y-71341904D02*
X135862914Y-71294285D01*
X135862914Y-71294285D02*
X135767676Y-71246666D01*
X135767676Y-71246666D02*
X135672438Y-71151428D01*
X135672438Y-71151428D02*
X135624819Y-71008571D01*
X135624819Y-71008571D02*
X135624819Y-70913333D01*
X135624819Y-70913333D02*
X135672438Y-70770476D01*
X135672438Y-70770476D02*
X135720057Y-70722857D01*
X135624819Y-70389523D02*
X135624819Y-69770476D01*
X135624819Y-69770476D02*
X136005771Y-70103809D01*
X136005771Y-70103809D02*
X136005771Y-69960952D01*
X136005771Y-69960952D02*
X136053390Y-69865714D01*
X136053390Y-69865714D02*
X136101009Y-69818095D01*
X136101009Y-69818095D02*
X136196247Y-69770476D01*
X136196247Y-69770476D02*
X136434342Y-69770476D01*
X136434342Y-69770476D02*
X136529580Y-69818095D01*
X136529580Y-69818095D02*
X136577200Y-69865714D01*
X136577200Y-69865714D02*
X136624819Y-69960952D01*
X136624819Y-69960952D02*
X136624819Y-70246666D01*
X136624819Y-70246666D02*
X136577200Y-70341904D01*
X136577200Y-70341904D02*
X136529580Y-70389523D01*
X135720057Y-69389523D02*
X135672438Y-69341904D01*
X135672438Y-69341904D02*
X135624819Y-69246666D01*
X135624819Y-69246666D02*
X135624819Y-69008571D01*
X135624819Y-69008571D02*
X135672438Y-68913333D01*
X135672438Y-68913333D02*
X135720057Y-68865714D01*
X135720057Y-68865714D02*
X135815295Y-68818095D01*
X135815295Y-68818095D02*
X135910533Y-68818095D01*
X135910533Y-68818095D02*
X136053390Y-68865714D01*
X136053390Y-68865714D02*
X136624819Y-69437142D01*
X136624819Y-69437142D02*
X136624819Y-68818095D01*
X161250595Y-90679819D02*
X161250595Y-91489342D01*
X161250595Y-91489342D02*
X161298214Y-91584580D01*
X161298214Y-91584580D02*
X161345833Y-91632200D01*
X161345833Y-91632200D02*
X161441071Y-91679819D01*
X161441071Y-91679819D02*
X161631547Y-91679819D01*
X161631547Y-91679819D02*
X161726785Y-91632200D01*
X161726785Y-91632200D02*
X161774404Y-91584580D01*
X161774404Y-91584580D02*
X161822023Y-91489342D01*
X161822023Y-91489342D02*
X161822023Y-90679819D01*
X162250595Y-90775057D02*
X162298214Y-90727438D01*
X162298214Y-90727438D02*
X162393452Y-90679819D01*
X162393452Y-90679819D02*
X162631547Y-90679819D01*
X162631547Y-90679819D02*
X162726785Y-90727438D01*
X162726785Y-90727438D02*
X162774404Y-90775057D01*
X162774404Y-90775057D02*
X162822023Y-90870295D01*
X162822023Y-90870295D02*
X162822023Y-90965533D01*
X162822023Y-90965533D02*
X162774404Y-91108390D01*
X162774404Y-91108390D02*
X162202976Y-91679819D01*
X162202976Y-91679819D02*
X162822023Y-91679819D01*
X149666666Y-120055119D02*
X149666666Y-120769404D01*
X149666666Y-120769404D02*
X149619047Y-120912261D01*
X149619047Y-120912261D02*
X149523809Y-121007500D01*
X149523809Y-121007500D02*
X149380952Y-121055119D01*
X149380952Y-121055119D02*
X149285714Y-121055119D01*
X150047619Y-120055119D02*
X150666666Y-120055119D01*
X150666666Y-120055119D02*
X150333333Y-120436071D01*
X150333333Y-120436071D02*
X150476190Y-120436071D01*
X150476190Y-120436071D02*
X150571428Y-120483690D01*
X150571428Y-120483690D02*
X150619047Y-120531309D01*
X150619047Y-120531309D02*
X150666666Y-120626547D01*
X150666666Y-120626547D02*
X150666666Y-120864642D01*
X150666666Y-120864642D02*
X150619047Y-120959880D01*
X150619047Y-120959880D02*
X150571428Y-121007500D01*
X150571428Y-121007500D02*
X150476190Y-121055119D01*
X150476190Y-121055119D02*
X150190476Y-121055119D01*
X150190476Y-121055119D02*
X150095238Y-121007500D01*
X150095238Y-121007500D02*
X150047619Y-120959880D01*
X143710000Y-121655119D02*
X143710000Y-121893214D01*
X143471905Y-121797976D02*
X143710000Y-121893214D01*
X143710000Y-121893214D02*
X143948095Y-121797976D01*
X143567143Y-122083690D02*
X143710000Y-121893214D01*
X143710000Y-121893214D02*
X143852857Y-122083690D01*
X161083333Y-90204819D02*
X160750000Y-89728628D01*
X160511905Y-90204819D02*
X160511905Y-89204819D01*
X160511905Y-89204819D02*
X160892857Y-89204819D01*
X160892857Y-89204819D02*
X160988095Y-89252438D01*
X160988095Y-89252438D02*
X161035714Y-89300057D01*
X161035714Y-89300057D02*
X161083333Y-89395295D01*
X161083333Y-89395295D02*
X161083333Y-89538152D01*
X161083333Y-89538152D02*
X161035714Y-89633390D01*
X161035714Y-89633390D02*
X160988095Y-89681009D01*
X160988095Y-89681009D02*
X160892857Y-89728628D01*
X160892857Y-89728628D02*
X160511905Y-89728628D01*
X161464286Y-89300057D02*
X161511905Y-89252438D01*
X161511905Y-89252438D02*
X161607143Y-89204819D01*
X161607143Y-89204819D02*
X161845238Y-89204819D01*
X161845238Y-89204819D02*
X161940476Y-89252438D01*
X161940476Y-89252438D02*
X161988095Y-89300057D01*
X161988095Y-89300057D02*
X162035714Y-89395295D01*
X162035714Y-89395295D02*
X162035714Y-89490533D01*
X162035714Y-89490533D02*
X161988095Y-89633390D01*
X161988095Y-89633390D02*
X161416667Y-90204819D01*
X161416667Y-90204819D02*
X162035714Y-90204819D01*
X163454819Y-114892857D02*
X162978628Y-115226190D01*
X163454819Y-115464285D02*
X162454819Y-115464285D01*
X162454819Y-115464285D02*
X162454819Y-115083333D01*
X162454819Y-115083333D02*
X162502438Y-114988095D01*
X162502438Y-114988095D02*
X162550057Y-114940476D01*
X162550057Y-114940476D02*
X162645295Y-114892857D01*
X162645295Y-114892857D02*
X162788152Y-114892857D01*
X162788152Y-114892857D02*
X162883390Y-114940476D01*
X162883390Y-114940476D02*
X162931009Y-114988095D01*
X162931009Y-114988095D02*
X162978628Y-115083333D01*
X162978628Y-115083333D02*
X162978628Y-115464285D01*
X162550057Y-114511904D02*
X162502438Y-114464285D01*
X162502438Y-114464285D02*
X162454819Y-114369047D01*
X162454819Y-114369047D02*
X162454819Y-114130952D01*
X162454819Y-114130952D02*
X162502438Y-114035714D01*
X162502438Y-114035714D02*
X162550057Y-113988095D01*
X162550057Y-113988095D02*
X162645295Y-113940476D01*
X162645295Y-113940476D02*
X162740533Y-113940476D01*
X162740533Y-113940476D02*
X162883390Y-113988095D01*
X162883390Y-113988095D02*
X163454819Y-114559523D01*
X163454819Y-114559523D02*
X163454819Y-113940476D01*
X162454819Y-113607142D02*
X162454819Y-112988095D01*
X162454819Y-112988095D02*
X162835771Y-113321428D01*
X162835771Y-113321428D02*
X162835771Y-113178571D01*
X162835771Y-113178571D02*
X162883390Y-113083333D01*
X162883390Y-113083333D02*
X162931009Y-113035714D01*
X162931009Y-113035714D02*
X163026247Y-112988095D01*
X163026247Y-112988095D02*
X163264342Y-112988095D01*
X163264342Y-112988095D02*
X163359580Y-113035714D01*
X163359580Y-113035714D02*
X163407200Y-113083333D01*
X163407200Y-113083333D02*
X163454819Y-113178571D01*
X163454819Y-113178571D02*
X163454819Y-113464285D01*
X163454819Y-113464285D02*
X163407200Y-113559523D01*
X163407200Y-113559523D02*
X163359580Y-113607142D01*
X145357142Y-69704819D02*
X145023809Y-69228628D01*
X144785714Y-69704819D02*
X144785714Y-68704819D01*
X144785714Y-68704819D02*
X145166666Y-68704819D01*
X145166666Y-68704819D02*
X145261904Y-68752438D01*
X145261904Y-68752438D02*
X145309523Y-68800057D01*
X145309523Y-68800057D02*
X145357142Y-68895295D01*
X145357142Y-68895295D02*
X145357142Y-69038152D01*
X145357142Y-69038152D02*
X145309523Y-69133390D01*
X145309523Y-69133390D02*
X145261904Y-69181009D01*
X145261904Y-69181009D02*
X145166666Y-69228628D01*
X145166666Y-69228628D02*
X144785714Y-69228628D01*
X145738095Y-68800057D02*
X145785714Y-68752438D01*
X145785714Y-68752438D02*
X145880952Y-68704819D01*
X145880952Y-68704819D02*
X146119047Y-68704819D01*
X146119047Y-68704819D02*
X146214285Y-68752438D01*
X146214285Y-68752438D02*
X146261904Y-68800057D01*
X146261904Y-68800057D02*
X146309523Y-68895295D01*
X146309523Y-68895295D02*
X146309523Y-68990533D01*
X146309523Y-68990533D02*
X146261904Y-69133390D01*
X146261904Y-69133390D02*
X145690476Y-69704819D01*
X145690476Y-69704819D02*
X146309523Y-69704819D01*
X147261904Y-69704819D02*
X146690476Y-69704819D01*
X146976190Y-69704819D02*
X146976190Y-68704819D01*
X146976190Y-68704819D02*
X146880952Y-68847676D01*
X146880952Y-68847676D02*
X146785714Y-68942914D01*
X146785714Y-68942914D02*
X146690476Y-68990533D01*
X157384819Y-73142857D02*
X156908628Y-73476190D01*
X157384819Y-73714285D02*
X156384819Y-73714285D01*
X156384819Y-73714285D02*
X156384819Y-73333333D01*
X156384819Y-73333333D02*
X156432438Y-73238095D01*
X156432438Y-73238095D02*
X156480057Y-73190476D01*
X156480057Y-73190476D02*
X156575295Y-73142857D01*
X156575295Y-73142857D02*
X156718152Y-73142857D01*
X156718152Y-73142857D02*
X156813390Y-73190476D01*
X156813390Y-73190476D02*
X156861009Y-73238095D01*
X156861009Y-73238095D02*
X156908628Y-73333333D01*
X156908628Y-73333333D02*
X156908628Y-73714285D01*
X156480057Y-72761904D02*
X156432438Y-72714285D01*
X156432438Y-72714285D02*
X156384819Y-72619047D01*
X156384819Y-72619047D02*
X156384819Y-72380952D01*
X156384819Y-72380952D02*
X156432438Y-72285714D01*
X156432438Y-72285714D02*
X156480057Y-72238095D01*
X156480057Y-72238095D02*
X156575295Y-72190476D01*
X156575295Y-72190476D02*
X156670533Y-72190476D01*
X156670533Y-72190476D02*
X156813390Y-72238095D01*
X156813390Y-72238095D02*
X157384819Y-72809523D01*
X157384819Y-72809523D02*
X157384819Y-72190476D01*
X156718152Y-71333333D02*
X157384819Y-71333333D01*
X156337200Y-71571428D02*
X157051485Y-71809523D01*
X157051485Y-71809523D02*
X157051485Y-71190476D01*
X161083333Y-88704819D02*
X160750000Y-88228628D01*
X160511905Y-88704819D02*
X160511905Y-87704819D01*
X160511905Y-87704819D02*
X160892857Y-87704819D01*
X160892857Y-87704819D02*
X160988095Y-87752438D01*
X160988095Y-87752438D02*
X161035714Y-87800057D01*
X161035714Y-87800057D02*
X161083333Y-87895295D01*
X161083333Y-87895295D02*
X161083333Y-88038152D01*
X161083333Y-88038152D02*
X161035714Y-88133390D01*
X161035714Y-88133390D02*
X160988095Y-88181009D01*
X160988095Y-88181009D02*
X160892857Y-88228628D01*
X160892857Y-88228628D02*
X160511905Y-88228628D01*
X161416667Y-87704819D02*
X162035714Y-87704819D01*
X162035714Y-87704819D02*
X161702381Y-88085771D01*
X161702381Y-88085771D02*
X161845238Y-88085771D01*
X161845238Y-88085771D02*
X161940476Y-88133390D01*
X161940476Y-88133390D02*
X161988095Y-88181009D01*
X161988095Y-88181009D02*
X162035714Y-88276247D01*
X162035714Y-88276247D02*
X162035714Y-88514342D01*
X162035714Y-88514342D02*
X161988095Y-88609580D01*
X161988095Y-88609580D02*
X161940476Y-88657200D01*
X161940476Y-88657200D02*
X161845238Y-88704819D01*
X161845238Y-88704819D02*
X161559524Y-88704819D01*
X161559524Y-88704819D02*
X161464286Y-88657200D01*
X161464286Y-88657200D02*
X161416667Y-88609580D01*
X160107142Y-103359580D02*
X160059523Y-103407200D01*
X160059523Y-103407200D02*
X159916666Y-103454819D01*
X159916666Y-103454819D02*
X159821428Y-103454819D01*
X159821428Y-103454819D02*
X159678571Y-103407200D01*
X159678571Y-103407200D02*
X159583333Y-103311961D01*
X159583333Y-103311961D02*
X159535714Y-103216723D01*
X159535714Y-103216723D02*
X159488095Y-103026247D01*
X159488095Y-103026247D02*
X159488095Y-102883390D01*
X159488095Y-102883390D02*
X159535714Y-102692914D01*
X159535714Y-102692914D02*
X159583333Y-102597676D01*
X159583333Y-102597676D02*
X159678571Y-102502438D01*
X159678571Y-102502438D02*
X159821428Y-102454819D01*
X159821428Y-102454819D02*
X159916666Y-102454819D01*
X159916666Y-102454819D02*
X160059523Y-102502438D01*
X160059523Y-102502438D02*
X160107142Y-102550057D01*
X161059523Y-103454819D02*
X160488095Y-103454819D01*
X160773809Y-103454819D02*
X160773809Y-102454819D01*
X160773809Y-102454819D02*
X160678571Y-102597676D01*
X160678571Y-102597676D02*
X160583333Y-102692914D01*
X160583333Y-102692914D02*
X160488095Y-102740533D01*
X161678571Y-102454819D02*
X161773809Y-102454819D01*
X161773809Y-102454819D02*
X161869047Y-102502438D01*
X161869047Y-102502438D02*
X161916666Y-102550057D01*
X161916666Y-102550057D02*
X161964285Y-102645295D01*
X161964285Y-102645295D02*
X162011904Y-102835771D01*
X162011904Y-102835771D02*
X162011904Y-103073866D01*
X162011904Y-103073866D02*
X161964285Y-103264342D01*
X161964285Y-103264342D02*
X161916666Y-103359580D01*
X161916666Y-103359580D02*
X161869047Y-103407200D01*
X161869047Y-103407200D02*
X161773809Y-103454819D01*
X161773809Y-103454819D02*
X161678571Y-103454819D01*
X161678571Y-103454819D02*
X161583333Y-103407200D01*
X161583333Y-103407200D02*
X161535714Y-103359580D01*
X161535714Y-103359580D02*
X161488095Y-103264342D01*
X161488095Y-103264342D02*
X161440476Y-103073866D01*
X161440476Y-103073866D02*
X161440476Y-102835771D01*
X161440476Y-102835771D02*
X161488095Y-102645295D01*
X161488095Y-102645295D02*
X161535714Y-102550057D01*
X161535714Y-102550057D02*
X161583333Y-102502438D01*
X161583333Y-102502438D02*
X161678571Y-102454819D01*
X168454819Y-80511904D02*
X169264342Y-80511904D01*
X169264342Y-80511904D02*
X169359580Y-80464285D01*
X169359580Y-80464285D02*
X169407200Y-80416666D01*
X169407200Y-80416666D02*
X169454819Y-80321428D01*
X169454819Y-80321428D02*
X169454819Y-80130952D01*
X169454819Y-80130952D02*
X169407200Y-80035714D01*
X169407200Y-80035714D02*
X169359580Y-79988095D01*
X169359580Y-79988095D02*
X169264342Y-79940476D01*
X169264342Y-79940476D02*
X168454819Y-79940476D01*
X168454819Y-79035714D02*
X168454819Y-79226190D01*
X168454819Y-79226190D02*
X168502438Y-79321428D01*
X168502438Y-79321428D02*
X168550057Y-79369047D01*
X168550057Y-79369047D02*
X168692914Y-79464285D01*
X168692914Y-79464285D02*
X168883390Y-79511904D01*
X168883390Y-79511904D02*
X169264342Y-79511904D01*
X169264342Y-79511904D02*
X169359580Y-79464285D01*
X169359580Y-79464285D02*
X169407200Y-79416666D01*
X169407200Y-79416666D02*
X169454819Y-79321428D01*
X169454819Y-79321428D02*
X169454819Y-79130952D01*
X169454819Y-79130952D02*
X169407200Y-79035714D01*
X169407200Y-79035714D02*
X169359580Y-78988095D01*
X169359580Y-78988095D02*
X169264342Y-78940476D01*
X169264342Y-78940476D02*
X169026247Y-78940476D01*
X169026247Y-78940476D02*
X168931009Y-78988095D01*
X168931009Y-78988095D02*
X168883390Y-79035714D01*
X168883390Y-79035714D02*
X168835771Y-79130952D01*
X168835771Y-79130952D02*
X168835771Y-79321428D01*
X168835771Y-79321428D02*
X168883390Y-79416666D01*
X168883390Y-79416666D02*
X168931009Y-79464285D01*
X168931009Y-79464285D02*
X169026247Y-79511904D01*
X162761905Y-116454819D02*
X162761905Y-117264342D01*
X162761905Y-117264342D02*
X162809524Y-117359580D01*
X162809524Y-117359580D02*
X162857143Y-117407200D01*
X162857143Y-117407200D02*
X162952381Y-117454819D01*
X162952381Y-117454819D02*
X163142857Y-117454819D01*
X163142857Y-117454819D02*
X163238095Y-117407200D01*
X163238095Y-117407200D02*
X163285714Y-117359580D01*
X163285714Y-117359580D02*
X163333333Y-117264342D01*
X163333333Y-117264342D02*
X163333333Y-116454819D01*
X164333333Y-117454819D02*
X163761905Y-117454819D01*
X164047619Y-117454819D02*
X164047619Y-116454819D01*
X164047619Y-116454819D02*
X163952381Y-116597676D01*
X163952381Y-116597676D02*
X163857143Y-116692914D01*
X163857143Y-116692914D02*
X163761905Y-116740533D01*
X165285714Y-117454819D02*
X164714286Y-117454819D01*
X165000000Y-117454819D02*
X165000000Y-116454819D01*
X165000000Y-116454819D02*
X164904762Y-116597676D01*
X164904762Y-116597676D02*
X164809524Y-116692914D01*
X164809524Y-116692914D02*
X164714286Y-116740533D01*
X154704819Y-67067333D02*
X155419104Y-67067333D01*
X155419104Y-67067333D02*
X155561961Y-67114952D01*
X155561961Y-67114952D02*
X155657200Y-67210190D01*
X155657200Y-67210190D02*
X155704819Y-67353047D01*
X155704819Y-67353047D02*
X155704819Y-67448285D01*
X155704819Y-66067333D02*
X155704819Y-66638761D01*
X155704819Y-66353047D02*
X154704819Y-66353047D01*
X154704819Y-66353047D02*
X154847676Y-66448285D01*
X154847676Y-66448285D02*
X154942914Y-66543523D01*
X154942914Y-66543523D02*
X154990533Y-66638761D01*
X159607142Y-120204819D02*
X159273809Y-119728628D01*
X159035714Y-120204819D02*
X159035714Y-119204819D01*
X159035714Y-119204819D02*
X159416666Y-119204819D01*
X159416666Y-119204819D02*
X159511904Y-119252438D01*
X159511904Y-119252438D02*
X159559523Y-119300057D01*
X159559523Y-119300057D02*
X159607142Y-119395295D01*
X159607142Y-119395295D02*
X159607142Y-119538152D01*
X159607142Y-119538152D02*
X159559523Y-119633390D01*
X159559523Y-119633390D02*
X159511904Y-119681009D01*
X159511904Y-119681009D02*
X159416666Y-119728628D01*
X159416666Y-119728628D02*
X159035714Y-119728628D01*
X160559523Y-120204819D02*
X159988095Y-120204819D01*
X160273809Y-120204819D02*
X160273809Y-119204819D01*
X160273809Y-119204819D02*
X160178571Y-119347676D01*
X160178571Y-119347676D02*
X160083333Y-119442914D01*
X160083333Y-119442914D02*
X159988095Y-119490533D01*
X161130952Y-119633390D02*
X161035714Y-119585771D01*
X161035714Y-119585771D02*
X160988095Y-119538152D01*
X160988095Y-119538152D02*
X160940476Y-119442914D01*
X160940476Y-119442914D02*
X160940476Y-119395295D01*
X160940476Y-119395295D02*
X160988095Y-119300057D01*
X160988095Y-119300057D02*
X161035714Y-119252438D01*
X161035714Y-119252438D02*
X161130952Y-119204819D01*
X161130952Y-119204819D02*
X161321428Y-119204819D01*
X161321428Y-119204819D02*
X161416666Y-119252438D01*
X161416666Y-119252438D02*
X161464285Y-119300057D01*
X161464285Y-119300057D02*
X161511904Y-119395295D01*
X161511904Y-119395295D02*
X161511904Y-119442914D01*
X161511904Y-119442914D02*
X161464285Y-119538152D01*
X161464285Y-119538152D02*
X161416666Y-119585771D01*
X161416666Y-119585771D02*
X161321428Y-119633390D01*
X161321428Y-119633390D02*
X161130952Y-119633390D01*
X161130952Y-119633390D02*
X161035714Y-119681009D01*
X161035714Y-119681009D02*
X160988095Y-119728628D01*
X160988095Y-119728628D02*
X160940476Y-119823866D01*
X160940476Y-119823866D02*
X160940476Y-120014342D01*
X160940476Y-120014342D02*
X160988095Y-120109580D01*
X160988095Y-120109580D02*
X161035714Y-120157200D01*
X161035714Y-120157200D02*
X161130952Y-120204819D01*
X161130952Y-120204819D02*
X161321428Y-120204819D01*
X161321428Y-120204819D02*
X161416666Y-120157200D01*
X161416666Y-120157200D02*
X161464285Y-120109580D01*
X161464285Y-120109580D02*
X161511904Y-120014342D01*
X161511904Y-120014342D02*
X161511904Y-119823866D01*
X161511904Y-119823866D02*
X161464285Y-119728628D01*
X161464285Y-119728628D02*
X161416666Y-119681009D01*
X161416666Y-119681009D02*
X161321428Y-119633390D01*
X130738095Y-104954819D02*
X130738095Y-105764342D01*
X130738095Y-105764342D02*
X130785714Y-105859580D01*
X130785714Y-105859580D02*
X130833333Y-105907200D01*
X130833333Y-105907200D02*
X130928571Y-105954819D01*
X130928571Y-105954819D02*
X131119047Y-105954819D01*
X131119047Y-105954819D02*
X131214285Y-105907200D01*
X131214285Y-105907200D02*
X131261904Y-105859580D01*
X131261904Y-105859580D02*
X131309523Y-105764342D01*
X131309523Y-105764342D02*
X131309523Y-104954819D01*
X131690476Y-104954819D02*
X132309523Y-104954819D01*
X132309523Y-104954819D02*
X131976190Y-105335771D01*
X131976190Y-105335771D02*
X132119047Y-105335771D01*
X132119047Y-105335771D02*
X132214285Y-105383390D01*
X132214285Y-105383390D02*
X132261904Y-105431009D01*
X132261904Y-105431009D02*
X132309523Y-105526247D01*
X132309523Y-105526247D02*
X132309523Y-105764342D01*
X132309523Y-105764342D02*
X132261904Y-105859580D01*
X132261904Y-105859580D02*
X132214285Y-105907200D01*
X132214285Y-105907200D02*
X132119047Y-105954819D01*
X132119047Y-105954819D02*
X131833333Y-105954819D01*
X131833333Y-105954819D02*
X131738095Y-105907200D01*
X131738095Y-105907200D02*
X131690476Y-105859580D01*
X134454819Y-98058299D02*
X134692914Y-98058299D01*
X134597676Y-98296394D02*
X134692914Y-98058299D01*
X134692914Y-98058299D02*
X134597676Y-97820204D01*
X134883390Y-98201156D02*
X134692914Y-98058299D01*
X134692914Y-98058299D02*
X134883390Y-97915442D01*
X135545180Y-98058300D02*
X135307085Y-98058300D01*
X135402323Y-97820205D02*
X135307085Y-98058300D01*
X135307085Y-98058300D02*
X135402323Y-98296395D01*
X135116609Y-97915443D02*
X135307085Y-98058300D01*
X135307085Y-98058300D02*
X135116609Y-98201157D01*
X140109580Y-75392857D02*
X140157200Y-75440476D01*
X140157200Y-75440476D02*
X140204819Y-75583333D01*
X140204819Y-75583333D02*
X140204819Y-75678571D01*
X140204819Y-75678571D02*
X140157200Y-75821428D01*
X140157200Y-75821428D02*
X140061961Y-75916666D01*
X140061961Y-75916666D02*
X139966723Y-75964285D01*
X139966723Y-75964285D02*
X139776247Y-76011904D01*
X139776247Y-76011904D02*
X139633390Y-76011904D01*
X139633390Y-76011904D02*
X139442914Y-75964285D01*
X139442914Y-75964285D02*
X139347676Y-75916666D01*
X139347676Y-75916666D02*
X139252438Y-75821428D01*
X139252438Y-75821428D02*
X139204819Y-75678571D01*
X139204819Y-75678571D02*
X139204819Y-75583333D01*
X139204819Y-75583333D02*
X139252438Y-75440476D01*
X139252438Y-75440476D02*
X139300057Y-75392857D01*
X139300057Y-75011904D02*
X139252438Y-74964285D01*
X139252438Y-74964285D02*
X139204819Y-74869047D01*
X139204819Y-74869047D02*
X139204819Y-74630952D01*
X139204819Y-74630952D02*
X139252438Y-74535714D01*
X139252438Y-74535714D02*
X139300057Y-74488095D01*
X139300057Y-74488095D02*
X139395295Y-74440476D01*
X139395295Y-74440476D02*
X139490533Y-74440476D01*
X139490533Y-74440476D02*
X139633390Y-74488095D01*
X139633390Y-74488095D02*
X140204819Y-75059523D01*
X140204819Y-75059523D02*
X140204819Y-74440476D01*
X139204819Y-73583333D02*
X139204819Y-73773809D01*
X139204819Y-73773809D02*
X139252438Y-73869047D01*
X139252438Y-73869047D02*
X139300057Y-73916666D01*
X139300057Y-73916666D02*
X139442914Y-74011904D01*
X139442914Y-74011904D02*
X139633390Y-74059523D01*
X139633390Y-74059523D02*
X140014342Y-74059523D01*
X140014342Y-74059523D02*
X140109580Y-74011904D01*
X140109580Y-74011904D02*
X140157200Y-73964285D01*
X140157200Y-73964285D02*
X140204819Y-73869047D01*
X140204819Y-73869047D02*
X140204819Y-73678571D01*
X140204819Y-73678571D02*
X140157200Y-73583333D01*
X140157200Y-73583333D02*
X140109580Y-73535714D01*
X140109580Y-73535714D02*
X140014342Y-73488095D01*
X140014342Y-73488095D02*
X139776247Y-73488095D01*
X139776247Y-73488095D02*
X139681009Y-73535714D01*
X139681009Y-73535714D02*
X139633390Y-73583333D01*
X139633390Y-73583333D02*
X139585771Y-73678571D01*
X139585771Y-73678571D02*
X139585771Y-73869047D01*
X139585771Y-73869047D02*
X139633390Y-73964285D01*
X139633390Y-73964285D02*
X139681009Y-74011904D01*
X139681009Y-74011904D02*
X139776247Y-74059523D01*
X134704819Y-108916666D02*
X134228628Y-109249999D01*
X134704819Y-109488094D02*
X133704819Y-109488094D01*
X133704819Y-109488094D02*
X133704819Y-109107142D01*
X133704819Y-109107142D02*
X133752438Y-109011904D01*
X133752438Y-109011904D02*
X133800057Y-108964285D01*
X133800057Y-108964285D02*
X133895295Y-108916666D01*
X133895295Y-108916666D02*
X134038152Y-108916666D01*
X134038152Y-108916666D02*
X134133390Y-108964285D01*
X134133390Y-108964285D02*
X134181009Y-109011904D01*
X134181009Y-109011904D02*
X134228628Y-109107142D01*
X134228628Y-109107142D02*
X134228628Y-109488094D01*
X134038152Y-108059523D02*
X134704819Y-108059523D01*
X133657200Y-108297618D02*
X134371485Y-108535713D01*
X134371485Y-108535713D02*
X134371485Y-107916666D01*
X160704819Y-81892857D02*
X160228628Y-82226190D01*
X160704819Y-82464285D02*
X159704819Y-82464285D01*
X159704819Y-82464285D02*
X159704819Y-82083333D01*
X159704819Y-82083333D02*
X159752438Y-81988095D01*
X159752438Y-81988095D02*
X159800057Y-81940476D01*
X159800057Y-81940476D02*
X159895295Y-81892857D01*
X159895295Y-81892857D02*
X160038152Y-81892857D01*
X160038152Y-81892857D02*
X160133390Y-81940476D01*
X160133390Y-81940476D02*
X160181009Y-81988095D01*
X160181009Y-81988095D02*
X160228628Y-82083333D01*
X160228628Y-82083333D02*
X160228628Y-82464285D01*
X160704819Y-80940476D02*
X160704819Y-81511904D01*
X160704819Y-81226190D02*
X159704819Y-81226190D01*
X159704819Y-81226190D02*
X159847676Y-81321428D01*
X159847676Y-81321428D02*
X159942914Y-81416666D01*
X159942914Y-81416666D02*
X159990533Y-81511904D01*
X159704819Y-80607142D02*
X159704819Y-79988095D01*
X159704819Y-79988095D02*
X160085771Y-80321428D01*
X160085771Y-80321428D02*
X160085771Y-80178571D01*
X160085771Y-80178571D02*
X160133390Y-80083333D01*
X160133390Y-80083333D02*
X160181009Y-80035714D01*
X160181009Y-80035714D02*
X160276247Y-79988095D01*
X160276247Y-79988095D02*
X160514342Y-79988095D01*
X160514342Y-79988095D02*
X160609580Y-80035714D01*
X160609580Y-80035714D02*
X160657200Y-80083333D01*
X160657200Y-80083333D02*
X160704819Y-80178571D01*
X160704819Y-80178571D02*
X160704819Y-80464285D01*
X160704819Y-80464285D02*
X160657200Y-80559523D01*
X160657200Y-80559523D02*
X160609580Y-80607142D01*
X127738095Y-85954819D02*
X127738095Y-86764342D01*
X127738095Y-86764342D02*
X127785714Y-86859580D01*
X127785714Y-86859580D02*
X127833333Y-86907200D01*
X127833333Y-86907200D02*
X127928571Y-86954819D01*
X127928571Y-86954819D02*
X128119047Y-86954819D01*
X128119047Y-86954819D02*
X128214285Y-86907200D01*
X128214285Y-86907200D02*
X128261904Y-86859580D01*
X128261904Y-86859580D02*
X128309523Y-86764342D01*
X128309523Y-86764342D02*
X128309523Y-85954819D01*
X129261904Y-85954819D02*
X128785714Y-85954819D01*
X128785714Y-85954819D02*
X128738095Y-86431009D01*
X128738095Y-86431009D02*
X128785714Y-86383390D01*
X128785714Y-86383390D02*
X128880952Y-86335771D01*
X128880952Y-86335771D02*
X129119047Y-86335771D01*
X129119047Y-86335771D02*
X129214285Y-86383390D01*
X129214285Y-86383390D02*
X129261904Y-86431009D01*
X129261904Y-86431009D02*
X129309523Y-86526247D01*
X129309523Y-86526247D02*
X129309523Y-86764342D01*
X129309523Y-86764342D02*
X129261904Y-86859580D01*
X129261904Y-86859580D02*
X129214285Y-86907200D01*
X129214285Y-86907200D02*
X129119047Y-86954819D01*
X129119047Y-86954819D02*
X128880952Y-86954819D01*
X128880952Y-86954819D02*
X128785714Y-86907200D01*
X128785714Y-86907200D02*
X128738095Y-86859580D01*
X162607142Y-86859580D02*
X162559523Y-86907200D01*
X162559523Y-86907200D02*
X162416666Y-86954819D01*
X162416666Y-86954819D02*
X162321428Y-86954819D01*
X162321428Y-86954819D02*
X162178571Y-86907200D01*
X162178571Y-86907200D02*
X162083333Y-86811961D01*
X162083333Y-86811961D02*
X162035714Y-86716723D01*
X162035714Y-86716723D02*
X161988095Y-86526247D01*
X161988095Y-86526247D02*
X161988095Y-86383390D01*
X161988095Y-86383390D02*
X162035714Y-86192914D01*
X162035714Y-86192914D02*
X162083333Y-86097676D01*
X162083333Y-86097676D02*
X162178571Y-86002438D01*
X162178571Y-86002438D02*
X162321428Y-85954819D01*
X162321428Y-85954819D02*
X162416666Y-85954819D01*
X162416666Y-85954819D02*
X162559523Y-86002438D01*
X162559523Y-86002438D02*
X162607142Y-86050057D01*
X163559523Y-86954819D02*
X162988095Y-86954819D01*
X163273809Y-86954819D02*
X163273809Y-85954819D01*
X163273809Y-85954819D02*
X163178571Y-86097676D01*
X163178571Y-86097676D02*
X163083333Y-86192914D01*
X163083333Y-86192914D02*
X162988095Y-86240533D01*
X164035714Y-86954819D02*
X164226190Y-86954819D01*
X164226190Y-86954819D02*
X164321428Y-86907200D01*
X164321428Y-86907200D02*
X164369047Y-86859580D01*
X164369047Y-86859580D02*
X164464285Y-86716723D01*
X164464285Y-86716723D02*
X164511904Y-86526247D01*
X164511904Y-86526247D02*
X164511904Y-86145295D01*
X164511904Y-86145295D02*
X164464285Y-86050057D01*
X164464285Y-86050057D02*
X164416666Y-86002438D01*
X164416666Y-86002438D02*
X164321428Y-85954819D01*
X164321428Y-85954819D02*
X164130952Y-85954819D01*
X164130952Y-85954819D02*
X164035714Y-86002438D01*
X164035714Y-86002438D02*
X163988095Y-86050057D01*
X163988095Y-86050057D02*
X163940476Y-86145295D01*
X163940476Y-86145295D02*
X163940476Y-86383390D01*
X163940476Y-86383390D02*
X163988095Y-86478628D01*
X163988095Y-86478628D02*
X164035714Y-86526247D01*
X164035714Y-86526247D02*
X164130952Y-86573866D01*
X164130952Y-86573866D02*
X164321428Y-86573866D01*
X164321428Y-86573866D02*
X164416666Y-86526247D01*
X164416666Y-86526247D02*
X164464285Y-86478628D01*
X164464285Y-86478628D02*
X164511904Y-86383390D01*
X137609580Y-109142857D02*
X137657200Y-109190476D01*
X137657200Y-109190476D02*
X137704819Y-109333333D01*
X137704819Y-109333333D02*
X137704819Y-109428571D01*
X137704819Y-109428571D02*
X137657200Y-109571428D01*
X137657200Y-109571428D02*
X137561961Y-109666666D01*
X137561961Y-109666666D02*
X137466723Y-109714285D01*
X137466723Y-109714285D02*
X137276247Y-109761904D01*
X137276247Y-109761904D02*
X137133390Y-109761904D01*
X137133390Y-109761904D02*
X136942914Y-109714285D01*
X136942914Y-109714285D02*
X136847676Y-109666666D01*
X136847676Y-109666666D02*
X136752438Y-109571428D01*
X136752438Y-109571428D02*
X136704819Y-109428571D01*
X136704819Y-109428571D02*
X136704819Y-109333333D01*
X136704819Y-109333333D02*
X136752438Y-109190476D01*
X136752438Y-109190476D02*
X136800057Y-109142857D01*
X137704819Y-108190476D02*
X137704819Y-108761904D01*
X137704819Y-108476190D02*
X136704819Y-108476190D01*
X136704819Y-108476190D02*
X136847676Y-108571428D01*
X136847676Y-108571428D02*
X136942914Y-108666666D01*
X136942914Y-108666666D02*
X136990533Y-108761904D01*
X137704819Y-107238095D02*
X137704819Y-107809523D01*
X137704819Y-107523809D02*
X136704819Y-107523809D01*
X136704819Y-107523809D02*
X136847676Y-107619047D01*
X136847676Y-107619047D02*
X136942914Y-107714285D01*
X136942914Y-107714285D02*
X136990533Y-107809523D01*
X160107142Y-109359580D02*
X160059523Y-109407200D01*
X160059523Y-109407200D02*
X159916666Y-109454819D01*
X159916666Y-109454819D02*
X159821428Y-109454819D01*
X159821428Y-109454819D02*
X159678571Y-109407200D01*
X159678571Y-109407200D02*
X159583333Y-109311961D01*
X159583333Y-109311961D02*
X159535714Y-109216723D01*
X159535714Y-109216723D02*
X159488095Y-109026247D01*
X159488095Y-109026247D02*
X159488095Y-108883390D01*
X159488095Y-108883390D02*
X159535714Y-108692914D01*
X159535714Y-108692914D02*
X159583333Y-108597676D01*
X159583333Y-108597676D02*
X159678571Y-108502438D01*
X159678571Y-108502438D02*
X159821428Y-108454819D01*
X159821428Y-108454819D02*
X159916666Y-108454819D01*
X159916666Y-108454819D02*
X160059523Y-108502438D01*
X160059523Y-108502438D02*
X160107142Y-108550057D01*
X160440476Y-108454819D02*
X161059523Y-108454819D01*
X161059523Y-108454819D02*
X160726190Y-108835771D01*
X160726190Y-108835771D02*
X160869047Y-108835771D01*
X160869047Y-108835771D02*
X160964285Y-108883390D01*
X160964285Y-108883390D02*
X161011904Y-108931009D01*
X161011904Y-108931009D02*
X161059523Y-109026247D01*
X161059523Y-109026247D02*
X161059523Y-109264342D01*
X161059523Y-109264342D02*
X161011904Y-109359580D01*
X161011904Y-109359580D02*
X160964285Y-109407200D01*
X160964285Y-109407200D02*
X160869047Y-109454819D01*
X160869047Y-109454819D02*
X160583333Y-109454819D01*
X160583333Y-109454819D02*
X160488095Y-109407200D01*
X160488095Y-109407200D02*
X160440476Y-109359580D01*
X161916666Y-108788152D02*
X161916666Y-109454819D01*
X161678571Y-108407200D02*
X161440476Y-109121485D01*
X161440476Y-109121485D02*
X162059523Y-109121485D01*
X135357142Y-72609580D02*
X135309523Y-72657200D01*
X135309523Y-72657200D02*
X135166666Y-72704819D01*
X135166666Y-72704819D02*
X135071428Y-72704819D01*
X135071428Y-72704819D02*
X134928571Y-72657200D01*
X134928571Y-72657200D02*
X134833333Y-72561961D01*
X134833333Y-72561961D02*
X134785714Y-72466723D01*
X134785714Y-72466723D02*
X134738095Y-72276247D01*
X134738095Y-72276247D02*
X134738095Y-72133390D01*
X134738095Y-72133390D02*
X134785714Y-71942914D01*
X134785714Y-71942914D02*
X134833333Y-71847676D01*
X134833333Y-71847676D02*
X134928571Y-71752438D01*
X134928571Y-71752438D02*
X135071428Y-71704819D01*
X135071428Y-71704819D02*
X135166666Y-71704819D01*
X135166666Y-71704819D02*
X135309523Y-71752438D01*
X135309523Y-71752438D02*
X135357142Y-71800057D01*
X135738095Y-71800057D02*
X135785714Y-71752438D01*
X135785714Y-71752438D02*
X135880952Y-71704819D01*
X135880952Y-71704819D02*
X136119047Y-71704819D01*
X136119047Y-71704819D02*
X136214285Y-71752438D01*
X136214285Y-71752438D02*
X136261904Y-71800057D01*
X136261904Y-71800057D02*
X136309523Y-71895295D01*
X136309523Y-71895295D02*
X136309523Y-71990533D01*
X136309523Y-71990533D02*
X136261904Y-72133390D01*
X136261904Y-72133390D02*
X135690476Y-72704819D01*
X135690476Y-72704819D02*
X136309523Y-72704819D01*
X136785714Y-72704819D02*
X136976190Y-72704819D01*
X136976190Y-72704819D02*
X137071428Y-72657200D01*
X137071428Y-72657200D02*
X137119047Y-72609580D01*
X137119047Y-72609580D02*
X137214285Y-72466723D01*
X137214285Y-72466723D02*
X137261904Y-72276247D01*
X137261904Y-72276247D02*
X137261904Y-71895295D01*
X137261904Y-71895295D02*
X137214285Y-71800057D01*
X137214285Y-71800057D02*
X137166666Y-71752438D01*
X137166666Y-71752438D02*
X137071428Y-71704819D01*
X137071428Y-71704819D02*
X136880952Y-71704819D01*
X136880952Y-71704819D02*
X136785714Y-71752438D01*
X136785714Y-71752438D02*
X136738095Y-71800057D01*
X136738095Y-71800057D02*
X136690476Y-71895295D01*
X136690476Y-71895295D02*
X136690476Y-72133390D01*
X136690476Y-72133390D02*
X136738095Y-72228628D01*
X136738095Y-72228628D02*
X136785714Y-72276247D01*
X136785714Y-72276247D02*
X136880952Y-72323866D01*
X136880952Y-72323866D02*
X137071428Y-72323866D01*
X137071428Y-72323866D02*
X137166666Y-72276247D01*
X137166666Y-72276247D02*
X137214285Y-72228628D01*
X137214285Y-72228628D02*
X137261904Y-72133390D01*
%TO.C,J2*%
D12*
X132497350Y-77745500D02*
X132497350Y-84044700D01*
X132497350Y-84044700D02*
X134007911Y-84044700D01*
X135333791Y-84044700D02*
X135707910Y-84044700D01*
X137033790Y-84044700D02*
X137407909Y-84044700D01*
X138733789Y-84044700D02*
X140244350Y-84044700D01*
X138795310Y-77745500D02*
X133946390Y-77745500D01*
X140244350Y-84044700D02*
X140244350Y-77745500D01*
D13*
X138451850Y-85495100D02*
G75*
G02*
X137689850Y-85495100I-381000J0D01*
G01*
X137689850Y-85495100D02*
G75*
G02*
X138451850Y-85495100I381000J0D01*
G01*
%TO.C,C1*%
D14*
X162153080Y-96490000D02*
X161871920Y-96490000D01*
X162153080Y-97510000D02*
X161871920Y-97510000D01*
%TO.C,R16*%
X141987258Y-76227500D02*
X141512742Y-76227500D01*
X141987258Y-77272500D02*
X141512742Y-77272500D01*
%TO.C,R9*%
X163890580Y-100990000D02*
X163609420Y-100990000D01*
X163890580Y-102010000D02*
X163609420Y-102010000D01*
%TO.C,R19*%
X142227500Y-73237258D02*
X142227500Y-72762742D01*
X143272500Y-73237258D02*
X143272500Y-72762742D01*
%TO.C,R11*%
X154977500Y-77737258D02*
X154977500Y-77262742D01*
X156022500Y-77737258D02*
X156022500Y-77262742D01*
%TO.C,U7*%
X140090000Y-118940000D02*
X141910000Y-118940000D01*
X140090000Y-118990000D02*
X140090000Y-118940000D01*
X140090000Y-122060000D02*
X140090000Y-122010000D01*
X141910000Y-118940000D02*
X141910000Y-118990000D01*
X141910000Y-122010000D02*
X141910000Y-122060000D01*
X141910000Y-122060000D02*
X140090000Y-122060000D01*
X139550000Y-118990000D02*
X139310000Y-118660000D01*
X139790000Y-118660000D01*
X139550000Y-118990000D01*
G36*
X139550000Y-118990000D02*
G01*
X139310000Y-118660000D01*
X139790000Y-118660000D01*
X139550000Y-118990000D01*
G37*
%TO.C,U4*%
X165695000Y-105000000D02*
X165695000Y-95000000D01*
X167085000Y-92350000D02*
X167085000Y-95000000D01*
X167085000Y-95000000D02*
X165695000Y-95000000D01*
X167085000Y-105000000D02*
X165695000Y-105000000D01*
X167085000Y-107650000D02*
X167085000Y-105000000D01*
X167305000Y-95000000D02*
X170445000Y-95000000D01*
X167305000Y-105000000D02*
X167305000Y-95000000D01*
X167305000Y-105000000D02*
X170445000Y-105000000D01*
X170445000Y-92350000D02*
X167085000Y-92350000D01*
X170445000Y-95000000D02*
X170445000Y-92350000D01*
X170445000Y-105000000D02*
X170445000Y-107650000D01*
X170445000Y-107650000D02*
X167085000Y-107650000D01*
%TO.C,C31*%
X167390580Y-115740000D02*
X167109420Y-115740000D01*
X167390580Y-116760000D02*
X167109420Y-116760000D01*
%TO.C,R8*%
X137227500Y-95762742D02*
X137227500Y-96237258D01*
X138272500Y-95762742D02*
X138272500Y-96237258D01*
%TO.C,C13*%
X163990000Y-106609420D02*
X163990000Y-106890580D01*
X165010000Y-106609420D02*
X165010000Y-106890580D01*
%TO.C,R12*%
X153477500Y-77262742D02*
X153477500Y-77737258D01*
X154522500Y-77262742D02*
X154522500Y-77737258D01*
%TO.C,R26*%
X132727500Y-94262742D02*
X132727500Y-94737258D01*
X133772500Y-94262742D02*
X133772500Y-94737258D01*
%TO.C,C24*%
X149090000Y-76203080D02*
X149090000Y-75921920D01*
X150110000Y-76203080D02*
X150110000Y-75921920D01*
%TO.C,R6*%
X125262742Y-98727500D02*
X125737258Y-98727500D01*
X125262742Y-99772500D02*
X125737258Y-99772500D01*
%TO.C,C8*%
X138240000Y-105359420D02*
X138240000Y-105640580D01*
X139260000Y-105359420D02*
X139260000Y-105640580D01*
%TO.C,C4*%
X162153080Y-94990000D02*
X161871920Y-94990000D01*
X162153080Y-96010000D02*
X161871920Y-96010000D01*
%TO.C,R25*%
X153477500Y-72262742D02*
X153477500Y-72737258D01*
X154522500Y-72262742D02*
X154522500Y-72737258D01*
%TO.C,U12*%
X144790000Y-76850000D02*
X144250000Y-76850000D01*
X144790000Y-79650000D02*
X144250000Y-79650000D01*
X145710000Y-76850000D02*
X146990000Y-76850000D01*
X145710000Y-79650000D02*
X146990000Y-79650000D01*
X147910000Y-76850000D02*
X148450000Y-76850000D01*
X147910000Y-79647393D02*
X148280000Y-79647393D01*
X148610000Y-79650000D02*
X148850000Y-79980000D01*
X148370000Y-79980000D01*
X148610000Y-79650000D01*
G36*
X148850000Y-79980000D02*
G01*
X148370000Y-79980000D01*
X148610000Y-79650000D01*
X148850000Y-79980000D01*
G37*
%TO.C,C14*%
X162490000Y-106609420D02*
X162490000Y-106890580D01*
X163510000Y-106609420D02*
X163510000Y-106890580D01*
%TO.C,U9*%
X134340000Y-73190000D02*
X136160000Y-73190000D01*
X134340000Y-73240000D02*
X134340000Y-73190000D01*
X134340000Y-75140000D02*
X134340000Y-74360000D01*
X134340000Y-76310000D02*
X134340000Y-76260000D01*
X136160000Y-73190000D02*
X136160000Y-73240000D01*
X136160000Y-76260000D02*
X136160000Y-76310000D01*
X136160000Y-76310000D02*
X134340000Y-76310000D01*
X136700000Y-76260000D02*
X136940000Y-76590000D01*
X136460000Y-76590000D01*
X136700000Y-76260000D01*
G36*
X136940000Y-76590000D02*
G01*
X136460000Y-76590000D01*
X136700000Y-76260000D01*
X136940000Y-76590000D01*
G37*
%TO.C,U10*%
X139140000Y-67640000D02*
X139615000Y-67640000D01*
X139140000Y-68115000D02*
X139140000Y-67640000D01*
X139140000Y-70860000D02*
X139140000Y-70385000D01*
X139615000Y-70860000D02*
X139140000Y-70860000D01*
X141885000Y-67640000D02*
X142360000Y-67640000D01*
X142360000Y-67640000D02*
X142360000Y-68115000D01*
X142360000Y-70385000D02*
X142360000Y-70860000D01*
X142360000Y-70860000D02*
X141885000Y-70860000D01*
X142890000Y-70000000D02*
X143220000Y-69760000D01*
X143220000Y-70240000D01*
X142890000Y-70000000D01*
G36*
X143220000Y-70240000D02*
G01*
X142890000Y-70000000D01*
X143220000Y-69760000D01*
X143220000Y-70240000D01*
G37*
%TO.C,R20*%
X140727500Y-73237258D02*
X140727500Y-72762742D01*
X141772500Y-73237258D02*
X141772500Y-72762742D01*
%TO.C,C12*%
X131140580Y-95490000D02*
X130859420Y-95490000D01*
X131140580Y-96510000D02*
X130859420Y-96510000D01*
%TO.C,F1*%
X156090000Y-122397936D02*
X156090000Y-123602064D01*
X157910000Y-122397936D02*
X157910000Y-123602064D01*
%TO.C,R15*%
X144487258Y-74727500D02*
X144012742Y-74727500D01*
X144487258Y-75772500D02*
X144012742Y-75772500D01*
%TO.C,C33*%
X162490000Y-111109420D02*
X162490000Y-111390580D01*
X163510000Y-111109420D02*
X163510000Y-111390580D01*
%TO.C,C3*%
X137490000Y-118640580D02*
X137490000Y-118359420D01*
X138510000Y-118640580D02*
X138510000Y-118359420D01*
%TO.C,C15*%
X163890580Y-103990000D02*
X163609420Y-103990000D01*
X163890580Y-105010000D02*
X163609420Y-105010000D01*
%TO.C,R17*%
X142977500Y-123987258D02*
X142977500Y-123512742D01*
X144022500Y-123987258D02*
X144022500Y-123512742D01*
%TO.C,C2*%
X137490000Y-122359420D02*
X137490000Y-122640580D01*
X138510000Y-122359420D02*
X138510000Y-122640580D01*
%TO.C,R22*%
X163977500Y-111012742D02*
X163977500Y-111487258D01*
X165022500Y-111012742D02*
X165022500Y-111487258D01*
%TO.C,C9*%
X131140580Y-96990000D02*
X130859420Y-96990000D01*
X131140580Y-98010000D02*
X130859420Y-98010000D01*
%TO.C,C7*%
X138240000Y-102640580D02*
X138240000Y-102359420D01*
X139260000Y-102640580D02*
X139260000Y-102359420D01*
%TO.C,C22*%
X165640580Y-82990000D02*
X165359420Y-82990000D01*
X165640580Y-84010000D02*
X165359420Y-84010000D01*
%TO.C,L1*%
X169390000Y-114352064D02*
X169390000Y-113147936D01*
X172110000Y-114352064D02*
X172110000Y-113147936D01*
%TO.C,C28*%
X131640580Y-75990000D02*
X131359420Y-75990000D01*
X131640580Y-77010000D02*
X131359420Y-77010000D01*
%TO.C,C16*%
X126109420Y-92990000D02*
X126390580Y-92990000D01*
X126109420Y-94010000D02*
X126390580Y-94010000D01*
%TO.C,C18*%
X166609420Y-74240000D02*
X166890580Y-74240000D01*
X166609420Y-75260000D02*
X166890580Y-75260000D01*
%TO.C,C23*%
X165640580Y-84490000D02*
X165359420Y-84490000D01*
X165640580Y-85510000D02*
X165359420Y-85510000D01*
%TO.C,C5*%
X136740000Y-102640580D02*
X136740000Y-102359420D01*
X137760000Y-102640580D02*
X137760000Y-102359420D01*
%TO.C,C21*%
X166609420Y-75740000D02*
X166890580Y-75740000D01*
X166609420Y-76760000D02*
X166890580Y-76760000D01*
%TO.C,C27*%
X147590000Y-75140580D02*
X147590000Y-74859420D01*
X148610000Y-75140580D02*
X148610000Y-74859420D01*
%TO.C,D1*%
X165640000Y-109000000D02*
X165640000Y-111000000D01*
X165640000Y-109000000D02*
X169650000Y-109000000D01*
X165640000Y-111000000D02*
X169650000Y-111000000D01*
%TO.C,R1*%
X138727500Y-93237258D02*
X138727500Y-92762742D01*
X139772500Y-93237258D02*
X139772500Y-92762742D01*
%TO.C,C30*%
X143240000Y-68640580D02*
X143240000Y-68359420D01*
X144260000Y-68640580D02*
X144260000Y-68359420D01*
%TO.C,R10*%
X135737258Y-94727500D02*
X135262742Y-94727500D01*
X135737258Y-95772500D02*
X135262742Y-95772500D01*
%TO.C,C17*%
X135359420Y-96240000D02*
X135640580Y-96240000D01*
X135359420Y-97260000D02*
X135640580Y-97260000D01*
%TO.C,C6*%
X163752500Y-93390580D02*
X163752500Y-93109420D01*
X164772500Y-93390580D02*
X164772500Y-93109420D01*
%TO.C,R7*%
X125262742Y-100227500D02*
X125737258Y-100227500D01*
X125262742Y-101272500D02*
X125737258Y-101272500D01*
%TO.C,R14*%
X141762742Y-78727500D02*
X142237258Y-78727500D01*
X141762742Y-79772500D02*
X142237258Y-79772500D01*
%TO.C,U1*%
D10*
X165750000Y-90840000D02*
X167150000Y-90840000D01*
X167150000Y-87240000D02*
X165750000Y-87240000D01*
X167150000Y-90840000D02*
X167450000Y-90540000D01*
X167450000Y-87540000D02*
X167150000Y-87240000D01*
X167450000Y-90540000D02*
X167450000Y-87540000D01*
%TO.C,R5*%
D14*
X135227500Y-106012742D02*
X135227500Y-106487258D01*
X136272500Y-106012742D02*
X136272500Y-106487258D01*
%TO.C,C25*%
X158490000Y-124140580D02*
X158490000Y-123859420D01*
X159510000Y-124140580D02*
X159510000Y-123859420D01*
%TO.C,C20*%
X161240000Y-84109420D02*
X161240000Y-84390580D01*
X162260000Y-84109420D02*
X162260000Y-84390580D01*
%TO.C,Q1*%
X134840000Y-86440000D02*
X136660000Y-86440000D01*
X134840000Y-87440000D02*
X134840000Y-86440000D01*
X134840000Y-89560000D02*
X134840000Y-88560000D01*
X136660000Y-86440000D02*
X136660000Y-86490000D01*
X136660000Y-87610000D02*
X136660000Y-88390000D01*
X136660000Y-89510000D02*
X136660000Y-89560000D01*
X136660000Y-89560000D02*
X134840000Y-89560000D01*
X137200000Y-88380000D02*
X136960000Y-88050000D01*
X137440000Y-88050000D01*
X137200000Y-88380000D01*
G36*
X137200000Y-88380000D02*
G01*
X136960000Y-88050000D01*
X137440000Y-88050000D01*
X137200000Y-88380000D01*
G37*
%TO.C,C32*%
X137160000Y-69939420D02*
X137160000Y-70220580D01*
X138180000Y-69939420D02*
X138180000Y-70220580D01*
%TO.C,U2*%
X160900000Y-92150000D02*
X161400000Y-92150000D01*
X160900000Y-92650000D02*
X160900000Y-92150000D01*
X160900000Y-93850000D02*
X160900000Y-93850000D01*
X160900000Y-94350000D02*
X160900000Y-93850000D01*
X161400000Y-92150000D02*
X161400000Y-92150000D01*
X161400000Y-94350000D02*
X160900000Y-94350000D01*
X162600000Y-92150000D02*
X162900000Y-92150000D01*
X162600000Y-94350000D02*
X162600000Y-94350000D01*
X163100000Y-92150000D02*
X163100000Y-92150000D01*
X163100000Y-92650000D02*
X163100000Y-92350000D01*
X163100000Y-93850000D02*
X163100000Y-94350000D01*
X163100000Y-94350000D02*
X162600000Y-94350000D01*
X163100000Y-92150000D02*
X163100000Y-91790000D01*
X163460000Y-92150000D01*
X163100000Y-92150000D01*
G36*
X163460000Y-92150000D02*
G01*
X163100000Y-92150000D01*
X163100000Y-91790000D01*
X163460000Y-92150000D01*
G37*
%TO.C,J3*%
D12*
X144640600Y-121673300D02*
X144640600Y-124857379D01*
X144640600Y-126343221D02*
X144640600Y-127050000D01*
X144905997Y-121673300D02*
X144640600Y-121673300D01*
X155359400Y-121673300D02*
X155094003Y-121673300D01*
X155359400Y-124857379D02*
X155359400Y-121673300D01*
X155359400Y-127050000D02*
X155359400Y-126343221D01*
%TO.C,R2*%
D14*
X163987258Y-89227500D02*
X163512742Y-89227500D01*
X163987258Y-90272500D02*
X163512742Y-90272500D01*
%TO.C,R23*%
X163977500Y-114012742D02*
X163977500Y-114487258D01*
X165022500Y-114012742D02*
X165022500Y-114487258D01*
%TO.C,R21*%
X144262742Y-70227500D02*
X144737258Y-70227500D01*
X144262742Y-71272500D02*
X144737258Y-71272500D01*
%TO.C,R24*%
X154977500Y-72262742D02*
X154977500Y-72737258D01*
X156022500Y-72262742D02*
X156022500Y-72737258D01*
%TO.C,R3*%
X163987258Y-87727500D02*
X163512742Y-87727500D01*
X163987258Y-88772500D02*
X163512742Y-88772500D01*
%TO.C,C10*%
X163890580Y-102490000D02*
X163609420Y-102490000D01*
X163890580Y-103510000D02*
X163609420Y-103510000D01*
%TO.C,U6*%
X163295000Y-77610000D02*
X163520000Y-77610000D01*
X163295000Y-77835000D02*
X163295000Y-77610000D01*
X163295000Y-81830000D02*
X163295000Y-81605000D01*
X163520000Y-81830000D02*
X163295000Y-81830000D01*
X167290000Y-77610000D02*
X167515000Y-77610000D01*
X167515000Y-77610000D02*
X167515000Y-77835000D01*
X167515000Y-81605000D02*
X167515000Y-81830000D01*
X167515000Y-81830000D02*
X167290000Y-81830000D01*
X163905000Y-82360000D02*
X164145000Y-82690000D01*
X163665000Y-82690000D01*
X163905000Y-82360000D01*
G36*
X164145000Y-82690000D02*
G01*
X163665000Y-82690000D01*
X163905000Y-82360000D01*
X164145000Y-82690000D01*
G37*
%TO.C,U11*%
X165690000Y-112340000D02*
X165740000Y-112340000D01*
X165690000Y-114160000D02*
X165690000Y-112340000D01*
X165740000Y-114160000D02*
X165690000Y-114160000D01*
X167640000Y-114160000D02*
X166860000Y-114160000D01*
X168760000Y-112340000D02*
X168810000Y-112340000D01*
X168810000Y-112340000D02*
X168810000Y-114160000D01*
X168810000Y-114160000D02*
X168760000Y-114160000D01*
X168760000Y-111800000D02*
X169090000Y-111560000D01*
X169090000Y-112040000D01*
X168760000Y-111800000D01*
G36*
X169090000Y-112040000D02*
G01*
X168760000Y-111800000D01*
X169090000Y-111560000D01*
X169090000Y-112040000D01*
G37*
%TO.C,J1*%
X151230000Y-65480000D02*
X151865000Y-65480000D01*
X151865000Y-65480000D02*
X151865000Y-66115000D01*
%TO.C,R18*%
X157487258Y-119227500D02*
X157012742Y-119227500D01*
X157487258Y-120272500D02*
X157012742Y-120272500D01*
%TO.C,U3*%
D12*
X130621100Y-98871100D02*
X130621100Y-99540260D01*
X130621100Y-103459740D02*
X130621100Y-104128900D01*
X130621100Y-104128900D02*
X131290260Y-104128900D01*
X131290260Y-98871100D02*
X130621100Y-98871100D01*
X135209740Y-104128900D02*
X135878900Y-104128900D01*
X135878900Y-98871100D02*
X135209740Y-98871100D01*
X135878900Y-99540260D02*
X135878900Y-98871100D01*
X135878900Y-104128900D02*
X135878900Y-103459740D01*
D15*
G36*
X130189300Y-101190501D02*
G01*
X129935300Y-101190501D01*
X129935300Y-100809501D01*
X130189300Y-100809501D01*
X130189300Y-101190501D01*
G37*
G36*
X134440501Y-104814700D02*
G01*
X134059501Y-104814700D01*
X134059501Y-104560700D01*
X134440501Y-104560700D01*
X134440501Y-104814700D01*
G37*
%TO.C,C26*%
D14*
X137740000Y-74890580D02*
X137740000Y-74609420D01*
X138760000Y-74890580D02*
X138760000Y-74609420D01*
%TO.C,R4*%
X133727500Y-106487258D02*
X133727500Y-106012742D01*
X134772500Y-106487258D02*
X134772500Y-106012742D01*
%TO.C,R13*%
X159727500Y-84012742D02*
X159727500Y-84487258D01*
X160772500Y-84012742D02*
X160772500Y-84487258D01*
%TO.C,U5*%
X126440000Y-87440000D02*
X130560000Y-87440000D01*
X126440000Y-87535000D02*
X126440000Y-87440000D01*
X126440000Y-92560000D02*
X126440000Y-92465000D01*
X130560000Y-87440000D02*
X130560000Y-87535000D01*
X130560000Y-92465000D02*
X130560000Y-92560000D01*
X130560000Y-92560000D02*
X126440000Y-92560000D01*
X131100000Y-92470000D02*
X131340000Y-92800000D01*
X130860000Y-92800000D01*
X131100000Y-92470000D01*
G36*
X131340000Y-92800000D02*
G01*
X130860000Y-92800000D01*
X131100000Y-92470000D01*
X131340000Y-92800000D01*
G37*
%TO.C,C19*%
X162740000Y-84109420D02*
X162740000Y-84390580D01*
X163760000Y-84109420D02*
X163760000Y-84390580D01*
%TO.C,C11*%
X136740000Y-105359420D02*
X136740000Y-105640580D01*
X137760000Y-105359420D02*
X137760000Y-105640580D01*
%TO.C,C34*%
X163890580Y-108490000D02*
X163609420Y-108490000D01*
X163890580Y-109510000D02*
X163609420Y-109510000D01*
%TO.C,C29*%
X139060580Y-71820000D02*
X138779420Y-71820000D01*
X139060580Y-72840000D02*
X138779420Y-72840000D01*
%TD*%
M02*
